<svg xmlns="http://www.w3.org/2000/svg" xmlns:svg="http://www.w3.org/2000/svg" id="svg33972" width="701.12" height="252.16" version="1.1" viewBox="0 0 701.12 252.16" xml:space="preserve"><metadata id="metadata33978"/><defs id="defs33976"><clipPath id="clipPath33992" clipPathUnits="userSpaceOnUse"><path id="path33990" d="m 335,46 h 78 v 52 h -78 z"/></clipPath><clipPath id="clipPath34006" clipPathUnits="userSpaceOnUse"><path id="path34004" d="m 334,45 h 80 v 54 h -80 z"/></clipPath><clipPath id="clipPath34020" clipPathUnits="userSpaceOnUse"><path id="path34018" d="m 321,113 h 81 v 47 h -81 z"/></clipPath><clipPath id="clipPath34034" clipPathUnits="userSpaceOnUse"><path id="path34032" d="m 320,112 h 83 v 49 h -83 z"/></clipPath><clipPath id="clipPath34050" clipPathUnits="userSpaceOnUse"><path id="path34048" d="m 438,155 h 54 v 14 h -54 z"/></clipPath><clipPath id="clipPath34070" clipPathUnits="userSpaceOnUse"><path id="path34068" d="m 129,148 h 101 v 15 H 129 Z"/></clipPath><clipPath id="clipPath34086" clipPathUnits="userSpaceOnUse"><path id="path34084" d="m 128,131 h 65 v 15 h -65 z"/></clipPath><clipPath id="clipPath34102" clipPathUnits="userSpaceOnUse"><path id="path34100" d="m 117,59 h 44 v 11 h -44 z"/></clipPath><clipPath id="clipPath34118" clipPathUnits="userSpaceOnUse"><path id="path34116" d="m 117,39 h 84 v 15 h -84 z"/></clipPath><clipPath id="clipPath34134" clipPathUnits="userSpaceOnUse"><path id="path34132" d="M 117,24 H 217 V 37 H 117 Z"/></clipPath><clipPath id="clipPath34150" clipPathUnits="userSpaceOnUse"><path id="path34148" d="m 117,5 h 61 v 15 h -61 z"/></clipPath><clipPath id="clipPath34168" clipPathUnits="userSpaceOnUse"><path id="path34166" d="m 416,92 h 65 v 15 h -65 z"/></clipPath><clipPath id="clipPath34184" clipPathUnits="userSpaceOnUse"><path id="path34182" d="m 415,71 h 85 v 15 h -85 z"/></clipPath><clipPath id="clipPath34200" clipPathUnits="userSpaceOnUse"><path id="path34198" d="m 415,52 h 54 v 12 h -54 z"/></clipPath><clipPath id="clipPath34216" clipPathUnits="userSpaceOnUse"><path id="path34214" d="m 415,36 h 51 v 11 h -51 z"/></clipPath><clipPath id="clipPath34232" clipPathUnits="userSpaceOnUse"><path id="path34230" d="m 415,15 h 76 v 15 h -76 z"/></clipPath><clipPath id="clipPath34250" clipPathUnits="userSpaceOnUse"><path id="path34248" d="m 45,100 h 32 v 14 H 45 Z"/></clipPath><clipPath id="clipPath34268" clipPathUnits="userSpaceOnUse"><path id="path34266" d="m 247,111 h 47 v 14 h -47 z"/></clipPath><clipPath id="clipPath34284" clipPathUnits="userSpaceOnUse"><path id="path34282" d="m 233,89 h 74 v 15 h -74 z"/></clipPath></defs><g id="g33980" transform="matrix(1.3333333,0,0,-1.3333333,0,252.15999)"><g id="g33982"><g id="g33984" transform="translate(0,-0.880005)"><g id="g33986"><g id="g33988" clip-path="url(#clipPath33992)"><g id="g33994"><path style="fill:#ffc000;fill-opacity:1;fill-rule:evenodd;stroke:none" id="path33996" d="m 407.66,46.512 -60.531,38.379 -2.527,-4 -8.731,16.73 18.859,-0.762 -2.539,-3.988 60.528,-38.383 z"/></g></g></g></g><g id="g33998" transform="translate(0,-0.880005)"><g id="g34000"><g id="g34002" clip-path="url(#clipPath34006)"><g id="g34008"><path style="fill:none;stroke:#000;stroke-width:1.5;stroke-linecap:butt;stroke-linejoin:miter;stroke-miterlimit:10;stroke-dasharray:none;stroke-opacity:1" id="path34010" d="m 407.66,46.512 -60.531,38.379 -2.527,-4 -8.731,16.73 18.859,-0.762 -2.539,-3.988 60.528,-38.383 z"/></g></g></g></g><g id="g34012" transform="translate(0,-0.880005)"><g id="g34014"><g id="g34016" clip-path="url(#clipPath34020)"><g id="g34022"><path style="fill:#ff0;fill-opacity:1;fill-rule:evenodd;stroke:none" id="path34024" d="m 321.5,121.461 63.102,33.98 -2.243,4.168 18.86,-0.578 -9.891,-16.07 -2.25,4.16 -63.09,-33.992 z"/></g></g></g></g><g id="g34026" transform="translate(0,-0.880005)"><g id="g34028"><g id="g34030" clip-path="url(#clipPath34034)"><g id="g34036"><path style="fill:none;stroke:#000;stroke-width:1.5;stroke-linecap:butt;stroke-linejoin:miter;stroke-miterlimit:10;stroke-dasharray:none;stroke-opacity:1" id="path34038" d="m 321.5,121.461 63.102,33.98 -2.243,4.168 18.86,-0.578 -9.891,-16.07 -2.25,4.16 -63.09,-33.992 z"/></g></g></g></g><path style="fill:#fff;fill-opacity:1;fill-rule:evenodd;stroke:#000;stroke-width:1.55999994;stroke-linecap:butt;stroke-linejoin:miter;stroke-miterlimit:10;stroke-dasharray:none;stroke-opacity:1" id="path34040" d="m 404.34,176.589 c 0,6.492 5.262,11.75 11.75,11.75 h 97.219 c 6.492,0 11.75,-5.258 11.75,-11.75 V 147.05 c 0,-6.489 -5.258,-11.75 -11.75,-11.75 H 416.09 c -6.488,0 -11.75,5.261 -11.75,11.75 z"/><g id="g34042" transform="translate(0,-0.880005)"><g id="g34044"><g id="g34046" clip-path="url(#clipPath34050)"><g id="g34052"><text style="font-variant:normal;font-weight:400;font-size:18px;font-family:'Segoe UI';-inkscape-font-specification:SegoeUI;writing-mode:lr-tb;fill:#000;fill-opacity:1;fill-rule:nonzero;stroke:none" id="text34056" transform="matrix(1,0,0,-1,436.94,155.99)"><tspan id="tspan34054" x="0 15.552 25.92 31.536 41.832 48.078" y="0">Motors</tspan></text></g></g></g></g><path style="fill:#ff0;fill-opacity:1;fill-rule:evenodd;stroke:#000;stroke-width:1.55999994;stroke-linecap:butt;stroke-linejoin:miter;stroke-miterlimit:10;stroke-dasharray:none;stroke-opacity:1" id="path34058" d="m 117.898,122.069 h 71.692 v 4.711 l 16.269,-9.422 -16.269,-9.418 v 4.711 h -71.692 z"/><path style="fill:#ffc000;fill-opacity:1;fill-rule:evenodd;stroke:#000;stroke-width:1.55999994;stroke-linecap:butt;stroke-linejoin:miter;stroke-miterlimit:10;stroke-dasharray:none;stroke-opacity:1" id="path34060" d="m 212.461,89.37 h -71.813 v -4.711 l -16.269,9.422 16.269,9.418 v -4.707 h 71.813 z"/><g id="g34062" transform="translate(0,-0.880005)"><g id="g34064"><g id="g34066" clip-path="url(#clipPath34070)"><g id="g34072"><text style="font-variant:normal;font-weight:400;font-size:14.03999996px;font-family:'Segoe UI';-inkscape-font-specification:SegoeUI;writing-mode:lr-tb;fill:#000;fill-opacity:1;fill-rule:nonzero;stroke:none" id="text34076" transform="matrix(1,0,0,-1,128.66,151.91)"><tspan id="tspan34074" x="0 8.747 16.778 28.529 40.281 47.329 55.051 63.04 68.768 72.348 76.448 83.65 86.683 94.756 97.789 100.948" y="0">Commands (e.g.,</tspan></text></g></g></g></g><g id="g34078" transform="translate(0,-0.880005)"><g id="g34080"><g id="g34082" clip-path="url(#clipPath34086)"><g id="g34088"><text style="font-variant:normal;font-weight:400;font-size:14.03999996px;font-family:'Segoe UI';-inkscape-font-specification:SegoeUI;writing-mode:lr-tb;fill:#000;fill-opacity:1;fill-rule:nonzero;stroke:none" id="text34092" transform="matrix(1,0,0,-1,128.66,135.11)"><tspan id="tspan34090" x="0 9.814 16.89 23.447 31.492 39.523 42.668 50.319 54.77 60.47" y="0">waypoints)</tspan></text></g></g></g></g><g id="g34094" transform="translate(0,-0.880005)"><g id="g34096"><g id="g34098" clip-path="url(#clipPath34102)"><g id="g34104"><text style="font-variant:normal;font-weight:400;font-size:14.03999996px;font-family:'Segoe UI';-inkscape-font-specification:SegoeUI;writing-mode:lr-tb;fill:#000;fill-opacity:1;fill-rule:nonzero;stroke:none" id="text34108" transform="matrix(1,0,0,-1,117.02,59.54)"><tspan id="tspan34106" x="0 7.217 14.419 22.057 27.799 35.002 43.047" y="0">Sensed</tspan></text></g></g></g></g><g id="g34110" transform="translate(0,-0.880005)"><g id="g34112"><g id="g34114" clip-path="url(#clipPath34118)"><g id="g34120"><text style="font-variant:normal;font-weight:400;font-size:14.03999996px;font-family:'Segoe UI';-inkscape-font-specification:SegoeUI;writing-mode:lr-tb;fill:#000;fill-opacity:1;fill-rule:nonzero;stroke:none" id="text34124" transform="matrix(1,0,0,-1,117.02,42.74)"><tspan id="tspan34122" x="0 6.346 14.377 22.043 26.114 29.259 37.262 44.928 49.688 56.778 61.228 64.317 72.348 80.014 83.103" y="0">configuration,</tspan></text></g></g></g></g><g id="g34126" transform="translate(0,-0.880005)"><g id="g34128"><g id="g34130" clip-path="url(#clipPath34134)"><g id="g34136"><text style="font-variant:normal;font-weight:400;font-size:14.03999996px;font-family:'Segoe UI';-inkscape-font-specification:SegoeUI;writing-mode:lr-tb;fill:#000;fill-opacity:1;fill-rule:nonzero;stroke:none" id="text34140" transform="matrix(1,0,0,-1,117.02,25.94)"><tspan id="tspan34138" x="0 6.346 14.377 22.043 26.493 31.028 39.059 42.204 45.279 52.482 57.241 61.2 66.943 71.393 78.413 82.864 90.53 96.272 99.361" y="0">controller status,</tspan></text></g></g></g></g><g id="g34142" transform="translate(0,-0.880005)"><g id="g34144"><g id="g34146" clip-path="url(#clipPath34150)"><g id="g34152"><text style="font-variant:normal;font-weight:400;font-size:14.06400013px;font-family:'Segoe UI';-inkscape-font-specification:SegoeUI;writing-mode:lr-tb;fill:#000;fill-opacity:1;fill-rule:nonzero;stroke:none" id="text34156" transform="matrix(1,0,0,-1,117.02,9.14)"><tspan id="tspan34154" x="0 7.215 11.968 16.525 24.57 29.323 33.163 37.227 40.378 47.41 55.468" y="0">error flags</tspan></text></g></g></g></g><path style="fill:#fff;fill-opacity:1;fill-rule:evenodd;stroke:#000;stroke-width:1.55999994;stroke-linecap:butt;stroke-linejoin:miter;stroke-miterlimit:10;stroke-dasharray:none;stroke-opacity:1" id="path34158" d="m 404.34,108.979 c 0,6.653 5.39,12.039 12.039,12.039 h 96.641 c 6.652,0 12.039,-5.386 12.039,-12.039 V 12.819 C 525.059,6.171 519.672,0.78 513.02,0.78 h -96.641 c -6.649,0 -12.039,5.391 -12.039,12.039 z"/><g id="g34160" transform="translate(0,-0.880005)"><g id="g34162"><g id="g34164" clip-path="url(#clipPath34168)"><g id="g34170"><text style="font-variant:normal;font-weight:400;font-size:15.98400021px;font-family:'Segoe UI';-inkscape-font-specification:SegoeUI;writing-mode:lr-tb;fill:#000;fill-opacity:1;fill-rule:nonzero;stroke:none" id="text34174" transform="matrix(1,0,0,-1,415.03,94.22)"><tspan id="tspan34172" x="0 8.024 16.799 23.96 33.103 42.182 50.334 55.816 62.306 65.758" y="0">Encoders,</tspan></text></g></g></g></g><g id="g34176" transform="translate(0,-0.880005)"><g id="g34178"><g id="g34180" clip-path="url(#clipPath34184)"><g id="g34186"><text style="font-variant:normal;font-weight:400;font-size:15.96000004px;font-family:'Segoe UI';-inkscape-font-specification:SegoeUI;writing-mode:lr-tb;fill:#000;fill-opacity:1;fill-rule:nonzero;stroke:none" id="text34190" transform="matrix(1,0,0,-1,415.03,74.99)"><tspan id="tspan34188" x="0 4.9 13.087 26.51 35.591 43.778 49.125 57.121 62.18 70.958 76.081 84.269" y="0">temperature</tspan></text></g></g></g></g><g id="g34192" transform="translate(0,-0.880005)"><g id="g34194"><g id="g34196" clip-path="url(#clipPath34200)"><g id="g34202"><text style="font-variant:normal;font-weight:400;font-size:15.96000004px;font-family:'Segoe UI';-inkscape-font-specification:SegoeUI;writing-mode:lr-tb;fill:#000;fill-opacity:1;fill-rule:nonzero;stroke:none" id="text34206" transform="matrix(1,0,0,-1,415.03,55.79)"><tspan id="tspan34204" x="0 9.145 17.125 25.903 34.984 43.172 49.636 53.083" y="0">gauges,</tspan></text></g></g></g></g><g id="g34208" transform="translate(0,-0.880005)"><g id="g34210"><g id="g34212" clip-path="url(#clipPath34216)"><g id="g34218"><text style="font-variant:normal;font-weight:400;font-size:15.96000004px;font-family:'Segoe UI';-inkscape-font-specification:SegoeUI;writing-mode:lr-tb;fill:#000;fill-opacity:1;fill-rule:nonzero;stroke:none" id="text34222" transform="matrix(1,0,0,-1,415.03,36.59)"><tspan id="tspan34220" x="0 7.214 16.295 25.057 30.069 38.065 45.279 50.338" y="0">contact</tspan></text></g></g></g></g><g id="g34224" transform="translate(0,-0.880005)"><g id="g34226"><g id="g34228" clip-path="url(#clipPath34232)"><g id="g34234"><text style="font-variant:normal;font-weight:400;font-size:15.96000004px;font-family:'Segoe UI';-inkscape-font-specification:SegoeUI;writing-mode:lr-tb;fill:#000;fill-opacity:1;fill-rule:nonzero;stroke:none" id="text34238" transform="matrix(1,0,0,-1,415.03,17.39)"><tspan id="tspan34236" x="0 6.48 17.636 21.211 26.015 33.229 41.943 50.13 56.61 60.057 64.798" y="0">switches, …</tspan></text></g></g></g></g><path style="fill:#fff;fill-opacity:1;fill-rule:evenodd;stroke:#000;stroke-width:1.55999994;stroke-linecap:butt;stroke-linejoin:miter;stroke-miterlimit:10;stroke-dasharray:none;stroke-opacity:1" id="path34240" d="m 0.781,124.518 c 0,4.891 3.965,8.864 8.86,8.864 h 103 c 4.89,0 8.859,-3.973 8.859,-8.864 V 89.081 c 0,-4.891 -3.969,-8.859 -8.859,-8.859 h -103 c -4.895,0 -8.86,3.968 -8.86,8.859 z"/><g id="g34242" transform="translate(0,-0.880005)"><g id="g34244"><g id="g34246" clip-path="url(#clipPath34250)"><g id="g34252"><text style="font-variant:normal;font-weight:400;font-size:18px;font-family:'Segoe UI';-inkscape-font-specification:SegoeUI;writing-mode:lr-tb;fill:#000;fill-opacity:1;fill-rule:nonzero;stroke:none" id="text34256" transform="matrix(1,0,0,-1,44.5,101.01)"><tspan id="tspan34254" x="0 11.142 21.096" y="0">CPU</tspan></text></g></g></g></g><path style="fill:#bdd7ee;fill-opacity:1;fill-rule:evenodd;stroke:#000;stroke-width:1.55999994;stroke-linecap:butt;stroke-linejoin:miter;stroke-miterlimit:10;stroke-dasharray:none;stroke-opacity:1" id="path34258" d="m 209.461,124.518 c 0,4.891 3.969,8.864 8.859,8.864 h 103 c 4.891,0 8.86,-3.973 8.86,-8.864 V 89.081 c 0,-4.891 -3.969,-8.859 -8.86,-8.859 h -103 c -4.89,0 -8.859,3.968 -8.859,8.859 z"/><g id="g34260" transform="translate(0,-0.880005)"><g id="g34262"><g id="g34264" clip-path="url(#clipPath34268)"><g id="g34270"><text style="font-variant:normal;font-weight:400;font-size:18px;font-family:'Segoe UI';-inkscape-font-specification:SegoeUI;writing-mode:lr-tb;fill:#000;fill-opacity:1;fill-rule:nonzero;stroke:none" id="text34274" transform="matrix(1,0,0,-1,245.81,111.81)"><tspan id="tspan34272" x="0 15.552 25.848 31.554 41.85 47.952" y="0">Motor</tspan></text></g></g></g></g><g id="g34276" transform="translate(0,-0.880005)"><g id="g34278"><g id="g34280" clip-path="url(#clipPath34284)"><g id="g34286"><text style="font-variant:normal;font-weight:400;font-size:18px;font-family:'Segoe UI';-inkscape-font-specification:SegoeUI;writing-mode:lr-tb;fill:#000;fill-opacity:1;fill-rule:nonzero;stroke:none" id="text34290" transform="matrix(1,0,0,-1,232.85,90.21)"><tspan id="tspan34288" x="0 8.136 18.432 28.368 34.074 39.996 50.292 54.324 58.428 67.662" y="0">controller</tspan></text></g></g></g></g></g></g></svg>