<svg xmlns="http://www.w3.org/2000/svg" xmlns:svg="http://www.w3.org/2000/svg" id="svg60804" width="576" height="576" version="1.1" viewBox="0 0 576 576" xml:space="preserve"><metadata id="metadata60810"/><defs id="defs60808"><clipPath id="clipPath61014" clipPathUnits="userSpaceOnUse"><path id="path61012" d="M 54,47.52 H 388.8 V 380.16 H 54 Z"/></clipPath><clipPath id="clipPath61024" clipPathUnits="userSpaceOnUse"><path id="path61022" d="M 54,47.52 H 388.8 V 380.16 H 54 Z"/></clipPath><clipPath id="clipPath61034" clipPathUnits="userSpaceOnUse"><path id="path61032" d="M 54,47.52 H 388.8 V 380.16 H 54 Z"/></clipPath></defs><g id="g60812" transform="matrix(1.3333333,0,0,-1.3333333,0,576)"><path style="fill:#fff;fill-opacity:1;fill-rule:nonzero;stroke:none" id="path60814" d="M 0,0 H 432 V 432 H 0 Z"/><path style="fill:#fff;fill-opacity:1;fill-rule:nonzero;stroke:none" id="path60816" d="M 54,47.52 H 388.8 V 380.16 H 54 Z"/><path style="fill:#000;fill-opacity:1;fill-rule:nonzero;stroke:#000;stroke-width:.80000001;stroke-linecap:butt;stroke-linejoin:round;stroke-miterlimit:10;stroke-dasharray:none;stroke-opacity:1" id="path60818" d="m 87.403923,47.52 v -3.5"/><text style="font-variant:normal;font-weight:400;font-size:15.94022369px;font-family:'Computer Modern';-inkscape-font-specification:CMR12;writing-mode:lr-tb;fill:#000;fill-opacity:1;fill-rule:nonzero;stroke:none" id="text60822" transform="matrix(1,0,0,-1,83.50193,29.450412)"><tspan id="tspan60820" x="0" y="0">1</tspan></text><path style="fill:#000;fill-opacity:1;fill-rule:nonzero;stroke:#000;stroke-width:.80000001;stroke-linecap:butt;stroke-linejoin:round;stroke-miterlimit:10;stroke-dasharray:none;stroke-opacity:1" id="path60824" d="m 146.30076,47.52 v -3.5"/><text style="font-variant:normal;font-weight:400;font-size:15.94022369px;font-family:'Computer Modern';-inkscape-font-specification:CMR12;writing-mode:lr-tb;fill:#000;fill-opacity:1;fill-rule:nonzero;stroke:none" id="text60828" transform="matrix(1,0,0,-1,142.39877,29.450412)"><tspan id="tspan60826" x="0" y="0">2</tspan></text><path style="fill:#000;fill-opacity:1;fill-rule:nonzero;stroke:#000;stroke-width:.80000001;stroke-linecap:butt;stroke-linejoin:round;stroke-miterlimit:10;stroke-dasharray:none;stroke-opacity:1" id="path60830" d="m 205.1976,47.52 v -3.5"/><text style="font-variant:normal;font-weight:400;font-size:15.94022369px;font-family:'Computer Modern';-inkscape-font-specification:CMR12;writing-mode:lr-tb;fill:#000;fill-opacity:1;fill-rule:nonzero;stroke:none" id="text60834" transform="matrix(1,0,0,-1,201.29561,29.450412)"><tspan id="tspan60832" x="0" y="0">3</tspan></text><path style="fill:#000;fill-opacity:1;fill-rule:nonzero;stroke:#000;stroke-width:.80000001;stroke-linecap:butt;stroke-linejoin:round;stroke-miterlimit:10;stroke-dasharray:none;stroke-opacity:1" id="path60836" d="m 264.09444,47.52 v -3.5"/><text style="font-variant:normal;font-weight:400;font-size:15.94022369px;font-family:'Computer Modern';-inkscape-font-specification:CMR12;writing-mode:lr-tb;fill:#000;fill-opacity:1;fill-rule:nonzero;stroke:none" id="text60840" transform="matrix(1,0,0,-1,260.19245,29.450412)"><tspan id="tspan60838" x="0" y="0">4</tspan></text><path style="fill:#000;fill-opacity:1;fill-rule:nonzero;stroke:#000;stroke-width:.80000001;stroke-linecap:butt;stroke-linejoin:round;stroke-miterlimit:10;stroke-dasharray:none;stroke-opacity:1" id="path60842" d="m 322.99128,47.52 v -3.5"/><text style="font-variant:normal;font-weight:400;font-size:15.94022369px;font-family:'Computer Modern';-inkscape-font-specification:CMR12;writing-mode:lr-tb;fill:#000;fill-opacity:1;fill-rule:nonzero;stroke:none" id="text60846" transform="matrix(1,0,0,-1,319.08929,29.450412)"><tspan id="tspan60844" x="0" y="0">5</tspan></text><path style="fill:#000;fill-opacity:1;fill-rule:nonzero;stroke:#000;stroke-width:.80000001;stroke-linecap:butt;stroke-linejoin:round;stroke-miterlimit:10;stroke-dasharray:none;stroke-opacity:1" id="path60848" d="m 381.88812,47.52 v -3.5"/><text style="font-variant:normal;font-weight:400;font-size:15.94022369px;font-family:'Computer Modern';-inkscape-font-specification:CMR12;writing-mode:lr-tb;fill:#000;fill-opacity:1;fill-rule:nonzero;stroke:none" id="text60852" transform="matrix(1,0,0,-1,377.98613,29.450412)"><tspan id="tspan60850" x="0" y="0">6</tspan></text><text style="font-style:italic;font-variant:normal;font-weight:400;font-size:9.96263981px;font-family:'Computer Modern';-inkscape-font-specification:CMMI10;writing-mode:lr-tb;fill:#000;fill-opacity:1;fill-rule:nonzero;stroke:none" id="text60856" transform="matrix(1,0,0,-1,211.77866,15.432437)"><tspan id="tspan60854" x="0 5.738 10.371 13.968" y="0">heta</tspan></text><path style="fill:#000;fill-opacity:1;fill-rule:nonzero;stroke:#000;stroke-width:.80000001;stroke-linecap:butt;stroke-linejoin:round;stroke-miterlimit:10;stroke-dasharray:none;stroke-opacity:1" id="path60858" d="M 54,47.52 H 50.5"/><text style="font-style:italic;font-variant:normal;font-weight:400;font-size:15.94022369px;font-family:'Computer Modern';-inkscape-font-specification:CMSY10;writing-mode:lr-tb;fill:#000;fill-opacity:1;fill-rule:nonzero;stroke:none" id="text60862" transform="matrix(1,0,0,-1,6.8544946,41.985206)"><tspan id="tspan60860" x="0" y="0">−</tspan></text><text style="font-variant:normal;font-weight:400;font-size:15.94022369px;font-family:'Computer Modern';-inkscape-font-specification:CMR12;writing-mode:lr-tb;fill:#000;fill-opacity:1;fill-rule:nonzero;stroke:none" id="text60866" transform="matrix(1,0,0,-1,19.252491,41.985206)"><tspan id="tspan60864" x="0 7.795" y="0">10</tspan></text><text style="font-style:italic;font-variant:normal;font-weight:400;font-size:15.94022369px;font-family:'Computer Modern';-inkscape-font-specification:CMMI12;writing-mode:lr-tb;fill:#000;fill-opacity:1;fill-rule:nonzero;stroke:none" id="text60870" transform="matrix(1,0,0,-1,34.860465,41.985206)"><tspan id="tspan60868" x="0" y="0">.</tspan></text><text style="font-variant:normal;font-weight:400;font-size:15.94022369px;font-family:'Computer Modern';-inkscape-font-specification:CMR12;writing-mode:lr-tb;fill:#000;fill-opacity:1;fill-rule:nonzero;stroke:none" id="text60874" transform="matrix(1,0,0,-1,39.196013,41.985206)"><tspan id="tspan60872" x="0" y="0">0</tspan></text><path style="fill:#000;fill-opacity:1;fill-rule:nonzero;stroke:#000;stroke-width:.80000001;stroke-linecap:butt;stroke-linejoin:round;stroke-miterlimit:10;stroke-dasharray:none;stroke-opacity:1" id="path60876" d="M 54,89.1 H 50.5"/><text style="font-style:italic;font-variant:normal;font-weight:400;font-size:15.94022369px;font-family:'Computer Modern';-inkscape-font-specification:CMSY10;writing-mode:lr-tb;fill:#000;fill-opacity:1;fill-rule:nonzero;stroke:none" id="text60880" transform="matrix(1,0,0,-1,14.658482,83.565206)"><tspan id="tspan60878" x="0" y="0">−</tspan></text><text style="font-variant:normal;font-weight:400;font-size:15.94022369px;font-family:'Computer Modern';-inkscape-font-specification:CMR12;writing-mode:lr-tb;fill:#000;fill-opacity:1;fill-rule:nonzero;stroke:none" id="text60884" transform="matrix(1,0,0,-1,27.056478,83.565206)"><tspan id="tspan60882" x="0" y="0">7</tspan></text><text style="font-style:italic;font-variant:normal;font-weight:400;font-size:15.94022369px;font-family:'Computer Modern';-inkscape-font-specification:CMMI12;writing-mode:lr-tb;fill:#000;fill-opacity:1;fill-rule:nonzero;stroke:none" id="text60888" transform="matrix(1,0,0,-1,34.860465,83.565206)"><tspan id="tspan60886" x="0" y="0">.</tspan></text><text style="font-variant:normal;font-weight:400;font-size:15.94022369px;font-family:'Computer Modern';-inkscape-font-specification:CMR12;writing-mode:lr-tb;fill:#000;fill-opacity:1;fill-rule:nonzero;stroke:none" id="text60892" transform="matrix(1,0,0,-1,39.196013,83.565206)"><tspan id="tspan60890" x="0" y="0">5</tspan></text><path style="fill:#000;fill-opacity:1;fill-rule:nonzero;stroke:#000;stroke-width:.80000001;stroke-linecap:butt;stroke-linejoin:round;stroke-miterlimit:10;stroke-dasharray:none;stroke-opacity:1" id="path60894" d="M 54,130.68 H 50.5"/><text style="font-style:italic;font-variant:normal;font-weight:400;font-size:15.94022369px;font-family:'Computer Modern';-inkscape-font-specification:CMSY10;writing-mode:lr-tb;fill:#000;fill-opacity:1;fill-rule:nonzero;stroke:none" id="text60898" transform="matrix(1,0,0,-1,14.658482,125.14521)"><tspan id="tspan60896" x="0" y="0">−</tspan></text><text style="font-variant:normal;font-weight:400;font-size:15.94022369px;font-family:'Computer Modern';-inkscape-font-specification:CMR12;writing-mode:lr-tb;fill:#000;fill-opacity:1;fill-rule:nonzero;stroke:none" id="text60902" transform="matrix(1,0,0,-1,27.056478,125.14521)"><tspan id="tspan60900" x="0" y="0">5</tspan></text><text style="font-style:italic;font-variant:normal;font-weight:400;font-size:15.94022369px;font-family:'Computer Modern';-inkscape-font-specification:CMMI12;writing-mode:lr-tb;fill:#000;fill-opacity:1;fill-rule:nonzero;stroke:none" id="text60906" transform="matrix(1,0,0,-1,34.860465,125.14521)"><tspan id="tspan60904" x="0" y="0">.</tspan></text><text style="font-variant:normal;font-weight:400;font-size:15.94022369px;font-family:'Computer Modern';-inkscape-font-specification:CMR12;writing-mode:lr-tb;fill:#000;fill-opacity:1;fill-rule:nonzero;stroke:none" id="text60910" transform="matrix(1,0,0,-1,39.196013,125.14521)"><tspan id="tspan60908" x="0" y="0">0</tspan></text><path style="fill:#000;fill-opacity:1;fill-rule:nonzero;stroke:#000;stroke-width:.80000001;stroke-linecap:butt;stroke-linejoin:round;stroke-miterlimit:10;stroke-dasharray:none;stroke-opacity:1" id="path60912" d="M 54,172.26 H 50.5"/><text style="font-style:italic;font-variant:normal;font-weight:400;font-size:15.94022369px;font-family:'Computer Modern';-inkscape-font-specification:CMSY10;writing-mode:lr-tb;fill:#000;fill-opacity:1;fill-rule:nonzero;stroke:none" id="text60916" transform="matrix(1,0,0,-1,14.658482,166.72521)"><tspan id="tspan60914" x="0" y="0">−</tspan></text><text style="font-variant:normal;font-weight:400;font-size:15.94022369px;font-family:'Computer Modern';-inkscape-font-specification:CMR12;writing-mode:lr-tb;fill:#000;fill-opacity:1;fill-rule:nonzero;stroke:none" id="text60920" transform="matrix(1,0,0,-1,27.056478,166.72521)"><tspan id="tspan60918" x="0" y="0">2</tspan></text><text style="font-style:italic;font-variant:normal;font-weight:400;font-size:15.94022369px;font-family:'Computer Modern';-inkscape-font-specification:CMMI12;writing-mode:lr-tb;fill:#000;fill-opacity:1;fill-rule:nonzero;stroke:none" id="text60924" transform="matrix(1,0,0,-1,34.860465,166.72521)"><tspan id="tspan60922" x="0" y="0">.</tspan></text><text style="font-variant:normal;font-weight:400;font-size:15.94022369px;font-family:'Computer Modern';-inkscape-font-specification:CMR12;writing-mode:lr-tb;fill:#000;fill-opacity:1;fill-rule:nonzero;stroke:none" id="text60928" transform="matrix(1,0,0,-1,39.196013,166.72521)"><tspan id="tspan60926" x="0" y="0">5</tspan></text><path style="fill:#000;fill-opacity:1;fill-rule:nonzero;stroke:#000;stroke-width:.80000001;stroke-linecap:butt;stroke-linejoin:round;stroke-miterlimit:10;stroke-dasharray:none;stroke-opacity:1" id="path60930" d="M 54,213.84 H 50.5"/><text style="font-variant:normal;font-weight:400;font-size:15.94022369px;font-family:'Computer Modern';-inkscape-font-specification:CMR12;writing-mode:lr-tb;fill:#000;fill-opacity:1;fill-rule:nonzero;stroke:none" id="text60934" transform="matrix(1,0,0,-1,27.056478,208.30521)"><tspan id="tspan60932" x="0" y="0">0</tspan></text><text style="font-style:italic;font-variant:normal;font-weight:400;font-size:15.94022369px;font-family:'Computer Modern';-inkscape-font-specification:CMMI12;writing-mode:lr-tb;fill:#000;fill-opacity:1;fill-rule:nonzero;stroke:none" id="text60938" transform="matrix(1,0,0,-1,34.860465,208.30521)"><tspan id="tspan60936" x="0" y="0">.</tspan></text><text style="font-variant:normal;font-weight:400;font-size:15.94022369px;font-family:'Computer Modern';-inkscape-font-specification:CMR12;writing-mode:lr-tb;fill:#000;fill-opacity:1;fill-rule:nonzero;stroke:none" id="text60942" transform="matrix(1,0,0,-1,39.196013,208.30521)"><tspan id="tspan60940" x="0" y="0">0</tspan></text><path style="fill:#000;fill-opacity:1;fill-rule:nonzero;stroke:#000;stroke-width:.80000001;stroke-linecap:butt;stroke-linejoin:round;stroke-miterlimit:10;stroke-dasharray:none;stroke-opacity:1" id="path60944" d="M 54,255.42 H 50.5"/><text style="font-variant:normal;font-weight:400;font-size:15.94022369px;font-family:'Computer Modern';-inkscape-font-specification:CMR12;writing-mode:lr-tb;fill:#000;fill-opacity:1;fill-rule:nonzero;stroke:none" id="text60948" transform="matrix(1,0,0,-1,27.056478,249.88521)"><tspan id="tspan60946" x="0" y="0">2</tspan></text><text style="font-style:italic;font-variant:normal;font-weight:400;font-size:15.94022369px;font-family:'Computer Modern';-inkscape-font-specification:CMMI12;writing-mode:lr-tb;fill:#000;fill-opacity:1;fill-rule:nonzero;stroke:none" id="text60952" transform="matrix(1,0,0,-1,34.860465,249.88521)"><tspan id="tspan60950" x="0" y="0">.</tspan></text><text style="font-variant:normal;font-weight:400;font-size:15.94022369px;font-family:'Computer Modern';-inkscape-font-specification:CMR12;writing-mode:lr-tb;fill:#000;fill-opacity:1;fill-rule:nonzero;stroke:none" id="text60956" transform="matrix(1,0,0,-1,39.196013,249.88521)"><tspan id="tspan60954" x="0" y="0">5</tspan></text><path style="fill:#000;fill-opacity:1;fill-rule:nonzero;stroke:#000;stroke-width:.80000001;stroke-linecap:butt;stroke-linejoin:round;stroke-miterlimit:10;stroke-dasharray:none;stroke-opacity:1" id="path60958" d="M 54,297 H 50.5"/><text style="font-variant:normal;font-weight:400;font-size:15.94022369px;font-family:'Computer Modern';-inkscape-font-specification:CMR12;writing-mode:lr-tb;fill:#000;fill-opacity:1;fill-rule:nonzero;stroke:none" id="text60962" transform="matrix(1,0,0,-1,27.056478,291.46521)"><tspan id="tspan60960" x="0" y="0">5</tspan></text><text style="font-style:italic;font-variant:normal;font-weight:400;font-size:15.94022369px;font-family:'Computer Modern';-inkscape-font-specification:CMMI12;writing-mode:lr-tb;fill:#000;fill-opacity:1;fill-rule:nonzero;stroke:none" id="text60966" transform="matrix(1,0,0,-1,34.860465,291.46521)"><tspan id="tspan60964" x="0" y="0">.</tspan></text><text style="font-variant:normal;font-weight:400;font-size:15.94022369px;font-family:'Computer Modern';-inkscape-font-specification:CMR12;writing-mode:lr-tb;fill:#000;fill-opacity:1;fill-rule:nonzero;stroke:none" id="text60970" transform="matrix(1,0,0,-1,39.196013,291.46521)"><tspan id="tspan60968" x="0" y="0">0</tspan></text><path style="fill:#000;fill-opacity:1;fill-rule:nonzero;stroke:#000;stroke-width:.80000001;stroke-linecap:butt;stroke-linejoin:round;stroke-miterlimit:10;stroke-dasharray:none;stroke-opacity:1" id="path60972" d="M 54,338.58 H 50.5"/><text style="font-variant:normal;font-weight:400;font-size:15.94022369px;font-family:'Computer Modern';-inkscape-font-specification:CMR12;writing-mode:lr-tb;fill:#000;fill-opacity:1;fill-rule:nonzero;stroke:none" id="text60976" transform="matrix(1,0,0,-1,27.056478,333.04521)"><tspan id="tspan60974" x="0" y="0">7</tspan></text><text style="font-style:italic;font-variant:normal;font-weight:400;font-size:15.94022369px;font-family:'Computer Modern';-inkscape-font-specification:CMMI12;writing-mode:lr-tb;fill:#000;fill-opacity:1;fill-rule:nonzero;stroke:none" id="text60980" transform="matrix(1,0,0,-1,34.860465,333.04521)"><tspan id="tspan60978" x="0" y="0">.</tspan></text><text style="font-variant:normal;font-weight:400;font-size:15.94022369px;font-family:'Computer Modern';-inkscape-font-specification:CMR12;writing-mode:lr-tb;fill:#000;fill-opacity:1;fill-rule:nonzero;stroke:none" id="text60984" transform="matrix(1,0,0,-1,39.196013,333.04521)"><tspan id="tspan60982" x="0" y="0">5</tspan></text><path style="fill:#000;fill-opacity:1;fill-rule:nonzero;stroke:#000;stroke-width:.80000001;stroke-linecap:butt;stroke-linejoin:round;stroke-miterlimit:10;stroke-dasharray:none;stroke-opacity:1" id="path60986" d="M 54,380.16 H 50.5"/><text style="font-variant:normal;font-weight:400;font-size:15.94022369px;font-family:'Computer Modern';-inkscape-font-specification:CMR12;writing-mode:lr-tb;fill:#000;fill-opacity:1;fill-rule:nonzero;stroke:none" id="text60990" transform="matrix(1,0,0,-1,19.252491,374.62521)"><tspan id="tspan60988" x="0 7.795" y="0">10</tspan></text><text style="font-style:italic;font-variant:normal;font-weight:400;font-size:15.94022369px;font-family:'Computer Modern';-inkscape-font-specification:CMMI12;writing-mode:lr-tb;fill:#000;fill-opacity:1;fill-rule:nonzero;stroke:none" id="text60994" transform="matrix(1,0,0,-1,34.860465,374.62521)"><tspan id="tspan60992" x="0" y="0">.</tspan></text><text style="font-variant:normal;font-weight:400;font-size:15.94022369px;font-family:'Computer Modern';-inkscape-font-specification:CMR12;writing-mode:lr-tb;fill:#000;fill-opacity:1;fill-rule:nonzero;stroke:none" id="text60998" transform="matrix(1,0,0,-1,39.196013,374.62521)"><tspan id="tspan60996" x="0" y="0">0</tspan></text><text style="font-variant:normal;font-weight:400;font-size:9.96263981px;font-family:'Computer Modern';-inkscape-font-specification:CMR10;writing-mode:lr-tb;fill:#000;fill-opacity:1;fill-rule:nonzero;stroke:none" id="text61002" transform="matrix(0,1,1,0,-1.7117256,212.4563)"><tspan id="tspan61000" x="0" y="0">˙</tspan></text><text style="font-style:italic;font-variant:normal;font-weight:400;font-size:9.96263981px;font-family:'Computer Modern';-inkscape-font-specification:CMMI10;writing-mode:lr-tb;fill:#000;fill-opacity:1;fill-rule:nonzero;stroke:none" id="text61006" transform="matrix(0,1,1,0,0.91731629,204.21866)"><tspan id="tspan61004" x="0 5.738 10.371 13.968" y="0">heta</tspan></text><g id="g61008"><g id="g61010" clip-path="url(#clipPath61014)"><path style="fill:none;stroke:#000;stroke-width:1.5;stroke-linecap:square;stroke-linejoin:round;stroke-miterlimit:10;stroke-dasharray:none;stroke-opacity:1" id="path61016" d="m 306.0519,213.84 -0.10718,-4.65577 -0.33784,-4.64747 -0.56789,-4.63025 -0.79688,-4.60411 -1.02436,-4.56917 -1.24991,-4.52547 -1.47311,-4.47314 -1.6935,-4.41237 -1.91069,-4.34337 -2.12429,-4.26643 -2.33388,-4.18192 -2.53913,-4.0903 -2.73968,-3.99211 -2.93522,-3.88801 -2.89578,-3.47865 -2.57152,-2.72812 -2.67406,-2.51751 -2.7684,-2.30751 -2.85458,-2.09892 -2.93268,-1.89252 -3.00279,-1.6891 -3.34649,-1.61502 -3.41058,-1.38313 -3.46495,-1.15796 -3.50988,-0.94038 -3.54574,-0.73117 -3.87159,-0.56653 -3.89288,-0.34394 -4.20474,-0.13636 -4.20621,0.0899 -4.49603,0.32783 -4.4731,0.54625 -4.73359,0.79919 -4.97368,1.06588 -5.18992,1.33932 -5.37923,1.61207 -5.81242,1.97447 -6.1904,2.34155 -6.76097,2.8061 -7.22993,3.24965 -8.04722,3.871 -9.08549,4.62787 -10.76716,5.74422 -14.4675,7.99036 -22.80723,12.87463 -12.769285,7.41702 -7.442513,4.56784 -5.342653,3.5298 -4.115944,2.9771 -3.229625,2.60008 -2.57133,2.34662 -2.000997,2.11668 -1.531051,1.934 -1.113574,1.75756 -0.735591,1.56048 -0.424044,1.39897 -0.154999,1.26439 0.08341,1.11116 0.291211,0.98272 0.493794,0.88553 0.700842,0.79145 0.918184,0.69387 1.165479,0.59446 1.447836,0.48027 1.7614,0.34182 2.112946,0.17607 2.498361,-0.0205 2.953693,-0.25205 3.517406,-0.53054 4.309727,-0.88495 6.437157,-1.5785 6.02401,-1.40802 1.5329,-0.27717 v 0"/></g></g><g id="g61018"><g id="g61020" clip-path="url(#clipPath61024)"><path style="fill:none;stroke:green;stroke-width:1.5;stroke-linecap:butt;stroke-linejoin:round;stroke-miterlimit:10;stroke-dasharray:5.6,2.4;stroke-dashoffset:0;stroke-opacity:1" id="path61026" d="m 306.0519,213.84 -0.10331,-2.24294 -0.31719,-2.22751 -0.55244,-2.27672 -0.77589,-2.22553 -0.99343,-2.15727 -1.20342,-2.07249 -1.40422,-1.97191 -1.59434,-1.85641 -1.77234,-1.72705 -1.93689,-1.58506 -2.16392,-1.48001 -2.30732,-1.30491 -2.43227,-1.12103 -2.53799,-0.9304 -2.71566,-0.75703 -2.78523,-0.54553 -2.92727,-0.34142 -2.95285,-0.11804 -2.95416,0.10021 -3.02583,0.32446 -2.97719,0.53862 -2.99434,0.76665 -2.89329,0.96607 -2.85164,1.18667 -2.69832,1.36241 -2.52492,1.51934 -2.33373,1.65765 -2.12695,1.77791 -1.90669,1.88099 -1.67499,1.96791 -1.39506,1.97888 -1.16058,2.03379 -0.89605,2.01342 -0.66612,2.04385 -0.4233,2.00007 -0.20305,2.01151 0.018,2.01496 0.23905,2.01047 0.45916,1.99797 0.67747,1.97718 0.92539,2.00997 1.15098,1.96845 1.41759,1.97495 1.64464,1.90637 1.86287,1.82395 2.13653,1.77731 2.34365,1.65681 2.53522,1.5182 2.70901,1.36088 2.86274,1.18463 2.90446,0.96352 3.00587,0.7634 2.9887,0.53469 3.0376,0.31964 3.06153,0.094 2.9641,-0.13188 2.93772,-0.35653 2.79447,-0.56136 2.72391,-0.77402 2.63085,-0.98403 2.43397,-1.14601 2.30706,-1.33056 2.16163,-1.50616 1.99869,-1.67087 1.75987,-1.75764 1.57931,-1.88654 1.38664,-2.00138 1.18331,-2.1011 0.97084,-2.18484 0.75086,-2.25187 0.51025,-2.21878 0.11027,-0.66399 0.0516,0.33241 0.47098,2.22569 0.68193,2.18289 0.92485,2.20185 1.1395,2.12218 1.34546,2.02628 1.54118,1.91499 1.72516,1.78932 1.89604,1.65043 2.05258,1.49968 2.27439,1.38329 2.40749,1.20086 2.52143,1.01083 2.70723,0.83996 2.78555,0.62726 2.84121,0.41357 2.97035,0.20443 2.98092,-0.0179 3.06266,-0.24457 3.02278,-0.46454 3.04976,-0.69685 2.95648,-0.90329 2.92399,-1.12947 2.7771,-1.31281 2.60925,-1.47712 2.42272,-1.6225 2.21977,-1.74944 2.00258,-1.85873 1.77321,-1.95137 1.49202,-1.96785 1.25856,-2.02734 0.99155,-2.01118 0.76168,-2.04533 0.51551,-2.00487 0.29458,-2.01954 0.0725,-2.02619 -0.14999,-2.02493 -0.37186,-2.01578 -0.5923,-1.99851 -0.84014,-2.0359 -1.0689,-1.99864 -1.29286,-1.95082 -1.56143,-1.94967 -1.78507,-1.87325 -2.06277,-1.83479 -2.27723,-1.72134 -2.47698,-1.58998 -2.65985,-1.43996 -2.82352,-1.27084 -2.87669,-1.05366 -2.98897,-0.85937 -3.07762,-0.64899 -3.045,-0.41457 -3.07983,-0.1914 -2.99243,0.0363 -2.97656,0.26092 -2.842,0.46994 -2.78104,0.68482 -2.69731,0.89818 -2.50666,1.06726 -2.38761,1.25692 -2.24945,1.43848 -2.02374,1.55171 -1.86266,1.70078 -1.68738,1.8376 -1.49917,1.96084 -1.29943,2.06935 -1.08968,2.16216 -0.87151,2.23846 -0.62743,2.21474 -0.11053,0.49806 -0.0531,-0.24926 -0.59604,-2.22056 -0.80608,-2.16844 -1.01042,-2.10083 -1.256,-2.09125 -1.45847,-1.98651 -1.64984,-1.86675 -1.82865,-1.73306 -1.9936,-1.58671 -2.14347,-1.42917 -2.36085,-1.30389 -2.48551,-1.11589 -2.5905,-0.92131 -2.76879,-0.74366 -2.83675,-0.52845 -2.88183,-0.31344 -3.00113,-0.10089 -3.0004,0.1203 -3.0711,0.34781 -3.01969,0.56416 -3.03503,0.79479 -2.93061,0.99552 -2.88645,1.21786 -0.57546,0.27324 v 0"/></g></g><g id="g61028"><g id="g61030" clip-path="url(#clipPath61034)"><path style="fill:none;stroke:red;stroke-width:1.5;stroke-linecap:butt;stroke-linejoin:round;stroke-miterlimit:10;stroke-dasharray:2.2,2.2;stroke-dashoffset:0;stroke-opacity:1" id="path61036" d="m 91.573603,213.84 0.109812,0.51824 0.318167,0.42027 0.556811,0.35046 0.881871,0.27741 1.333888,0.17145 1.950765,0.012 2.930335,-0.22284 10.207218,-1.06374 v 0"/></g></g><g id="g61038"><path style="fill:none;stroke:#000;stroke-width:.80000001;stroke-linecap:square;stroke-linejoin:miter;stroke-miterlimit:10;stroke-dasharray:none;stroke-opacity:1" id="path61040" d="M 54,47.52 V 380.16"/><path style="fill:none;stroke:#000;stroke-width:.80000001;stroke-linecap:square;stroke-linejoin:miter;stroke-miterlimit:10;stroke-dasharray:none;stroke-opacity:1" id="path61042" d="M 388.8,47.52 V 380.16"/><path style="fill:none;stroke:#000;stroke-width:.80000001;stroke-linecap:square;stroke-linejoin:miter;stroke-miterlimit:10;stroke-dasharray:none;stroke-opacity:1" id="path61044" d="M 54,47.52 H 388.8"/><path style="fill:none;stroke:#000;stroke-width:.80000001;stroke-linecap:square;stroke-linejoin:miter;stroke-miterlimit:10;stroke-dasharray:none;stroke-opacity:1" id="path61046" d="M 54,380.16 H 388.8"/><path style="fill:#fff;fill-opacity:.8;fill-rule:nonzero;stroke:#ccc;stroke-width:1;stroke-linecap:butt;stroke-linejoin:miter;stroke-miterlimit:10;stroke-dasharray:none;stroke-opacity:.8" id="path61048" d="M 269.97422,330.34847 H 381.8 c 1.33333,0 2,0.66666 2,2 V 373.16 c 0,1.33333 -0.66667,2 -2,2 H 269.97422 c -1.33333,0 -2,-0.66667 -2,-2 v -40.81153 c 0,-1.33334 0.66667,-2 2,-2 z"/><path style="fill:none;stroke:#000;stroke-width:1.5;stroke-linecap:square;stroke-linejoin:round;stroke-miterlimit:10;stroke-dasharray:none;stroke-opacity:1" id="path61050" d="m 271.97422,367.66 h 20"/><text style="font-variant:normal;font-weight:400;font-size:9.96263981px;font-family:'Computer Modern';-inkscape-font-specification:CMSS10;writing-mode:lr-tb;fill:#000;fill-opacity:1;fill-rule:nonzero;stroke:none" id="text61054" transform="matrix(1,0,0,-1,299.97422,364.16)"><tspan id="tspan61052" x="0 5.141 13.051 17.833 22.426 30.167 35.148" y="0">umax=20</tspan></text><path style="fill:none;stroke:green;stroke-width:1.5;stroke-linecap:butt;stroke-linejoin:round;stroke-miterlimit:10;stroke-dasharray:5.6,2.4;stroke-dashoffset:0;stroke-opacity:1" id="path61056" d="m 271.97422,353.72282 h 20"/><text style="font-variant:normal;font-weight:400;font-size:9.96263981px;font-family:'Computer Modern';-inkscape-font-specification:CMSS10;writing-mode:lr-tb;fill:#000;fill-opacity:1;fill-rule:nonzero;stroke:none" id="text61060" transform="matrix(1,0,0,-1,299.97422,350.22282)"><tspan id="tspan61058" x="0 5.141 13.051 17.833 22.426 30.167" y="0">umax=5</tspan></text><path style="fill:none;stroke:red;stroke-width:1.5;stroke-linecap:butt;stroke-linejoin:round;stroke-miterlimit:10;stroke-dasharray:2.2,2.2;stroke-dashoffset:0;stroke-opacity:1" id="path61062" d="m 271.97422,339.78564 h 20"/><text style="font-variant:normal;font-weight:400;font-size:9.96263981px;font-family:'Computer Modern';-inkscape-font-specification:CMSS10;writing-mode:lr-tb;fill:#000;fill-opacity:1;fill-rule:nonzero;stroke:none" id="text61066" transform="matrix(1,0,0,-1,299.97422,336.28564)"><tspan id="tspan61064" x="0 5.141 13.051 17.833 22.426 30.167 38.469 42.285 45.881 50.663 55.804 58.175 60.546 62.917 67.241 69.612 74.753" y="0">umax=5stabilizing</tspan></text></g></g></svg>