<svg xmlns="http://www.w3.org/2000/svg" xmlns:svg="http://www.w3.org/2000/svg" id="svg105173" width="614.4" height="460.8" version="1.1" viewBox="0 0 614.4 460.8" xml:space="preserve"><metadata id="metadata105179"/><defs id="defs105177"><clipPath id="clipPath105193" clipPathUnits="userSpaceOnUse"><path id="path105191" d="M 57.6,38.016 H 414.72 V 304.128 H 57.6 Z"/></clipPath><clipPath id="clipPath105203" clipPathUnits="userSpaceOnUse"><path id="path105201" d="M 57.6,38.016 H 414.72 V 304.128 H 57.6 Z"/></clipPath><clipPath id="clipPath105213" clipPathUnits="userSpaceOnUse"><path id="path105211" d="M 57.6,38.016 H 414.72 V 304.128 H 57.6 Z"/></clipPath><clipPath id="clipPath105223" clipPathUnits="userSpaceOnUse"><path id="path105221" d="M 57.6,38.016 H 414.72 V 304.128 H 57.6 Z"/></clipPath><clipPath id="clipPath105233" clipPathUnits="userSpaceOnUse"><path id="path105231" d="M 57.6,38.016 H 414.72 V 304.128 H 57.6 Z"/></clipPath><clipPath id="clipPath105243" clipPathUnits="userSpaceOnUse"><path id="path105241" d="M 57.6,38.016 H 414.72 V 304.128 H 57.6 Z"/></clipPath><clipPath id="clipPath105291" clipPathUnits="userSpaceOnUse"><path id="path105289" d="M 57.6,38.016 H 414.72 V 304.128 H 57.6 Z"/></clipPath><clipPath id="clipPath105313" clipPathUnits="userSpaceOnUse"><path id="path105311" d="M -1021,-463 H 1794 V 1233 H -1021 Z"/></clipPath><clipPath id="clipPath105323" clipPathUnits="userSpaceOnUse"><path id="path105321" d="M 57.6,38.016 H 414.72 V 304.128 H 57.6 Z"/></clipPath><clipPath id="clipPath105341" clipPathUnits="userSpaceOnUse"><path id="path105339" d="M 57.6,38.016 H 414.72 V 304.128 H 57.6 Z"/></clipPath><clipPath id="clipPath105359" clipPathUnits="userSpaceOnUse"><path id="path105357" d="M 57.6,38.016 H 414.72 V 304.128 H 57.6 Z"/></clipPath><clipPath id="clipPath105377" clipPathUnits="userSpaceOnUse"><path id="path105375" d="M 57.6,38.016 H 414.72 V 304.128 H 57.6 Z"/></clipPath><clipPath id="clipPath105395" clipPathUnits="userSpaceOnUse"><path id="path105393" d="M 57.6,38.016 H 414.72 V 304.128 H 57.6 Z"/></clipPath><clipPath id="clipPath105413" clipPathUnits="userSpaceOnUse"><path id="path105411" d="M 57.6,38.016 H 414.72 V 304.128 H 57.6 Z"/></clipPath><clipPath id="clipPath105431" clipPathUnits="userSpaceOnUse"><path id="path105429" d="M 57.6,38.016 H 414.72 V 304.128 H 57.6 Z"/></clipPath><clipPath id="clipPath105449" clipPathUnits="userSpaceOnUse"><path id="path105447" d="M 57.6,38.016 H 414.72 V 304.128 H 57.6 Z"/></clipPath></defs><g id="g105181" transform="matrix(1.3333333,0,0,-1.3333333,0,460.8)"><path style="fill:#fff;fill-opacity:1;fill-rule:nonzero;stroke:none" id="path105183" d="M 0,0 H 460.8 V 345.6 H 0 Z"/><path style="fill:#fff;fill-opacity:1;fill-rule:nonzero;stroke:none" id="path105185" d="M 57.6,38.016 H 414.72 V 304.128 H 57.6 Z"/><g id="g105187"><g id="g105189" clip-path="url(#clipPath105193)"><path style="fill:red;fill-opacity:1;fill-rule:nonzero;stroke:red;stroke-width:1;stroke-linecap:butt;stroke-linejoin:miter;stroke-miterlimit:10;stroke-dasharray:none;stroke-opacity:1" id="path105195" d="m 73.832727,152.064 -3.246545,9.504 h 3.230313 l 0.03247,104.544 V 161.568 h 3.230313 l -3.246546,-9.504 z"/></g></g><g id="g105197"><g id="g105199" clip-path="url(#clipPath105203)"><path style="fill:red;fill-opacity:1;fill-rule:nonzero;stroke:red;stroke-width:1;stroke-linecap:butt;stroke-linejoin:miter;stroke-miterlimit:10;stroke-dasharray:none;stroke-opacity:1" id="path105205" d="m 90.065455,134.73945 -3.246546,9.504 h 3.230313 l 0.03247,78.55717 v -78.55717 h 3.230313 l -3.246545,-9.504 z"/></g></g><g id="g105207"><g id="g105209" clip-path="url(#clipPath105213)"><path style="fill:red;fill-opacity:1;fill-rule:nonzero;stroke:red;stroke-width:1;stroke-linecap:butt;stroke-linejoin:miter;stroke-miterlimit:10;stroke-dasharray:none;stroke-opacity:1" id="path105215" d="m 106.29818,109.38963 -3.24654,9.504 h 3.23031 l 0.0325,40.53245 v -40.53245 h 3.23031 l -3.24655,-9.504 z"/></g></g><g id="g105217"><g id="g105219" clip-path="url(#clipPath105223)"><path style="fill:red;fill-opacity:1;fill-rule:nonzero;stroke:red;stroke-width:1;stroke-linecap:butt;stroke-linejoin:miter;stroke-miterlimit:10;stroke-dasharray:none;stroke-opacity:1" id="path105225" d="m 122.53091,91.528584 -3.24655,9.503996 h 3.23032 l 0.0325,13.74088 v -13.74088 h 3.23032 l -3.24655,-9.503996 z"/></g></g><g id="g105227"><g id="g105229" clip-path="url(#clipPath105233)"><path style="fill:red;fill-opacity:1;fill-rule:nonzero;stroke:red;stroke-width:1;stroke-linecap:butt;stroke-linejoin:miter;stroke-miterlimit:10;stroke-dasharray:none;stroke-opacity:1" id="path105235" d="m 138.76364,80.944024 -3.24655,9.504 h 3.23031 l 0.0325,0.19008 v -0.19008 h 3.23031 l -3.24654,-9.504 z"/></g></g><g id="g105237"><g id="g105239" clip-path="url(#clipPath105243)"><path style="fill:red;fill-opacity:1;fill-rule:nonzero;stroke:red;stroke-width:1;stroke-linecap:butt;stroke-linejoin:miter;stroke-miterlimit:10;stroke-dasharray:none;stroke-opacity:1" id="path105245" d="m 154.99636,70.216863 -3.24654,9.504 h 3.23031 l 0.0325,0.19008 v -0.19008 h 3.23031 l -3.24655,-9.504 z"/></g></g><g id="g105247"><path style="fill:#000;fill-opacity:1;fill-rule:nonzero;stroke:#000;stroke-width:.80000001;stroke-linecap:butt;stroke-linejoin:round;stroke-miterlimit:10;stroke-dasharray:none;stroke-opacity:1" id="path105249" d="m 73.832727,38.016 v -3.5"/><text style="font-variant:normal;font-weight:400;font-size:10px;font-family:DejaVuSans;-inkscape-font-specification:DejaVuSans;writing-mode:lr-tb;fill:#000;fill-opacity:1;fill-rule:nonzero;stroke:none" id="text105253" transform="matrix(1,0,0,-1,70.65304,23.42225)"><tspan id="tspan105251" x="0" y="0">0</tspan></text><path style="fill:#000;fill-opacity:1;fill-rule:nonzero;stroke:#000;stroke-width:.80000001;stroke-linecap:butt;stroke-linejoin:round;stroke-miterlimit:10;stroke-dasharray:none;stroke-opacity:1" id="path105255" d="m 138.76364,38.016 v -3.5"/><text style="font-variant:normal;font-weight:400;font-size:10px;font-family:DejaVuSans;-inkscape-font-specification:DejaVuSans;writing-mode:lr-tb;fill:#000;fill-opacity:1;fill-rule:nonzero;stroke:none" id="text105259" transform="matrix(1,0,0,-1,135.58395,23.42225)"><tspan id="tspan105257" x="0" y="0">2</tspan></text><path style="fill:#000;fill-opacity:1;fill-rule:nonzero;stroke:#000;stroke-width:.80000001;stroke-linecap:butt;stroke-linejoin:round;stroke-miterlimit:10;stroke-dasharray:none;stroke-opacity:1" id="path105261" d="m 203.69454,38.016 v -3.5"/><text style="font-variant:normal;font-weight:400;font-size:10px;font-family:DejaVuSans;-inkscape-font-specification:DejaVuSans;writing-mode:lr-tb;fill:#000;fill-opacity:1;fill-rule:nonzero;stroke:none" id="text105265" transform="matrix(1,0,0,-1,200.51486,23.42225)"><tspan id="tspan105263" x="0" y="0">4</tspan></text><path style="fill:#000;fill-opacity:1;fill-rule:nonzero;stroke:#000;stroke-width:.80000001;stroke-linecap:butt;stroke-linejoin:round;stroke-miterlimit:10;stroke-dasharray:none;stroke-opacity:1" id="path105267" d="m 268.62545,38.016 v -3.5"/><text style="font-variant:normal;font-weight:400;font-size:10px;font-family:DejaVuSans;-inkscape-font-specification:DejaVuSans;writing-mode:lr-tb;fill:#000;fill-opacity:1;fill-rule:nonzero;stroke:none" id="text105271" transform="matrix(1,0,0,-1,265.44577,23.42225)"><tspan id="tspan105269" x="0" y="0">6</tspan></text><path style="fill:#000;fill-opacity:1;fill-rule:nonzero;stroke:#000;stroke-width:.80000001;stroke-linecap:butt;stroke-linejoin:round;stroke-miterlimit:10;stroke-dasharray:none;stroke-opacity:1" id="path105273" d="m 333.55636,38.016 v -3.5"/><text style="font-variant:normal;font-weight:400;font-size:10px;font-family:DejaVuSans;-inkscape-font-specification:DejaVuSans;writing-mode:lr-tb;fill:#000;fill-opacity:1;fill-rule:nonzero;stroke:none" id="text105277" transform="matrix(1,0,0,-1,330.37668,23.42225)"><tspan id="tspan105275" x="0" y="0">8</tspan></text><path style="fill:#000;fill-opacity:1;fill-rule:nonzero;stroke:#000;stroke-width:.80000001;stroke-linecap:butt;stroke-linejoin:round;stroke-miterlimit:10;stroke-dasharray:none;stroke-opacity:1" id="path105279" d="m 398.48727,38.016 v -3.5"/><text style="font-variant:normal;font-weight:400;font-size:10px;font-family:DejaVuSans;-inkscape-font-specification:DejaVuSans;writing-mode:lr-tb;fill:#000;fill-opacity:1;fill-rule:nonzero;stroke:none" id="text105283" transform="matrix(1,0,0,-1,392.1279,23.42225)"><tspan id="tspan105281" x="0 6.36" y="0">10</tspan></text></g><g id="g105285"><g id="g105287" clip-path="url(#clipPath105291)"><path style="fill:none;stroke:gray;stroke-width:.80000001;stroke-linecap:butt;stroke-linejoin:round;stroke-miterlimit:10;stroke-dasharray:2.2,2.2;stroke-dashoffset:0;stroke-opacity:1" id="path105293" d="M 57.6,38.016 H 414.72"/></g></g><g id="g105295"><path style="fill:#000;fill-opacity:1;fill-rule:nonzero;stroke:#000;stroke-width:.80000001;stroke-linecap:butt;stroke-linejoin:round;stroke-miterlimit:10;stroke-dasharray:none;stroke-opacity:1" id="path105297" d="M 57.6,38.016 H 54.1"/><g id="g105299" transform="translate(26.31875,34.219125)"><text style="font-variant:normal;font-weight:400;font-size:10px;font-family:DejaVuSans;-inkscape-font-specification:DejaVuSans;writing-mode:lr-tb;fill:#000;fill-opacity:1;fill-rule:nonzero;stroke:none" id="text105303" transform="matrix(1,0,0,-1,8.3789063,0)"><tspan id="tspan105301" x="0 6.36 9.54" y="0">0.2</tspan></text><g id="g105305" transform="scale(0.01)"><g id="g105307"><g id="g105309" clip-path="url(#clipPath105313)"><path style="fill:#000;fill-opacity:1;fill-rule:nonzero;stroke:none" id="path105315" d="M 106,355 H 732 V 272 H 106 v 83"/></g></g></g></g></g><g id="g105317"><g id="g105319" clip-path="url(#clipPath105323)"><path style="fill:none;stroke:gray;stroke-width:.80000001;stroke-linecap:butt;stroke-linejoin:round;stroke-miterlimit:10;stroke-dasharray:2.2,2.2;stroke-dashoffset:0;stroke-opacity:1" id="path105325" d="M 57.6,76.032 H 414.72"/></g></g><g id="g105327"><path style="fill:#000;fill-opacity:1;fill-rule:nonzero;stroke:#000;stroke-width:.80000001;stroke-linecap:butt;stroke-linejoin:round;stroke-miterlimit:10;stroke-dasharray:none;stroke-opacity:1" id="path105329" d="M 57.6,76.032 H 54.1"/><text style="font-variant:normal;font-weight:400;font-size:10px;font-family:DejaVuSans;-inkscape-font-specification:DejaVuSans;writing-mode:lr-tb;fill:#000;fill-opacity:1;fill-rule:nonzero;stroke:none" id="text105333" transform="matrix(1,0,0,-1,34.69375,72.235125)"><tspan id="tspan105331" x="0 6.36 9.54" y="0">0.0</tspan></text></g><g id="g105335"><g id="g105337" clip-path="url(#clipPath105341)"><path style="fill:none;stroke:gray;stroke-width:.80000001;stroke-linecap:butt;stroke-linejoin:round;stroke-miterlimit:10;stroke-dasharray:2.2,2.2;stroke-dashoffset:0;stroke-opacity:1" id="path105343" d="M 57.6,114.048 H 414.72"/></g></g><g id="g105345"><path style="fill:#000;fill-opacity:1;fill-rule:nonzero;stroke:#000;stroke-width:.80000001;stroke-linecap:butt;stroke-linejoin:round;stroke-miterlimit:10;stroke-dasharray:none;stroke-opacity:1" id="path105347" d="M 57.6,114.048 H 54.1"/><text style="font-variant:normal;font-weight:400;font-size:10px;font-family:DejaVuSans;-inkscape-font-specification:DejaVuSans;writing-mode:lr-tb;fill:#000;fill-opacity:1;fill-rule:nonzero;stroke:none" id="text105351" transform="matrix(1,0,0,-1,34.69375,110.25113)"><tspan id="tspan105349" x="0 6.36 9.54" y="0">0.2</tspan></text></g><g id="g105353"><g id="g105355" clip-path="url(#clipPath105359)"><path style="fill:none;stroke:gray;stroke-width:.80000001;stroke-linecap:butt;stroke-linejoin:round;stroke-miterlimit:10;stroke-dasharray:2.2,2.2;stroke-dashoffset:0;stroke-opacity:1" id="path105361" d="M 57.6,152.064 H 414.72"/></g></g><g id="g105363"><path style="fill:#000;fill-opacity:1;fill-rule:nonzero;stroke:#000;stroke-width:.80000001;stroke-linecap:butt;stroke-linejoin:round;stroke-miterlimit:10;stroke-dasharray:none;stroke-opacity:1" id="path105365" d="M 57.6,152.064 H 54.1"/><text style="font-variant:normal;font-weight:400;font-size:10px;font-family:DejaVuSans;-inkscape-font-specification:DejaVuSans;writing-mode:lr-tb;fill:#000;fill-opacity:1;fill-rule:nonzero;stroke:none" id="text105369" transform="matrix(1,0,0,-1,34.69375,148.26712)"><tspan id="tspan105367" x="0 6.36 9.54" y="0">0.4</tspan></text></g><g id="g105371"><g id="g105373" clip-path="url(#clipPath105377)"><path style="fill:none;stroke:gray;stroke-width:.80000001;stroke-linecap:butt;stroke-linejoin:round;stroke-miterlimit:10;stroke-dasharray:2.2,2.2;stroke-dashoffset:0;stroke-opacity:1" id="path105379" d="M 57.6,190.08 H 414.72"/></g></g><g id="g105381"><path style="fill:#000;fill-opacity:1;fill-rule:nonzero;stroke:#000;stroke-width:.80000001;stroke-linecap:butt;stroke-linejoin:round;stroke-miterlimit:10;stroke-dasharray:none;stroke-opacity:1" id="path105383" d="M 57.6,190.08 H 54.1"/><text style="font-variant:normal;font-weight:400;font-size:10px;font-family:DejaVuSans;-inkscape-font-specification:DejaVuSans;writing-mode:lr-tb;fill:#000;fill-opacity:1;fill-rule:nonzero;stroke:none" id="text105387" transform="matrix(1,0,0,-1,34.69375,186.28312)"><tspan id="tspan105385" x="0 6.36 9.54" y="0">0.6</tspan></text></g><g id="g105389"><g id="g105391" clip-path="url(#clipPath105395)"><path style="fill:none;stroke:gray;stroke-width:.80000001;stroke-linecap:butt;stroke-linejoin:round;stroke-miterlimit:10;stroke-dasharray:2.2,2.2;stroke-dashoffset:0;stroke-opacity:1" id="path105397" d="M 57.6,228.096 H 414.72"/></g></g><g id="g105399"><path style="fill:#000;fill-opacity:1;fill-rule:nonzero;stroke:#000;stroke-width:.80000001;stroke-linecap:butt;stroke-linejoin:round;stroke-miterlimit:10;stroke-dasharray:none;stroke-opacity:1" id="path105401" d="M 57.6,228.096 H 54.1"/><text style="font-variant:normal;font-weight:400;font-size:10px;font-family:DejaVuSans;-inkscape-font-specification:DejaVuSans;writing-mode:lr-tb;fill:#000;fill-opacity:1;fill-rule:nonzero;stroke:none" id="text105405" transform="matrix(1,0,0,-1,34.69375,224.29912)"><tspan id="tspan105403" x="0 6.36 9.54" y="0">0.8</tspan></text></g><g id="g105407"><g id="g105409" clip-path="url(#clipPath105413)"><path style="fill:none;stroke:gray;stroke-width:.80000001;stroke-linecap:butt;stroke-linejoin:round;stroke-miterlimit:10;stroke-dasharray:2.2,2.2;stroke-dashoffset:0;stroke-opacity:1" id="path105415" d="M 57.6,266.112 H 414.72"/></g></g><g id="g105417"><path style="fill:#000;fill-opacity:1;fill-rule:nonzero;stroke:#000;stroke-width:.80000001;stroke-linecap:butt;stroke-linejoin:round;stroke-miterlimit:10;stroke-dasharray:none;stroke-opacity:1" id="path105419" d="M 57.6,266.112 H 54.1"/><text style="font-variant:normal;font-weight:400;font-size:10px;font-family:DejaVuSans;-inkscape-font-specification:DejaVuSans;writing-mode:lr-tb;fill:#000;fill-opacity:1;fill-rule:nonzero;stroke:none" id="text105423" transform="matrix(1,0,0,-1,34.69375,262.31512)"><tspan id="tspan105421" x="0 6.36 9.54" y="0">1.0</tspan></text></g><g id="g105425"><g id="g105427" clip-path="url(#clipPath105431)"><path style="fill:none;stroke:gray;stroke-width:.80000001;stroke-linecap:butt;stroke-linejoin:round;stroke-miterlimit:10;stroke-dasharray:2.2,2.2;stroke-dashoffset:0;stroke-opacity:1" id="path105433" d="M 57.6,304.128 H 414.72"/></g></g><g id="g105435"><path style="fill:#000;fill-opacity:1;fill-rule:nonzero;stroke:#000;stroke-width:.80000001;stroke-linecap:butt;stroke-linejoin:round;stroke-miterlimit:10;stroke-dasharray:none;stroke-opacity:1" id="path105437" d="M 57.6,304.128 H 54.1"/><text style="font-variant:normal;font-weight:400;font-size:10px;font-family:DejaVuSans;-inkscape-font-specification:DejaVuSans;writing-mode:lr-tb;fill:#000;fill-opacity:1;fill-rule:nonzero;stroke:none" id="text105441" transform="matrix(1,0,0,-1,34.69375,300.33112)"><tspan id="tspan105439" x="0 6.36 9.54" y="0">1.2</tspan></text></g><g id="g105443"><g id="g105445" clip-path="url(#clipPath105449)"><path style="fill:none;stroke:#1f77b4;stroke-width:1.5;stroke-linecap:square;stroke-linejoin:round;stroke-miterlimit:10;stroke-dasharray:none;stroke-opacity:1" id="path105451" d="m 73.832727,266.112 0.649309,-0.10641 0.681775,-0.34329 0.746705,-0.63076 0.844102,-1.0109 0.973964,-1.52686 1.136291,-2.22195 1.298618,-3.05296 1.525876,-4.18894 1.7856,-5.58514 2.175186,-7.58005 2.759563,-10.47835 4.220509,-17.01552 7.499515,-30.23976 3.73353,-14.0704 3.27901,-11.5175 3.05176,-9.92201 2.88942,-8.64807 2.75957,-7.57196 2.69463,-6.75171 2.6297,-5.99305 2.56477,-5.29942 2.53231,-4.72866 2.49984,-4.20411 2.49984,-3.771609 2.46737,-3.327169 2.49984,-2.999663 2.49984,-2.655326 2.53231,-2.368312 2.56477,-2.098432 2.6297,-1.867884 2.7271,-1.664855 2.82449,-1.464463 2.95436,-1.282759 3.14915,-1.123598 3.3764,-0.965538 3.6686,-0.813685 4.02572,-0.661949 4.54516,-0.517475 5.25941,-0.369131 6.36322,-0.215709 8.34362,-0.04727 13.57056,0.176227 34.57571,0.492471 29.28384,0.134375 70.22278,0.02113 57.1392,-0.0016 v 0"/></g></g><g id="g105453"><path style="fill:none;stroke:#000;stroke-width:.80000001;stroke-linecap:square;stroke-linejoin:miter;stroke-miterlimit:10;stroke-dasharray:none;stroke-opacity:1" id="path105455" d="M 57.6,38.016 V 304.128"/><path style="fill:none;stroke:#000;stroke-width:.80000001;stroke-linecap:square;stroke-linejoin:miter;stroke-miterlimit:10;stroke-dasharray:none;stroke-opacity:1" id="path105457" d="M 414.72,38.016 V 304.128"/><path style="fill:none;stroke:#000;stroke-width:.80000001;stroke-linecap:square;stroke-linejoin:miter;stroke-miterlimit:10;stroke-dasharray:none;stroke-opacity:1" id="path105459" d="M 57.6,38.016 H 414.72"/><path style="fill:none;stroke:#000;stroke-width:.80000001;stroke-linecap:square;stroke-linejoin:miter;stroke-miterlimit:10;stroke-dasharray:none;stroke-opacity:1" id="path105461" d="M 57.6,304.128 H 414.72"/></g></g></svg>