<svg xmlns="http://www.w3.org/2000/svg" xmlns:svg="http://www.w3.org/2000/svg" id="svg114853" width="614.4" height="460.8" version="1.1" viewBox="0 0 614.4 460.8" xml:space="preserve"><metadata id="metadata114859"/><defs id="defs114857"><clipPath id="clipPath114873" clipPathUnits="userSpaceOnUse"><path id="path114871" d="M 57.6,38.016 H 414.72 V 304.128 H 57.6 Z"/></clipPath><clipPath id="clipPath114883" clipPathUnits="userSpaceOnUse"><path id="path114881" d="M 57.6,38.016 H 414.72 V 304.128 H 57.6 Z"/></clipPath><clipPath id="clipPath114893" clipPathUnits="userSpaceOnUse"><path id="path114891" d="M 57.6,38.016 H 414.72 V 304.128 H 57.6 Z"/></clipPath><clipPath id="clipPath114903" clipPathUnits="userSpaceOnUse"><path id="path114901" d="M 57.6,38.016 H 414.72 V 304.128 H 57.6 Z"/></clipPath><clipPath id="clipPath114913" clipPathUnits="userSpaceOnUse"><path id="path114911" d="M 57.6,38.016 H 414.72 V 304.128 H 57.6 Z"/></clipPath><clipPath id="clipPath114923" clipPathUnits="userSpaceOnUse"><path id="path114921" d="M 57.6,38.016 H 414.72 V 304.128 H 57.6 Z"/></clipPath><clipPath id="clipPath114933" clipPathUnits="userSpaceOnUse"><path id="path114931" d="M 57.6,38.016 H 414.72 V 304.128 H 57.6 Z"/></clipPath><clipPath id="clipPath114943" clipPathUnits="userSpaceOnUse"><path id="path114941" d="M 57.6,38.016 H 414.72 V 304.128 H 57.6 Z"/></clipPath><clipPath id="clipPath114953" clipPathUnits="userSpaceOnUse"><path id="path114951" d="M 57.6,38.016 H 414.72 V 304.128 H 57.6 Z"/></clipPath><clipPath id="clipPath114963" clipPathUnits="userSpaceOnUse"><path id="path114961" d="M 57.6,38.016 H 414.72 V 304.128 H 57.6 Z"/></clipPath><clipPath id="clipPath114973" clipPathUnits="userSpaceOnUse"><path id="path114971" d="M 57.6,38.016 H 414.72 V 304.128 H 57.6 Z"/></clipPath><clipPath id="clipPath114983" clipPathUnits="userSpaceOnUse"><path id="path114981" d="M 57.6,38.016 H 414.72 V 304.128 H 57.6 Z"/></clipPath><clipPath id="clipPath114993" clipPathUnits="userSpaceOnUse"><path id="path114991" d="M 57.6,38.016 H 414.72 V 304.128 H 57.6 Z"/></clipPath><clipPath id="clipPath115003" clipPathUnits="userSpaceOnUse"><path id="path115001" d="M 57.6,38.016 H 414.72 V 304.128 H 57.6 Z"/></clipPath><clipPath id="clipPath115013" clipPathUnits="userSpaceOnUse"><path id="path115011" d="M 57.6,38.016 H 414.72 V 304.128 H 57.6 Z"/></clipPath><clipPath id="clipPath115023" clipPathUnits="userSpaceOnUse"><path id="path115021" d="M 57.6,38.016 H 414.72 V 304.128 H 57.6 Z"/></clipPath><clipPath id="clipPath115033" clipPathUnits="userSpaceOnUse"><path id="path115031" d="M 57.6,38.016 H 414.72 V 304.128 H 57.6 Z"/></clipPath><clipPath id="clipPath115081" clipPathUnits="userSpaceOnUse"><path id="path115079" d="M 57.6,38.016 H 414.72 V 304.128 H 57.6 Z"/></clipPath><clipPath id="clipPath115103" clipPathUnits="userSpaceOnUse"><path id="path115101" d="M -1021,-463 H 1794 V 1233 H -1021 Z"/></clipPath><clipPath id="clipPath115113" clipPathUnits="userSpaceOnUse"><path id="path115111" d="M 57.6,38.016 H 414.72 V 304.128 H 57.6 Z"/></clipPath><clipPath id="clipPath115131" clipPathUnits="userSpaceOnUse"><path id="path115129" d="M 57.6,38.016 H 414.72 V 304.128 H 57.6 Z"/></clipPath><clipPath id="clipPath115149" clipPathUnits="userSpaceOnUse"><path id="path115147" d="M 57.6,38.016 H 414.72 V 304.128 H 57.6 Z"/></clipPath><clipPath id="clipPath115167" clipPathUnits="userSpaceOnUse"><path id="path115165" d="M 57.6,38.016 H 414.72 V 304.128 H 57.6 Z"/></clipPath><clipPath id="clipPath115185" clipPathUnits="userSpaceOnUse"><path id="path115183" d="M 57.6,38.016 H 414.72 V 304.128 H 57.6 Z"/></clipPath><clipPath id="clipPath115203" clipPathUnits="userSpaceOnUse"><path id="path115201" d="M 57.6,38.016 H 414.72 V 304.128 H 57.6 Z"/></clipPath><clipPath id="clipPath115221" clipPathUnits="userSpaceOnUse"><path id="path115219" d="M 57.6,38.016 H 414.72 V 304.128 H 57.6 Z"/></clipPath><clipPath id="clipPath115239" clipPathUnits="userSpaceOnUse"><path id="path115237" d="M 57.6,38.016 H 414.72 V 304.128 H 57.6 Z"/></clipPath></defs><g id="g114861" transform="matrix(1.3333333,0,0,-1.3333333,0,460.8)"><path style="fill:#fff;fill-opacity:1;fill-rule:nonzero;stroke:none" id="path114863" d="M 0,0 H 460.8 V 345.6 H 0 Z"/><path style="fill:#fff;fill-opacity:1;fill-rule:nonzero;stroke:none" id="path114865" d="M 57.6,38.016 H 414.72 V 304.128 H 57.6 Z"/><g id="g114867"><g id="g114869" clip-path="url(#clipPath114873)"><path style="fill:red;fill-opacity:1;fill-rule:nonzero;stroke:red;stroke-width:1;stroke-linecap:butt;stroke-linejoin:miter;stroke-miterlimit:10;stroke-dasharray:none;stroke-opacity:1" id="path114875" d="m 73.832727,228.096 -3.246545,9.504 h 3.230313 l 0.03247,28.512 V 237.6 h 3.230313 l -3.246546,-9.504 z"/></g></g><g id="g114877"><g id="g114879" clip-path="url(#clipPath114883)"><path style="fill:red;fill-opacity:1;fill-rule:nonzero;stroke:red;stroke-width:1;stroke-linecap:butt;stroke-linejoin:miter;stroke-miterlimit:10;stroke-dasharray:none;stroke-opacity:1" id="path114885" d="m 90.065455,216.10987 -3.246546,9.504 h 3.230313 l 0.03247,25.51546 v -25.51546 h 3.230313 l -3.246545,-9.504 z"/></g></g><g id="g114887"><g id="g114889" clip-path="url(#clipPath114893)"><path style="fill:red;fill-opacity:1;fill-rule:nonzero;stroke:red;stroke-width:1;stroke-linecap:butt;stroke-linejoin:miter;stroke-miterlimit:10;stroke-dasharray:none;stroke-opacity:1" id="path114895" d="m 106.29818,195.6501 -3.24654,9.504 h 3.23031 l 0.0325,20.40053 V 205.1541 h 3.23031 l -3.24655,-9.504 z"/></g></g><g id="g114897"><g id="g114899" clip-path="url(#clipPath114903)"><path style="fill:red;fill-opacity:1;fill-rule:nonzero;stroke:red;stroke-width:1;stroke-linecap:butt;stroke-linejoin:miter;stroke-miterlimit:10;stroke-dasharray:none;stroke-opacity:1" id="path114905" d="m 122.53091,175.90133 -3.24655,9.504 h 3.23032 l 0.0325,15.46333 v -15.46333 h 3.23032 l -3.24655,-9.504 z"/></g></g><g id="g114907"><g id="g114909" clip-path="url(#clipPath114913)"><path style="fill:red;fill-opacity:1;fill-rule:nonzero;stroke:red;stroke-width:1;stroke-linecap:butt;stroke-linejoin:miter;stroke-miterlimit:10;stroke-dasharray:none;stroke-opacity:1" id="path114915" d="m 138.76364,158.81903 -3.24655,9.504 h 3.23031 l 0.0325,11.19276 v -11.19276 h 3.23031 l -3.24654,-9.504 z"/></g></g><g id="g114917"><g id="g114919" clip-path="url(#clipPath114923)"><path style="fill:red;fill-opacity:1;fill-rule:nonzero;stroke:red;stroke-width:1;stroke-linecap:butt;stroke-linejoin:miter;stroke-miterlimit:10;stroke-dasharray:none;stroke-opacity:1" id="path114925" d="m 154.99636,144.50012 -3.24654,9.504 h 3.23031 l 0.0325,7.61304 v -7.61304 h 3.23031 l -3.24655,-9.504 z"/></g></g><g id="g114927"><g id="g114929" clip-path="url(#clipPath114933)"><path style="fill:red;fill-opacity:1;fill-rule:nonzero;stroke:red;stroke-width:1;stroke-linecap:butt;stroke-linejoin:miter;stroke-miterlimit:10;stroke-dasharray:none;stroke-opacity:1" id="path114935" d="m 171.22909,132.61524 -3.24654,9.504 h 3.23031 l 0.0325,4.64181 v -4.64181 h 3.23032 l -3.24655,-9.504 z"/></g></g><g id="g114937"><g id="g114939" clip-path="url(#clipPath114943)"><path style="fill:red;fill-opacity:1;fill-rule:nonzero;stroke:red;stroke-width:1;stroke-linecap:butt;stroke-linejoin:miter;stroke-miterlimit:10;stroke-dasharray:none;stroke-opacity:1" id="path114945" d="m 187.46182,122.7819 -3.24655,9.504 h 3.23031 l 0.0325,2.18348 v -2.18348 h 3.23031 l -3.24654,-9.504 z"/></g></g><g id="g114947"><g id="g114949" clip-path="url(#clipPath114953)"><path style="fill:red;fill-opacity:1;fill-rule:nonzero;stroke:red;stroke-width:1;stroke-linecap:butt;stroke-linejoin:miter;stroke-miterlimit:10;stroke-dasharray:none;stroke-opacity:1" id="path114955" d="m 203.69454,114.61587 -3.24654,9.504 h 3.23031 l 0.0325,0.19009 v -0.19009 h 3.23031 l -3.24655,-9.504 z"/></g></g><g id="g114957"><g id="g114959" clip-path="url(#clipPath114963)"><path style="fill:red;fill-opacity:1;fill-rule:nonzero;stroke:red;stroke-width:1;stroke-linecap:butt;stroke-linejoin:miter;stroke-miterlimit:10;stroke-dasharray:none;stroke-opacity:1" id="path114965" d="m 219.92727,106.22164 -3.24654,9.504 h 3.23031 l 0.0325,0.19008 v -0.19008 h 3.23032 l -3.24655,-9.504 z"/></g></g><g id="g114967"><g id="g114969" clip-path="url(#clipPath114973)"><path style="fill:red;fill-opacity:1;fill-rule:nonzero;stroke:red;stroke-width:1;stroke-linecap:butt;stroke-linejoin:miter;stroke-miterlimit:10;stroke-dasharray:none;stroke-opacity:1" id="path114975" d="m 236.16,99.286654 -3.24655,9.503996 h 3.23032 l 0.0325,0.19008 v -0.19008 h 3.23031 l -3.24654,-9.503996 z"/></g></g><g id="g114977"><g id="g114979" clip-path="url(#clipPath114983)"><path style="fill:red;fill-opacity:1;fill-rule:nonzero;stroke:red;stroke-width:1;stroke-linecap:butt;stroke-linejoin:miter;stroke-miterlimit:10;stroke-dasharray:none;stroke-opacity:1" id="path114985" d="m 252.39273,93.557449 -3.24655,9.504001 h 3.23031 l 0.0325,0.19008 v -0.19008 h 3.23031 l -3.24654,-9.504001 z"/></g></g><g id="g114987"><g id="g114989" clip-path="url(#clipPath114993)"><path style="fill:red;fill-opacity:1;fill-rule:nonzero;stroke:red;stroke-width:1;stroke-linecap:butt;stroke-linejoin:miter;stroke-miterlimit:10;stroke-dasharray:none;stroke-opacity:1" id="path114995" d="m 268.62545,88.824432 -3.24654,9.504 h 3.23031 l 0.0325,0.19008 v -0.19008 h 3.23031 l -3.24655,-9.504 z"/></g></g><g id="g114997"><g id="g114999" clip-path="url(#clipPath115003)"><path style="fill:red;fill-opacity:1;fill-rule:nonzero;stroke:red;stroke-width:1;stroke-linecap:butt;stroke-linejoin:miter;stroke-miterlimit:10;stroke-dasharray:none;stroke-opacity:1" id="path115005" d="m 284.85818,84.914401 -3.24654,9.504 h 3.23031 l 0.0325,0.19008 v -0.19008 h 3.23032 l -3.24655,-9.504 z"/></g></g><g id="g115007"><g id="g115009" clip-path="url(#clipPath115013)"><path style="fill:red;fill-opacity:1;fill-rule:nonzero;stroke:red;stroke-width:1;stroke-linecap:butt;stroke-linejoin:miter;stroke-miterlimit:10;stroke-dasharray:none;stroke-opacity:1" id="path115015" d="m 301.09091,81.684258 -3.24655,9.504 h 3.23032 l 0.0325,0.19008 v -0.19008 h 3.23031 l -3.24654,-9.504 z"/></g></g><g id="g115017"><g id="g115019" clip-path="url(#clipPath115023)"><path style="fill:red;fill-opacity:1;fill-rule:nonzero;stroke:red;stroke-width:1;stroke-linecap:butt;stroke-linejoin:miter;stroke-miterlimit:10;stroke-dasharray:none;stroke-opacity:1" id="path115025" d="m 317.32364,79.015783 -3.24655,9.504 h 3.23031 l 0.0325,0.19008 v -0.19008 h 3.23031 l -3.24654,-9.504 z"/></g></g><g id="g115027"><g id="g115029" clip-path="url(#clipPath115033)"><path style="fill:red;fill-opacity:1;fill-rule:nonzero;stroke:red;stroke-width:1;stroke-linecap:butt;stroke-linejoin:miter;stroke-miterlimit:10;stroke-dasharray:none;stroke-opacity:1" id="path115035" d="m 333.55636,76.811311 -3.24654,9.504 h 3.23031 l 0.0325,0.19008 v -0.19008 h 3.23031 l -3.24655,-9.504 z"/></g></g><g id="g115037"><path style="fill:#000;fill-opacity:1;fill-rule:nonzero;stroke:#000;stroke-width:.80000001;stroke-linecap:butt;stroke-linejoin:round;stroke-miterlimit:10;stroke-dasharray:none;stroke-opacity:1" id="path115039" d="m 73.832727,38.016 v -3.5"/><text style="font-variant:normal;font-weight:400;font-size:10px;font-family:DejaVuSans;-inkscape-font-specification:DejaVuSans;writing-mode:lr-tb;fill:#000;fill-opacity:1;fill-rule:nonzero;stroke:none" id="text115043" transform="matrix(1,0,0,-1,70.65304,23.42225)"><tspan id="tspan115041" x="0" y="0">0</tspan></text><path style="fill:#000;fill-opacity:1;fill-rule:nonzero;stroke:#000;stroke-width:.80000001;stroke-linecap:butt;stroke-linejoin:round;stroke-miterlimit:10;stroke-dasharray:none;stroke-opacity:1" id="path115045" d="m 138.76364,38.016 v -3.5"/><text style="font-variant:normal;font-weight:400;font-size:10px;font-family:DejaVuSans;-inkscape-font-specification:DejaVuSans;writing-mode:lr-tb;fill:#000;fill-opacity:1;fill-rule:nonzero;stroke:none" id="text115049" transform="matrix(1,0,0,-1,135.58395,23.42225)"><tspan id="tspan115047" x="0" y="0">2</tspan></text><path style="fill:#000;fill-opacity:1;fill-rule:nonzero;stroke:#000;stroke-width:.80000001;stroke-linecap:butt;stroke-linejoin:round;stroke-miterlimit:10;stroke-dasharray:none;stroke-opacity:1" id="path115051" d="m 203.69454,38.016 v -3.5"/><text style="font-variant:normal;font-weight:400;font-size:10px;font-family:DejaVuSans;-inkscape-font-specification:DejaVuSans;writing-mode:lr-tb;fill:#000;fill-opacity:1;fill-rule:nonzero;stroke:none" id="text115055" transform="matrix(1,0,0,-1,200.51486,23.42225)"><tspan id="tspan115053" x="0" y="0">4</tspan></text><path style="fill:#000;fill-opacity:1;fill-rule:nonzero;stroke:#000;stroke-width:.80000001;stroke-linecap:butt;stroke-linejoin:round;stroke-miterlimit:10;stroke-dasharray:none;stroke-opacity:1" id="path115057" d="m 268.62545,38.016 v -3.5"/><text style="font-variant:normal;font-weight:400;font-size:10px;font-family:DejaVuSans;-inkscape-font-specification:DejaVuSans;writing-mode:lr-tb;fill:#000;fill-opacity:1;fill-rule:nonzero;stroke:none" id="text115061" transform="matrix(1,0,0,-1,265.44577,23.42225)"><tspan id="tspan115059" x="0" y="0">6</tspan></text><path style="fill:#000;fill-opacity:1;fill-rule:nonzero;stroke:#000;stroke-width:.80000001;stroke-linecap:butt;stroke-linejoin:round;stroke-miterlimit:10;stroke-dasharray:none;stroke-opacity:1" id="path115063" d="m 333.55636,38.016 v -3.5"/><text style="font-variant:normal;font-weight:400;font-size:10px;font-family:DejaVuSans;-inkscape-font-specification:DejaVuSans;writing-mode:lr-tb;fill:#000;fill-opacity:1;fill-rule:nonzero;stroke:none" id="text115067" transform="matrix(1,0,0,-1,330.37668,23.42225)"><tspan id="tspan115065" x="0" y="0">8</tspan></text><path style="fill:#000;fill-opacity:1;fill-rule:nonzero;stroke:#000;stroke-width:.80000001;stroke-linecap:butt;stroke-linejoin:round;stroke-miterlimit:10;stroke-dasharray:none;stroke-opacity:1" id="path115069" d="m 398.48727,38.016 v -3.5"/><text style="font-variant:normal;font-weight:400;font-size:10px;font-family:DejaVuSans;-inkscape-font-specification:DejaVuSans;writing-mode:lr-tb;fill:#000;fill-opacity:1;fill-rule:nonzero;stroke:none" id="text115073" transform="matrix(1,0,0,-1,392.1279,23.42225)"><tspan id="tspan115071" x="0 6.36" y="0">10</tspan></text></g><g id="g115075"><g id="g115077" clip-path="url(#clipPath115081)"><path style="fill:none;stroke:gray;stroke-width:.80000001;stroke-linecap:butt;stroke-linejoin:round;stroke-miterlimit:10;stroke-dasharray:2.2,2.2;stroke-dashoffset:0;stroke-opacity:1" id="path115083" d="M 57.6,38.016 H 414.72"/></g></g><g id="g115085"><path style="fill:#000;fill-opacity:1;fill-rule:nonzero;stroke:#000;stroke-width:.80000001;stroke-linecap:butt;stroke-linejoin:round;stroke-miterlimit:10;stroke-dasharray:none;stroke-opacity:1" id="path115087" d="M 57.6,38.016 H 54.1"/><g id="g115089" transform="translate(26.31875,34.219125)"><text style="font-variant:normal;font-weight:400;font-size:10px;font-family:DejaVuSans;-inkscape-font-specification:DejaVuSans;writing-mode:lr-tb;fill:#000;fill-opacity:1;fill-rule:nonzero;stroke:none" id="text115093" transform="matrix(1,0,0,-1,8.3789063,0)"><tspan id="tspan115091" x="0 6.36 9.54" y="0">0.2</tspan></text><g id="g115095" transform="scale(0.01)"><g id="g115097"><g id="g115099" clip-path="url(#clipPath115103)"><path style="fill:#000;fill-opacity:1;fill-rule:nonzero;stroke:none" id="path115105" d="M 106,355 H 732 V 272 H 106 v 83"/></g></g></g></g></g><g id="g115107"><g id="g115109" clip-path="url(#clipPath115113)"><path style="fill:none;stroke:gray;stroke-width:.80000001;stroke-linecap:butt;stroke-linejoin:round;stroke-miterlimit:10;stroke-dasharray:2.2,2.2;stroke-dashoffset:0;stroke-opacity:1" id="path115115" d="M 57.6,76.032 H 414.72"/></g></g><g id="g115117"><path style="fill:#000;fill-opacity:1;fill-rule:nonzero;stroke:#000;stroke-width:.80000001;stroke-linecap:butt;stroke-linejoin:round;stroke-miterlimit:10;stroke-dasharray:none;stroke-opacity:1" id="path115119" d="M 57.6,76.032 H 54.1"/><text style="font-variant:normal;font-weight:400;font-size:10px;font-family:DejaVuSans;-inkscape-font-specification:DejaVuSans;writing-mode:lr-tb;fill:#000;fill-opacity:1;fill-rule:nonzero;stroke:none" id="text115123" transform="matrix(1,0,0,-1,34.69375,72.235125)"><tspan id="tspan115121" x="0 6.36 9.54" y="0">0.0</tspan></text></g><g id="g115125"><g id="g115127" clip-path="url(#clipPath115131)"><path style="fill:none;stroke:gray;stroke-width:.80000001;stroke-linecap:butt;stroke-linejoin:round;stroke-miterlimit:10;stroke-dasharray:2.2,2.2;stroke-dashoffset:0;stroke-opacity:1" id="path115133" d="M 57.6,114.048 H 414.72"/></g></g><g id="g115135"><path style="fill:#000;fill-opacity:1;fill-rule:nonzero;stroke:#000;stroke-width:.80000001;stroke-linecap:butt;stroke-linejoin:round;stroke-miterlimit:10;stroke-dasharray:none;stroke-opacity:1" id="path115137" d="M 57.6,114.048 H 54.1"/><text style="font-variant:normal;font-weight:400;font-size:10px;font-family:DejaVuSans;-inkscape-font-specification:DejaVuSans;writing-mode:lr-tb;fill:#000;fill-opacity:1;fill-rule:nonzero;stroke:none" id="text115141" transform="matrix(1,0,0,-1,34.69375,110.25113)"><tspan id="tspan115139" x="0 6.36 9.54" y="0">0.2</tspan></text></g><g id="g115143"><g id="g115145" clip-path="url(#clipPath115149)"><path style="fill:none;stroke:gray;stroke-width:.80000001;stroke-linecap:butt;stroke-linejoin:round;stroke-miterlimit:10;stroke-dasharray:2.2,2.2;stroke-dashoffset:0;stroke-opacity:1" id="path115151" d="M 57.6,152.064 H 414.72"/></g></g><g id="g115153"><path style="fill:#000;fill-opacity:1;fill-rule:nonzero;stroke:#000;stroke-width:.80000001;stroke-linecap:butt;stroke-linejoin:round;stroke-miterlimit:10;stroke-dasharray:none;stroke-opacity:1" id="path115155" d="M 57.6,152.064 H 54.1"/><text style="font-variant:normal;font-weight:400;font-size:10px;font-family:DejaVuSans;-inkscape-font-specification:DejaVuSans;writing-mode:lr-tb;fill:#000;fill-opacity:1;fill-rule:nonzero;stroke:none" id="text115159" transform="matrix(1,0,0,-1,34.69375,148.26712)"><tspan id="tspan115157" x="0 6.36 9.54" y="0">0.4</tspan></text></g><g id="g115161"><g id="g115163" clip-path="url(#clipPath115167)"><path style="fill:none;stroke:gray;stroke-width:.80000001;stroke-linecap:butt;stroke-linejoin:round;stroke-miterlimit:10;stroke-dasharray:2.2,2.2;stroke-dashoffset:0;stroke-opacity:1" id="path115169" d="M 57.6,190.08 H 414.72"/></g></g><g id="g115171"><path style="fill:#000;fill-opacity:1;fill-rule:nonzero;stroke:#000;stroke-width:.80000001;stroke-linecap:butt;stroke-linejoin:round;stroke-miterlimit:10;stroke-dasharray:none;stroke-opacity:1" id="path115173" d="M 57.6,190.08 H 54.1"/><text style="font-variant:normal;font-weight:400;font-size:10px;font-family:DejaVuSans;-inkscape-font-specification:DejaVuSans;writing-mode:lr-tb;fill:#000;fill-opacity:1;fill-rule:nonzero;stroke:none" id="text115177" transform="matrix(1,0,0,-1,34.69375,186.28312)"><tspan id="tspan115175" x="0 6.36 9.54" y="0">0.6</tspan></text></g><g id="g115179"><g id="g115181" clip-path="url(#clipPath115185)"><path style="fill:none;stroke:gray;stroke-width:.80000001;stroke-linecap:butt;stroke-linejoin:round;stroke-miterlimit:10;stroke-dasharray:2.2,2.2;stroke-dashoffset:0;stroke-opacity:1" id="path115187" d="M 57.6,228.096 H 414.72"/></g></g><g id="g115189"><path style="fill:#000;fill-opacity:1;fill-rule:nonzero;stroke:#000;stroke-width:.80000001;stroke-linecap:butt;stroke-linejoin:round;stroke-miterlimit:10;stroke-dasharray:none;stroke-opacity:1" id="path115191" d="M 57.6,228.096 H 54.1"/><text style="font-variant:normal;font-weight:400;font-size:10px;font-family:DejaVuSans;-inkscape-font-specification:DejaVuSans;writing-mode:lr-tb;fill:#000;fill-opacity:1;fill-rule:nonzero;stroke:none" id="text115195" transform="matrix(1,0,0,-1,34.69375,224.29912)"><tspan id="tspan115193" x="0 6.36 9.54" y="0">0.8</tspan></text></g><g id="g115197"><g id="g115199" clip-path="url(#clipPath115203)"><path style="fill:none;stroke:gray;stroke-width:.80000001;stroke-linecap:butt;stroke-linejoin:round;stroke-miterlimit:10;stroke-dasharray:2.2,2.2;stroke-dashoffset:0;stroke-opacity:1" id="path115205" d="M 57.6,266.112 H 414.72"/></g></g><g id="g115207"><path style="fill:#000;fill-opacity:1;fill-rule:nonzero;stroke:#000;stroke-width:.80000001;stroke-linecap:butt;stroke-linejoin:round;stroke-miterlimit:10;stroke-dasharray:none;stroke-opacity:1" id="path115209" d="M 57.6,266.112 H 54.1"/><text style="font-variant:normal;font-weight:400;font-size:10px;font-family:DejaVuSans;-inkscape-font-specification:DejaVuSans;writing-mode:lr-tb;fill:#000;fill-opacity:1;fill-rule:nonzero;stroke:none" id="text115213" transform="matrix(1,0,0,-1,34.69375,262.31512)"><tspan id="tspan115211" x="0 6.36 9.54" y="0">1.0</tspan></text></g><g id="g115215"><g id="g115217" clip-path="url(#clipPath115221)"><path style="fill:none;stroke:gray;stroke-width:.80000001;stroke-linecap:butt;stroke-linejoin:round;stroke-miterlimit:10;stroke-dasharray:2.2,2.2;stroke-dashoffset:0;stroke-opacity:1" id="path115223" d="M 57.6,304.128 H 414.72"/></g></g><g id="g115225"><path style="fill:#000;fill-opacity:1;fill-rule:nonzero;stroke:#000;stroke-width:.80000001;stroke-linecap:butt;stroke-linejoin:round;stroke-miterlimit:10;stroke-dasharray:none;stroke-opacity:1" id="path115227" d="M 57.6,304.128 H 54.1"/><text style="font-variant:normal;font-weight:400;font-size:10px;font-family:DejaVuSans;-inkscape-font-specification:DejaVuSans;writing-mode:lr-tb;fill:#000;fill-opacity:1;fill-rule:nonzero;stroke:none" id="text115231" transform="matrix(1,0,0,-1,34.69375,300.33112)"><tspan id="tspan115229" x="0 6.36 9.54" y="0">1.2</tspan></text></g><g id="g115233"><g id="g115235" clip-path="url(#clipPath115239)"><path style="fill:none;stroke:#1f77b4;stroke-width:1.5;stroke-linecap:square;stroke-linejoin:round;stroke-miterlimit:10;stroke-dasharray:none;stroke-opacity:1" id="path115241" d="m 73.832727,266.112 1.136291,-0.10944 1.201222,-0.34391 1.298618,-0.60715 1.42848,-0.91706 1.623273,-1.31723 1.818065,-1.77077 2.110255,-2.37891 2.467374,-3.13198 2.986822,-4.17019 3.798458,-5.70942 5.64899,-8.93819 13.473165,-21.42287 6.03857,-9.11029 5.51913,-7.93039 5.32433,-7.26456 5.19448,-6.71546 5.162,-6.31328 5.16201,-5.96373 5.19447,-5.66145 5.22694,-5.368 5.25941,-5.08478 5.3568,-4.86982 5.42173,-4.62897 5.51912,-4.42035 5.61653,-4.21442 5.74638,-4.03391 5.87625,-3.85302 6.00611,-3.67264 6.16844,-3.51145 6.33076,-3.34852 6.52556,-3.20024 6.75281,-3.06292 6.98007,-2.92034 7.20733,-2.774 7.49952,-2.64726 7.79171,-2.51384 8.14883,-2.39376 8.50595,-2.265513 8.928,-2.146188 9.38252,-2.025187 9.90196,-1.908161 10.48634,-1.79246 11.16812,-1.680772 11.91482,-1.565583 12.79139,-1.453546 13.79782,-1.341052 14.96657,-1.228401 16.39506,-1.119192 6.39569,-0.381305 v 0"/></g></g><g id="g115243"><path style="fill:none;stroke:#000;stroke-width:.80000001;stroke-linecap:square;stroke-linejoin:miter;stroke-miterlimit:10;stroke-dasharray:none;stroke-opacity:1" id="path115245" d="M 57.6,38.016 V 304.128"/><path style="fill:none;stroke:#000;stroke-width:.80000001;stroke-linecap:square;stroke-linejoin:miter;stroke-miterlimit:10;stroke-dasharray:none;stroke-opacity:1" id="path115247" d="M 414.72,38.016 V 304.128"/><path style="fill:none;stroke:#000;stroke-width:.80000001;stroke-linecap:square;stroke-linejoin:miter;stroke-miterlimit:10;stroke-dasharray:none;stroke-opacity:1" id="path115249" d="M 57.6,38.016 H 414.72"/><path style="fill:none;stroke:#000;stroke-width:.80000001;stroke-linecap:square;stroke-linejoin:miter;stroke-miterlimit:10;stroke-dasharray:none;stroke-opacity:1" id="path115251" d="M 57.6,304.128 H 414.72"/></g></g></svg>