<svg xmlns="http://www.w3.org/2000/svg" xmlns:svg="http://www.w3.org/2000/svg" id="svg119728" width="614.4" height="460.8" version="1.1" viewBox="0 0 614.4 460.8" xml:space="preserve"><metadata id="metadata119734"/><defs id="defs119732"><clipPath id="clipPath119748" clipPathUnits="userSpaceOnUse"><path id="path119746" d="M 57.6,38.016 H 414.72 V 304.128 H 57.6 Z"/></clipPath><clipPath id="clipPath119758" clipPathUnits="userSpaceOnUse"><path id="path119756" d="M 57.6,38.016 H 414.72 V 304.128 H 57.6 Z"/></clipPath><clipPath id="clipPath119768" clipPathUnits="userSpaceOnUse"><path id="path119766" d="M 57.6,38.016 H 414.72 V 304.128 H 57.6 Z"/></clipPath><clipPath id="clipPath119778" clipPathUnits="userSpaceOnUse"><path id="path119776" d="M 57.6,38.016 H 414.72 V 304.128 H 57.6 Z"/></clipPath><clipPath id="clipPath119788" clipPathUnits="userSpaceOnUse"><path id="path119786" d="M 57.6,38.016 H 414.72 V 304.128 H 57.6 Z"/></clipPath><clipPath id="clipPath119798" clipPathUnits="userSpaceOnUse"><path id="path119796" d="M 57.6,38.016 H 414.72 V 304.128 H 57.6 Z"/></clipPath><clipPath id="clipPath119808" clipPathUnits="userSpaceOnUse"><path id="path119806" d="M 57.6,38.016 H 414.72 V 304.128 H 57.6 Z"/></clipPath><clipPath id="clipPath119818" clipPathUnits="userSpaceOnUse"><path id="path119816" d="M 57.6,38.016 H 414.72 V 304.128 H 57.6 Z"/></clipPath><clipPath id="clipPath119828" clipPathUnits="userSpaceOnUse"><path id="path119826" d="M 57.6,38.016 H 414.72 V 304.128 H 57.6 Z"/></clipPath><clipPath id="clipPath119838" clipPathUnits="userSpaceOnUse"><path id="path119836" d="M 57.6,38.016 H 414.72 V 304.128 H 57.6 Z"/></clipPath><clipPath id="clipPath119848" clipPathUnits="userSpaceOnUse"><path id="path119846" d="M 57.6,38.016 H 414.72 V 304.128 H 57.6 Z"/></clipPath><clipPath id="clipPath119858" clipPathUnits="userSpaceOnUse"><path id="path119856" d="M 57.6,38.016 H 414.72 V 304.128 H 57.6 Z"/></clipPath><clipPath id="clipPath119868" clipPathUnits="userSpaceOnUse"><path id="path119866" d="M 57.6,38.016 H 414.72 V 304.128 H 57.6 Z"/></clipPath><clipPath id="clipPath119878" clipPathUnits="userSpaceOnUse"><path id="path119876" d="M 57.6,38.016 H 414.72 V 304.128 H 57.6 Z"/></clipPath><clipPath id="clipPath119888" clipPathUnits="userSpaceOnUse"><path id="path119886" d="M 57.6,38.016 H 414.72 V 304.128 H 57.6 Z"/></clipPath><clipPath id="clipPath119898" clipPathUnits="userSpaceOnUse"><path id="path119896" d="M 57.6,38.016 H 414.72 V 304.128 H 57.6 Z"/></clipPath><clipPath id="clipPath119908" clipPathUnits="userSpaceOnUse"><path id="path119906" d="M 57.6,38.016 H 414.72 V 304.128 H 57.6 Z"/></clipPath><clipPath id="clipPath119918" clipPathUnits="userSpaceOnUse"><path id="path119916" d="M 57.6,38.016 H 414.72 V 304.128 H 57.6 Z"/></clipPath><clipPath id="clipPath119928" clipPathUnits="userSpaceOnUse"><path id="path119926" d="M 57.6,38.016 H 414.72 V 304.128 H 57.6 Z"/></clipPath><clipPath id="clipPath119938" clipPathUnits="userSpaceOnUse"><path id="path119936" d="M 57.6,38.016 H 414.72 V 304.128 H 57.6 Z"/></clipPath><clipPath id="clipPath119948" clipPathUnits="userSpaceOnUse"><path id="path119946" d="M 57.6,38.016 H 414.72 V 304.128 H 57.6 Z"/></clipPath><clipPath id="clipPath119958" clipPathUnits="userSpaceOnUse"><path id="path119956" d="M 57.6,38.016 H 414.72 V 304.128 H 57.6 Z"/></clipPath><clipPath id="clipPath119968" clipPathUnits="userSpaceOnUse"><path id="path119966" d="M 57.6,38.016 H 414.72 V 304.128 H 57.6 Z"/></clipPath><clipPath id="clipPath119978" clipPathUnits="userSpaceOnUse"><path id="path119976" d="M 57.6,38.016 H 414.72 V 304.128 H 57.6 Z"/></clipPath><clipPath id="clipPath119988" clipPathUnits="userSpaceOnUse"><path id="path119986" d="M 57.6,38.016 H 414.72 V 304.128 H 57.6 Z"/></clipPath><clipPath id="clipPath119998" clipPathUnits="userSpaceOnUse"><path id="path119996" d="M 57.6,38.016 H 414.72 V 304.128 H 57.6 Z"/></clipPath><clipPath id="clipPath120008" clipPathUnits="userSpaceOnUse"><path id="path120006" d="M 57.6,38.016 H 414.72 V 304.128 H 57.6 Z"/></clipPath><clipPath id="clipPath120018" clipPathUnits="userSpaceOnUse"><path id="path120016" d="M 57.6,38.016 H 414.72 V 304.128 H 57.6 Z"/></clipPath><clipPath id="clipPath120028" clipPathUnits="userSpaceOnUse"><path id="path120026" d="M 57.6,38.016 H 414.72 V 304.128 H 57.6 Z"/></clipPath><clipPath id="clipPath120076" clipPathUnits="userSpaceOnUse"><path id="path120074" d="M 57.6,38.016 H 414.72 V 304.128 H 57.6 Z"/></clipPath><clipPath id="clipPath120098" clipPathUnits="userSpaceOnUse"><path id="path120096" d="M -1021,-463 H 1794 V 1233 H -1021 Z"/></clipPath><clipPath id="clipPath120108" clipPathUnits="userSpaceOnUse"><path id="path120106" d="M 57.6,38.016 H 414.72 V 304.128 H 57.6 Z"/></clipPath><clipPath id="clipPath120130" clipPathUnits="userSpaceOnUse"><path id="path120128" d="M -1021,-463 H 1794 V 1233 H -1021 Z"/></clipPath><clipPath id="clipPath120140" clipPathUnits="userSpaceOnUse"><path id="path120138" d="M 57.6,38.016 H 414.72 V 304.128 H 57.6 Z"/></clipPath><clipPath id="clipPath120158" clipPathUnits="userSpaceOnUse"><path id="path120156" d="M 57.6,38.016 H 414.72 V 304.128 H 57.6 Z"/></clipPath><clipPath id="clipPath120176" clipPathUnits="userSpaceOnUse"><path id="path120174" d="M 57.6,38.016 H 414.72 V 304.128 H 57.6 Z"/></clipPath><clipPath id="clipPath120194" clipPathUnits="userSpaceOnUse"><path id="path120192" d="M 57.6,38.016 H 414.72 V 304.128 H 57.6 Z"/></clipPath><clipPath id="clipPath120212" clipPathUnits="userSpaceOnUse"><path id="path120210" d="M 57.6,38.016 H 414.72 V 304.128 H 57.6 Z"/></clipPath><clipPath id="clipPath120230" clipPathUnits="userSpaceOnUse"><path id="path120228" d="M 57.6,38.016 H 414.72 V 304.128 H 57.6 Z"/></clipPath><clipPath id="clipPath120248" clipPathUnits="userSpaceOnUse"><path id="path120246" d="M 57.6,38.016 H 414.72 V 304.128 H 57.6 Z"/></clipPath></defs><g id="g119736" transform="matrix(1.3333333,0,0,-1.3333333,0,460.8)"><path style="fill:#fff;fill-opacity:1;fill-rule:nonzero;stroke:none" id="path119738" d="M 0,0 H 460.8 V 345.6 H 0 Z"/><path style="fill:#fff;fill-opacity:1;fill-rule:nonzero;stroke:none" id="path119740" d="M 57.6,38.016 H 414.72 V 304.128 H 57.6 Z"/><g id="g119742"><g id="g119744" clip-path="url(#clipPath119748)"><path style="fill:red;fill-opacity:1;fill-rule:nonzero;stroke:red;stroke-width:1;stroke-linecap:butt;stroke-linejoin:miter;stroke-miterlimit:10;stroke-dasharray:none;stroke-opacity:1" id="path119750" d="m 73.832727,190.57454 -3.246545,8.45479 h 3.230313 l 0.03247,93.00267 v -93.00267 h 3.230313 l -3.246546,-8.45479 z"/></g></g><g id="g119752"><g id="g119754" clip-path="url(#clipPath119758)"><path style="fill:red;fill-opacity:1;fill-rule:nonzero;stroke:red;stroke-width:1;stroke-linecap:butt;stroke-linejoin:miter;stroke-miterlimit:10;stroke-dasharray:none;stroke-opacity:1" id="path119760" d="m 90.065455,169.93883 -3.246546,8.45479 h 3.230313 l 0.03247,62.0491 v -62.0491 h 3.230313 l -3.246545,-8.45479 z"/></g></g><g id="g119762"><g id="g119764" clip-path="url(#clipPath119768)"><path style="fill:green;fill-opacity:1;fill-rule:nonzero;stroke:green;stroke-width:1;stroke-linecap:butt;stroke-linejoin:miter;stroke-miterlimit:10;stroke-dasharray:none;stroke-opacity:1" id="path119770" d="m 93.312,205.9228 3.246545,-8.45479 h -3.230312 l -0.03247,-27.52918 v 27.52918 h -3.230312 l 3.246545,8.45479 z"/></g></g><g id="g119772"><g id="g119774" clip-path="url(#clipPath119778)"><path style="fill:red;fill-opacity:1;fill-rule:nonzero;stroke:red;stroke-width:1;stroke-linecap:butt;stroke-linejoin:miter;stroke-miterlimit:10;stroke-dasharray:none;stroke-opacity:1" id="path119780" d="m 106.29818,130.07393 -3.24654,8.45479 h 3.23031 l 0.0325,2.25176 v -2.25176 h 3.23031 l -3.24655,-8.45479 z"/></g></g><g id="g119782"><g id="g119784" clip-path="url(#clipPath119788)"><path style="fill:green;fill-opacity:1;fill-rule:nonzero;stroke:green;stroke-width:1;stroke-linecap:butt;stroke-linejoin:miter;stroke-miterlimit:10;stroke-dasharray:none;stroke-opacity:1" id="path119790" d="m 109.54473,168.59903 3.24654,-8.45478 h -3.23031 l -0.0325,-30.07032 v 30.07032 h -3.23031 l 3.24655,8.45478 z"/></g></g><g id="g119792"><g id="g119794" clip-path="url(#clipPath119798)"><path style="fill:red;fill-opacity:1;fill-rule:nonzero;stroke:red;stroke-width:1;stroke-linecap:butt;stroke-linejoin:miter;stroke-miterlimit:10;stroke-dasharray:none;stroke-opacity:1" id="path119800" d="m 122.53091,100.56886 3.24655,-8.454791 h -3.23032 l -0.0325,-25.096272 v 25.096272 h -3.23032 l 3.24655,8.454791 z"/></g></g><g id="g119802"><g id="g119804" clip-path="url(#clipPath119808)"><path style="fill:green;fill-opacity:1;fill-rule:nonzero;stroke:green;stroke-width:1;stroke-linecap:butt;stroke-linejoin:miter;stroke-miterlimit:10;stroke-dasharray:none;stroke-opacity:1" id="path119810" d="m 122.53091,118.84032 3.24655,-8.45479 h -3.23032 l -0.0325,-9.81667 v 9.81667 h -3.23032 l 3.24655,8.45479 z"/></g></g><g id="g119812"><g id="g119814" clip-path="url(#clipPath119818)"><path style="fill:red;fill-opacity:1;fill-rule:nonzero;stroke:red;stroke-width:1;stroke-linecap:butt;stroke-linejoin:miter;stroke-miterlimit:10;stroke-dasharray:none;stroke-opacity:1" id="path119820" d="m 138.76364,94.432198 3.24654,-8.454789 h -3.23031 l -0.0325,-34.30126 v 34.30126 h -3.23031 l 3.24655,8.454789 z"/></g></g><g id="g119822"><g id="g119824" clip-path="url(#clipPath119828)"><path style="fill:green;fill-opacity:1;fill-rule:nonzero;stroke:green;stroke-width:1;stroke-linecap:butt;stroke-linejoin:miter;stroke-miterlimit:10;stroke-dasharray:none;stroke-opacity:1" id="path119830" d="m 142.01018,85.808314 -3.24654,8.454788 h 3.23031 l 0.0325,0.169096 v -0.169096 h 3.23031 l -3.24655,-8.454788 z"/></g></g><g id="g119832"><g id="g119834" clip-path="url(#clipPath119838)"><path style="fill:red;fill-opacity:1;fill-rule:nonzero;stroke:red;stroke-width:1;stroke-linecap:butt;stroke-linejoin:miter;stroke-miterlimit:10;stroke-dasharray:none;stroke-opacity:1" id="path119840" d="m 154.99636,106.69989 3.24655,-8.454784 h -3.23031 l -0.0325,-15.899717 v 15.899717 h -3.23031 l 3.24654,8.454784 z"/></g></g><g id="g119842"><g id="g119844" clip-path="url(#clipPath119848)"><path style="fill:green;fill-opacity:1;fill-rule:nonzero;stroke:green;stroke-width:1;stroke-linecap:butt;stroke-linejoin:miter;stroke-miterlimit:10;stroke-dasharray:none;stroke-opacity:1" id="path119850" d="m 158.24291,89.643951 -3.24655,8.454789 h 3.23032 l 0.0325,8.60115 v -8.60115 h 3.23031 l -3.24654,-8.454789 z"/></g></g><g id="g119852"><g id="g119854" clip-path="url(#clipPath119858)"><path style="fill:green;fill-opacity:1;fill-rule:nonzero;stroke:green;stroke-width:1;stroke-linecap:butt;stroke-linejoin:miter;stroke-miterlimit:10;stroke-dasharray:none;stroke-opacity:1" id="path119860" d="m 171.22909,108.70604 -3.24654,8.45478 h 3.23031 l 0.0325,6.59109 v -6.59109 h 3.23032 l -3.24655,-8.45478 z"/></g></g><g id="g119862"><g id="g119864" clip-path="url(#clipPath119868)"><path style="fill:red;fill-opacity:1;fill-rule:nonzero;stroke:red;stroke-width:1;stroke-linecap:butt;stroke-linejoin:miter;stroke-miterlimit:10;stroke-dasharray:none;stroke-opacity:1" id="path119870" d="m 187.46182,134.17571 -3.24655,8.45478 h 3.23031 l 0.0325,8.40443 v -8.40443 h 3.23031 l -3.24654,-8.45478 z"/></g></g><g id="g119872"><g id="g119874" clip-path="url(#clipPath119878)"><path style="fill:green;fill-opacity:1;fill-rule:nonzero;stroke:green;stroke-width:1;stroke-linecap:butt;stroke-linejoin:miter;stroke-miterlimit:10;stroke-dasharray:none;stroke-opacity:1" id="path119880" d="m 187.46182,125.55182 -3.24655,8.45479 h 3.23031 l 0.0325,0.1691 v -0.1691 h 3.23031 l -3.24654,-8.45479 z"/></g></g><g id="g119882"><g id="g119884" clip-path="url(#clipPath119888)"><path style="fill:red;fill-opacity:1;fill-rule:nonzero;stroke:red;stroke-width:1;stroke-linecap:butt;stroke-linejoin:miter;stroke-miterlimit:10;stroke-dasharray:none;stroke-opacity:1" id="path119890" d="m 203.69454,134.44865 -3.24654,8.45478 h 3.23031 l 0.0325,8.81384 v -8.81384 h 3.23031 l -3.24655,-8.45478 z"/></g></g><g id="g119892"><g id="g119894" clip-path="url(#clipPath119898)"><path style="fill:green;fill-opacity:1;fill-rule:nonzero;stroke:green;stroke-width:1;stroke-linecap:butt;stroke-linejoin:miter;stroke-miterlimit:10;stroke-dasharray:none;stroke-opacity:1" id="path119900" d="m 206.94109,143.07253 3.24655,-8.45479 h -3.23032 l -0.0325,-0.16909 v 0.16909 h -3.23032 l 3.24655,8.45479 z"/></g></g><g id="g119902"><g id="g119904" clip-path="url(#clipPath119908)"><path style="fill:red;fill-opacity:1;fill-rule:nonzero;stroke:red;stroke-width:1;stroke-linecap:butt;stroke-linejoin:miter;stroke-miterlimit:10;stroke-dasharray:none;stroke-opacity:1" id="path119910" d="m 219.92727,127.18605 -3.24654,8.45479 h 3.23031 l 0.0325,0.1691 v -0.1691 h 3.23032 l -3.24655,-8.45479 z"/></g></g><g id="g119912"><g id="g119914" clip-path="url(#clipPath119918)"><path style="fill:green;fill-opacity:1;fill-rule:nonzero;stroke:green;stroke-width:1;stroke-linecap:butt;stroke-linejoin:miter;stroke-miterlimit:10;stroke-dasharray:none;stroke-opacity:1" id="path119920" d="m 223.17382,136.7096 3.24654,-8.45479 h -3.23031 l -0.0325,-0.1691 v 0.1691 h -3.23031 l 3.24655,8.45479 z"/></g></g><g id="g119922"><g id="g119924" clip-path="url(#clipPath119928)"><path style="fill:red;fill-opacity:1;fill-rule:nonzero;stroke:red;stroke-width:1;stroke-linecap:butt;stroke-linejoin:miter;stroke-miterlimit:10;stroke-dasharray:none;stroke-opacity:1" id="path119930" d="m 236.16,126.96749 3.24654,-8.45479 h -3.23031 l -0.0325,-0.16909 v 0.16909 h -3.23032 l 3.24655,8.45479 z"/></g></g><g id="g119932"><g id="g119934" clip-path="url(#clipPath119938)"><path style="fill:green;fill-opacity:1;fill-rule:nonzero;stroke:green;stroke-width:1;stroke-linecap:butt;stroke-linejoin:miter;stroke-miterlimit:10;stroke-dasharray:none;stroke-opacity:1" id="path119940" d="m 236.16,129.72306 3.24654,-8.45478 h -3.23031 l -0.0325,-0.1691 v 0.1691 h -3.23032 l 3.24655,8.45478 z"/></g></g><g id="g119942"><g id="g119944" clip-path="url(#clipPath119948)"><path style="fill:red;fill-opacity:1;fill-rule:nonzero;stroke:red;stroke-width:1;stroke-linecap:butt;stroke-linejoin:miter;stroke-miterlimit:10;stroke-dasharray:none;stroke-opacity:1" id="path119950" d="m 252.39273,118.42386 3.24654,-8.45479 h -3.23031 l -0.0325,-0.16909 v 0.16909 h -3.23031 l 3.24655,8.45479 z"/></g></g><g id="g119952"><g id="g119954" clip-path="url(#clipPath119958)"><path style="fill:red;fill-opacity:1;fill-rule:nonzero;stroke:red;stroke-width:1;stroke-linecap:butt;stroke-linejoin:miter;stroke-miterlimit:10;stroke-dasharray:none;stroke-opacity:1" id="path119960" d="m 268.62545,120.42839 3.24655,-8.45478 h -3.23031 l -0.0325,-0.1691 v 0.1691 h -3.23031 l 3.24654,8.45478 z"/></g></g><g id="g119962"><g id="g119964" clip-path="url(#clipPath119968)"><path style="fill:green;fill-opacity:1;fill-rule:nonzero;stroke:green;stroke-width:1;stroke-linecap:butt;stroke-linejoin:miter;stroke-miterlimit:10;stroke-dasharray:none;stroke-opacity:1" id="path119970" d="m 271.872,109.85966 -3.24655,8.45479 h 3.23032 l 0.0325,0.16909 v -0.16909 h 3.23031 l -3.24654,-8.45479 z"/></g></g><g id="g119972"><g id="g119974" clip-path="url(#clipPath119978)"><path style="fill:red;fill-opacity:1;fill-rule:nonzero;stroke:red;stroke-width:1;stroke-linecap:butt;stroke-linejoin:miter;stroke-miterlimit:10;stroke-dasharray:none;stroke-opacity:1" id="path119980" d="m 284.85818,128.02922 3.24655,-8.45479 h -3.23032 l -0.0325,-0.16909 v 0.16909 h -3.23031 l 3.24654,8.45479 z"/></g></g><g id="g119982"><g id="g119984" clip-path="url(#clipPath119988)"><path style="fill:green;fill-opacity:1;fill-rule:nonzero;stroke:green;stroke-width:1;stroke-linecap:butt;stroke-linejoin:miter;stroke-miterlimit:10;stroke-dasharray:none;stroke-opacity:1" id="path119990" d="m 288.10473,112.89999 -3.24655,8.45479 h 3.23031 l 0.0325,0.16909 v -0.16909 h 3.23031 l -3.24654,-8.45479 z"/></g></g><g id="g119992"><g id="g119994" clip-path="url(#clipPath119998)"><path style="fill:red;fill-opacity:1;fill-rule:nonzero;stroke:red;stroke-width:1;stroke-linecap:butt;stroke-linejoin:miter;stroke-miterlimit:10;stroke-dasharray:none;stroke-opacity:1" id="path120000" d="m 301.09091,117.63923 -3.24655,8.45479 h 3.23032 l 0.0325,0.1691 v -0.1691 h 3.23031 l -3.24654,-8.45479 z"/></g></g><g id="g120002"><g id="g120004" clip-path="url(#clipPath120008)"><path style="fill:green;fill-opacity:1;fill-rule:nonzero;stroke:green;stroke-width:1;stroke-linecap:butt;stroke-linejoin:miter;stroke-miterlimit:10;stroke-dasharray:none;stroke-opacity:1" id="path120010" d="m 301.09091,115.6431 -3.24655,8.45479 h 3.23032 l 0.0325,0.16909 v -0.16909 h 3.23031 l -3.24654,-8.45479 z"/></g></g><g id="g120012"><g id="g120014" clip-path="url(#clipPath120018)"><path style="fill:red;fill-opacity:1;fill-rule:nonzero;stroke:red;stroke-width:1;stroke-linecap:butt;stroke-linejoin:miter;stroke-miterlimit:10;stroke-dasharray:none;stroke-opacity:1" id="path120020" d="m 317.32364,120.12849 -3.24655,8.45479 h 3.23031 l 0.0325,0.1691 v -0.1691 h 3.23031 l -3.24654,-8.45479 z"/></g></g><g id="g120022"><g id="g120024" clip-path="url(#clipPath120028)"><path style="fill:red;fill-opacity:1;fill-rule:nonzero;stroke:red;stroke-width:1;stroke-linecap:butt;stroke-linejoin:miter;stroke-miterlimit:10;stroke-dasharray:none;stroke-opacity:1" id="path120030" d="m 333.55636,118.41515 -3.24654,8.45478 h 3.23031 l 0.0325,0.1691 v -0.1691 h 3.23031 l -3.24655,-8.45478 z"/></g></g><g id="g120032"><path style="fill:#000;fill-opacity:1;fill-rule:nonzero;stroke:#000;stroke-width:.80000001;stroke-linecap:butt;stroke-linejoin:round;stroke-miterlimit:10;stroke-dasharray:none;stroke-opacity:1" id="path120034" d="m 73.832727,38.016 v -3.5"/><text style="font-variant:normal;font-weight:400;font-size:10px;font-family:DejaVuSans;-inkscape-font-specification:DejaVuSans;writing-mode:lr-tb;fill:#000;fill-opacity:1;fill-rule:nonzero;stroke:none" id="text120038" transform="matrix(1,0,0,-1,70.65304,23.42225)"><tspan id="tspan120036" x="0" y="0">0</tspan></text><path style="fill:#000;fill-opacity:1;fill-rule:nonzero;stroke:#000;stroke-width:.80000001;stroke-linecap:butt;stroke-linejoin:round;stroke-miterlimit:10;stroke-dasharray:none;stroke-opacity:1" id="path120040" d="m 138.76364,38.016 v -3.5"/><text style="font-variant:normal;font-weight:400;font-size:10px;font-family:DejaVuSans;-inkscape-font-specification:DejaVuSans;writing-mode:lr-tb;fill:#000;fill-opacity:1;fill-rule:nonzero;stroke:none" id="text120044" transform="matrix(1,0,0,-1,135.58395,23.42225)"><tspan id="tspan120042" x="0" y="0">2</tspan></text><path style="fill:#000;fill-opacity:1;fill-rule:nonzero;stroke:#000;stroke-width:.80000001;stroke-linecap:butt;stroke-linejoin:round;stroke-miterlimit:10;stroke-dasharray:none;stroke-opacity:1" id="path120046" d="m 203.69454,38.016 v -3.5"/><text style="font-variant:normal;font-weight:400;font-size:10px;font-family:DejaVuSans;-inkscape-font-specification:DejaVuSans;writing-mode:lr-tb;fill:#000;fill-opacity:1;fill-rule:nonzero;stroke:none" id="text120050" transform="matrix(1,0,0,-1,200.51486,23.42225)"><tspan id="tspan120048" x="0" y="0">4</tspan></text><path style="fill:#000;fill-opacity:1;fill-rule:nonzero;stroke:#000;stroke-width:.80000001;stroke-linecap:butt;stroke-linejoin:round;stroke-miterlimit:10;stroke-dasharray:none;stroke-opacity:1" id="path120052" d="m 268.62545,38.016 v -3.5"/><text style="font-variant:normal;font-weight:400;font-size:10px;font-family:DejaVuSans;-inkscape-font-specification:DejaVuSans;writing-mode:lr-tb;fill:#000;fill-opacity:1;fill-rule:nonzero;stroke:none" id="text120056" transform="matrix(1,0,0,-1,265.44577,23.42225)"><tspan id="tspan120054" x="0" y="0">6</tspan></text><path style="fill:#000;fill-opacity:1;fill-rule:nonzero;stroke:#000;stroke-width:.80000001;stroke-linecap:butt;stroke-linejoin:round;stroke-miterlimit:10;stroke-dasharray:none;stroke-opacity:1" id="path120058" d="m 333.55636,38.016 v -3.5"/><text style="font-variant:normal;font-weight:400;font-size:10px;font-family:DejaVuSans;-inkscape-font-specification:DejaVuSans;writing-mode:lr-tb;fill:#000;fill-opacity:1;fill-rule:nonzero;stroke:none" id="text120062" transform="matrix(1,0,0,-1,330.37668,23.42225)"><tspan id="tspan120060" x="0" y="0">8</tspan></text><path style="fill:#000;fill-opacity:1;fill-rule:nonzero;stroke:#000;stroke-width:.80000001;stroke-linecap:butt;stroke-linejoin:round;stroke-miterlimit:10;stroke-dasharray:none;stroke-opacity:1" id="path120064" d="m 398.48727,38.016 v -3.5"/><text style="font-variant:normal;font-weight:400;font-size:10px;font-family:DejaVuSans;-inkscape-font-specification:DejaVuSans;writing-mode:lr-tb;fill:#000;fill-opacity:1;fill-rule:nonzero;stroke:none" id="text120068" transform="matrix(1,0,0,-1,392.1279,23.42225)"><tspan id="tspan120066" x="0 6.36" y="0">10</tspan></text></g><g id="g120070"><g id="g120072" clip-path="url(#clipPath120076)"><path style="fill:none;stroke:gray;stroke-width:.80000001;stroke-linecap:butt;stroke-linejoin:round;stroke-miterlimit:10;stroke-dasharray:2.2,2.2;stroke-dashoffset:0;stroke-opacity:1" id="path120078" d="M 57.6,55.297923 H 414.72"/></g></g><g id="g120080"><path style="fill:#000;fill-opacity:1;fill-rule:nonzero;stroke:#000;stroke-width:.80000001;stroke-linecap:butt;stroke-linejoin:round;stroke-miterlimit:10;stroke-dasharray:none;stroke-opacity:1" id="path120082" d="M 57.6,55.297923 H 54.1"/><g id="g120084" transform="translate(26.31875,51.501048)"><text style="font-variant:normal;font-weight:400;font-size:10px;font-family:DejaVuSans;-inkscape-font-specification:DejaVuSans;writing-mode:lr-tb;fill:#000;fill-opacity:1;fill-rule:nonzero;stroke:none" id="text120088" transform="matrix(1,0,0,-1,8.3789063,0)"><tspan id="tspan120086" x="0 6.36 9.54" y="0">0.4</tspan></text><g id="g120090" transform="scale(0.01)"><g id="g120092"><g id="g120094" clip-path="url(#clipPath120098)"><path style="fill:#000;fill-opacity:1;fill-rule:nonzero;stroke:none" id="path120100" d="M 106,355 H 732 V 272 H 106 v 83"/></g></g></g></g></g><g id="g120102"><g id="g120104" clip-path="url(#clipPath120108)"><path style="fill:none;stroke:gray;stroke-width:.80000001;stroke-linecap:butt;stroke-linejoin:round;stroke-miterlimit:10;stroke-dasharray:2.2,2.2;stroke-dashoffset:0;stroke-opacity:1" id="path120110" d="M 57.6,89.117077 H 414.72"/></g></g><g id="g120112"><path style="fill:#000;fill-opacity:1;fill-rule:nonzero;stroke:#000;stroke-width:.80000001;stroke-linecap:butt;stroke-linejoin:round;stroke-miterlimit:10;stroke-dasharray:none;stroke-opacity:1" id="path120114" d="M 57.6,89.117077 H 54.1"/><g id="g120116" transform="translate(26.31875,85.320202)"><text style="font-variant:normal;font-weight:400;font-size:10px;font-family:DejaVuSans;-inkscape-font-specification:DejaVuSans;writing-mode:lr-tb;fill:#000;fill-opacity:1;fill-rule:nonzero;stroke:none" id="text120120" transform="matrix(1,0,0,-1,8.3789063,0)"><tspan id="tspan120118" x="0 6.36 9.54" y="0">0.2</tspan></text><g id="g120122" transform="scale(0.01)"><g id="g120124"><g id="g120126" clip-path="url(#clipPath120130)"><path style="fill:#000;fill-opacity:1;fill-rule:nonzero;stroke:none" id="path120132" d="M 106,355 H 732 V 272 H 106 v 83"/></g></g></g></g></g><g id="g120134"><g id="g120136" clip-path="url(#clipPath120140)"><path style="fill:none;stroke:gray;stroke-width:.80000001;stroke-linecap:butt;stroke-linejoin:round;stroke-miterlimit:10;stroke-dasharray:2.2,2.2;stroke-dashoffset:0;stroke-opacity:1" id="path120142" d="M 57.6,122.93623 H 414.72"/></g></g><g id="g120144"><path style="fill:#000;fill-opacity:1;fill-rule:nonzero;stroke:#000;stroke-width:.80000001;stroke-linecap:butt;stroke-linejoin:round;stroke-miterlimit:10;stroke-dasharray:none;stroke-opacity:1" id="path120146" d="M 57.6,122.93623 H 54.1"/><text style="font-variant:normal;font-weight:400;font-size:10px;font-family:DejaVuSans;-inkscape-font-specification:DejaVuSans;writing-mode:lr-tb;fill:#000;fill-opacity:1;fill-rule:nonzero;stroke:none" id="text120150" transform="matrix(1,0,0,-1,34.69375,119.13936)"><tspan id="tspan120148" x="0 6.36 9.54" y="0">0.0</tspan></text></g><g id="g120152"><g id="g120154" clip-path="url(#clipPath120158)"><path style="fill:none;stroke:gray;stroke-width:.80000001;stroke-linecap:butt;stroke-linejoin:round;stroke-miterlimit:10;stroke-dasharray:2.2,2.2;stroke-dashoffset:0;stroke-opacity:1" id="path120160" d="M 57.6,156.75538 H 414.72"/></g></g><g id="g120162"><path style="fill:#000;fill-opacity:1;fill-rule:nonzero;stroke:#000;stroke-width:.80000001;stroke-linecap:butt;stroke-linejoin:round;stroke-miterlimit:10;stroke-dasharray:none;stroke-opacity:1" id="path120164" d="M 57.6,156.75538 H 54.1"/><text style="font-variant:normal;font-weight:400;font-size:10px;font-family:DejaVuSans;-inkscape-font-specification:DejaVuSans;writing-mode:lr-tb;fill:#000;fill-opacity:1;fill-rule:nonzero;stroke:none" id="text120168" transform="matrix(1,0,0,-1,34.69375,152.95851)"><tspan id="tspan120166" x="0 6.36 9.54" y="0">0.2</tspan></text></g><g id="g120170"><g id="g120172" clip-path="url(#clipPath120176)"><path style="fill:none;stroke:gray;stroke-width:.80000001;stroke-linecap:butt;stroke-linejoin:round;stroke-miterlimit:10;stroke-dasharray:2.2,2.2;stroke-dashoffset:0;stroke-opacity:1" id="path120178" d="M 57.6,190.57454 H 414.72"/></g></g><g id="g120180"><path style="fill:#000;fill-opacity:1;fill-rule:nonzero;stroke:#000;stroke-width:.80000001;stroke-linecap:butt;stroke-linejoin:round;stroke-miterlimit:10;stroke-dasharray:none;stroke-opacity:1" id="path120182" d="M 57.6,190.57454 H 54.1"/><text style="font-variant:normal;font-weight:400;font-size:10px;font-family:DejaVuSans;-inkscape-font-specification:DejaVuSans;writing-mode:lr-tb;fill:#000;fill-opacity:1;fill-rule:nonzero;stroke:none" id="text120186" transform="matrix(1,0,0,-1,34.69375,186.77766)"><tspan id="tspan120184" x="0 6.36 9.54" y="0">0.4</tspan></text></g><g id="g120188"><g id="g120190" clip-path="url(#clipPath120194)"><path style="fill:none;stroke:gray;stroke-width:.80000001;stroke-linecap:butt;stroke-linejoin:round;stroke-miterlimit:10;stroke-dasharray:2.2,2.2;stroke-dashoffset:0;stroke-opacity:1" id="path120196" d="M 57.6,224.39369 H 414.72"/></g></g><g id="g120198"><path style="fill:#000;fill-opacity:1;fill-rule:nonzero;stroke:#000;stroke-width:.80000001;stroke-linecap:butt;stroke-linejoin:round;stroke-miterlimit:10;stroke-dasharray:none;stroke-opacity:1" id="path120200" d="M 57.6,224.39369 H 54.1"/><text style="font-variant:normal;font-weight:400;font-size:10px;font-family:DejaVuSans;-inkscape-font-specification:DejaVuSans;writing-mode:lr-tb;fill:#000;fill-opacity:1;fill-rule:nonzero;stroke:none" id="text120204" transform="matrix(1,0,0,-1,34.69375,220.59682)"><tspan id="tspan120202" x="0 6.36 9.54" y="0">0.6</tspan></text></g><g id="g120206"><g id="g120208" clip-path="url(#clipPath120212)"><path style="fill:none;stroke:gray;stroke-width:.80000001;stroke-linecap:butt;stroke-linejoin:round;stroke-miterlimit:10;stroke-dasharray:2.2,2.2;stroke-dashoffset:0;stroke-opacity:1" id="path120214" d="M 57.6,258.21285 H 414.72"/></g></g><g id="g120216"><path style="fill:#000;fill-opacity:1;fill-rule:nonzero;stroke:#000;stroke-width:.80000001;stroke-linecap:butt;stroke-linejoin:round;stroke-miterlimit:10;stroke-dasharray:none;stroke-opacity:1" id="path120218" d="M 57.6,258.21285 H 54.1"/><text style="font-variant:normal;font-weight:400;font-size:10px;font-family:DejaVuSans;-inkscape-font-specification:DejaVuSans;writing-mode:lr-tb;fill:#000;fill-opacity:1;fill-rule:nonzero;stroke:none" id="text120222" transform="matrix(1,0,0,-1,34.69375,254.41597)"><tspan id="tspan120220" x="0 6.36 9.54" y="0">0.8</tspan></text></g><g id="g120224"><g id="g120226" clip-path="url(#clipPath120230)"><path style="fill:none;stroke:gray;stroke-width:.80000001;stroke-linecap:butt;stroke-linejoin:round;stroke-miterlimit:10;stroke-dasharray:2.2,2.2;stroke-dashoffset:0;stroke-opacity:1" id="path120232" d="M 57.6,292.032 H 414.72"/></g></g><g id="g120234"><path style="fill:#000;fill-opacity:1;fill-rule:nonzero;stroke:#000;stroke-width:.80000001;stroke-linecap:butt;stroke-linejoin:round;stroke-miterlimit:10;stroke-dasharray:none;stroke-opacity:1" id="path120236" d="M 57.6,292.032 H 54.1"/><text style="font-variant:normal;font-weight:400;font-size:10px;font-family:DejaVuSans;-inkscape-font-specification:DejaVuSans;writing-mode:lr-tb;fill:#000;fill-opacity:1;fill-rule:nonzero;stroke:none" id="text120240" transform="matrix(1,0,0,-1,34.69375,288.23512)"><tspan id="tspan120238" x="0 6.36 9.54" y="0">1.0</tspan></text></g><g id="g120242"><g id="g120244" clip-path="url(#clipPath120248)"><path style="fill:none;stroke:#1f77b4;stroke-width:1.5;stroke-linecap:square;stroke-linejoin:round;stroke-miterlimit:10;stroke-dasharray:none;stroke-opacity:1" id="path120250" d="m 73.832727,292.032 0.681775,-0.10592 0.71424,-0.34639 0.746705,-0.61415 0.844102,-0.99672 0.941498,-1.47928 1.038895,-2.06625 1.168756,-2.84552 1.298618,-3.77523 1.460946,-4.97005 1.623273,-6.34954 1.818065,-8.04368 2.077789,-10.24719 2.402444,-13.0165 2.921891,-17.12082 4.090647,-25.42893 8.343619,-52.1064 3.27901,-18.90208 2.79203,-14.83464 2.46738,-11.947698 2.24011,-9.789594 2.07779,-8.112039 1.91546,-6.612749 1.7856,-5.394191 1.65574,-4.326882 1.55835,-3.475238 1.46094,-2.73287 1.36355,-2.095527 1.26615,-1.557094 1.20122,-1.136637 1.13629,-0.77567 1.07136,-0.470277 1.0389,-0.219691 1.03889,0.007 1.0389,0.227313 1.10382,0.475131 1.16876,0.755747 1.23369,1.067553 1.36355,1.485904 1.49341,1.973485 1.62327,2.524845 1.81806,3.254177 2.04533,4.136775 2.33751,5.250877 2.79203,6.85 3.60367,9.473856 11.75249,31.354984 3.08422,7.34389 2.69463,5.85761 2.43491,4.77517 2.24012,3.91771 2.07779,3.20213 1.98039,2.65105 1.85053,2.11625 1.7856,1.70873 1.6882,1.31502 1.62328,0.99171 1.5908,0.71677 1.55834,0.46292 1.55835,0.23305 1.55834,0.0113 1.62327,-0.21403 1.65574,-0.44369 1.75313,-0.70289 1.883,-1.0025 2.01286,-1.32981 2.20765,-1.73105 2.46737,-2.22397 2.85696,-2.88346 3.5712,-3.93874 6.07104,-7.09332 5.71392,-6.54275 3.70107,-3.90338 3.14914,-3.00677 2.85696,-2.4264 2.66217,-1.97315 2.49984,-1.58286 2.43491,-1.28079 2.36998,-0.99531 2.30505,-0.73048 2.30504,-0.5 2.33752,-0.27876 2.36997,-0.0584 2.46738,0.16472 2.56477,0.396 2.75956,0.65603 2.98683,0.94326 3.3764,1.30628 4.05818,1.82078 5.87625,2.90906 9.0254,4.4518 4.54516,1.97896 3.96079,1.48579 3.66859,1.14113 3.50627,0.86055 3.44134,0.61808 3.4738,0.39686 3.53874,0.17794 3.6686,-0.0404 3.89585,-0.26732 4.28544,-0.52033 4.99968,-0.83864 6.72035,-1.37173 14.67438,-3.05333 5.90872,-0.95905 5.38926,-0.65084 5.22694,-0.40705 5.29187,-0.18755 5.58406,0.0282 6.2009,0.26027 7.56445,0.55214 2.56477,0.22443 v 0"/></g></g><g id="g120252"><path style="fill:none;stroke:#000;stroke-width:.80000001;stroke-linecap:square;stroke-linejoin:miter;stroke-miterlimit:10;stroke-dasharray:none;stroke-opacity:1" id="path120254" d="M 57.6,38.016 V 304.128"/><path style="fill:none;stroke:#000;stroke-width:.80000001;stroke-linecap:square;stroke-linejoin:miter;stroke-miterlimit:10;stroke-dasharray:none;stroke-opacity:1" id="path120256" d="M 414.72,38.016 V 304.128"/><path style="fill:none;stroke:#000;stroke-width:.80000001;stroke-linecap:square;stroke-linejoin:miter;stroke-miterlimit:10;stroke-dasharray:none;stroke-opacity:1" id="path120258" d="M 57.6,38.016 H 414.72"/><path style="fill:none;stroke:#000;stroke-width:.80000001;stroke-linecap:square;stroke-linejoin:miter;stroke-miterlimit:10;stroke-dasharray:none;stroke-opacity:1" id="path120260" d="M 57.6,304.128 H 414.72"/></g></g></svg>