<svg xmlns="http://www.w3.org/2000/svg" xmlns:svg="http://www.w3.org/2000/svg" id="svg95593" width="614.4" height="460.8" version="1.1" viewBox="0 0 614.4 460.8" xml:space="preserve"><metadata id="metadata95599"/><defs id="defs95597"><clipPath id="clipPath95703" clipPathUnits="userSpaceOnUse"><path id="path95701" d="M 57.6,38.016 H 414.72 V 304.128 H 57.6 Z"/></clipPath><clipPath id="clipPath95713" clipPathUnits="userSpaceOnUse"><path id="path95711" d="M 57.6,38.016 H 414.72 V 304.128 H 57.6 Z"/></clipPath><clipPath id="clipPath95723" clipPathUnits="userSpaceOnUse"><path id="path95721" d="M 57.6,38.016 H 414.72 V 304.128 H 57.6 Z"/></clipPath><clipPath id="clipPath95733" clipPathUnits="userSpaceOnUse"><path id="path95731" d="M 57.6,38.016 H 414.72 V 304.128 H 57.6 Z"/></clipPath></defs><g id="g95601" transform="matrix(1.3333333,0,0,-1.3333333,0,460.8)"><path style="fill:#fff;fill-opacity:1;fill-rule:nonzero;stroke:none" id="path95603" d="M 0,0 H 460.8 V 345.6 H 0 Z"/><path style="fill:#fff;fill-opacity:1;fill-rule:nonzero;stroke:none" id="path95605" d="M 57.6,38.016 H 414.72 V 304.128 H 57.6 Z"/><path style="fill:#000;fill-opacity:1;fill-rule:nonzero;stroke:#000;stroke-width:.80000001;stroke-linecap:butt;stroke-linejoin:round;stroke-miterlimit:10;stroke-dasharray:none;stroke-opacity:1" id="path95607" d="m 73.832727,38.016 v -3.5"/><text style="font-variant:normal;font-weight:400;font-size:10px;font-family:DejaVuSans;-inkscape-font-specification:DejaVuSans;writing-mode:lr-tb;fill:#000;fill-opacity:1;fill-rule:nonzero;stroke:none" id="text95611" transform="matrix(1,0,0,-1,70.65304,23.42225)"><tspan id="tspan95609" x="0" y="0">0</tspan></text><path style="fill:#000;fill-opacity:1;fill-rule:nonzero;stroke:#000;stroke-width:.80000001;stroke-linecap:butt;stroke-linejoin:round;stroke-miterlimit:10;stroke-dasharray:none;stroke-opacity:1" id="path95613" d="m 138.76364,38.016 v -3.5"/><text style="font-variant:normal;font-weight:400;font-size:10px;font-family:DejaVuSans;-inkscape-font-specification:DejaVuSans;writing-mode:lr-tb;fill:#000;fill-opacity:1;fill-rule:nonzero;stroke:none" id="text95617" transform="matrix(1,0,0,-1,135.58395,23.42225)"><tspan id="tspan95615" x="0" y="0">2</tspan></text><path style="fill:#000;fill-opacity:1;fill-rule:nonzero;stroke:#000;stroke-width:.80000001;stroke-linecap:butt;stroke-linejoin:round;stroke-miterlimit:10;stroke-dasharray:none;stroke-opacity:1" id="path95619" d="m 203.69454,38.016 v -3.5"/><text style="font-variant:normal;font-weight:400;font-size:10px;font-family:DejaVuSans;-inkscape-font-specification:DejaVuSans;writing-mode:lr-tb;fill:#000;fill-opacity:1;fill-rule:nonzero;stroke:none" id="text95623" transform="matrix(1,0,0,-1,200.51486,23.42225)"><tspan id="tspan95621" x="0" y="0">4</tspan></text><path style="fill:#000;fill-opacity:1;fill-rule:nonzero;stroke:#000;stroke-width:.80000001;stroke-linecap:butt;stroke-linejoin:round;stroke-miterlimit:10;stroke-dasharray:none;stroke-opacity:1" id="path95625" d="m 268.62545,38.016 v -3.5"/><text style="font-variant:normal;font-weight:400;font-size:10px;font-family:DejaVuSans;-inkscape-font-specification:DejaVuSans;writing-mode:lr-tb;fill:#000;fill-opacity:1;fill-rule:nonzero;stroke:none" id="text95629" transform="matrix(1,0,0,-1,265.44577,23.42225)"><tspan id="tspan95627" x="0" y="0">6</tspan></text><path style="fill:#000;fill-opacity:1;fill-rule:nonzero;stroke:#000;stroke-width:.80000001;stroke-linecap:butt;stroke-linejoin:round;stroke-miterlimit:10;stroke-dasharray:none;stroke-opacity:1" id="path95631" d="m 333.55636,38.016 v -3.5"/><text style="font-variant:normal;font-weight:400;font-size:10px;font-family:DejaVuSans;-inkscape-font-specification:DejaVuSans;writing-mode:lr-tb;fill:#000;fill-opacity:1;fill-rule:nonzero;stroke:none" id="text95635" transform="matrix(1,0,0,-1,330.37668,23.42225)"><tspan id="tspan95633" x="0" y="0">8</tspan></text><path style="fill:#000;fill-opacity:1;fill-rule:nonzero;stroke:#000;stroke-width:.80000001;stroke-linecap:butt;stroke-linejoin:round;stroke-miterlimit:10;stroke-dasharray:none;stroke-opacity:1" id="path95637" d="m 398.48727,38.016 v -3.5"/><text style="font-variant:normal;font-weight:400;font-size:10px;font-family:DejaVuSans;-inkscape-font-specification:DejaVuSans;writing-mode:lr-tb;fill:#000;fill-opacity:1;fill-rule:nonzero;stroke:none" id="text95641" transform="matrix(1,0,0,-1,392.1279,23.42225)"><tspan id="tspan95639" x="0 6.36" y="0">10</tspan></text><path style="fill:#000;fill-opacity:1;fill-rule:nonzero;stroke:#000;stroke-width:.80000001;stroke-linecap:butt;stroke-linejoin:round;stroke-miterlimit:10;stroke-dasharray:none;stroke-opacity:1" id="path95643" d="M 57.6,50.112 H 54.1"/><text style="font-variant:normal;font-weight:400;font-size:10px;font-family:DejaVuSans;-inkscape-font-specification:DejaVuSans;writing-mode:lr-tb;fill:#000;fill-opacity:1;fill-rule:nonzero;stroke:none" id="text95647" transform="matrix(1,0,0,-1,34.69375,46.315125)"><tspan id="tspan95645" x="0 6.36 9.54" y="0">0.0</tspan></text><path style="fill:#000;fill-opacity:1;fill-rule:nonzero;stroke:#000;stroke-width:.80000001;stroke-linecap:butt;stroke-linejoin:round;stroke-miterlimit:10;stroke-dasharray:none;stroke-opacity:1" id="path95649" d="M 57.6,81.36274 H 54.1"/><text style="font-variant:normal;font-weight:400;font-size:10px;font-family:DejaVuSans;-inkscape-font-specification:DejaVuSans;writing-mode:lr-tb;fill:#000;fill-opacity:1;fill-rule:nonzero;stroke:none" id="text95653" transform="matrix(1,0,0,-1,34.69375,77.565865)"><tspan id="tspan95651" x="0 6.36 9.54" y="0">0.2</tspan></text><path style="fill:#000;fill-opacity:1;fill-rule:nonzero;stroke:#000;stroke-width:.80000001;stroke-linecap:butt;stroke-linejoin:round;stroke-miterlimit:10;stroke-dasharray:none;stroke-opacity:1" id="path95655" d="M 57.6,112.61348 H 54.1"/><text style="font-variant:normal;font-weight:400;font-size:10px;font-family:DejaVuSans;-inkscape-font-specification:DejaVuSans;writing-mode:lr-tb;fill:#000;fill-opacity:1;fill-rule:nonzero;stroke:none" id="text95659" transform="matrix(1,0,0,-1,34.69375,108.81661)"><tspan id="tspan95657" x="0 6.36 9.54" y="0">0.4</tspan></text><path style="fill:#000;fill-opacity:1;fill-rule:nonzero;stroke:#000;stroke-width:.80000001;stroke-linecap:butt;stroke-linejoin:round;stroke-miterlimit:10;stroke-dasharray:none;stroke-opacity:1" id="path95661" d="M 57.6,143.86422 H 54.1"/><text style="font-variant:normal;font-weight:400;font-size:10px;font-family:DejaVuSans;-inkscape-font-specification:DejaVuSans;writing-mode:lr-tb;fill:#000;fill-opacity:1;fill-rule:nonzero;stroke:none" id="text95665" transform="matrix(1,0,0,-1,34.69375,140.06735)"><tspan id="tspan95663" x="0 6.36 9.54" y="0">0.6</tspan></text><path style="fill:#000;fill-opacity:1;fill-rule:nonzero;stroke:#000;stroke-width:.80000001;stroke-linecap:butt;stroke-linejoin:round;stroke-miterlimit:10;stroke-dasharray:none;stroke-opacity:1" id="path95667" d="M 57.6,175.11496 H 54.1"/><text style="font-variant:normal;font-weight:400;font-size:10px;font-family:DejaVuSans;-inkscape-font-specification:DejaVuSans;writing-mode:lr-tb;fill:#000;fill-opacity:1;fill-rule:nonzero;stroke:none" id="text95671" transform="matrix(1,0,0,-1,34.69375,171.31809)"><tspan id="tspan95669" x="0 6.36 9.54" y="0">0.8</tspan></text><path style="fill:#000;fill-opacity:1;fill-rule:nonzero;stroke:#000;stroke-width:.80000001;stroke-linecap:butt;stroke-linejoin:round;stroke-miterlimit:10;stroke-dasharray:none;stroke-opacity:1" id="path95673" d="M 57.6,206.3657 H 54.1"/><text style="font-variant:normal;font-weight:400;font-size:10px;font-family:DejaVuSans;-inkscape-font-specification:DejaVuSans;writing-mode:lr-tb;fill:#000;fill-opacity:1;fill-rule:nonzero;stroke:none" id="text95677" transform="matrix(1,0,0,-1,34.69375,202.56883)"><tspan id="tspan95675" x="0 6.36 9.54" y="0">1.0</tspan></text><path style="fill:#000;fill-opacity:1;fill-rule:nonzero;stroke:#000;stroke-width:.80000001;stroke-linecap:butt;stroke-linejoin:round;stroke-miterlimit:10;stroke-dasharray:none;stroke-opacity:1" id="path95679" d="M 57.6,237.61644 H 54.1"/><text style="font-variant:normal;font-weight:400;font-size:10px;font-family:DejaVuSans;-inkscape-font-specification:DejaVuSans;writing-mode:lr-tb;fill:#000;fill-opacity:1;fill-rule:nonzero;stroke:none" id="text95683" transform="matrix(1,0,0,-1,34.69375,233.81957)"><tspan id="tspan95681" x="0 6.36 9.54" y="0">1.2</tspan></text><path style="fill:#000;fill-opacity:1;fill-rule:nonzero;stroke:#000;stroke-width:.80000001;stroke-linecap:butt;stroke-linejoin:round;stroke-miterlimit:10;stroke-dasharray:none;stroke-opacity:1" id="path95685" d="M 57.6,268.86718 H 54.1"/><text style="font-variant:normal;font-weight:400;font-size:10px;font-family:DejaVuSans;-inkscape-font-specification:DejaVuSans;writing-mode:lr-tb;fill:#000;fill-opacity:1;fill-rule:nonzero;stroke:none" id="text95689" transform="matrix(1,0,0,-1,34.69375,265.07031)"><tspan id="tspan95687" x="0 6.36 9.54" y="0">1.4</tspan></text><path style="fill:#000;fill-opacity:1;fill-rule:nonzero;stroke:#000;stroke-width:.80000001;stroke-linecap:butt;stroke-linejoin:round;stroke-miterlimit:10;stroke-dasharray:none;stroke-opacity:1" id="path95691" d="M 57.6,300.11792 H 54.1"/><text style="font-variant:normal;font-weight:400;font-size:10px;font-family:DejaVuSans;-inkscape-font-specification:DejaVuSans;writing-mode:lr-tb;fill:#000;fill-opacity:1;fill-rule:nonzero;stroke:none" id="text95695" transform="matrix(1,0,0,-1,34.69375,296.32105)"><tspan id="tspan95693" x="0 6.36 9.54" y="0">1.6</tspan></text><g id="g95697"><g id="g95699" clip-path="url(#clipPath95703)"><path style="fill:none;stroke:#000;stroke-width:1.5;stroke-linecap:square;stroke-linejoin:round;stroke-miterlimit:10;stroke-dasharray:none;stroke-opacity:1" id="path95705" d="m 73.832727,50.112 h 32.432993 l 0.12986,156.2537 h 292.09169 v 0"/></g></g><g id="g95707"><g id="g95709" clip-path="url(#clipPath95713)"><path style="fill:none;stroke:green;stroke-width:1.5;stroke-linecap:square;stroke-linejoin:round;stroke-miterlimit:10;stroke-dasharray:none;stroke-opacity:1" id="path95715" d="m 73.832727,50.112 32.757643,0.107654 0.35712,0.423555 0.48698,0.992169 0.64931,1.879324 0.9415,3.480167 1.42848,6.234544 2.69463,12.949947 8.11637,39.3028 4.3179,19.68636 3.86339,16.60023 3.53873,14.25178 3.31148,12.44181 3.14915,10.98631 2.98682,9.63248 2.85696,8.4822 2.75957,7.50802 2.66216,6.60498 2.56477,5.77468 2.46738,5.01699 2.40244,4.38642 2.30505,3.75608 2.24012,3.23626 2.17518,2.76286 2.14272,2.36724 2.07779,1.97089 2.04532,1.63924 2.01286,1.33302 2.01286,1.06657 1.98039,0.80073 2.01286,0.57309 2.01286,0.34257 2.04532,0.12482 2.11026,-0.0932 2.20765,-0.32316 2.30505,-0.56589 2.4349,-0.83068 2.59724,-1.12547 2.79203,-1.45611 3.05175,-1.8467 3.40888,-2.32978 3.89585,-2.94103 4.70749,-3.84661 6.52556,-5.6468 13.79782,-11.99849 5.61652,-4.54235 4.90228,-3.68411 4.5127,-3.11874 4.28544,-2.69585 4.15558,-2.35293 4.05818,-2.04247 3.99325,-1.76154 3.96079,-1.50593 3.99325,-1.28044 4.02572,-1.0576 4.12311,-0.85206 4.22051,-0.64471 4.38283,-0.44431 4.6101,-0.24248 4.90228,-0.0333 5.32434,0.18989 5.90871,0.43826 6.81774,0.73506 8.60335,1.16356 17.23916,2.62228 12.56413,1.78087 9.83703,1.17075 9.18772,0.87061 9.1228,0.64044 9.41498,0.43591 5.68145,0.16206 v 0"/></g></g><g id="g95717"><g id="g95719" clip-path="url(#clipPath95723)"><path style="fill:none;stroke:red;stroke-width:1.5;stroke-linecap:butt;stroke-linejoin:round;stroke-miterlimit:10;stroke-dasharray:5.6,2.4;stroke-dashoffset:0;stroke-opacity:1" id="path95725" d="m 73.832727,50.112 32.660253,0.09135 0.25972,0.435167 0.35712,1.093929 0.51945,2.400632 0.7467,4.639148 1.16876,8.876795 6.68788,53.299609 2.11026,14.01815 2.07779,12.33191 2.04532,10.82593 2.04532,9.63898 2.01286,8.43417 2.01286,7.4886 1.98039,6.53166 1.98039,5.78047 1.9804,5.1003 1.94792,4.4161 1.94793,3.87714 1.94793,3.38966 1.94792,2.94918 1.94793,2.5516 1.94793,2.19316 1.98039,1.89905 2.01286,1.62352 2.04532,1.3664 2.11026,1.14313 2.17518,0.92705 2.27259,0.72869 2.40244,0.53767 2.56477,0.34622 2.79203,0.14962 3.05175,-0.0622 3.40888,-0.29552 3.92831,-0.57086 4.64256,-0.90713 5.94118,-1.39984 9.54485,-2.51065 14.96657,-3.91005 9.05786,-2.12283 8.53842,-1.7728 8.50595,-1.53813 8.7332,-1.35238 9.18773,-1.19606 9.83703,-1.05384 10.7136,-0.92105 11.91482,-0.79688 13.5381,-0.67693 15.77821,-0.55975 19.12215,-0.4473 24.38156,-0.33682 33.9264,-0.23032 3.24654,-0.0134 v 0"/></g></g><g id="g95727"><g id="g95729" clip-path="url(#clipPath95733)"><path style="fill:none;stroke:#00f;stroke-width:1.5;stroke-linecap:butt;stroke-linejoin:round;stroke-miterlimit:10;stroke-dasharray:2.2,2.2;stroke-dashoffset:0;stroke-opacity:1" id="path95735" d="m 73.832727,50.112 32.855043,0.0972 0.48698,0.377774 0.61684,0.791653 0.8441,1.490351 1.1363,2.500061 1.5908,4.087488 2.14272,6.167397 2.66217,8.376224 3.08422,10.463874 3.5712,12.933748 4.28544,16.4005 5.84378,23.32549 12.4018,49.70084 4.67503,17.67317 3.96078,14.13087 3.53874,11.82593 3.24654,10.09358 3.01929,8.67568 2.8245,7.45283 2.66216,6.40857 2.49984,5.45421 2.36998,4.65412 2.27258,3.98247 2.14272,3.31971 2.04533,2.77287 1.98039,2.31622 1.883,1.86711 1.81806,1.49481 1.75314,1.15767 1.6882,0.85468 1.65574,0.59395 1.62327,0.35135 1.62327,0.12699 1.65574,-0.0967 1.65574,-0.31957 1.72067,-0.56187 1.7856,-0.82304 1.85053,-1.10179 1.94793,-1.42234 2.07779,-1.80012 2.20765,-2.21524 2.36998,-2.70285 2.5323,-3.23125 2.75956,-3.88796 3.05176,-4.69466 3.40887,-5.66416 3.92832,-6.97207 4.86982,-9.12101 7.9865,-15.51403 8.01897,-15.40864 4.96721,-9.0659 4.18805,-7.19233 3.73352,-5.98077 3.44134,-5.10055 3.21408,-4.37153 3.01929,-3.7376 2.85696,-3.1913 2.7271,-2.72212 2.6297,-2.31809 2.5323,-1.94343 2.46738,-1.61915 2.40244,-1.31611 2.36998,-1.04785 2.33751,-0.79231 2.33751,-0.55645 2.30505,-0.32237 2.33751,-0.10312 2.36998,0.11859 2.43491,0.34745 2.49984,0.58447 2.59724,0.83943 2.69463,1.10627 2.85696,1.41639 3.05175,1.76654 3.27902,2.1601 3.60366,2.64697 4.05818,3.26635 4.77242,4.13972 6.33077,5.81028 15.32369,14.17597 5.22694,4.46143 4.5127,3.56692 4.12311,2.98141 3.86339,2.52283 3.6686,2.13288 3.53873,1.80124 3.40887,1.48864 3.34395,1.22031 3.31147,0.97228 3.27901,0.73176 3.27901,0.50487 2.7271,0.25069 v 0"/></g></g><g id="g95737"><path style="fill:none;stroke:#000;stroke-width:.80000001;stroke-linecap:square;stroke-linejoin:miter;stroke-miterlimit:10;stroke-dasharray:none;stroke-opacity:1" id="path95739" d="M 57.6,38.016 V 304.128"/><path style="fill:none;stroke:#000;stroke-width:.80000001;stroke-linecap:square;stroke-linejoin:miter;stroke-miterlimit:10;stroke-dasharray:none;stroke-opacity:1" id="path95741" d="M 414.72,38.016 V 304.128"/><path style="fill:none;stroke:#000;stroke-width:.80000001;stroke-linecap:square;stroke-linejoin:miter;stroke-miterlimit:10;stroke-dasharray:none;stroke-opacity:1" id="path95743" d="M 57.6,38.016 H 414.72"/><path style="fill:none;stroke:#000;stroke-width:.80000001;stroke-linecap:square;stroke-linejoin:miter;stroke-miterlimit:10;stroke-dasharray:none;stroke-opacity:1" id="path95745" d="M 57.6,304.128 H 414.72"/><path style="fill:#fff;fill-opacity:.8;fill-rule:nonzero;stroke:#ccc;stroke-width:1;stroke-linecap:butt;stroke-linejoin:miter;stroke-miterlimit:10;stroke-dasharray:none;stroke-opacity:.8" id="path95747" d="M 284.68875,237.4405 H 407.72 c 1.33333,0 2,0.66667 2,2 v 57.6875 c 0,1.33333 -0.66667,2 -2,2 H 284.68875 c -1.33333,0 -2,-0.66667 -2,-2 v -57.6875 c 0,-1.33333 0.66667,-2 2,-2 z"/><path style="fill:none;stroke:#000;stroke-width:1.5;stroke-linecap:square;stroke-linejoin:round;stroke-miterlimit:10;stroke-dasharray:none;stroke-opacity:1" id="path95749" d="m 286.68875,291.03425 h 20"/><text style="font-variant:normal;font-weight:400;font-size:10px;font-family:DejaVuSans;-inkscape-font-specification:DejaVuSans;writing-mode:lr-tb;fill:#000;fill-opacity:1;fill-rule:nonzero;stroke:none" id="text95753" transform="matrix(1,0,0,-1,314.68875,287.53425)"><tspan id="tspan95751" x="0 5.92" y="0">xd</tspan></text><path style="fill:none;stroke:green;stroke-width:1.5;stroke-linecap:square;stroke-linejoin:round;stroke-miterlimit:10;stroke-dasharray:none;stroke-opacity:1" id="path95755" d="m 286.68875,276.36237 h 20"/><text style="font-variant:normal;font-weight:400;font-size:10px;font-family:DejaVuSans;-inkscape-font-specification:DejaVuSans;writing-mode:lr-tb;fill:#000;fill-opacity:1;fill-rule:nonzero;stroke:none" id="text95759" transform="matrix(1,0,0,-1,314.68875,272.86237)"><tspan id="tspan95757" x="0 5.79 11.82 20.2 26.56 29.74 32.92 38.71 41.66 50.04 56.4 59.58 62.76 68.55 76.25 84.63" y="0">kP=1, kI=1, kD=1</tspan></text><path style="fill:none;stroke:red;stroke-width:1.5;stroke-linecap:butt;stroke-linejoin:round;stroke-miterlimit:10;stroke-dasharray:5.6,2.4;stroke-dashoffset:0;stroke-opacity:1" id="path95761" d="m 286.68875,261.6905 h 20"/><text style="font-variant:normal;font-weight:400;font-size:10px;font-family:DejaVuSans;-inkscape-font-specification:DejaVuSans;writing-mode:lr-tb;fill:#000;fill-opacity:1;fill-rule:nonzero;stroke:none" id="text95765" transform="matrix(1,0,0,-1,314.68875,258.1905)"><tspan id="tspan95763" x="0 5.79 11.82 20.2" y="0">kP=2</tspan></text><path style="fill:none;stroke:#00f;stroke-width:1.5;stroke-linecap:butt;stroke-linejoin:round;stroke-miterlimit:10;stroke-dasharray:2.2,2.2;stroke-dashoffset:0;stroke-opacity:1" id="path95767" d="m 286.68875,247.01862 h 20"/><text style="font-variant:normal;font-weight:400;font-size:10px;font-family:DejaVuSans;-inkscape-font-specification:DejaVuSans;writing-mode:lr-tb;fill:#000;fill-opacity:1;fill-rule:nonzero;stroke:none" id="text95771" transform="matrix(1,0,0,-1,314.68875,243.51862)"><tspan id="tspan95769" x="0 5.79 11.82 20.2 26.56 29.74" y="0">kP=0.5</tspan></text></g></g></svg>