<svg xmlns="http://www.w3.org/2000/svg" xmlns:svg="http://www.w3.org/2000/svg" id="svg124737" width="614.4" height="460.8" version="1.1" viewBox="0 0 614.4 460.8" xml:space="preserve"><metadata id="metadata124743"/><defs id="defs124741"><clipPath id="clipPath124757" clipPathUnits="userSpaceOnUse"><path id="path124755" d="M 57.6,38.016 H 414.72 V 304.128 H 57.6 Z"/></clipPath><clipPath id="clipPath124767" clipPathUnits="userSpaceOnUse"><path id="path124765" d="M 57.6,38.016 H 414.72 V 304.128 H 57.6 Z"/></clipPath><clipPath id="clipPath124777" clipPathUnits="userSpaceOnUse"><path id="path124775" d="M 57.6,38.016 H 414.72 V 304.128 H 57.6 Z"/></clipPath><clipPath id="clipPath124787" clipPathUnits="userSpaceOnUse"><path id="path124785" d="M 57.6,38.016 H 414.72 V 304.128 H 57.6 Z"/></clipPath><clipPath id="clipPath124797" clipPathUnits="userSpaceOnUse"><path id="path124795" d="M 57.6,38.016 H 414.72 V 304.128 H 57.6 Z"/></clipPath><clipPath id="clipPath124807" clipPathUnits="userSpaceOnUse"><path id="path124805" d="M 57.6,38.016 H 414.72 V 304.128 H 57.6 Z"/></clipPath><clipPath id="clipPath124817" clipPathUnits="userSpaceOnUse"><path id="path124815" d="M 57.6,38.016 H 414.72 V 304.128 H 57.6 Z"/></clipPath><clipPath id="clipPath124827" clipPathUnits="userSpaceOnUse"><path id="path124825" d="M 57.6,38.016 H 414.72 V 304.128 H 57.6 Z"/></clipPath><clipPath id="clipPath124837" clipPathUnits="userSpaceOnUse"><path id="path124835" d="M 57.6,38.016 H 414.72 V 304.128 H 57.6 Z"/></clipPath><clipPath id="clipPath124847" clipPathUnits="userSpaceOnUse"><path id="path124845" d="M 57.6,38.016 H 414.72 V 304.128 H 57.6 Z"/></clipPath><clipPath id="clipPath124857" clipPathUnits="userSpaceOnUse"><path id="path124855" d="M 57.6,38.016 H 414.72 V 304.128 H 57.6 Z"/></clipPath><clipPath id="clipPath124867" clipPathUnits="userSpaceOnUse"><path id="path124865" d="M 57.6,38.016 H 414.72 V 304.128 H 57.6 Z"/></clipPath><clipPath id="clipPath124877" clipPathUnits="userSpaceOnUse"><path id="path124875" d="M 57.6,38.016 H 414.72 V 304.128 H 57.6 Z"/></clipPath><clipPath id="clipPath124887" clipPathUnits="userSpaceOnUse"><path id="path124885" d="M 57.6,38.016 H 414.72 V 304.128 H 57.6 Z"/></clipPath><clipPath id="clipPath124897" clipPathUnits="userSpaceOnUse"><path id="path124895" d="M 57.6,38.016 H 414.72 V 304.128 H 57.6 Z"/></clipPath><clipPath id="clipPath124907" clipPathUnits="userSpaceOnUse"><path id="path124905" d="M 57.6,38.016 H 414.72 V 304.128 H 57.6 Z"/></clipPath><clipPath id="clipPath124917" clipPathUnits="userSpaceOnUse"><path id="path124915" d="M 57.6,38.016 H 414.72 V 304.128 H 57.6 Z"/></clipPath><clipPath id="clipPath124927" clipPathUnits="userSpaceOnUse"><path id="path124925" d="M 57.6,38.016 H 414.72 V 304.128 H 57.6 Z"/></clipPath><clipPath id="clipPath124937" clipPathUnits="userSpaceOnUse"><path id="path124935" d="M 57.6,38.016 H 414.72 V 304.128 H 57.6 Z"/></clipPath><clipPath id="clipPath124947" clipPathUnits="userSpaceOnUse"><path id="path124945" d="M 57.6,38.016 H 414.72 V 304.128 H 57.6 Z"/></clipPath><clipPath id="clipPath124957" clipPathUnits="userSpaceOnUse"><path id="path124955" d="M 57.6,38.016 H 414.72 V 304.128 H 57.6 Z"/></clipPath><clipPath id="clipPath124967" clipPathUnits="userSpaceOnUse"><path id="path124965" d="M 57.6,38.016 H 414.72 V 304.128 H 57.6 Z"/></clipPath><clipPath id="clipPath124977" clipPathUnits="userSpaceOnUse"><path id="path124975" d="M 57.6,38.016 H 414.72 V 304.128 H 57.6 Z"/></clipPath><clipPath id="clipPath124987" clipPathUnits="userSpaceOnUse"><path id="path124985" d="M 57.6,38.016 H 414.72 V 304.128 H 57.6 Z"/></clipPath><clipPath id="clipPath124997" clipPathUnits="userSpaceOnUse"><path id="path124995" d="M 57.6,38.016 H 414.72 V 304.128 H 57.6 Z"/></clipPath><clipPath id="clipPath125007" clipPathUnits="userSpaceOnUse"><path id="path125005" d="M 57.6,38.016 H 414.72 V 304.128 H 57.6 Z"/></clipPath><clipPath id="clipPath125017" clipPathUnits="userSpaceOnUse"><path id="path125015" d="M 57.6,38.016 H 414.72 V 304.128 H 57.6 Z"/></clipPath><clipPath id="clipPath125027" clipPathUnits="userSpaceOnUse"><path id="path125025" d="M 57.6,38.016 H 414.72 V 304.128 H 57.6 Z"/></clipPath><clipPath id="clipPath125037" clipPathUnits="userSpaceOnUse"><path id="path125035" d="M 57.6,38.016 H 414.72 V 304.128 H 57.6 Z"/></clipPath><clipPath id="clipPath125047" clipPathUnits="userSpaceOnUse"><path id="path125045" d="M 57.6,38.016 H 414.72 V 304.128 H 57.6 Z"/></clipPath><clipPath id="clipPath125057" clipPathUnits="userSpaceOnUse"><path id="path125055" d="M 57.6,38.016 H 414.72 V 304.128 H 57.6 Z"/></clipPath><clipPath id="clipPath125067" clipPathUnits="userSpaceOnUse"><path id="path125065" d="M 57.6,38.016 H 414.72 V 304.128 H 57.6 Z"/></clipPath><clipPath id="clipPath125115" clipPathUnits="userSpaceOnUse"><path id="path125113" d="M 57.6,38.016 H 414.72 V 304.128 H 57.6 Z"/></clipPath><clipPath id="clipPath125133" clipPathUnits="userSpaceOnUse"><path id="path125131" d="M 57.6,38.016 H 414.72 V 304.128 H 57.6 Z"/></clipPath><clipPath id="clipPath125151" clipPathUnits="userSpaceOnUse"><path id="path125149" d="M 57.6,38.016 H 414.72 V 304.128 H 57.6 Z"/></clipPath><clipPath id="clipPath125169" clipPathUnits="userSpaceOnUse"><path id="path125167" d="M 57.6,38.016 H 414.72 V 304.128 H 57.6 Z"/></clipPath><clipPath id="clipPath125187" clipPathUnits="userSpaceOnUse"><path id="path125185" d="M 57.6,38.016 H 414.72 V 304.128 H 57.6 Z"/></clipPath><clipPath id="clipPath125205" clipPathUnits="userSpaceOnUse"><path id="path125203" d="M 57.6,38.016 H 414.72 V 304.128 H 57.6 Z"/></clipPath><clipPath id="clipPath125223" clipPathUnits="userSpaceOnUse"><path id="path125221" d="M 57.6,38.016 H 414.72 V 304.128 H 57.6 Z"/></clipPath></defs><g id="g124745" transform="matrix(1.3333333,0,0,-1.3333333,0,460.8)"><path style="fill:#fff;fill-opacity:1;fill-rule:nonzero;stroke:none" id="path124747" d="M 0,0 H 460.8 V 345.6 H 0 Z"/><path style="fill:#fff;fill-opacity:1;fill-rule:nonzero;stroke:none" id="path124749" d="M 57.6,38.016 H 414.72 V 304.128 H 57.6 Z"/><g id="g124751"><g id="g124753" clip-path="url(#clipPath124757)"><path style="fill:red;fill-opacity:1;fill-rule:nonzero;stroke:red;stroke-width:1;stroke-linecap:butt;stroke-linejoin:miter;stroke-miterlimit:10;stroke-dasharray:none;stroke-opacity:1" id="path124759" d="m 73.832727,139.84581 -3.246545,12.68218 h 3.230313 L 73.848965,292.032 V 152.52799 h 3.230313 l -3.246546,-12.68218 z"/></g></g><g id="g124761"><g id="g124763" clip-path="url(#clipPath124767)"><path style="fill:red;fill-opacity:1;fill-rule:nonzero;stroke:red;stroke-width:1;stroke-linecap:butt;stroke-linejoin:miter;stroke-miterlimit:10;stroke-dasharray:none;stroke-opacity:1" id="path124769" d="m 90.065455,119.2101 -3.246546,12.68218 h 3.230313 l 0.03247,108.55044 V 131.89228 h 3.230313 L 90.06546,119.2101 Z"/></g></g><g id="g124771"><g id="g124773" clip-path="url(#clipPath124777)"><path style="fill:green;fill-opacity:1;fill-rule:nonzero;stroke:green;stroke-width:1;stroke-linecap:butt;stroke-linejoin:miter;stroke-miterlimit:10;stroke-dasharray:none;stroke-opacity:1" id="path124779" d="m 93.312,155.19407 3.246545,-12.68218 h -3.230312 l -0.03247,-23.30179 v 23.30179 h -3.230312 l 3.246545,12.68218 z"/></g></g><g id="g124781"><g id="g124783" clip-path="url(#clipPath124787)"><path style="fill:red;fill-opacity:1;fill-rule:nonzero;stroke:red;stroke-width:1;stroke-linecap:butt;stroke-linejoin:miter;stroke-miterlimit:10;stroke-dasharray:none;stroke-opacity:1" id="path124789" d="m 106.29818,79.345201 -3.24654,12.682183 h 3.23031 l 0.0325,48.753096 V 92.027384 h 3.23031 l -3.24655,-12.682183 z"/></g></g><g id="g124791"><g id="g124793" clip-path="url(#clipPath124797)"><path style="fill:green;fill-opacity:1;fill-rule:nonzero;stroke:green;stroke-width:1;stroke-linecap:butt;stroke-linejoin:miter;stroke-miterlimit:10;stroke-dasharray:none;stroke-opacity:1" id="path124799" d="m 109.54473,117.8703 3.24654,-12.68218 h -3.23031 l -0.0325,-25.842919 v 25.842919 h -3.23031 l 3.24655,12.68218 z"/></g></g><g id="g124801"><g id="g124803" clip-path="url(#clipPath124807)"><path style="fill:red;fill-opacity:1;fill-rule:nonzero;stroke:red;stroke-width:1;stroke-linecap:butt;stroke-linejoin:miter;stroke-miterlimit:10;stroke-dasharray:none;stroke-opacity:1" id="path124809" d="m 122.53091,49.840126 -3.24655,12.682183 h 3.23032 l 0.0325,4.495488 v -4.495488 h 3.23032 l -3.24655,-12.682183 z"/></g></g><g id="g124811"><g id="g124813" clip-path="url(#clipPath124817)"><path style="fill:green;fill-opacity:1;fill-rule:nonzero;stroke:green;stroke-width:1;stroke-linecap:butt;stroke-linejoin:miter;stroke-miterlimit:10;stroke-dasharray:none;stroke-opacity:1" id="path124819" d="M 125.77746,68.11159 129.024,55.429408 h -3.23031 l -0.0325,-5.589282 v 5.589282 h -3.23031 l 3.24655,12.682182 z"/></g></g><g id="g124821"><g id="g124823" clip-path="url(#clipPath124827)"><path style="fill:red;fill-opacity:1;fill-rule:nonzero;stroke:red;stroke-width:1;stroke-linecap:butt;stroke-linejoin:miter;stroke-miterlimit:10;stroke-dasharray:none;stroke-opacity:1" id="path124829" d="m 138.76364,38.740322 -3.24655,12.682183 h 3.23031 l 0.0325,0.253644 v -0.253644 h 3.23031 l -3.24654,-12.682183 z"/></g></g><g id="g124831"><g id="g124833" clip-path="url(#clipPath124837)"><path style="fill:green;fill-opacity:1;fill-rule:nonzero;stroke:green;stroke-width:1;stroke-linecap:butt;stroke-linejoin:miter;stroke-miterlimit:10;stroke-dasharray:none;stroke-opacity:1" id="path124839" d="m 138.76364,30.767641 -3.24655,12.682182 h 3.23031 l 0.0325,0.253644 v -0.253644 h 3.23031 l -3.24654,-12.682182 z"/></g></g><g id="g124841"><g id="g124843" clip-path="url(#clipPath124847)"><path style="fill:red;fill-opacity:1;fill-rule:nonzero;stroke:red;stroke-width:1;stroke-linecap:butt;stroke-linejoin:miter;stroke-miterlimit:10;stroke-dasharray:none;stroke-opacity:1" id="path124849" d="m 154.99636,55.971163 -3.24654,12.682183 h 3.23031 l 0.0325,13.692043 V 68.653346 h 3.23031 l -3.24655,-12.682183 z"/></g></g><g id="g124851"><g id="g124853" clip-path="url(#clipPath124857)"><path style="fill:green;fill-opacity:1;fill-rule:nonzero;stroke:green;stroke-width:1;stroke-linecap:butt;stroke-linejoin:miter;stroke-miterlimit:10;stroke-dasharray:none;stroke-opacity:1" id="path124859" d="m 154.99636,38.915221 -3.24654,12.682182 h 3.23031 l 0.0325,4.37376 v -4.37376 h 3.23031 l -3.24655,-12.682182 z"/></g></g><g id="g124861"><g id="g124863" clip-path="url(#clipPath124867)"><path style="fill:red;fill-opacity:1;fill-rule:nonzero;stroke:red;stroke-width:1;stroke-linecap:butt;stroke-linejoin:miter;stroke-miterlimit:10;stroke-dasharray:none;stroke-opacity:1" id="path124869" d="m 171.22909,73.023175 -3.24654,12.682183 h 3.23031 l 0.0325,39.270062 V 85.705358 h 3.23032 l -3.24655,-12.682183 z"/></g></g><g id="g124871"><g id="g124873" clip-path="url(#clipPath124877)"><path style="fill:green;fill-opacity:1;fill-rule:nonzero;stroke:green;stroke-width:1;stroke-linecap:butt;stroke-linejoin:miter;stroke-miterlimit:10;stroke-dasharray:none;stroke-opacity:1" id="path124879" d="m 171.22909,57.977305 -3.24654,12.682183 h 3.23031 l 0.0325,2.363687 v -2.363687 h 3.23032 l -3.24655,-12.682183 z"/></g></g><g id="g124881"><g id="g124883" clip-path="url(#clipPath124887)"><path style="fill:red;fill-opacity:1;fill-rule:nonzero;stroke:red;stroke-width:1;stroke-linecap:butt;stroke-linejoin:miter;stroke-miterlimit:10;stroke-dasharray:none;stroke-opacity:1" id="path124889" d="m 187.46182,83.446976 -3.24655,12.682183 h 3.23031 l 0.0325,54.905761 V 96.129159 h 3.23031 l -3.24654,-12.682183 z"/></g></g><g id="g124891"><g id="g124893" clip-path="url(#clipPath124897)"><path style="fill:green;fill-opacity:1;fill-rule:nonzero;stroke:green;stroke-width:1;stroke-linecap:butt;stroke-linejoin:miter;stroke-miterlimit:10;stroke-dasharray:none;stroke-opacity:1" id="path124899" d="m 187.46182,70.511149 -3.24655,12.682183 h 3.23031 l 0.0325,0.253644 v -0.253644 h 3.23031 l -3.24654,-12.682183 z"/></g></g><g id="g124901"><g id="g124903" clip-path="url(#clipPath124907)"><path style="fill:red;fill-opacity:1;fill-rule:nonzero;stroke:red;stroke-width:1;stroke-linecap:butt;stroke-linejoin:miter;stroke-miterlimit:10;stroke-dasharray:none;stroke-opacity:1" id="path124909" d="M 203.69454,83.719915 200.448,96.402098 h 3.23031 l 0.0325,55.315172 V 96.402098 h 3.23031 l -3.24655,-12.682183 z"/></g></g><g id="g124911"><g id="g124913" clip-path="url(#clipPath124917)"><path style="fill:green;fill-opacity:1;fill-rule:nonzero;stroke:green;stroke-width:1;stroke-linecap:butt;stroke-linejoin:miter;stroke-miterlimit:10;stroke-dasharray:none;stroke-opacity:1" id="path124919" d="m 206.94109,96.655741 3.24655,-12.682182 h -3.23032 l -0.0325,-0.253644 v 0.253644 h -3.23032 l 3.24655,12.682182 z"/></g></g><g id="g124921"><g id="g124923" clip-path="url(#clipPath124927)"><path style="fill:red;fill-opacity:1;fill-rule:nonzero;stroke:red;stroke-width:1;stroke-linecap:butt;stroke-linejoin:miter;stroke-miterlimit:10;stroke-dasharray:none;stroke-opacity:1" id="path124929" d="m 219.92727,77.356982 -3.24654,12.682183 h 3.23031 l 0.0325,45.770775 V 90.039165 h 3.23032 l -3.24655,-12.682183 z"/></g></g><g id="g124931"><g id="g124933" clip-path="url(#clipPath124937)"><path style="fill:green;fill-opacity:1;fill-rule:nonzero;stroke:green;stroke-width:1;stroke-linecap:butt;stroke-linejoin:miter;stroke-miterlimit:10;stroke-dasharray:none;stroke-opacity:1" id="path124939" d="m 223.17382,90.292808 3.24654,-12.682182 h -3.23031 l -0.0325,-0.253644 v 0.253644 h -3.23031 l 3.24655,12.682182 z"/></g></g><g id="g124941"><g id="g124943" clip-path="url(#clipPath124947)"><path style="fill:red;fill-opacity:1;fill-rule:nonzero;stroke:red;stroke-width:1;stroke-linecap:butt;stroke-linejoin:miter;stroke-miterlimit:10;stroke-dasharray:none;stroke-opacity:1" id="path124949" d="m 236.16,70.37045 -3.24655,12.682183 h 3.23032 l 0.0325,35.290977 V 83.052633 h 3.23031 z"/></g></g><g id="g124951"><g id="g124953" clip-path="url(#clipPath124957)"><path style="fill:green;fill-opacity:1;fill-rule:nonzero;stroke:green;stroke-width:1;stroke-linecap:butt;stroke-linejoin:miter;stroke-miterlimit:10;stroke-dasharray:none;stroke-opacity:1" id="path124959" d="m 239.40654,83.306276 3.24655,-12.682182 h -3.23031 l -0.0325,-0.253644 v 0.253644 h -3.23031 l 3.24654,12.682182 z"/></g></g><g id="g124961"><g id="g124963" clip-path="url(#clipPath124967)"><path style="fill:red;fill-opacity:1;fill-rule:nonzero;stroke:red;stroke-width:1;stroke-linecap:butt;stroke-linejoin:miter;stroke-miterlimit:10;stroke-dasharray:none;stroke-opacity:1" id="path124969" d="m 252.39273,66.952999 -3.24655,12.682182 h 3.23031 l 0.0325,30.164799 V 79.635181 h 3.23031 l -3.24654,-12.682182 z"/></g></g><g id="g124971"><g id="g124973" clip-path="url(#clipPath124977)"><path style="fill:red;fill-opacity:1;fill-rule:nonzero;stroke:red;stroke-width:1;stroke-linecap:butt;stroke-linejoin:miter;stroke-miterlimit:10;stroke-dasharray:none;stroke-opacity:1" id="path124979" d="m 268.62545,67.754812 -3.24654,12.682183 h 3.23031 l 0.0325,31.367515 V 80.436995 h 3.23031 l -3.24655,-12.682183 z"/></g></g><g id="g124981"><g id="g124983" clip-path="url(#clipPath124987)"><path style="fill:red;fill-opacity:1;fill-rule:nonzero;stroke:red;stroke-width:1;stroke-linecap:butt;stroke-linejoin:miter;stroke-miterlimit:10;stroke-dasharray:none;stroke-opacity:1" id="path124989" d="m 284.85818,70.795143 -3.24654,12.682183 h 3.23031 l 0.0325,35.928014 V 83.477326 h 3.23032 l -3.24655,-12.682183 z"/></g></g><g id="g124991"><g id="g124993" clip-path="url(#clipPath124997)"><path style="fill:green;fill-opacity:1;fill-rule:nonzero;stroke:green;stroke-width:1;stroke-linecap:butt;stroke-linejoin:miter;stroke-miterlimit:10;stroke-dasharray:none;stroke-opacity:1" id="path124999" d="m 284.85818,57.859317 -3.24654,12.682182 h 3.23031 l 0.0325,0.253644 v -0.253644 h 3.23032 l -3.24655,-12.682182 z"/></g></g><g id="g125001"><g id="g125003" clip-path="url(#clipPath125007)"><path style="fill:red;fill-opacity:1;fill-rule:nonzero;stroke:red;stroke-width:1;stroke-linecap:butt;stroke-linejoin:miter;stroke-miterlimit:10;stroke-dasharray:none;stroke-opacity:1" id="path125009" d="m 301.09091,73.538254 -3.24655,12.682182 h 3.23032 l 0.0325,40.042684 V 86.220436 h 3.23031 l -3.24654,-12.682182 z"/></g></g><g id="g125011"><g id="g125013" clip-path="url(#clipPath125017)"><path style="fill:red;fill-opacity:1;fill-rule:nonzero;stroke:red;stroke-width:1;stroke-linecap:butt;stroke-linejoin:miter;stroke-miterlimit:10;stroke-dasharray:none;stroke-opacity:1" id="path125019" d="m 317.32364,74.533958 -3.24655,12.682183 h 3.23031 l 0.0325,41.536239 V 87.216141 h 3.23031 l -3.24654,-12.682183 z"/></g></g><g id="g125021"><g id="g125023" clip-path="url(#clipPath125027)"><path style="fill:red;fill-opacity:1;fill-rule:nonzero;stroke:red;stroke-width:1;stroke-linecap:butt;stroke-linejoin:miter;stroke-miterlimit:10;stroke-dasharray:none;stroke-opacity:1" id="path125029" d="m 333.55636,73.84862 -3.24654,12.682182 h 3.23031 l 0.0325,40.508228 V 86.530802 h 3.23031 L 333.55639,73.84862 Z"/></g></g><g id="g125031"><g id="g125033" clip-path="url(#clipPath125037)"><path style="fill:red;fill-opacity:1;fill-rule:nonzero;stroke:red;stroke-width:1;stroke-linecap:butt;stroke-linejoin:miter;stroke-miterlimit:10;stroke-dasharray:none;stroke-opacity:1" id="path125039" d="m 349.78909,72.47917 -3.24654,12.682182 h 3.23031 l 0.0325,38.454048 V 85.161352 h 3.23032 L 349.78913,72.47917 Z"/></g></g><g id="g125041"><g id="g125043" clip-path="url(#clipPath125047)"><path style="fill:red;fill-opacity:1;fill-rule:nonzero;stroke:red;stroke-width:1;stroke-linecap:butt;stroke-linejoin:miter;stroke-miterlimit:10;stroke-dasharray:none;stroke-opacity:1" id="path125049" d="m 366.02182,71.450571 -3.24655,12.682182 h 3.23031 l 0.0325,36.911157 V 84.132753 h 3.23031 l -3.24654,-12.682182 z"/></g></g><g id="g125051"><g id="g125053" clip-path="url(#clipPath125057)"><path style="fill:red;fill-opacity:1;fill-rule:nonzero;stroke:red;stroke-width:1;stroke-linecap:butt;stroke-linejoin:miter;stroke-miterlimit:10;stroke-dasharray:none;stroke-opacity:1" id="path125059" d="M 382.25454,71.223668 379.008,83.905851 h 3.23031 l 0.0325,36.570799 V 83.905851 h 3.23031 l -3.24655,-12.682183 z"/></g></g><g id="g125061"><g id="g125063" clip-path="url(#clipPath125067)"><path style="fill:red;fill-opacity:1;fill-rule:nonzero;stroke:red;stroke-width:1;stroke-linecap:butt;stroke-linejoin:miter;stroke-miterlimit:10;stroke-dasharray:none;stroke-opacity:1" id="path125069" d="m 398.48727,71.637458 -3.24654,12.682183 h 3.23031 l 0.0325,37.191489 V 84.319641 h 3.23032 l -3.24655,-12.682183 z"/></g></g><g id="g125071"><path style="fill:#000;fill-opacity:1;fill-rule:nonzero;stroke:#000;stroke-width:.80000001;stroke-linecap:butt;stroke-linejoin:round;stroke-miterlimit:10;stroke-dasharray:none;stroke-opacity:1" id="path125073" d="m 73.832727,38.016 v -3.5"/><text style="font-variant:normal;font-weight:400;font-size:10px;font-family:DejaVuSans;-inkscape-font-specification:DejaVuSans;writing-mode:lr-tb;fill:#000;fill-opacity:1;fill-rule:nonzero;stroke:none" id="text125077" transform="matrix(1,0,0,-1,70.65304,23.42225)"><tspan id="tspan125075" x="0" y="0">0</tspan></text><path style="fill:#000;fill-opacity:1;fill-rule:nonzero;stroke:#000;stroke-width:.80000001;stroke-linecap:butt;stroke-linejoin:round;stroke-miterlimit:10;stroke-dasharray:none;stroke-opacity:1" id="path125079" d="m 138.76364,38.016 v -3.5"/><text style="font-variant:normal;font-weight:400;font-size:10px;font-family:DejaVuSans;-inkscape-font-specification:DejaVuSans;writing-mode:lr-tb;fill:#000;fill-opacity:1;fill-rule:nonzero;stroke:none" id="text125083" transform="matrix(1,0,0,-1,135.58395,23.42225)"><tspan id="tspan125081" x="0" y="0">2</tspan></text><path style="fill:#000;fill-opacity:1;fill-rule:nonzero;stroke:#000;stroke-width:.80000001;stroke-linecap:butt;stroke-linejoin:round;stroke-miterlimit:10;stroke-dasharray:none;stroke-opacity:1" id="path125085" d="m 203.69454,38.016 v -3.5"/><text style="font-variant:normal;font-weight:400;font-size:10px;font-family:DejaVuSans;-inkscape-font-specification:DejaVuSans;writing-mode:lr-tb;fill:#000;fill-opacity:1;fill-rule:nonzero;stroke:none" id="text125089" transform="matrix(1,0,0,-1,200.51486,23.42225)"><tspan id="tspan125087" x="0" y="0">4</tspan></text><path style="fill:#000;fill-opacity:1;fill-rule:nonzero;stroke:#000;stroke-width:.80000001;stroke-linecap:butt;stroke-linejoin:round;stroke-miterlimit:10;stroke-dasharray:none;stroke-opacity:1" id="path125091" d="m 268.62545,38.016 v -3.5"/><text style="font-variant:normal;font-weight:400;font-size:10px;font-family:DejaVuSans;-inkscape-font-specification:DejaVuSans;writing-mode:lr-tb;fill:#000;fill-opacity:1;fill-rule:nonzero;stroke:none" id="text125095" transform="matrix(1,0,0,-1,265.44577,23.42225)"><tspan id="tspan125093" x="0" y="0">6</tspan></text><path style="fill:#000;fill-opacity:1;fill-rule:nonzero;stroke:#000;stroke-width:.80000001;stroke-linecap:butt;stroke-linejoin:round;stroke-miterlimit:10;stroke-dasharray:none;stroke-opacity:1" id="path125097" d="m 333.55636,38.016 v -3.5"/><text style="font-variant:normal;font-weight:400;font-size:10px;font-family:DejaVuSans;-inkscape-font-specification:DejaVuSans;writing-mode:lr-tb;fill:#000;fill-opacity:1;fill-rule:nonzero;stroke:none" id="text125101" transform="matrix(1,0,0,-1,330.37668,23.42225)"><tspan id="tspan125099" x="0" y="0">8</tspan></text><path style="fill:#000;fill-opacity:1;fill-rule:nonzero;stroke:#000;stroke-width:.80000001;stroke-linecap:butt;stroke-linejoin:round;stroke-miterlimit:10;stroke-dasharray:none;stroke-opacity:1" id="path125103" d="m 398.48727,38.016 v -3.5"/><text style="font-variant:normal;font-weight:400;font-size:10px;font-family:DejaVuSans;-inkscape-font-specification:DejaVuSans;writing-mode:lr-tb;fill:#000;fill-opacity:1;fill-rule:nonzero;stroke:none" id="text125107" transform="matrix(1,0,0,-1,392.1279,23.42225)"><tspan id="tspan125105" x="0 6.36" y="0">10</tspan></text></g><g id="g125109"><g id="g125111" clip-path="url(#clipPath125115)"><path style="fill:none;stroke:gray;stroke-width:.80000001;stroke-linecap:butt;stroke-linejoin:round;stroke-miterlimit:10;stroke-dasharray:2.2,2.2;stroke-dashoffset:0;stroke-opacity:1" id="path125117" d="M 57.6,38.388346 H 414.72"/></g></g><g id="g125119"><path style="fill:#000;fill-opacity:1;fill-rule:nonzero;stroke:#000;stroke-width:.80000001;stroke-linecap:butt;stroke-linejoin:round;stroke-miterlimit:10;stroke-dasharray:none;stroke-opacity:1" id="path125121" d="M 57.6,38.388346 H 54.1"/><text style="font-variant:normal;font-weight:400;font-size:10px;font-family:DejaVuSans;-inkscape-font-specification:DejaVuSans;writing-mode:lr-tb;fill:#000;fill-opacity:1;fill-rule:nonzero;stroke:none" id="text125125" transform="matrix(1,0,0,-1,34.69375,34.591471)"><tspan id="tspan125123" x="0 6.36 9.54" y="0">0.0</tspan></text></g><g id="g125127"><g id="g125129" clip-path="url(#clipPath125133)"><path style="fill:none;stroke:gray;stroke-width:.80000001;stroke-linecap:butt;stroke-linejoin:round;stroke-miterlimit:10;stroke-dasharray:2.2,2.2;stroke-dashoffset:0;stroke-opacity:1" id="path125135" d="M 57.6,89.117077 H 414.72"/></g></g><g id="g125137"><path style="fill:#000;fill-opacity:1;fill-rule:nonzero;stroke:#000;stroke-width:.80000001;stroke-linecap:butt;stroke-linejoin:round;stroke-miterlimit:10;stroke-dasharray:none;stroke-opacity:1" id="path125139" d="M 57.6,89.117077 H 54.1"/><text style="font-variant:normal;font-weight:400;font-size:10px;font-family:DejaVuSans;-inkscape-font-specification:DejaVuSans;writing-mode:lr-tb;fill:#000;fill-opacity:1;fill-rule:nonzero;stroke:none" id="text125143" transform="matrix(1,0,0,-1,34.69375,85.320202)"><tspan id="tspan125141" x="0 6.36 9.54" y="0">0.2</tspan></text></g><g id="g125145"><g id="g125147" clip-path="url(#clipPath125151)"><path style="fill:none;stroke:gray;stroke-width:.80000001;stroke-linecap:butt;stroke-linejoin:round;stroke-miterlimit:10;stroke-dasharray:2.2,2.2;stroke-dashoffset:0;stroke-opacity:1" id="path125153" d="M 57.6,139.84581 H 414.72"/></g></g><g id="g125155"><path style="fill:#000;fill-opacity:1;fill-rule:nonzero;stroke:#000;stroke-width:.80000001;stroke-linecap:butt;stroke-linejoin:round;stroke-miterlimit:10;stroke-dasharray:none;stroke-opacity:1" id="path125157" d="M 57.6,139.84581 H 54.1"/><text style="font-variant:normal;font-weight:400;font-size:10px;font-family:DejaVuSans;-inkscape-font-specification:DejaVuSans;writing-mode:lr-tb;fill:#000;fill-opacity:1;fill-rule:nonzero;stroke:none" id="text125161" transform="matrix(1,0,0,-1,34.69375,136.04893)"><tspan id="tspan125159" x="0 6.36 9.54" y="0">0.4</tspan></text></g><g id="g125163"><g id="g125165" clip-path="url(#clipPath125169)"><path style="fill:none;stroke:gray;stroke-width:.80000001;stroke-linecap:butt;stroke-linejoin:round;stroke-miterlimit:10;stroke-dasharray:2.2,2.2;stroke-dashoffset:0;stroke-opacity:1" id="path125171" d="M 57.6,190.57454 H 414.72"/></g></g><g id="g125173"><path style="fill:#000;fill-opacity:1;fill-rule:nonzero;stroke:#000;stroke-width:.80000001;stroke-linecap:butt;stroke-linejoin:round;stroke-miterlimit:10;stroke-dasharray:none;stroke-opacity:1" id="path125175" d="M 57.6,190.57454 H 54.1"/><text style="font-variant:normal;font-weight:400;font-size:10px;font-family:DejaVuSans;-inkscape-font-specification:DejaVuSans;writing-mode:lr-tb;fill:#000;fill-opacity:1;fill-rule:nonzero;stroke:none" id="text125179" transform="matrix(1,0,0,-1,34.69375,186.77766)"><tspan id="tspan125177" x="0 6.36 9.54" y="0">0.6</tspan></text></g><g id="g125181"><g id="g125183" clip-path="url(#clipPath125187)"><path style="fill:none;stroke:gray;stroke-width:.80000001;stroke-linecap:butt;stroke-linejoin:round;stroke-miterlimit:10;stroke-dasharray:2.2,2.2;stroke-dashoffset:0;stroke-opacity:1" id="path125189" d="M 57.6,241.30327 H 414.72"/></g></g><g id="g125191"><path style="fill:#000;fill-opacity:1;fill-rule:nonzero;stroke:#000;stroke-width:.80000001;stroke-linecap:butt;stroke-linejoin:round;stroke-miterlimit:10;stroke-dasharray:none;stroke-opacity:1" id="path125193" d="M 57.6,241.30327 H 54.1"/><text style="font-variant:normal;font-weight:400;font-size:10px;font-family:DejaVuSans;-inkscape-font-specification:DejaVuSans;writing-mode:lr-tb;fill:#000;fill-opacity:1;fill-rule:nonzero;stroke:none" id="text125197" transform="matrix(1,0,0,-1,34.69375,237.50639)"><tspan id="tspan125195" x="0 6.36 9.54" y="0">0.8</tspan></text></g><g id="g125199"><g id="g125201" clip-path="url(#clipPath125205)"><path style="fill:none;stroke:gray;stroke-width:.80000001;stroke-linecap:butt;stroke-linejoin:round;stroke-miterlimit:10;stroke-dasharray:2.2,2.2;stroke-dashoffset:0;stroke-opacity:1" id="path125207" d="M 57.6,292.032 H 414.72"/></g></g><g id="g125209"><path style="fill:#000;fill-opacity:1;fill-rule:nonzero;stroke:#000;stroke-width:.80000001;stroke-linecap:butt;stroke-linejoin:round;stroke-miterlimit:10;stroke-dasharray:none;stroke-opacity:1" id="path125211" d="M 57.6,292.032 H 54.1"/><text style="font-variant:normal;font-weight:400;font-size:10px;font-family:DejaVuSans;-inkscape-font-specification:DejaVuSans;writing-mode:lr-tb;fill:#000;fill-opacity:1;fill-rule:nonzero;stroke:none" id="text125215" transform="matrix(1,0,0,-1,34.69375,288.23512)"><tspan id="tspan125213" x="0 6.36 9.54" y="0">1.0</tspan></text></g><g id="g125217"><g id="g125219" clip-path="url(#clipPath125223)"><path style="fill:none;stroke:#1f77b4;stroke-width:1.5;stroke-linecap:square;stroke-linejoin:round;stroke-miterlimit:10;stroke-dasharray:none;stroke-opacity:1" id="path125225" d="m 73.832727,292.032 0.681775,-0.10592 0.71424,-0.34639 0.746705,-0.61415 0.844102,-0.99672 0.941498,-1.47928 1.038895,-2.06625 1.168756,-2.84552 1.298618,-3.77523 1.460946,-4.97005 1.623273,-6.34954 1.818065,-8.04368 2.077789,-10.24719 2.402444,-13.0165 2.921891,-17.12082 4.090647,-25.42893 8.343619,-52.1064 3.27901,-18.90208 2.79203,-14.83464 2.46738,-11.947698 2.24011,-9.789594 2.07779,-8.112039 1.91546,-6.612749 1.7856,-5.394191 1.65574,-4.326882 1.55835,-3.475238 1.46094,-2.73287 1.36355,-2.095527 1.26615,-1.557094 1.20122,-1.136637 1.13629,-0.77567 1.07136,-0.470277 1.0389,-0.219691 1.03889,0.007 1.0389,0.227313 1.10382,0.475131 1.16876,0.755747 1.23369,1.067553 1.36355,1.485904 1.49341,1.973485 1.62327,2.524845 1.81806,3.254177 2.04533,4.136775 2.33751,5.250877 2.79203,6.85 3.60367,9.473856 11.75249,31.354984 3.08422,7.34389 2.69463,5.85761 2.43491,4.77517 2.24012,3.91771 2.07779,3.20213 1.98039,2.65105 1.85053,2.11625 1.7856,1.70873 1.6882,1.31502 1.62328,0.99171 1.5908,0.71677 1.55834,0.46292 1.55835,0.23305 1.55834,0.0113 1.62327,-0.21403 1.65574,-0.44369 1.75313,-0.70289 1.883,-1.0025 2.01286,-1.32981 2.20765,-1.73105 2.46737,-2.22397 2.85696,-2.88346 3.5712,-3.93874 6.07104,-7.09332 5.71392,-6.54275 3.70107,-3.90338 3.14914,-3.00677 2.85696,-2.4264 2.66217,-1.97315 2.49984,-1.58286 2.43491,-1.28079 2.36998,-0.99531 2.30505,-0.73048 2.30504,-0.5 2.33752,-0.27876 2.36997,-0.0584 2.46738,0.16472 2.56477,0.396 2.75956,0.65603 2.98683,0.94326 3.3764,1.30628 4.05818,1.82078 5.87625,2.90906 9.0254,4.4518 4.54516,1.97896 3.96079,1.48579 3.66859,1.14113 3.50627,0.86055 3.44134,0.61808 3.4738,0.39686 3.53874,0.17794 3.6686,-0.0404 3.89585,-0.26732 4.28544,-0.52033 4.99968,-0.83864 6.72035,-1.37173 14.67438,-3.05333 5.90872,-0.95905 5.38926,-0.65084 5.22694,-0.40705 5.29187,-0.18755 5.58406,0.0282 6.2009,0.26027 7.56445,0.55214 2.56477,0.22443 v 0"/></g></g><g id="g125227"><path style="fill:none;stroke:#000;stroke-width:.80000001;stroke-linecap:square;stroke-linejoin:miter;stroke-miterlimit:10;stroke-dasharray:none;stroke-opacity:1" id="path125229" d="M 57.6,38.016 V 304.128"/><path style="fill:none;stroke:#000;stroke-width:.80000001;stroke-linecap:square;stroke-linejoin:miter;stroke-miterlimit:10;stroke-dasharray:none;stroke-opacity:1" id="path125231" d="M 414.72,38.016 V 304.128"/><path style="fill:none;stroke:#000;stroke-width:.80000001;stroke-linecap:square;stroke-linejoin:miter;stroke-miterlimit:10;stroke-dasharray:none;stroke-opacity:1" id="path125233" d="M 57.6,38.016 H 414.72"/><path style="fill:none;stroke:#000;stroke-width:.80000001;stroke-linecap:square;stroke-linejoin:miter;stroke-miterlimit:10;stroke-dasharray:none;stroke-opacity:1" id="path125235" d="M 57.6,304.128 H 414.72"/></g></g></svg>