<svg xmlns="http://www.w3.org/2000/svg" xmlns:svg="http://www.w3.org/2000/svg" id="svg109938" width="614.4" height="460.8" version="1.1" viewBox="0 0 614.4 460.8" xml:space="preserve"><metadata id="metadata109944"/><defs id="defs109942"><clipPath id="clipPath109958" clipPathUnits="userSpaceOnUse"><path id="path109956" d="M 57.6,38.016 H 414.72 V 304.128 H 57.6 Z"/></clipPath><clipPath id="clipPath109968" clipPathUnits="userSpaceOnUse"><path id="path109966" d="M 57.6,38.016 H 414.72 V 304.128 H 57.6 Z"/></clipPath><clipPath id="clipPath109978" clipPathUnits="userSpaceOnUse"><path id="path109976" d="M 57.6,38.016 H 414.72 V 304.128 H 57.6 Z"/></clipPath><clipPath id="clipPath109988" clipPathUnits="userSpaceOnUse"><path id="path109986" d="M 57.6,38.016 H 414.72 V 304.128 H 57.6 Z"/></clipPath><clipPath id="clipPath109998" clipPathUnits="userSpaceOnUse"><path id="path109996" d="M 57.6,38.016 H 414.72 V 304.128 H 57.6 Z"/></clipPath><clipPath id="clipPath110008" clipPathUnits="userSpaceOnUse"><path id="path110006" d="M 57.6,38.016 H 414.72 V 304.128 H 57.6 Z"/></clipPath><clipPath id="clipPath110018" clipPathUnits="userSpaceOnUse"><path id="path110016" d="M 57.6,38.016 H 414.72 V 304.128 H 57.6 Z"/></clipPath><clipPath id="clipPath110028" clipPathUnits="userSpaceOnUse"><path id="path110026" d="M 57.6,38.016 H 414.72 V 304.128 H 57.6 Z"/></clipPath><clipPath id="clipPath110038" clipPathUnits="userSpaceOnUse"><path id="path110036" d="M 57.6,38.016 H 414.72 V 304.128 H 57.6 Z"/></clipPath><clipPath id="clipPath110048" clipPathUnits="userSpaceOnUse"><path id="path110046" d="M 57.6,38.016 H 414.72 V 304.128 H 57.6 Z"/></clipPath><clipPath id="clipPath110058" clipPathUnits="userSpaceOnUse"><path id="path110056" d="M 57.6,38.016 H 414.72 V 304.128 H 57.6 Z"/></clipPath><clipPath id="clipPath110068" clipPathUnits="userSpaceOnUse"><path id="path110066" d="M 57.6,38.016 H 414.72 V 304.128 H 57.6 Z"/></clipPath><clipPath id="clipPath110078" clipPathUnits="userSpaceOnUse"><path id="path110076" d="M 57.6,38.016 H 414.72 V 304.128 H 57.6 Z"/></clipPath><clipPath id="clipPath110088" clipPathUnits="userSpaceOnUse"><path id="path110086" d="M 57.6,38.016 H 414.72 V 304.128 H 57.6 Z"/></clipPath><clipPath id="clipPath110098" clipPathUnits="userSpaceOnUse"><path id="path110096" d="M 57.6,38.016 H 414.72 V 304.128 H 57.6 Z"/></clipPath><clipPath id="clipPath110108" clipPathUnits="userSpaceOnUse"><path id="path110106" d="M 57.6,38.016 H 414.72 V 304.128 H 57.6 Z"/></clipPath><clipPath id="clipPath110118" clipPathUnits="userSpaceOnUse"><path id="path110116" d="M 57.6,38.016 H 414.72 V 304.128 H 57.6 Z"/></clipPath><clipPath id="clipPath110128" clipPathUnits="userSpaceOnUse"><path id="path110126" d="M 57.6,38.016 H 414.72 V 304.128 H 57.6 Z"/></clipPath><clipPath id="clipPath110138" clipPathUnits="userSpaceOnUse"><path id="path110136" d="M 57.6,38.016 H 414.72 V 304.128 H 57.6 Z"/></clipPath><clipPath id="clipPath110148" clipPathUnits="userSpaceOnUse"><path id="path110146" d="M 57.6,38.016 H 414.72 V 304.128 H 57.6 Z"/></clipPath><clipPath id="clipPath110158" clipPathUnits="userSpaceOnUse"><path id="path110156" d="M 57.6,38.016 H 414.72 V 304.128 H 57.6 Z"/></clipPath><clipPath id="clipPath110206" clipPathUnits="userSpaceOnUse"><path id="path110204" d="M 57.6,38.016 H 414.72 V 304.128 H 57.6 Z"/></clipPath><clipPath id="clipPath110228" clipPathUnits="userSpaceOnUse"><path id="path110226" d="M -1021,-463 H 1794 V 1233 H -1021 Z"/></clipPath><clipPath id="clipPath110238" clipPathUnits="userSpaceOnUse"><path id="path110236" d="M 57.6,38.016 H 414.72 V 304.128 H 57.6 Z"/></clipPath><clipPath id="clipPath110256" clipPathUnits="userSpaceOnUse"><path id="path110254" d="M 57.6,38.016 H 414.72 V 304.128 H 57.6 Z"/></clipPath><clipPath id="clipPath110274" clipPathUnits="userSpaceOnUse"><path id="path110272" d="M 57.6,38.016 H 414.72 V 304.128 H 57.6 Z"/></clipPath><clipPath id="clipPath110292" clipPathUnits="userSpaceOnUse"><path id="path110290" d="M 57.6,38.016 H 414.72 V 304.128 H 57.6 Z"/></clipPath><clipPath id="clipPath110310" clipPathUnits="userSpaceOnUse"><path id="path110308" d="M 57.6,38.016 H 414.72 V 304.128 H 57.6 Z"/></clipPath><clipPath id="clipPath110328" clipPathUnits="userSpaceOnUse"><path id="path110326" d="M 57.6,38.016 H 414.72 V 304.128 H 57.6 Z"/></clipPath><clipPath id="clipPath110346" clipPathUnits="userSpaceOnUse"><path id="path110344" d="M 57.6,38.016 H 414.72 V 304.128 H 57.6 Z"/></clipPath><clipPath id="clipPath110364" clipPathUnits="userSpaceOnUse"><path id="path110362" d="M 57.6,38.016 H 414.72 V 304.128 H 57.6 Z"/></clipPath></defs><g id="g109946" transform="matrix(1.3333333,0,0,-1.3333333,0,460.8)"><path style="fill:#fff;fill-opacity:1;fill-rule:nonzero;stroke:none" id="path109948" d="M 0,0 H 460.8 V 345.6 H 0 Z"/><path style="fill:#fff;fill-opacity:1;fill-rule:nonzero;stroke:none" id="path109950" d="M 57.6,38.016 H 414.72 V 304.128 H 57.6 Z"/><g id="g109952"><g id="g109954" clip-path="url(#clipPath109958)"><path style="fill:red;fill-opacity:1;fill-rule:nonzero;stroke:red;stroke-width:1;stroke-linecap:butt;stroke-linejoin:miter;stroke-miterlimit:10;stroke-dasharray:none;stroke-opacity:1" id="path109960" d="m 73.832727,152.064 -3.246545,9.504 h 3.230313 l 0.03247,104.544 V 161.568 h 3.230313 l -3.246546,-9.504 z"/></g></g><g id="g109962"><g id="g109964" clip-path="url(#clipPath109968)"><path style="fill:red;fill-opacity:1;fill-rule:nonzero;stroke:red;stroke-width:1;stroke-linecap:butt;stroke-linejoin:miter;stroke-miterlimit:10;stroke-dasharray:none;stroke-opacity:1" id="path109970" d="m 90.065455,140.5143 -3.246546,9.504 h 3.230313 l 0.03247,87.21945 V 150.0183 h 3.230313 l -3.246545,-9.504 z"/></g></g><g id="g109972"><g id="g109974" clip-path="url(#clipPath109978)"><path style="fill:red;fill-opacity:1;fill-rule:nonzero;stroke:red;stroke-width:1;stroke-linecap:butt;stroke-linejoin:miter;stroke-miterlimit:10;stroke-dasharray:none;stroke-opacity:1" id="path109980" d="m 106.29818,123.61442 -3.24654,9.504 h 3.23031 l 0.0325,61.86964 v -61.86964 h 3.23031 l -3.24655,-9.504 z"/></g></g><g id="g109982"><g id="g109984" clip-path="url(#clipPath109988)"><path style="fill:red;fill-opacity:1;fill-rule:nonzero;stroke:red;stroke-width:1;stroke-linecap:butt;stroke-linejoin:miter;stroke-miterlimit:10;stroke-dasharray:none;stroke-opacity:1" id="path109990" d="m 122.53091,111.70706 -3.24655,9.504 h 3.23032 l 0.0325,44.00858 v -44.00858 h 3.23032 l -3.24655,-9.504 z"/></g></g><g id="g109992"><g id="g109994" clip-path="url(#clipPath109998)"><path style="fill:red;fill-opacity:1;fill-rule:nonzero;stroke:red;stroke-width:1;stroke-linecap:butt;stroke-linejoin:miter;stroke-miterlimit:10;stroke-dasharray:none;stroke-opacity:1" id="path110000" d="m 138.76364,105.27096 -3.24655,9.504 h 3.23031 l 0.0325,34.35444 v -34.35444 h 3.23031 l -3.24654,-9.504 z"/></g></g><g id="g110002"><g id="g110004" clip-path="url(#clipPath110008)"><path style="fill:red;fill-opacity:1;fill-rule:nonzero;stroke:red;stroke-width:1;stroke-linecap:butt;stroke-linejoin:miter;stroke-miterlimit:10;stroke-dasharray:none;stroke-opacity:1" id="path110010" d="m 154.99636,102.41039 -3.24654,9.504 h 3.23031 l 0.0325,30.06357 v -30.06357 h 3.23031 l -3.24655,-9.504 z"/></g></g><g id="g110012"><g id="g110014" clip-path="url(#clipPath110018)"><path style="fill:red;fill-opacity:1;fill-rule:nonzero;stroke:red;stroke-width:1;stroke-linecap:butt;stroke-linejoin:miter;stroke-miterlimit:10;stroke-dasharray:none;stroke-opacity:1" id="path110020" d="m 171.22909,101.394 -3.24654,9.504 h 3.23031 l 0.0325,28.53899 V 110.898 h 3.23032 l -3.24655,-9.504 z"/></g></g><g id="g110022"><g id="g110024" clip-path="url(#clipPath110028)"><path style="fill:red;fill-opacity:1;fill-rule:nonzero;stroke:red;stroke-width:1;stroke-linecap:butt;stroke-linejoin:miter;stroke-miterlimit:10;stroke-dasharray:none;stroke-opacity:1" id="path110030" d="m 187.46182,101.16079 -3.24655,9.504 h 3.23031 l 0.0325,28.18919 v -28.18919 h 3.23031 l -3.24654,-9.504 z"/></g></g><g id="g110032"><g id="g110034" clip-path="url(#clipPath110038)"><path style="fill:red;fill-opacity:1;fill-rule:nonzero;stroke:red;stroke-width:1;stroke-linecap:butt;stroke-linejoin:miter;stroke-miterlimit:10;stroke-dasharray:none;stroke-opacity:1" id="path110040" d="m 203.69454,101.18756 -3.24654,9.504 h 3.23031 l 0.0325,28.22935 v -28.22935 h 3.23031 l -3.24655,-9.504 z"/></g></g><g id="g110042"><g id="g110044" clip-path="url(#clipPath110048)"><path style="fill:red;fill-opacity:1;fill-rule:nonzero;stroke:red;stroke-width:1;stroke-linecap:butt;stroke-linejoin:miter;stroke-miterlimit:10;stroke-dasharray:none;stroke-opacity:1" id="path110050" d="m 219.92727,101.2625 -3.24654,9.504 h 3.23031 l 0.0325,28.34175 V 110.7665 h 3.23032 l -3.24655,-9.504 z"/></g></g><g id="g110052"><g id="g110054" clip-path="url(#clipPath110058)"><path style="fill:red;fill-opacity:1;fill-rule:nonzero;stroke:red;stroke-width:1;stroke-linecap:butt;stroke-linejoin:miter;stroke-miterlimit:10;stroke-dasharray:none;stroke-opacity:1" id="path110060" d="m 236.16,101.32075 -3.24655,9.504 h 3.23032 l 0.0325,28.42912 v -28.42912 h 3.23031 l -3.24654,-9.504 z"/></g></g><g id="g110062"><g id="g110064" clip-path="url(#clipPath110068)"><path style="fill:red;fill-opacity:1;fill-rule:nonzero;stroke:red;stroke-width:1;stroke-linecap:butt;stroke-linejoin:miter;stroke-miterlimit:10;stroke-dasharray:none;stroke-opacity:1" id="path110070" d="m 252.39273,101.35396 -3.24655,9.504 h 3.23031 l 0.0325,28.47894 v -28.47894 h 3.23031 l -3.24654,-9.504 z"/></g></g><g id="g110072"><g id="g110074" clip-path="url(#clipPath110078)"><path style="fill:red;fill-opacity:1;fill-rule:nonzero;stroke:red;stroke-width:1;stroke-linecap:butt;stroke-linejoin:miter;stroke-miterlimit:10;stroke-dasharray:none;stroke-opacity:1" id="path110080" d="m 268.62545,101.36943 -3.24654,9.504 h 3.23031 l 0.0325,28.50215 v -28.50215 h 3.23031 l -3.24655,-9.504 z"/></g></g><g id="g110082"><g id="g110084" clip-path="url(#clipPath110088)"><path style="fill:red;fill-opacity:1;fill-rule:nonzero;stroke:red;stroke-width:1;stroke-linecap:butt;stroke-linejoin:miter;stroke-miterlimit:10;stroke-dasharray:none;stroke-opacity:1" id="path110090" d="m 284.85818,101.37528 -3.24654,9.504 h 3.23031 l 0.0325,28.51093 v -28.51093 h 3.23032 l -3.24655,-9.504 z"/></g></g><g id="g110092"><g id="g110094" clip-path="url(#clipPath110098)"><path style="fill:red;fill-opacity:1;fill-rule:nonzero;stroke:red;stroke-width:1;stroke-linecap:butt;stroke-linejoin:miter;stroke-miterlimit:10;stroke-dasharray:none;stroke-opacity:1" id="path110100" d="m 301.09091,101.37685 -3.24655,9.504 h 3.23032 l 0.0325,28.51328 v -28.51328 h 3.23031 l -3.24654,-9.504 z"/></g></g><g id="g110102"><g id="g110104" clip-path="url(#clipPath110108)"><path style="fill:red;fill-opacity:1;fill-rule:nonzero;stroke:red;stroke-width:1;stroke-linecap:butt;stroke-linejoin:miter;stroke-miterlimit:10;stroke-dasharray:none;stroke-opacity:1" id="path110110" d="m 317.32364,101.37689 -3.24655,9.504 h 3.23031 l 0.0325,28.51333 v -28.51333 h 3.23031 l -3.24654,-9.504 z"/></g></g><g id="g110112"><g id="g110114" clip-path="url(#clipPath110118)"><path style="fill:red;fill-opacity:1;fill-rule:nonzero;stroke:red;stroke-width:1;stroke-linecap:butt;stroke-linejoin:miter;stroke-miterlimit:10;stroke-dasharray:none;stroke-opacity:1" id="path110120" d="m 333.55636,101.37657 -3.24654,9.504 h 3.23031 l 0.0325,28.51286 v -28.51286 h 3.23031 l -3.24655,-9.504 z"/></g></g><g id="g110122"><g id="g110124" clip-path="url(#clipPath110128)"><path style="fill:red;fill-opacity:1;fill-rule:nonzero;stroke:red;stroke-width:1;stroke-linecap:butt;stroke-linejoin:miter;stroke-miterlimit:10;stroke-dasharray:none;stroke-opacity:1" id="path110130" d="m 349.78909,101.37629 -3.24654,9.504 h 3.23031 l 0.0325,28.51244 v -28.51244 h 3.23032 l -3.24655,-9.504 z"/></g></g><g id="g110132"><g id="g110134" clip-path="url(#clipPath110138)"><path style="fill:red;fill-opacity:1;fill-rule:nonzero;stroke:red;stroke-width:1;stroke-linecap:butt;stroke-linejoin:miter;stroke-miterlimit:10;stroke-dasharray:none;stroke-opacity:1" id="path110140" d="m 366.02182,101.37612 -3.24655,9.504 h 3.23031 l 0.0325,28.51219 v -28.51219 h 3.23031 l -3.24654,-9.504 z"/></g></g><g id="g110142"><g id="g110144" clip-path="url(#clipPath110148)"><path style="fill:red;fill-opacity:1;fill-rule:nonzero;stroke:red;stroke-width:1;stroke-linecap:butt;stroke-linejoin:miter;stroke-miterlimit:10;stroke-dasharray:none;stroke-opacity:1" id="path110150" d="m 382.25454,101.37604 -3.24654,9.504 h 3.23031 l 0.0325,28.51206 v -28.51206 h 3.23031 l -3.24655,-9.504 z"/></g></g><g id="g110152"><g id="g110154" clip-path="url(#clipPath110158)"><path style="fill:red;fill-opacity:1;fill-rule:nonzero;stroke:red;stroke-width:1;stroke-linecap:butt;stroke-linejoin:miter;stroke-miterlimit:10;stroke-dasharray:none;stroke-opacity:1" id="path110160" d="m 398.48727,101.37601 -3.24654,9.504 h 3.23031 l 0.0325,28.51201 v -28.51201 h 3.23032 l -3.24655,-9.504 z"/></g></g><g id="g110162"><path style="fill:#000;fill-opacity:1;fill-rule:nonzero;stroke:#000;stroke-width:.80000001;stroke-linecap:butt;stroke-linejoin:round;stroke-miterlimit:10;stroke-dasharray:none;stroke-opacity:1" id="path110164" d="m 73.832727,38.016 v -3.5"/><text style="font-variant:normal;font-weight:400;font-size:10px;font-family:DejaVuSans;-inkscape-font-specification:DejaVuSans;writing-mode:lr-tb;fill:#000;fill-opacity:1;fill-rule:nonzero;stroke:none" id="text110168" transform="matrix(1,0,0,-1,70.65304,23.42225)"><tspan id="tspan110166" x="0" y="0">0</tspan></text><path style="fill:#000;fill-opacity:1;fill-rule:nonzero;stroke:#000;stroke-width:.80000001;stroke-linecap:butt;stroke-linejoin:round;stroke-miterlimit:10;stroke-dasharray:none;stroke-opacity:1" id="path110170" d="m 138.76364,38.016 v -3.5"/><text style="font-variant:normal;font-weight:400;font-size:10px;font-family:DejaVuSans;-inkscape-font-specification:DejaVuSans;writing-mode:lr-tb;fill:#000;fill-opacity:1;fill-rule:nonzero;stroke:none" id="text110174" transform="matrix(1,0,0,-1,135.58395,23.42225)"><tspan id="tspan110172" x="0" y="0">2</tspan></text><path style="fill:#000;fill-opacity:1;fill-rule:nonzero;stroke:#000;stroke-width:.80000001;stroke-linecap:butt;stroke-linejoin:round;stroke-miterlimit:10;stroke-dasharray:none;stroke-opacity:1" id="path110176" d="m 203.69454,38.016 v -3.5"/><text style="font-variant:normal;font-weight:400;font-size:10px;font-family:DejaVuSans;-inkscape-font-specification:DejaVuSans;writing-mode:lr-tb;fill:#000;fill-opacity:1;fill-rule:nonzero;stroke:none" id="text110180" transform="matrix(1,0,0,-1,200.51486,23.42225)"><tspan id="tspan110178" x="0" y="0">4</tspan></text><path style="fill:#000;fill-opacity:1;fill-rule:nonzero;stroke:#000;stroke-width:.80000001;stroke-linecap:butt;stroke-linejoin:round;stroke-miterlimit:10;stroke-dasharray:none;stroke-opacity:1" id="path110182" d="m 268.62545,38.016 v -3.5"/><text style="font-variant:normal;font-weight:400;font-size:10px;font-family:DejaVuSans;-inkscape-font-specification:DejaVuSans;writing-mode:lr-tb;fill:#000;fill-opacity:1;fill-rule:nonzero;stroke:none" id="text110186" transform="matrix(1,0,0,-1,265.44577,23.42225)"><tspan id="tspan110184" x="0" y="0">6</tspan></text><path style="fill:#000;fill-opacity:1;fill-rule:nonzero;stroke:#000;stroke-width:.80000001;stroke-linecap:butt;stroke-linejoin:round;stroke-miterlimit:10;stroke-dasharray:none;stroke-opacity:1" id="path110188" d="m 333.55636,38.016 v -3.5"/><text style="font-variant:normal;font-weight:400;font-size:10px;font-family:DejaVuSans;-inkscape-font-specification:DejaVuSans;writing-mode:lr-tb;fill:#000;fill-opacity:1;fill-rule:nonzero;stroke:none" id="text110192" transform="matrix(1,0,0,-1,330.37668,23.42225)"><tspan id="tspan110190" x="0" y="0">8</tspan></text><path style="fill:#000;fill-opacity:1;fill-rule:nonzero;stroke:#000;stroke-width:.80000001;stroke-linecap:butt;stroke-linejoin:round;stroke-miterlimit:10;stroke-dasharray:none;stroke-opacity:1" id="path110194" d="m 398.48727,38.016 v -3.5"/><text style="font-variant:normal;font-weight:400;font-size:10px;font-family:DejaVuSans;-inkscape-font-specification:DejaVuSans;writing-mode:lr-tb;fill:#000;fill-opacity:1;fill-rule:nonzero;stroke:none" id="text110198" transform="matrix(1,0,0,-1,392.1279,23.42225)"><tspan id="tspan110196" x="0 6.36" y="0">10</tspan></text></g><g id="g110200"><g id="g110202" clip-path="url(#clipPath110206)"><path style="fill:none;stroke:gray;stroke-width:.80000001;stroke-linecap:butt;stroke-linejoin:round;stroke-miterlimit:10;stroke-dasharray:2.2,2.2;stroke-dashoffset:0;stroke-opacity:1" id="path110208" d="M 57.6,38.016 H 414.72"/></g></g><g id="g110210"><path style="fill:#000;fill-opacity:1;fill-rule:nonzero;stroke:#000;stroke-width:.80000001;stroke-linecap:butt;stroke-linejoin:round;stroke-miterlimit:10;stroke-dasharray:none;stroke-opacity:1" id="path110212" d="M 57.6,38.016 H 54.1"/><g id="g110214" transform="translate(26.31875,34.219125)"><text style="font-variant:normal;font-weight:400;font-size:10px;font-family:DejaVuSans;-inkscape-font-specification:DejaVuSans;writing-mode:lr-tb;fill:#000;fill-opacity:1;fill-rule:nonzero;stroke:none" id="text110218" transform="matrix(1,0,0,-1,8.3789063,0)"><tspan id="tspan110216" x="0 6.36 9.54" y="0">0.2</tspan></text><g id="g110220" transform="scale(0.01)"><g id="g110222"><g id="g110224" clip-path="url(#clipPath110228)"><path style="fill:#000;fill-opacity:1;fill-rule:nonzero;stroke:none" id="path110230" d="M 106,355 H 732 V 272 H 106 v 83"/></g></g></g></g></g><g id="g110232"><g id="g110234" clip-path="url(#clipPath110238)"><path style="fill:none;stroke:gray;stroke-width:.80000001;stroke-linecap:butt;stroke-linejoin:round;stroke-miterlimit:10;stroke-dasharray:2.2,2.2;stroke-dashoffset:0;stroke-opacity:1" id="path110240" d="M 57.6,76.032 H 414.72"/></g></g><g id="g110242"><path style="fill:#000;fill-opacity:1;fill-rule:nonzero;stroke:#000;stroke-width:.80000001;stroke-linecap:butt;stroke-linejoin:round;stroke-miterlimit:10;stroke-dasharray:none;stroke-opacity:1" id="path110244" d="M 57.6,76.032 H 54.1"/><text style="font-variant:normal;font-weight:400;font-size:10px;font-family:DejaVuSans;-inkscape-font-specification:DejaVuSans;writing-mode:lr-tb;fill:#000;fill-opacity:1;fill-rule:nonzero;stroke:none" id="text110248" transform="matrix(1,0,0,-1,34.69375,72.235125)"><tspan id="tspan110246" x="0 6.36 9.54" y="0">0.0</tspan></text></g><g id="g110250"><g id="g110252" clip-path="url(#clipPath110256)"><path style="fill:none;stroke:gray;stroke-width:.80000001;stroke-linecap:butt;stroke-linejoin:round;stroke-miterlimit:10;stroke-dasharray:2.2,2.2;stroke-dashoffset:0;stroke-opacity:1" id="path110258" d="M 57.6,114.048 H 414.72"/></g></g><g id="g110260"><path style="fill:#000;fill-opacity:1;fill-rule:nonzero;stroke:#000;stroke-width:.80000001;stroke-linecap:butt;stroke-linejoin:round;stroke-miterlimit:10;stroke-dasharray:none;stroke-opacity:1" id="path110262" d="M 57.6,114.048 H 54.1"/><text style="font-variant:normal;font-weight:400;font-size:10px;font-family:DejaVuSans;-inkscape-font-specification:DejaVuSans;writing-mode:lr-tb;fill:#000;fill-opacity:1;fill-rule:nonzero;stroke:none" id="text110266" transform="matrix(1,0,0,-1,34.69375,110.25113)"><tspan id="tspan110264" x="0 6.36 9.54" y="0">0.2</tspan></text></g><g id="g110268"><g id="g110270" clip-path="url(#clipPath110274)"><path style="fill:none;stroke:gray;stroke-width:.80000001;stroke-linecap:butt;stroke-linejoin:round;stroke-miterlimit:10;stroke-dasharray:2.2,2.2;stroke-dashoffset:0;stroke-opacity:1" id="path110276" d="M 57.6,152.064 H 414.72"/></g></g><g id="g110278"><path style="fill:#000;fill-opacity:1;fill-rule:nonzero;stroke:#000;stroke-width:.80000001;stroke-linecap:butt;stroke-linejoin:round;stroke-miterlimit:10;stroke-dasharray:none;stroke-opacity:1" id="path110280" d="M 57.6,152.064 H 54.1"/><text style="font-variant:normal;font-weight:400;font-size:10px;font-family:DejaVuSans;-inkscape-font-specification:DejaVuSans;writing-mode:lr-tb;fill:#000;fill-opacity:1;fill-rule:nonzero;stroke:none" id="text110284" transform="matrix(1,0,0,-1,34.69375,148.26712)"><tspan id="tspan110282" x="0 6.36 9.54" y="0">0.4</tspan></text></g><g id="g110286"><g id="g110288" clip-path="url(#clipPath110292)"><path style="fill:none;stroke:gray;stroke-width:.80000001;stroke-linecap:butt;stroke-linejoin:round;stroke-miterlimit:10;stroke-dasharray:2.2,2.2;stroke-dashoffset:0;stroke-opacity:1" id="path110294" d="M 57.6,190.08 H 414.72"/></g></g><g id="g110296"><path style="fill:#000;fill-opacity:1;fill-rule:nonzero;stroke:#000;stroke-width:.80000001;stroke-linecap:butt;stroke-linejoin:round;stroke-miterlimit:10;stroke-dasharray:none;stroke-opacity:1" id="path110298" d="M 57.6,190.08 H 54.1"/><text style="font-variant:normal;font-weight:400;font-size:10px;font-family:DejaVuSans;-inkscape-font-specification:DejaVuSans;writing-mode:lr-tb;fill:#000;fill-opacity:1;fill-rule:nonzero;stroke:none" id="text110302" transform="matrix(1,0,0,-1,34.69375,186.28312)"><tspan id="tspan110300" x="0 6.36 9.54" y="0">0.6</tspan></text></g><g id="g110304"><g id="g110306" clip-path="url(#clipPath110310)"><path style="fill:none;stroke:gray;stroke-width:.80000001;stroke-linecap:butt;stroke-linejoin:round;stroke-miterlimit:10;stroke-dasharray:2.2,2.2;stroke-dashoffset:0;stroke-opacity:1" id="path110312" d="M 57.6,228.096 H 414.72"/></g></g><g id="g110314"><path style="fill:#000;fill-opacity:1;fill-rule:nonzero;stroke:#000;stroke-width:.80000001;stroke-linecap:butt;stroke-linejoin:round;stroke-miterlimit:10;stroke-dasharray:none;stroke-opacity:1" id="path110316" d="M 57.6,228.096 H 54.1"/><text style="font-variant:normal;font-weight:400;font-size:10px;font-family:DejaVuSans;-inkscape-font-specification:DejaVuSans;writing-mode:lr-tb;fill:#000;fill-opacity:1;fill-rule:nonzero;stroke:none" id="text110320" transform="matrix(1,0,0,-1,34.69375,224.29912)"><tspan id="tspan110318" x="0 6.36 9.54" y="0">0.8</tspan></text></g><g id="g110322"><g id="g110324" clip-path="url(#clipPath110328)"><path style="fill:none;stroke:gray;stroke-width:.80000001;stroke-linecap:butt;stroke-linejoin:round;stroke-miterlimit:10;stroke-dasharray:2.2,2.2;stroke-dashoffset:0;stroke-opacity:1" id="path110330" d="M 57.6,266.112 H 414.72"/></g></g><g id="g110332"><path style="fill:#000;fill-opacity:1;fill-rule:nonzero;stroke:#000;stroke-width:.80000001;stroke-linecap:butt;stroke-linejoin:round;stroke-miterlimit:10;stroke-dasharray:none;stroke-opacity:1" id="path110334" d="M 57.6,266.112 H 54.1"/><text style="font-variant:normal;font-weight:400;font-size:10px;font-family:DejaVuSans;-inkscape-font-specification:DejaVuSans;writing-mode:lr-tb;fill:#000;fill-opacity:1;fill-rule:nonzero;stroke:none" id="text110338" transform="matrix(1,0,0,-1,34.69375,262.31512)"><tspan id="tspan110336" x="0 6.36 9.54" y="0">1.0</tspan></text></g><g id="g110340"><g id="g110342" clip-path="url(#clipPath110346)"><path style="fill:none;stroke:gray;stroke-width:.80000001;stroke-linecap:butt;stroke-linejoin:round;stroke-miterlimit:10;stroke-dasharray:2.2,2.2;stroke-dashoffset:0;stroke-opacity:1" id="path110348" d="M 57.6,304.128 H 414.72"/></g></g><g id="g110350"><path style="fill:#000;fill-opacity:1;fill-rule:nonzero;stroke:#000;stroke-width:.80000001;stroke-linecap:butt;stroke-linejoin:round;stroke-miterlimit:10;stroke-dasharray:none;stroke-opacity:1" id="path110352" d="M 57.6,304.128 H 54.1"/><text style="font-variant:normal;font-weight:400;font-size:10px;font-family:DejaVuSans;-inkscape-font-specification:DejaVuSans;writing-mode:lr-tb;fill:#000;fill-opacity:1;fill-rule:nonzero;stroke:none" id="text110356" transform="matrix(1,0,0,-1,34.69375,300.33112)"><tspan id="tspan110354" x="0 6.36 9.54" y="0">1.2</tspan></text></g><g id="g110358"><g id="g110360" clip-path="url(#clipPath110364)"><path style="fill:none;stroke:#1f77b4;stroke-width:1.5;stroke-linecap:square;stroke-linejoin:round;stroke-miterlimit:10;stroke-dasharray:none;stroke-opacity:1" id="path110366" d="m 73.832727,266.112 0.779171,-0.10264 0.844102,-0.34122 0.909033,-0.61418 1.038894,-0.98764 1.168757,-1.43857 1.331083,-2.01054 1.525877,-2.72368 1.7856,-3.65812 2.175185,-4.99348 2.727098,-6.85148 4.058182,-10.86612 8.246231,-22.15511 3.76599,-9.40987 3.31147,-7.69451 3.08422,-6.61925 2.95436,-5.82173 2.82449,-5.08608 2.75957,-4.52212 2.7271,-4.04758 2.69463,-3.6053 2.66216,-3.19721 2.66217,-2.85675 2.69463,-2.56861 2.7271,-2.29386 2.75957,-2.03425 2.85696,-1.82968 2.95435,-1.62578 3.05175,-1.42602 3.21408,-1.25662 3.40888,-1.09381 3.66859,-0.94234 3.99325,-0.79426 4.44777,-0.6536 5.03215,-0.50936 5.87624,-0.36512 7.2398,-0.21734 9.7721,-0.055 17.66121,0.1647 34.7705,0.30285 40.71168,0.0803 111.77856,0.001 v 0"/></g></g><g id="g110368"><path style="fill:none;stroke:#000;stroke-width:.80000001;stroke-linecap:square;stroke-linejoin:miter;stroke-miterlimit:10;stroke-dasharray:none;stroke-opacity:1" id="path110370" d="M 57.6,38.016 V 304.128"/><path style="fill:none;stroke:#000;stroke-width:.80000001;stroke-linecap:square;stroke-linejoin:miter;stroke-miterlimit:10;stroke-dasharray:none;stroke-opacity:1" id="path110372" d="M 414.72,38.016 V 304.128"/><path style="fill:none;stroke:#000;stroke-width:.80000001;stroke-linecap:square;stroke-linejoin:miter;stroke-miterlimit:10;stroke-dasharray:none;stroke-opacity:1" id="path110374" d="M 57.6,38.016 H 414.72"/><path style="fill:none;stroke:#000;stroke-width:.80000001;stroke-linecap:square;stroke-linejoin:miter;stroke-miterlimit:10;stroke-dasharray:none;stroke-opacity:1" id="path110376" d="M 57.6,304.128 H 414.72"/></g></g></svg>