<svg xmlns="http://www.w3.org/2000/svg" xmlns:svg="http://www.w3.org/2000/svg" id="svg4780" width="357.871" height="213.598" version="1.1" viewBox="0 0 357.871 213.598" xml:space="preserve"><metadata id="metadata4786"/><defs id="defs4784"><clipPath id="clipPath4796" clipPathUnits="userSpaceOnUse"><path id="path4794" d="M 0,1.2207e-4 H 960 V 540.00012 H 0 Z" style="clip-rule:evenodd"/></clipPath><clipPath id="clipPath4820" clipPathUnits="userSpaceOnUse"><path id="path4818" d="M -3.0518e-5,540 H 960 V 1.8311e-4 L -6.1035e-5,1.2207e-4" style="clip-rule:evenodd"/></clipPath><clipPath id="clipPath4830" clipPathUnits="userSpaceOnUse"><path id="path4828" d="M -3.0518e-5,540 H 960 V 1.8311e-4 L -6.1035e-5,1.2207e-4" style="clip-rule:evenodd"/></clipPath><clipPath id="clipPath4840" clipPathUnits="userSpaceOnUse"><path id="path4838" d="M -3.0518e-5,540 H 960 V 1.2207e-4 L -3.0518e-5,6.1035e-5" style="clip-rule:evenodd"/></clipPath><clipPath id="clipPath4850" clipPathUnits="userSpaceOnUse"><path id="path4848" d="M -3.0518e-5,540 H 960 V 1.2207e-4 L -3.0518e-5,6.1035e-5" style="clip-rule:evenodd"/></clipPath><clipPath id="clipPath4878" clipPathUnits="userSpaceOnUse"><path id="path4876" d="M 1.4305e-5,0 H 960.00001 V 540 H 1.4305e-5 Z" style="clip-rule:evenodd"/></clipPath><clipPath id="clipPath4890" clipPathUnits="userSpaceOnUse"><path id="path4888" d="M 1.4305e-5,0 H 960.00001 V 540 H 1.4305e-5 Z" style="clip-rule:evenodd"/></clipPath><clipPath id="clipPath4902" clipPathUnits="userSpaceOnUse"><path id="path4900" d="M 1.4305e-5,0 H 960.00001 V 540 H 1.4305e-5 Z" style="clip-rule:evenodd"/></clipPath><clipPath id="clipPath4914" clipPathUnits="userSpaceOnUse"><path id="path4912" d="M 1.4305e-5,0 H 960.00001 V 540 H 1.4305e-5 Z" style="clip-rule:evenodd"/></clipPath><clipPath id="clipPath4926" clipPathUnits="userSpaceOnUse"><path id="path4924" d="M 1.4305e-5,0 H 960.00001 V 540 H 1.4305e-5 Z" style="clip-rule:evenodd"/></clipPath><clipPath id="clipPath4938" clipPathUnits="userSpaceOnUse"><path id="path4936" d="M 3.0518e-5,540 H 960 V 1.8311e-4 H 0" style="clip-rule:evenodd"/></clipPath><clipPath id="clipPath4948" clipPathUnits="userSpaceOnUse"><path id="path4946" d="M -6.1035e-5,540 H 960 V 1.2207e-4 H -6.1035e-5" style="clip-rule:evenodd"/></clipPath><clipPath id="clipPath4958" clipPathUnits="userSpaceOnUse"><path id="path4956" d="M 1.4305e-5,0 H 960.00001 V 540 H 1.4305e-5 Z" style="clip-rule:evenodd"/></clipPath><clipPath id="clipPath4982" clipPathUnits="userSpaceOnUse"><path id="path4980" d="M 1.4305e-5,0 H 960.00001 V 540 H 1.4305e-5 Z" style="clip-rule:evenodd"/></clipPath><clipPath id="clipPath4994" clipPathUnits="userSpaceOnUse"><path id="path4992" d="M 1.4305e-5,0 H 960.00001 V 540 H 1.4305e-5 Z" style="clip-rule:evenodd"/></clipPath><clipPath id="clipPath5006" clipPathUnits="userSpaceOnUse"><path id="path5004" d="M 1.4305e-5,0 H 960.00001 V 540 H 1.4305e-5 Z" style="clip-rule:evenodd"/></clipPath><clipPath id="clipPath5018" clipPathUnits="userSpaceOnUse"><path id="path5016" d="M 1.4305e-5,0 H 960.00001 V 540 H 1.4305e-5 Z" style="clip-rule:evenodd"/></clipPath></defs><g id="g4788" transform="matrix(1.3333333,0,0,-1.3333333,-438.47411,490.5539)"><path style="fill:none;stroke:#000;stroke-width:2.27999997;stroke-linecap:butt;stroke-linejoin:miter;stroke-miterlimit:10;stroke-dasharray:none;stroke-opacity:1" id="path4800" d="m 339.78,222.78 h 81.7"/><path style="fill:none;stroke:#000;stroke-width:2.27999997;stroke-linecap:butt;stroke-linejoin:miter;stroke-miterlimit:10;stroke-dasharray:none;stroke-opacity:1" id="path4802" d="m 356.23,222.78 -16.45,-14.2"/><path style="fill:none;stroke:#000;stroke-width:2.27999997;stroke-linecap:butt;stroke-linejoin:miter;stroke-miterlimit:10;stroke-dasharray:none;stroke-opacity:1" id="path4804" d="m 366.07,222.78 -16.45,-14.2"/><path style="fill:none;stroke:#000;stroke-width:2.27999997;stroke-linecap:butt;stroke-linejoin:miter;stroke-miterlimit:10;stroke-dasharray:none;stroke-opacity:1" id="path4806" d="m 377.23,222.78 -16.45,-14.2"/><path style="fill:none;stroke:#000;stroke-width:2.27999997;stroke-linecap:butt;stroke-linejoin:miter;stroke-miterlimit:10;stroke-dasharray:none;stroke-opacity:1" id="path4808" d="m 387.07,222.78 -16.45,-14.2"/><path style="fill:none;stroke:#000;stroke-width:2.27999997;stroke-linecap:butt;stroke-linejoin:miter;stroke-miterlimit:10;stroke-dasharray:none;stroke-opacity:1" id="path4810" d="m 399.79,222.78 -16.45,-14.2"/><path style="fill:none;stroke:#000;stroke-width:2.27999997;stroke-linecap:butt;stroke-linejoin:miter;stroke-miterlimit:10;stroke-dasharray:none;stroke-opacity:1" id="path4812" d="m 409.51,222.78 -16.45,-14.2"/><g id="g4814"><g id="g4816" clip-path="url(#clipPath4820)"><path style="fill:#d9d9d9;fill-opacity:1;fill-rule:evenodd;stroke:none" id="path4822" d="m 507.96,320.24 79.98,-70.33 -10.4,-11.83 -79.98,70.34 z"/></g></g><g id="g4824"><g id="g4826" clip-path="url(#clipPath4830)"><path style="fill:none;stroke:#000;stroke-width:1;stroke-linecap:butt;stroke-linejoin:miter;stroke-miterlimit:10;stroke-dasharray:none;stroke-opacity:1" id="path4832" d="m 507.96,320.24 79.98,-70.33 -10.4,-11.83 -79.98,70.34 z"/></g></g><g id="g4834"><g id="g4836" clip-path="url(#clipPath4840)"><path style="fill:#d9d9d9;fill-opacity:1;fill-rule:evenodd;stroke:none" id="path4842" d="m 373.53,229.48 121.29,90.69 9.4,-12.58 -121.29,-90.68 z"/></g></g><g id="g4844"><g id="g4846" clip-path="url(#clipPath4850)"><path style="fill:none;stroke:#000;stroke-width:1;stroke-linecap:butt;stroke-linejoin:miter;stroke-miterlimit:10;stroke-dasharray:none;stroke-opacity:1" id="path4852" d="m 373.53,229.48 121.29,90.69 9.4,-12.58 -121.29,-90.68 z"/></g></g><path style="fill:#fff;fill-opacity:1;fill-rule:evenodd;stroke:none" id="path4854" d="m 366.06,223.98 c 0,8.09 6.53,14.64 14.58,14.64 8.05,0 14.58,-6.55 14.58,-14.64 0,-8.09 -6.53,-14.64 -14.58,-14.64 -8.05,0 -14.58,6.55 -14.58,14.64 z"/><path style="fill:none;stroke:#000;stroke-width:2.27999997;stroke-linecap:butt;stroke-linejoin:miter;stroke-miterlimit:10;stroke-dasharray:none;stroke-opacity:1" id="path4856" d="m 366.06,223.98 c 0,8.09 6.53,14.64 14.58,14.64 8.05,0 14.58,-6.55 14.58,-14.64 0,-8.09 -6.53,-14.64 -14.58,-14.64 -8.05,0 -14.58,6.55 -14.58,14.64 z"/><path style="fill:#000;fill-opacity:1;fill-rule:evenodd;stroke:none" id="path4858" d="m 373.56,224.4 c 0,4.11 3.33,7.44 7.44,7.44 4.11,0 7.44,-3.33 7.44,-7.44 0,-4.11 -3.33,-7.44 -7.44,-7.44 -4.11,0 -7.44,3.33 -7.44,7.44 z"/><path style="fill:#fff;fill-opacity:1;fill-rule:evenodd;stroke:none" id="path4860" d="m 484.62,314.64 c 0,8.05 6.53,14.58 14.58,14.58 8.05,0 14.58,-6.53 14.58,-14.58 0,-8.05 -6.53,-14.58 -14.58,-14.58 -8.05,0 -14.58,6.53 -14.58,14.58 z"/><path style="fill:none;stroke:#000;stroke-width:2.27999997;stroke-linecap:butt;stroke-linejoin:miter;stroke-miterlimit:10;stroke-dasharray:none;stroke-opacity:1" id="path4862" d="m 484.62,314.64 c 0,8.05 6.53,14.58 14.58,14.58 8.05,0 14.58,-6.53 14.58,-14.58 0,-8.05 -6.53,-14.58 -14.58,-14.58 -8.05,0 -14.58,6.53 -14.58,14.58 z"/><path style="fill:#000;fill-opacity:1;fill-rule:evenodd;stroke:none" id="path4864" d="m 492,315.12 c 0,4.11 3.36,7.44 7.5,7.44 4.14,0 7.5,-3.33 7.5,-7.44 0,-4.11 -3.36,-7.44 -7.5,-7.44 -4.14,0 -7.5,3.33 -7.5,7.44 z"/><path style="fill:#7f7f7f;fill-opacity:1;fill-rule:evenodd;stroke:none" id="path4866" d="m 575.28,243.54 c 0,4.74 3.84,8.58 8.58,8.58 4.74,0 8.58,-3.84 8.58,-8.58 0,-4.74 -3.84,-8.58 -8.58,-8.58 -4.74,0 -8.58,3.84 -8.58,8.58 z"/><path style="fill:none;stroke:#000;stroke-width:.95999998;stroke-linecap:butt;stroke-linejoin:miter;stroke-miterlimit:10;stroke-dasharray:none;stroke-opacity:1" id="path4868" d="m 575.28,243.54 c 0,4.74 3.84,8.58 8.58,8.58 4.74,0 8.58,-3.84 8.58,-8.58 0,-4.74 -3.84,-8.58 -8.58,-8.58 -4.74,0 -8.58,3.84 -8.58,8.58 z"/><path style="fill:none;stroke:#000;stroke-width:2.27999997;stroke-linecap:butt;stroke-linejoin:miter;stroke-miterlimit:10;stroke-dasharray:none;stroke-opacity:1" id="path4870" d="m 420.07,222.78 -16.45,-14.2"/><g id="g4872"><g id="g4874" clip-path="url(#clipPath4878)"><text style="font-variant:normal;font-weight:400;font-size:15.98400021px;font-family:'Times New Roman';-inkscape-font-specification:'Times New';writing-mode:lr-tb;fill:#000;fill-opacity:1;fill-rule:nonzero;stroke:none" id="text4882" transform="matrix(1,0,0,-1,328.2,233.18)"><tspan id="tspan4880" x="0 5.323 13.315 17.311 25.351" y="0">(0,0)</tspan></text></g></g><g id="g4884"><g id="g4886" clip-path="url(#clipPath4890)"><text style="font-style:italic;font-variant:normal;font-weight:400;font-size:15.96000004px;font-family:'Times New Roman';-inkscape-font-specification:'Times New Roman, Italic';writing-mode:lr-tb;fill:#000;fill-opacity:1;fill-rule:nonzero;stroke:none" id="text4894" transform="matrix(1,0,0,-1,397.46,323.11)"><tspan id="tspan4892" x="0" y="0">L</tspan></text></g></g><g id="g4896"><g id="g4898" clip-path="url(#clipPath4902)"><text style="font-variant:normal;font-weight:400;font-size:10.68000031px;font-family:'Times New Roman';-inkscape-font-specification:'Times New';writing-mode:lr-tb;fill:#000;fill-opacity:1;fill-rule:nonzero;stroke:none" id="text4906" transform="matrix(1,0,0,-1,406.34,319.27)"><tspan id="tspan4904" x="0" y="0">1</tspan></text></g></g><g id="g4908"><g id="g4910" clip-path="url(#clipPath4914)"><text style="font-style:italic;font-variant:normal;font-weight:400;font-size:15.96000004px;font-family:'Times New Roman';-inkscape-font-specification:'Times New Roman, Italic';writing-mode:lr-tb;fill:#000;fill-opacity:1;fill-rule:nonzero;stroke:none" id="text4918" transform="matrix(1,0,0,-1,575.33,305.21)"><tspan id="tspan4916" x="0" y="0">L</tspan></text></g></g><g id="g4920"><g id="g4922" clip-path="url(#clipPath4926)"><text style="font-variant:normal;font-weight:400;font-size:10.68000031px;font-family:'Times New Roman';-inkscape-font-specification:'Times New';writing-mode:lr-tb;fill:#000;fill-opacity:1;fill-rule:nonzero;stroke:none" id="text4930" transform="matrix(1,0,0,-1,584.21,301.37)"><tspan id="tspan4928" x="0" y="0">2</tspan></text></g></g><g id="g4932"><g id="g4934" clip-path="url(#clipPath4938)"><path style="fill:none;stroke:#000;stroke-width:.5;stroke-linecap:butt;stroke-linejoin:miter;stroke-miterlimit:10;stroke-dasharray:none;stroke-opacity:1" id="path4940" d="m 373.22,245.41 c -4.68,6.31 -5.75,13.45 -2.37,15.96 l 44.89,33.35 c 3.37,2.51 2.31,9.65 -2.37,15.96 4.68,-6.31 11.22,-9.39 14.59,-6.88 l 44.89,33.36 c 3.37,2.51 9.91,-0.57 14.59,-6.88"/></g></g><g id="g4942"><g id="g4944" clip-path="url(#clipPath4948)"><path style="fill:none;stroke:#000;stroke-width:.5;stroke-linecap:butt;stroke-linejoin:miter;stroke-miterlimit:10;stroke-dasharray:none;stroke-opacity:1" id="path4950" d="m 508.44,327.46 c 5.27,5.82 12.08,8.25 15.19,5.42 l 30.28,-27.45 c 3.12,-2.83 9.92,-0.4 15.2,5.42 -5.28,-5.82 -7.04,-12.83 -3.92,-15.65 l 30.28,-27.46 c 3.11,-2.82 1.36,-9.83 -3.92,-15.65"/></g></g><g id="g4952"><g id="g4954" clip-path="url(#clipPath4958)"><text style="font-style:italic;font-variant:normal;font-weight:700;font-size:15.98400021px;font-family:'Times New Roman';-inkscape-font-specification:'Times New Roman, BoldItalic';writing-mode:lr-tb;fill:#000;fill-opacity:1;fill-rule:nonzero;stroke:none" id="text4962" transform="matrix(1,0,0,-1,580.56,215.21)"><tspan id="tspan4960" x="0" y="0">x</tspan></text></g></g><path style="fill:none;stroke:#000;stroke-width:2.27999997;stroke-linecap:butt;stroke-linejoin:miter;stroke-miterlimit:10;stroke-dasharray:none;stroke-opacity:1" id="path4964" d="m 422.76,257.4 c 7.5,-9.57 11.58,-21.38 11.58,-33.54"/><g id="g4966"><path style="fill:none;stroke:#000;stroke-width:1.55999994;stroke-linecap:butt;stroke-linejoin:miter;stroke-miterlimit:10;stroke-dasharray:4.68,1.56;stroke-dashoffset:0;stroke-opacity:1" id="path4968" d="m 382.62,225.83 183.7,140.95"/></g><g id="g4970"><path style="fill:none;stroke:#000;stroke-width:1.55999994;stroke-linecap:butt;stroke-linejoin:miter;stroke-miterlimit:10;stroke-dasharray:4.68,1.56;stroke-dashoffset:0;stroke-opacity:1" id="path4972" d="m 500.22,314.94 83.55,-72.4"/></g><path style="fill:none;stroke:#000;stroke-width:2.27999997;stroke-linecap:butt;stroke-linejoin:miter;stroke-miterlimit:10;stroke-dasharray:none;stroke-opacity:1" id="path4974" d="m 541.23,279.86 c -17.98,-24.04 -52.05,-28.95 -76.09,-10.97 -24.04,17.98 -28.95,52.05 -10.97,76.09 17.98,24.04 52.05,28.95 76.09,10.97 3.79,-2.83 7.2,-6.15 10.13,-9.87"/><g id="g4976"><g id="g4978" clip-path="url(#clipPath4982)"><text style="font-style:italic;font-variant:normal;font-weight:400;font-size:15.98400021px;font-family:'Times New Roman';-inkscape-font-specification:'Times New Roman, Italic';writing-mode:lr-tb;fill:#000;fill-opacity:1;fill-rule:nonzero;stroke:none" id="text4986" transform="matrix(1,0,0,-1,438.05,229.51)"><tspan id="tspan4984" x="0" y="0">q</tspan></text></g></g><g id="g4988"><g id="g4990" clip-path="url(#clipPath4994)"><text style="font-variant:normal;font-weight:400;font-size:10.68000031px;font-family:'Times New Roman';-inkscape-font-specification:'Times New';writing-mode:lr-tb;fill:#000;fill-opacity:1;fill-rule:nonzero;stroke:none" id="text4998" transform="matrix(1,0,0,-1,446.09,225.65)"><tspan id="tspan4996" x="0" y="0">1</tspan></text></g></g><g id="g5000"><g id="g5002" clip-path="url(#clipPath5006)"><text style="font-style:italic;font-variant:normal;font-weight:400;font-size:15.96000004px;font-family:'Times New Roman';-inkscape-font-specification:'Times New Roman, Italic';writing-mode:lr-tb;fill:#000;fill-opacity:1;fill-rule:nonzero;stroke:none" id="text5010" transform="matrix(1,0,0,-1,504.36,350.23)"><tspan id="tspan5008" x="0" y="0">q</tspan></text></g></g><g id="g5012"><g id="g5014" clip-path="url(#clipPath5018)"><text style="font-variant:normal;font-weight:400;font-size:10.68000031px;font-family:'Times New Roman';-inkscape-font-specification:'Times New';writing-mode:lr-tb;fill:#000;fill-opacity:1;fill-rule:nonzero;stroke:none" id="text5022" transform="matrix(1,0,0,-1,512.4,346.39)"><tspan id="tspan5020" x="0" y="0">2</tspan></text></g></g><g id="g5024"><path style="fill:none;stroke:#000;stroke-width:1.55999994;stroke-linecap:butt;stroke-linejoin:miter;stroke-miterlimit:10;stroke-dasharray:4.68,1.56;stroke-dashoffset:0;stroke-opacity:1" id="path5026" d="m 382.62,222.78 h 72.7"/></g></g></svg>