<svg xmlns="http://www.w3.org/2000/svg" xmlns:svg="http://www.w3.org/2000/svg" id="svg26932" width="1201.918" height="234.877" version="1.1" viewBox="0 0 1201.918 234.877" xml:space="preserve"><metadata id="metadata26938"/><g id="g26940" transform="matrix(1.3333333,0,0,-1.3333333,0,234.87685)"><g id="g26942"><g id="g26944" transform="matrix(1,0,0,-1,0,176.15764)"><path style="fill:#45d426;fill-opacity:1;fill-rule:evenodd;stroke:#45d426;stroke-width:.72000003;stroke-linecap:butt;stroke-linejoin:round;stroke-miterlimit:10;stroke-dasharray:none;stroke-opacity:1" id="path26946" d="m 24,76.742 c 0,-2.023 1.613,-3.66 3.598,-3.66 1.988,0 3.601,1.637 3.601,3.66 0,2.02 -1.613,3.656 -3.601,3.656 C 25.613,80.398 24,78.762 24,76.742 Z"/></g><g id="g26948" transform="matrix(1,0,0,-1,0,176.15764)"><path style="fill:#f81705;fill-opacity:1;fill-rule:evenodd;stroke:#f81705;stroke-width:.72000003;stroke-linecap:butt;stroke-linejoin:round;stroke-miterlimit:10;stroke-dasharray:none;stroke-opacity:1" id="path26950" d="m 213.359,74.219 c 0,-2.02 1.61,-3.66 3.602,-3.66 1.988,0 3.598,1.64 3.598,3.66 0,2.023 -1.61,3.66 -3.598,3.66 -1.992,0 -3.602,-1.637 -3.602,-3.66 z"/></g><g id="g26952" transform="matrix(1,0,0,-1,0,176.15764)"><path style="fill:#976300;fill-opacity:1;fill-rule:evenodd;stroke:#000;stroke-width:1.55999994;stroke-linecap:butt;stroke-linejoin:round;stroke-miterlimit:10;stroke-dasharray:none;stroke-opacity:1" id="path26954" d="m 150.34,105.34 c -0.219,-33.68 0.219,-45.57 0,-79.238 h 126.801 v 135.359 l -186.903,-1.32 c -0.218,-22.012 -0.437,-44.02 -0.66,-66.032 l 25.762,1.321 -0.66,46.879 145.949,0.66 c -0.219,-42.039 0.219,-62.289 0,-104.321 h -91.141 c -0.218,22.231 -0.437,44.461 -0.66,66.692 z"/></g><g id="g26956" transform="matrix(1,0,0,-1,0,176.15764)"><path style="fill:none;stroke:#000;stroke-width:1.55999994;stroke-linecap:butt;stroke-linejoin:miter;stroke-miterlimit:8;stroke-dasharray:none;stroke-opacity:1" id="path26958" d="M 0.781,0.781 H 291.66 V 175.379 H 0.781 Z"/></g><g id="g26960" transform="matrix(1,0,0,-1,0,176.15764)"><path style="fill:#45d426;fill-opacity:1;fill-rule:evenodd;stroke:#45d426;stroke-width:.72000003;stroke-linecap:butt;stroke-linejoin:round;stroke-miterlimit:8;stroke-dasharray:none;stroke-opacity:1" id="path26962" d="m 328.438,76.742 c 0,-2.023 1.64,-3.66 3.66,-3.66 2.023,0 3.66,1.637 3.66,3.66 0,2.02 -1.637,3.656 -3.66,3.656 -2.02,0 -3.66,-1.636 -3.66,-3.656 z"/></g><g id="g26964" transform="matrix(1,0,0,-1,0,176.15764)"><path style="fill:#f81705;fill-opacity:1;fill-rule:evenodd;stroke:#f81705;stroke-width:.72000003;stroke-linecap:butt;stroke-linejoin:round;stroke-miterlimit:8;stroke-dasharray:none;stroke-opacity:1" id="path26966" d="m 517.801,74.219 c 0,-2.02 1.637,-3.66 3.66,-3.66 2.019,0 3.66,1.64 3.66,3.66 0,2.023 -1.641,3.66 -3.66,3.66 -2.023,0 -3.66,-1.637 -3.66,-3.66 z"/></g><g id="g26968" transform="matrix(1,0,0,-1,0,176.15764)"><path style="fill:#976300;fill-opacity:1;fill-rule:evenodd;stroke:#000;stroke-width:1.55999994;stroke-linecap:butt;stroke-linejoin:round;stroke-miterlimit:8;stroke-dasharray:none;stroke-opacity:1" id="path26970" d="m 454.898,105.34 c -0.218,-33.68 0.223,-45.57 0,-79.238 h 126.801 v 135.359 l -186.898,-1.32 c -0.223,-22.012 -0.442,-44.02 -0.66,-66.032 l 25.757,1.321 -0.66,46.879 145.95,0.66 c -0.219,-42.039 0.222,-62.289 0,-104.321 h -91.137 c -0.223,22.231 -0.442,44.461 -0.66,66.692 z"/></g><g id="g26972" transform="matrix(1,0,0,-1,0,176.15764)"><path style="fill:none;stroke:#000;stroke-width:1.55999994;stroke-linecap:butt;stroke-linejoin:miter;stroke-miterlimit:8;stroke-dasharray:none;stroke-opacity:1" id="path26974" d="m 305.219,0.781 h 291 v 174.598 h -291 z"/></g><g id="g26976" transform="matrix(1,0,0,-1,0,176.15764)"><path style="fill:none;stroke:#006ebf;stroke-width:2.27999997;stroke-linecap:butt;stroke-linejoin:miter;stroke-miterlimit:8;stroke-dasharray:none;stroke-opacity:1" id="path26978" d="m 335.34,77.809 116.879,-3.297 c 0.219,-20.481 0.441,-30.391 0.66,-50.871 l 131.402,-0.661 0.657,141.36 -192.809,-1.32 V 91.68 L 448.91,83.75 450.238,21 543.34,20.34"/></g><g id="g26980" transform="matrix(1,0,0,-1,0,176.15764)"><path style="fill:none;stroke:#006ebf;stroke-width:2.27999997;stroke-linecap:butt;stroke-linejoin:miter;stroke-miterlimit:8;stroke-dasharray:6.84,2.28;stroke-dashoffset:0;stroke-opacity:1" id="path26982" d="m 543.418,20.34 h 29.723"/></g><g id="g26984" transform="matrix(1,0,0,-1,0,176.15764)"><path style="fill:#45d426;fill-opacity:1;fill-rule:evenodd;stroke:#45d426;stroke-width:.72000003;stroke-linecap:butt;stroke-linejoin:round;stroke-miterlimit:8;stroke-dasharray:none;stroke-opacity:1" id="path26986" d="m 633,76.742 c 0,-2.023 1.641,-3.66 3.66,-3.66 2.02,0 3.66,1.637 3.66,3.66 0,2.02 -1.64,3.656 -3.66,3.656 -2.019,0 -3.66,-1.636 -3.66,-3.656 z"/></g><g id="g26988" transform="matrix(1,0,0,-1,0,176.15764)"><path style="fill:#f81705;fill-opacity:1;fill-rule:evenodd;stroke:#f81705;stroke-width:.72000003;stroke-linecap:butt;stroke-linejoin:round;stroke-miterlimit:8;stroke-dasharray:none;stroke-opacity:1" id="path26990" d="m 822.359,74.219 c 0,-2.02 1.641,-3.66 3.661,-3.66 2.019,0 3.66,1.64 3.66,3.66 0,2.023 -1.641,3.66 -3.66,3.66 -2.02,0 -3.661,-1.637 -3.661,-3.66 z"/></g><g id="g26992" transform="matrix(1,0,0,-1,0,176.15764)"><path style="fill:#976300;fill-opacity:1;fill-rule:evenodd;stroke:#000;stroke-width:1.55999994;stroke-linecap:butt;stroke-linejoin:round;stroke-miterlimit:8;stroke-dasharray:none;stroke-opacity:1" id="path26994" d="m 759.34,105.34 c -0.219,-33.68 0.219,-45.57 0,-79.238 h 126.801 v 135.359 l -186.903,-1.32 c -0.218,-22.012 -0.437,-44.02 -0.66,-66.032 l 25.762,1.321 -0.66,46.879 145.949,0.66 c -0.219,-42.039 0.219,-62.289 0,-104.321 h -91.141 c -0.218,22.231 -0.437,44.461 -0.66,66.692 z"/></g><g id="g26996" transform="matrix(1,0,0,-1,0,176.15764)"><path style="fill:none;stroke:#000;stroke-width:1.55999994;stroke-linecap:butt;stroke-linejoin:miter;stroke-miterlimit:8;stroke-dasharray:none;stroke-opacity:1" id="path26998" d="M 609.781,0.781 H 900.66 V 175.379 H 609.781 Z"/></g><g id="g27000" transform="matrix(1,0,0,-1,0,176.15764)"><path style="fill:none;stroke:#006ebf;stroke-width:2.27999997;stroke-linecap:butt;stroke-linejoin:miter;stroke-miterlimit:8;stroke-dasharray:none;stroke-opacity:1" id="path27002" d="m 639.781,77.809 117.59,-1.317 c 0.219,-20.48 -0.223,-32.371 0,-52.851 L 888.84,22.98 c 0.219,47.122 0.441,94.239 0.66,141.36 L 696.59,163.02 V 91.68 L 726.98,93 725,139.242 867.039,140.559 V 73.18"/></g><g id="g27004" transform="matrix(1,0,0,-1,0,176.15764)"><path style="fill:none;stroke:#006ebf;stroke-width:2.27999997;stroke-linecap:butt;stroke-linejoin:miter;stroke-miterlimit:8;stroke-dasharray:6.84,2.28;stroke-dashoffset:0;stroke-opacity:1" id="path27006" d="M 867.09,73.141 829.738,74.25"/></g></g></g></svg>