<svg xmlns="http://www.w3.org/2000/svg" xmlns:svg="http://www.w3.org/2000/svg" id="svg31483" width="843.681" height="526.991" version="1.1" viewBox="0 0 843.681 526.991" xml:space="preserve"><metadata id="metadata31489"/><g id="g31491" transform="matrix(1.3333333,0,0,-1.3333333,0,526.99085)"><g id="g31493"><path style="fill:#bdbdbd;fill-opacity:1;fill-rule:evenodd;stroke:none" id="path31495" d="m 407.93,97.29 c -0.86,-5.758 -1.469,-17.148 0,-24.258 1.472,-7.101 4.281,-14.332 8.812,-18.371 4.528,-4.051 -5.871,-4.898 18.36,-5.879 24.23,-0.98 127.039,0 127.039,0 24.238,0 12,-1.84 18.359,0 6.359,1.828 15.672,6.488 19.832,11.02 4.16,4.531 4.16,9.801 5.137,16.168 0.98,6.371 0.492,7.84 0.73,22.05 0.25,14.211 0.492,49.493 0.742,63.211 0.239,13.719 2.079,12.989 0.731,19.11 -1.34,6.129 -4.281,13.48 -8.813,17.64 -4.527,4.172 -11.257,6.25 -18.359,7.352 -7.098,1.098 -24.23,-0.73 -24.23,-0.73 H 451.992 c -20.441,0.238 -12.121,2.57 -18.363,1.468 -6.238,-1.109 -14.688,-3.558 -19.09,-8.09 -4.41,-4.531 -6,-9.55 -7.348,-19.109 -1.339,-9.551 -1.589,-28.422 -0.73,-38.219 0.859,-9.8 3.789,-16.293 5.871,-20.582 2.09,-4.289 6.488,-3.058 6.609,-5.14 0.129,-2.09 -4.281,-4.661 -5.871,-7.348 -1.59,-2.703 -4.281,-4.543 -5.14,-10.293 z"/><path style="fill:#fff;fill-opacity:1;fill-rule:evenodd;stroke:none" id="path31497" d="m 485.039,121.54 4.41,10.293 30.153,0.727 v -11.758 z"/><path style="fill:#5999d4;fill-opacity:1;fill-rule:evenodd;stroke:#000;stroke-width:.95999998;stroke-linecap:butt;stroke-linejoin:miter;stroke-miterlimit:10;stroke-dasharray:none;stroke-opacity:1" id="path31499" d="M 105.84,180.56 V 137.2 l 30.859,-0.23 -0.73,20.582 81.57,0.23 V 96.052 H 106.57 V 74.001 h 146.981 c 0.238,35.281 0.488,70.551 0.73,105.832 z"/><path style="fill:#bdbdbd;fill-opacity:1;fill-rule:evenodd;stroke:none" id="path31501" d="m 534.98,368.403 c -19.828,-5.39 -83.628,-25.582 -102.851,-32.312 -19.227,-6.738 -7.59,-3.918 -12.488,-8.078 -4.899,-4.16 -12.86,-10.532 -16.899,-16.891 -4.043,-6.371 -8.203,-14.32 -7.351,-21.301 0.859,-6.98 -0.36,-6.238 12.488,-20.558 12.863,-14.321 50.57,-53.371 64.652,-65.36 14.09,-12 13.719,-6.863 19.84,-6.613 6.121,0.242 -0.609,-7.219 16.899,8.082 17.511,15.301 78.121,72.82 88.16,83.719 10.039,10.89 7.472,14.929 7.351,21.289 -0.129,6.371 -1.468,8.57 -8.082,16.89 -6.617,8.333 -24,26.2 -31.597,33.051 -7.59,6.852 -9.18,6.731 -13.95,8.082 -4.781,1.34 3.668,5.379 -16.172,0 z"/><path style="fill:#bdbdbd;fill-opacity:1;fill-rule:evenodd;stroke:#000;stroke-width:.95999998;stroke-linecap:butt;stroke-linejoin:miter;stroke-miterlimit:10;stroke-dasharray:none;stroke-opacity:1" id="path31503" d="m 0.48,195.501 c 0,14.219 11.524,25.742 25.739,25.742 14.219,0 25.742,-11.523 25.742,-25.742 0,-14.219 -11.523,-25.738 -25.742,-25.738 -14.215,0 -25.739,11.519 -25.739,25.738 z"/><path style="fill:#000;fill-opacity:1;fill-rule:evenodd;stroke:#000;stroke-width:.95999998;stroke-linecap:butt;stroke-linejoin:miter;stroke-miterlimit:10;stroke-dasharray:none;stroke-opacity:1" id="path31505" d="m 23.281,195.501 c 0,1.621 1.317,2.941 2.938,2.941 1.625,0 2.941,-1.32 2.941,-2.941 0,-1.621 -1.316,-2.941 -2.941,-2.941 -1.621,0 -2.938,1.32 -2.938,2.941 z"/><path style="fill:none;stroke:#000;stroke-width:.47999999;stroke-linecap:butt;stroke-linejoin:miter;stroke-miterlimit:10;stroke-dasharray:none;stroke-opacity:1" id="path31507" d="m 28.32,197.583 16.106,16.098"/><path style="fill:#000;fill-opacity:1;fill-rule:nonzero;stroke:none" id="path31509" d="m 12.289,204.06 3.031,0.484 -1.265,-4.266 c 1.031,1.75 1.961,2.973 2.797,3.672 0.476,0.395 0.863,0.594 1.156,0.594 0.195,0 0.347,-0.059 0.453,-0.172 0.113,-0.117 0.172,-0.281 0.172,-0.5 0,-0.387 -0.102,-0.758 -0.297,-1.109 -0.137,-0.262 -0.34,-0.391 -0.609,-0.391 -0.137,0 -0.25,0.039 -0.344,0.125 -0.094,0.094 -0.153,0.227 -0.172,0.406 -0.012,0.114 -0.039,0.192 -0.078,0.235 -0.055,0.039 -0.11,0.062 -0.172,0.062 -0.106,0 -0.199,-0.023 -0.281,-0.062 -0.157,-0.086 -0.391,-0.313 -0.703,-0.688 -0.481,-0.574 -1.008,-1.32 -1.579,-2.234 -0.242,-0.387 -0.449,-0.824 -0.625,-1.313 -0.25,-0.668 -0.39,-1.07 -0.421,-1.203 l -0.282,-1.109 h -1.343 l 1.625,5.453 c 0.187,0.633 0.281,1.086 0.281,1.359 0,0.102 -0.047,0.192 -0.141,0.266 -0.117,0.094 -0.273,0.141 -0.469,0.141 -0.117,0 -0.339,-0.028 -0.671,-0.079 z"/><path style="fill:none;stroke:#000;stroke-width:1;stroke-linecap:butt;stroke-linejoin:miter;stroke-miterlimit:10;stroke-dasharray:none;stroke-opacity:1" id="path31511" d="m 436.992,308.923 108.059,34.289 33.769,-33.77 -87.281,-87.281 -70.648,70.66 z"/><path style="fill:#000;fill-opacity:1;fill-rule:nonzero;stroke:none" id="path31513" d="m 490.102,290.188 -0.891,-3.859 h -0.313 l -0.046,0.969 c -0.032,0.351 -0.102,0.664 -0.204,0.937 -0.105,0.282 -0.261,0.52 -0.468,0.719 -0.211,0.207 -0.477,0.367 -0.797,0.484 -0.324,0.114 -0.684,0.172 -1.078,0.172 -1.055,0 -1.969,-0.293 -2.75,-0.875 -1,-0.73 -1.789,-1.761 -2.36,-3.093 -0.468,-1.106 -0.703,-2.219 -0.703,-3.344 0,-1.156 0.336,-2.078 1.016,-2.766 0.676,-0.687 1.551,-1.031 2.625,-1.031 0.812,0 1.535,0.176 2.172,0.531 0.633,0.363 1.226,0.926 1.781,1.688 h 0.406 c -0.648,-1.032 -1.359,-1.789 -2.14,-2.266 -0.782,-0.476 -1.727,-0.719 -2.829,-0.719 -0.968,0 -1.828,0.203 -2.578,0.61 -0.75,0.406 -1.324,0.976 -1.718,1.718 -0.387,0.739 -0.579,1.532 -0.579,2.375 0,1.301 0.348,2.567 1.047,3.797 0.696,1.227 1.649,2.192 2.86,2.891 1.218,0.707 2.445,1.062 3.687,1.062 0.571,0 1.223,-0.136 1.953,-0.406 0.313,-0.117 0.535,-0.172 0.672,-0.172 0.145,0 0.27,0.024 0.375,0.078 0.102,0.063 0.281,0.227 0.531,0.5 z"/><path style="fill:#000;fill-opacity:1;fill-rule:nonzero;stroke:none" id="path31515" d="m 498.305,290.188 c 0.789,0 1.488,-0.171 2.093,-0.515 0.614,-0.344 1.094,-0.852 1.438,-1.516 0.344,-0.668 0.516,-1.367 0.516,-2.094 0,-1.273 -0.372,-2.609 -1.11,-4.015 -0.742,-1.406 -1.711,-2.481 -2.906,-3.219 -1.199,-0.73 -2.438,-1.094 -3.719,-1.094 -0.918,0 -1.687,0.203 -2.312,0.61 -0.617,0.406 -1.071,0.941 -1.36,1.609 -0.293,0.664 -0.437,1.313 -0.437,1.938 0,1.113 0.265,2.211 0.797,3.296 0.539,1.094 1.179,2.004 1.922,2.735 0.738,0.726 1.531,1.285 2.375,1.672 0.843,0.394 1.742,0.593 2.703,0.593 z m -0.313,-0.562 c -0.586,0 -1.156,-0.148 -1.719,-0.438 -0.554,-0.281 -1.105,-0.757 -1.656,-1.421 -0.554,-0.657 -1.047,-1.516 -1.484,-2.579 -0.543,-1.312 -0.813,-2.554 -0.813,-3.718 0,-0.836 0.211,-1.575 0.641,-2.219 0.426,-0.637 1.082,-0.953 1.969,-0.953 0.531,0 1.05,0.129 1.562,0.39 0.52,0.258 1.055,0.711 1.61,1.36 0.695,0.801 1.281,1.82 1.75,3.062 0.476,1.25 0.718,2.41 0.718,3.485 0,0.8 -0.215,1.504 -0.64,2.109 -0.43,0.613 -1.075,0.922 -1.938,0.922 z"/><path style="fill:#000;fill-opacity:1;fill-rule:nonzero;stroke:none" id="path31517" d="m 503.797,280.735 1.937,0.938 h 0.188 v -6.703 c 0,-0.45 0.016,-0.731 0.047,-0.844 0.039,-0.106 0.117,-0.188 0.234,-0.25 0.125,-0.055 0.363,-0.086 0.719,-0.094 v -0.219 h -2.984 v 0.219 c 0.375,0.008 0.613,0.039 0.718,0.094 0.114,0.062 0.192,0.141 0.235,0.234 0.039,0.094 0.062,0.379 0.062,0.86 v 4.281 c 0,0.582 -0.015,0.953 -0.047,1.109 -0.031,0.125 -0.086,0.219 -0.156,0.282 -0.074,0.062 -0.164,0.093 -0.266,0.093 -0.148,0 -0.343,-0.062 -0.593,-0.187 z"/><path style="fill:#000;fill-opacity:1;fill-rule:evenodd;stroke:#000;stroke-width:.95999998;stroke-linecap:butt;stroke-linejoin:miter;stroke-miterlimit:10;stroke-dasharray:none;stroke-opacity:1" id="path31519" d="m 497.762,198.86 c 0,1.621 1.32,2.942 2.937,2.942 1.621,0 2.942,-1.321 2.942,-2.942 0,-1.617 -1.321,-2.937 -2.942,-2.937 -1.617,0 -2.937,1.32 -2.937,2.937 z"/><path style="fill:none;stroke:#000;stroke-width:.95999998;stroke-linecap:butt;stroke-linejoin:miter;stroke-miterlimit:10;stroke-dasharray:3.84,2.88;stroke-dashoffset:0;stroke-opacity:1" id="path31521" d="m 435,216.142 c 0,14.218 11.52,25.738 25.742,25.738 14.219,0 25.738,-11.52 25.738,-25.738 0,-14.219 -11.519,-25.739 -25.738,-25.739 -14.222,0 -25.742,11.52 -25.742,25.739 z"/><path style="fill:#000;fill-opacity:1;fill-rule:evenodd;stroke:#000;stroke-width:.95999998;stroke-linecap:butt;stroke-linejoin:miter;stroke-miterlimit:10;stroke-dasharray:none;stroke-opacity:1" id="path31523" d="m 457.801,216.142 c 0,1.621 1.32,2.941 2.941,2.941 1.617,0 2.938,-1.32 2.938,-2.941 0,-1.622 -1.321,-2.942 -2.938,-2.942 -1.621,0 -2.941,1.32 -2.941,2.942 z"/><path style="fill:none;stroke:#000;stroke-width:.95999998;stroke-linecap:butt;stroke-linejoin:miter;stroke-miterlimit:10;stroke-dasharray:3.84,2.88;stroke-dashoffset:0;stroke-opacity:1" id="path31525" d="m 444.48,206.302 c 0,14.218 11.5,25.738 25.68,25.738 14.18,0 25.68,-11.52 25.68,-25.738 0,-14.219 -11.5,-25.742 -25.68,-25.742 -14.18,0 -25.68,11.523 -25.68,25.742 z"/><path style="fill:#000;fill-opacity:1;fill-rule:evenodd;stroke:#000;stroke-width:.95999998;stroke-linecap:butt;stroke-linejoin:miter;stroke-miterlimit:10;stroke-dasharray:none;stroke-opacity:1" id="path31527" d="m 467.281,206.302 c 0,1.621 1.321,2.941 2.938,2.941 1.621,0 2.941,-1.32 2.941,-2.941 0,-1.621 -1.32,-2.942 -2.941,-2.942 -1.617,0 -2.938,1.321 -2.938,2.942 z"/><path style="fill:none;stroke:#000;stroke-width:.95999998;stroke-linecap:butt;stroke-linejoin:miter;stroke-miterlimit:10;stroke-dasharray:3.84,2.88;stroke-dashoffset:0;stroke-opacity:1" id="path31529" d="m 459.719,196.462 c 0,14.219 11.5,25.738 25.683,25.738 14.18,0 25.68,-11.519 25.68,-25.738 0,-14.219 -11.5,-25.742 -25.68,-25.742 -14.183,0 -25.683,11.523 -25.683,25.742 z"/><path style="fill:#000;fill-opacity:1;fill-rule:evenodd;stroke:#000;stroke-width:.95999998;stroke-linecap:butt;stroke-linejoin:miter;stroke-miterlimit:10;stroke-dasharray:none;stroke-opacity:1" id="path31531" d="m 482.52,196.462 c 0,1.621 1.32,2.941 2.941,2.941 1.621,0 2.941,-1.32 2.941,-2.941 0,-1.621 -1.32,-2.942 -2.941,-2.942 -1.621,0 -2.941,1.321 -2.941,2.942 z"/><path style="fill:none;stroke:#000;stroke-width:.95999998;stroke-linecap:butt;stroke-linejoin:miter;stroke-miterlimit:10;stroke-dasharray:3.84,2.88;stroke-dashoffset:0;stroke-opacity:1" id="path31533" d="m 474.961,198.86 c 0,14.223 11.5,25.743 25.68,25.743 14.179,0 25.679,-11.52 25.679,-25.743 0,-14.218 -11.5,-25.738 -25.679,-25.738 -14.18,0 -25.68,11.52 -25.68,25.738 z"/><path style="fill:none;stroke:#000;stroke-width:.95999998;stroke-linecap:butt;stroke-linejoin:miter;stroke-miterlimit:10;stroke-dasharray:3.84,2.88;stroke-dashoffset:0;stroke-opacity:1" id="path31535" d="m 492.961,213.142 c 0,14.218 11.5,25.738 25.68,25.738 14.179,0 25.679,-11.52 25.679,-25.738 0,-14.219 -11.5,-25.739 -25.679,-25.739 -14.18,0 -25.68,11.52 -25.68,25.739 z"/><path style="fill:#000;fill-opacity:1;fill-rule:evenodd;stroke:#000;stroke-width:.95999998;stroke-linecap:butt;stroke-linejoin:miter;stroke-miterlimit:10;stroke-dasharray:none;stroke-opacity:1" id="path31537" d="m 515.762,213.142 c 0,1.621 1.32,2.941 2.937,2.941 1.621,0 2.942,-1.32 2.942,-2.941 0,-1.622 -1.321,-2.942 -2.942,-2.942 -1.617,0 -2.937,1.32 -2.937,2.942 z"/><path style="fill:none;stroke:#000;stroke-width:.95999998;stroke-linecap:butt;stroke-linejoin:miter;stroke-miterlimit:10;stroke-dasharray:3.84,2.88;stroke-dashoffset:0;stroke-opacity:1" id="path31539" d="m 551.039,270.442 c 0,14.18 11.5,25.68 25.68,25.68 14.183,0 25.683,-11.5 25.683,-25.68 0,-14.179 -11.5,-25.679 -25.683,-25.679 -14.18,0 -25.68,11.5 -25.68,25.679 z"/><path style="fill:#000;fill-opacity:1;fill-rule:evenodd;stroke:#000;stroke-width:.95999998;stroke-linecap:butt;stroke-linejoin:miter;stroke-miterlimit:10;stroke-dasharray:none;stroke-opacity:1" id="path31541" d="m 573.719,270.38 c 0,1.621 1.32,2.941 2.941,2.941 1.621,0 2.942,-1.32 2.942,-2.941 0,-1.617 -1.321,-2.938 -2.942,-2.938 -1.621,0 -2.941,1.321 -2.941,2.938 z"/><path style="fill:none;stroke:#000;stroke-width:.95999998;stroke-linecap:butt;stroke-linejoin:miter;stroke-miterlimit:10;stroke-dasharray:3.84,2.88;stroke-dashoffset:0;stroke-opacity:1" id="path31543" d="m 564,336.2 c 0,14.18 11.52,25.68 25.742,25.68 14.219,0 25.738,-11.5 25.738,-25.68 0,-14.18 -11.519,-25.68 -25.738,-25.68 -14.222,0 -25.742,11.5 -25.742,25.68 z"/><path style="fill:#000;fill-opacity:1;fill-rule:evenodd;stroke:#000;stroke-width:.95999998;stroke-linecap:butt;stroke-linejoin:miter;stroke-miterlimit:10;stroke-dasharray:none;stroke-opacity:1" id="path31545" d="m 586.801,336.142 c 0,1.621 1.32,2.941 2.941,2.941 1.617,0 2.938,-1.32 2.938,-2.941 0,-1.622 -1.321,-2.942 -2.938,-2.942 -1.621,0 -2.941,1.32 -2.941,2.942 z"/><path style="fill:none;stroke:#000;stroke-width:.95999998;stroke-linecap:butt;stroke-linejoin:miter;stroke-miterlimit:10;stroke-dasharray:3.84,2.88;stroke-dashoffset:0;stroke-opacity:1" id="path31547" d="m 518.641,369.083 c 0,14.18 11.519,25.68 25.738,25.68 14.223,0 25.742,-11.5 25.742,-25.68 0,-14.18 -11.519,-25.68 -25.742,-25.68 -14.219,0 -25.738,11.5 -25.738,25.68 z"/><path style="fill:#000;fill-opacity:1;fill-rule:evenodd;stroke:#000;stroke-width:.95999998;stroke-linecap:butt;stroke-linejoin:miter;stroke-miterlimit:10;stroke-dasharray:none;stroke-opacity:1" id="path31549" d="m 541.441,369.02 c 0,1.622 1.321,2.942 2.938,2.942 1.621,0 2.941,-1.32 2.941,-2.942 0,-1.617 -1.32,-2.937 -2.941,-2.937 -1.617,0 -2.938,1.32 -2.938,2.937 z"/><path style="fill:none;stroke:#000;stroke-width:.95999998;stroke-linecap:butt;stroke-linejoin:miter;stroke-miterlimit:10;stroke-dasharray:3.84,2.88;stroke-dashoffset:0;stroke-opacity:1" id="path31551" d="m 422.402,228.743 c 0,14.219 11.52,25.738 25.739,25.738 14.218,0 25.738,-11.519 25.738,-25.738 0,-14.223 -11.52,-25.742 -25.738,-25.742 -14.219,0 -25.739,11.519 -25.739,25.742 z"/><path style="fill:#000;fill-opacity:1;fill-rule:evenodd;stroke:#000;stroke-width:.95999998;stroke-linecap:butt;stroke-linejoin:miter;stroke-miterlimit:10;stroke-dasharray:none;stroke-opacity:1" id="path31553" d="m 445.199,228.743 c 0,1.617 1.321,2.938 2.942,2.938 1.621,0 2.941,-1.321 2.941,-2.938 0,-1.621 -1.32,-2.941 -2.941,-2.941 -1.621,0 -2.942,1.32 -2.942,2.941 z"/><path style="fill:none;stroke:#000;stroke-width:.95999998;stroke-linecap:butt;stroke-linejoin:miter;stroke-miterlimit:10;stroke-dasharray:3.84,2.88;stroke-dashoffset:0;stroke-opacity:1" id="path31555" d="m 454.922,350.782 c 0,14.219 11.5,25.738 25.68,25.738 14.179,0 25.679,-11.519 25.679,-25.738 0,-14.222 -11.5,-25.742 -25.679,-25.742 -14.18,0 -25.68,11.52 -25.68,25.742 z"/><path style="fill:#000;fill-opacity:1;fill-rule:evenodd;stroke:#000;stroke-width:.95999998;stroke-linecap:butt;stroke-linejoin:miter;stroke-miterlimit:10;stroke-dasharray:none;stroke-opacity:1" id="path31557" d="m 477.719,350.782 c 0,1.621 1.32,2.938 2.941,2.938 1.621,0 2.942,-1.317 2.942,-2.938 0,-1.621 -1.321,-2.941 -2.942,-2.941 -1.621,0 -2.941,1.32 -2.941,2.941 z"/><path style="fill:none;stroke:#000;stroke-width:.95999998;stroke-linecap:butt;stroke-linejoin:miter;stroke-miterlimit:10;stroke-dasharray:3.84,2.88;stroke-dashoffset:0;stroke-opacity:1" id="path31559" d="m 400.32,333.263 c 0,14.218 11.52,25.738 25.743,25.738 14.218,0 25.738,-11.52 25.738,-25.738 0,-14.223 -11.52,-25.743 -25.738,-25.743 -14.223,0 -25.743,11.52 -25.743,25.743 z"/><path style="fill:#000;fill-opacity:1;fill-rule:evenodd;stroke:#000;stroke-width:.95999998;stroke-linecap:butt;stroke-linejoin:miter;stroke-miterlimit:10;stroke-dasharray:none;stroke-opacity:1" id="path31561" d="m 423.121,333.263 c 0,1.617 1.32,2.937 2.942,2.937 1.617,0 2.937,-1.32 2.937,-2.937 0,-1.621 -1.32,-2.942 -2.937,-2.942 -1.622,0 -2.942,1.321 -2.942,2.942 z"/><path style="fill:none;stroke:#000;stroke-width:.95999998;stroke-linecap:butt;stroke-linejoin:miter;stroke-miterlimit:10;stroke-dasharray:3.84,2.88;stroke-dashoffset:0;stroke-opacity:1" id="path31563" d="m 377.641,312.622 c 0,14.219 11.5,25.738 25.679,25.738 14.18,0 25.68,-11.519 25.68,-25.738 0,-14.219 -11.5,-25.742 -25.68,-25.742 -14.179,0 -25.679,11.523 -25.679,25.742 z"/><path style="fill:#000;fill-opacity:1;fill-rule:evenodd;stroke:#000;stroke-width:.95999998;stroke-linecap:butt;stroke-linejoin:miter;stroke-miterlimit:10;stroke-dasharray:none;stroke-opacity:1" id="path31565" d="m 400.32,312.622 c 0,1.621 1.321,2.938 2.942,2.938 1.617,0 2.937,-1.317 2.937,-2.938 0,-1.621 -1.32,-2.941 -2.937,-2.941 -1.621,0 -2.942,1.32 -2.942,2.941 z"/><path style="fill:none;stroke:#000;stroke-width:.95999998;stroke-linecap:butt;stroke-linejoin:miter;stroke-miterlimit:10;stroke-dasharray:3.84,2.88;stroke-dashoffset:0;stroke-opacity:1" id="path31567" d="m 369.48,289.821 c 0,14.219 11.5,25.739 25.68,25.739 14.18,0 25.68,-11.52 25.68,-25.739 0,-14.218 -11.5,-25.738 -25.68,-25.738 -14.18,0 -25.68,11.52 -25.68,25.738 z"/><path style="fill:#000;fill-opacity:1;fill-rule:evenodd;stroke:#000;stroke-width:.95999998;stroke-linecap:butt;stroke-linejoin:miter;stroke-miterlimit:10;stroke-dasharray:none;stroke-opacity:1" id="path31569" d="m 392.281,289.821 c 0,1.621 1.321,2.942 2.938,2.942 1.621,0 2.941,-1.321 2.941,-2.942 0,-1.621 -1.32,-2.941 -2.941,-2.941 -1.617,0 -2.938,1.32 -2.938,2.941 z"/><path style="fill:none;stroke:#000;stroke-width:.95999998;stroke-linecap:butt;stroke-linejoin:miter;stroke-miterlimit:10;stroke-dasharray:3.84,2.88;stroke-dashoffset:0;stroke-opacity:1" id="path31571" d="m 381.359,269.962 c 0,14.18 11.5,25.68 25.68,25.68 14.18,0 25.68,-11.5 25.68,-25.68 0,-14.18 -11.5,-25.68 -25.68,-25.68 -14.18,0 -25.68,11.5 -25.68,25.68 z"/><path style="fill:#000;fill-opacity:1;fill-rule:evenodd;stroke:#000;stroke-width:.95999998;stroke-linecap:butt;stroke-linejoin:miter;stroke-miterlimit:10;stroke-dasharray:none;stroke-opacity:1" id="path31573" d="m 404.039,270.02 c 0,1.622 1.32,2.942 2.941,2.942 1.622,0 2.942,-1.32 2.942,-2.942 0,-1.617 -1.32,-2.937 -2.942,-2.937 -1.621,0 -2.941,1.32 -2.941,2.937 z"/><path style="fill:#f3b082;fill-opacity:1;fill-rule:evenodd;stroke:#000;stroke-width:1;stroke-linecap:butt;stroke-linejoin:miter;stroke-miterlimit:10;stroke-dasharray:none;stroke-opacity:1" id="path31575" d="m 112.949,308.923 108.063,34.289 33.769,-33.77 -87.281,-87.281 -70.648,70.66 z"/><path style="fill:#000;fill-opacity:1;fill-rule:nonzero;stroke:none" id="path31577" d="m 162.234,290.188 c 0.789,0 1.489,-0.171 2.094,-0.515 0.613,-0.344 1.094,-0.852 1.438,-1.516 0.343,-0.668 0.515,-1.367 0.515,-2.094 0,-1.273 -0.371,-2.609 -1.109,-4.015 -0.742,-1.406 -1.711,-2.481 -2.906,-3.219 -1.2,-0.73 -2.438,-1.094 -3.719,-1.094 -0.918,0 -1.688,0.203 -2.313,0.61 -0.617,0.406 -1.07,0.941 -1.359,1.609 -0.293,0.664 -0.437,1.313 -0.437,1.938 0,1.113 0.265,2.211 0.796,3.296 0.539,1.094 1.18,2.004 1.922,2.735 0.739,0.726 1.532,1.285 2.375,1.672 0.844,0.394 1.742,0.593 2.703,0.593 z m -0.312,-0.562 c -0.586,0 -1.156,-0.148 -1.719,-0.438 -0.555,-0.281 -1.105,-0.757 -1.656,-1.421 -0.555,-0.657 -1.047,-1.516 -1.484,-2.579 -0.543,-1.312 -0.813,-2.554 -0.813,-3.718 0,-0.836 0.211,-1.575 0.641,-2.219 0.425,-0.637 1.082,-0.953 1.968,-0.953 0.532,0 1.051,0.129 1.563,0.39 0.519,0.258 1.055,0.711 1.609,1.36 0.696,0.801 1.282,1.82 1.75,3.062 0.477,1.25 0.719,2.41 0.719,3.485 0,0.8 -0.215,1.504 -0.641,2.109 -0.429,0.613 -1.074,0.922 -1.937,0.922 z"/><path style="fill:#000;fill-opacity:1;fill-rule:nonzero;stroke:none" id="path31579" d="m 167.727,280.735 1.937,0.938 h 0.188 v -6.703 c 0,-0.45 0.015,-0.731 0.046,-0.844 0.04,-0.106 0.118,-0.188 0.235,-0.25 0.125,-0.055 0.363,-0.086 0.719,-0.094 v -0.219 h -2.985 v 0.219 c 0.375,0.008 0.613,0.039 0.719,0.094 0.113,0.062 0.191,0.141 0.234,0.234 0.039,0.094 0.063,0.379 0.063,0.86 v 4.281 c 0,0.582 -0.016,0.953 -0.047,1.109 -0.031,0.125 -0.086,0.219 -0.156,0.282 -0.075,0.062 -0.164,0.093 -0.266,0.093 -0.148,0 -0.344,-0.062 -0.594,-0.187 z"/><path style="fill:none;stroke:#c5590f;stroke-width:3;stroke-linecap:butt;stroke-linejoin:miter;stroke-miterlimit:10;stroke-dasharray:none;stroke-opacity:1" id="path31581" d="m 418.41,327.47 c 3.352,3.832 7.781,6.562 12.711,7.851"/><path style="fill:none;stroke:#c5590f;stroke-width:3;stroke-linecap:butt;stroke-linejoin:miter;stroke-miterlimit:10;stroke-dasharray:none;stroke-opacity:1" id="path31583" d="m 536,368.431 c 10.57,4.039 22.539,0.582 29.332,-8.469"/><path style="fill:none;stroke:#c5590f;stroke-width:3;stroke-linecap:butt;stroke-linejoin:miter;stroke-miterlimit:10;stroke-dasharray:none;stroke-opacity:1" id="path31585" d="m 596.91,326.63 c 10.492,-9.289 11.461,-25.328 2.16,-35.82 -0.328,-0.379 -0.679,-0.758 -1.039,-1.118"/><path style="fill:none;stroke:#c5590f;stroke-width:3;stroke-linecap:butt;stroke-linejoin:miter;stroke-miterlimit:10;stroke-dasharray:none;stroke-opacity:1" id="path31587" d="m 509.57,205.161 c -9.3,-10.508 -25.379,-11.5 -35.91,-2.219 -0.191,0.161 -0.379,0.328 -0.558,0.508"/><path style="fill:none;stroke:#c5590f;stroke-width:3;stroke-linecap:butt;stroke-linejoin:miter;stroke-miterlimit:10;stroke-dasharray:none;stroke-opacity:1" id="path31589" d="m 401.719,275.403 c -9.578,10.227 -9.059,26.289 1.16,35.879 0.121,0.11 0.25,0.219 0.371,0.328"/><path style="fill:none;stroke:#000;stroke-width:3;stroke-linecap:butt;stroke-linejoin:miter;stroke-miterlimit:10;stroke-dasharray:none;stroke-opacity:1" id="path31591" d="m 431.102,335.333 104.89,33.09"/><path style="fill:none;stroke:#000;stroke-width:3;stroke-linecap:butt;stroke-linejoin:miter;stroke-miterlimit:10;stroke-dasharray:none;stroke-opacity:1" id="path31593" d="M 565.379,360.02 596.91,326.673"/><path style="fill:none;stroke:#000;stroke-width:3;stroke-linecap:butt;stroke-linejoin:miter;stroke-miterlimit:10;stroke-dasharray:none;stroke-opacity:1" id="path31595" d="m 403.141,311.673 15.218,15.828"/><path style="fill:none;stroke:#000;stroke-width:3;stroke-linecap:butt;stroke-linejoin:miter;stroke-miterlimit:10;stroke-dasharray:none;stroke-opacity:1" id="path31597" d="m 401.699,275.423 71.453,-72"/><path style="fill:none;stroke:#000;stroke-width:3;stroke-linecap:butt;stroke-linejoin:miter;stroke-miterlimit:10;stroke-dasharray:none;stroke-opacity:1" id="path31599" d="m 509.582,205.2 88.438,84.5"/><path style="fill:#000;fill-opacity:1;fill-rule:nonzero;stroke:none" id="path31601" d="m 236.656,148.97 c 0.789,0 1.489,-0.172 2.094,-0.516 0.613,-0.344 1.094,-0.851 1.438,-1.516 0.343,-0.668 0.515,-1.367 0.515,-2.093 0,-1.274 -0.371,-2.61 -1.109,-4.016 -0.742,-1.406 -1.711,-2.48 -2.906,-3.219 -1.2,-0.73 -2.438,-1.093 -3.719,-1.093 -0.918,0 -1.688,0.203 -2.313,0.609 -0.617,0.406 -1.07,0.941 -1.359,1.609 -0.293,0.664 -0.438,1.313 -0.438,1.938 0,1.113 0.266,2.211 0.797,3.297 0.539,1.093 1.18,2.004 1.922,2.734 0.738,0.727 1.531,1.285 2.375,1.672 0.844,0.394 1.742,0.594 2.703,0.594 z m -0.312,-0.563 c -0.586,0 -1.156,-0.148 -1.719,-0.437 -0.555,-0.282 -1.105,-0.758 -1.656,-1.422 -0.555,-0.656 -1.047,-1.516 -1.485,-2.578 -0.543,-1.313 -0.812,-2.555 -0.812,-3.719 0,-0.836 0.211,-1.574 0.641,-2.219 0.425,-0.637 1.082,-0.953 1.968,-0.953 0.532,0 1.051,0.129 1.563,0.391 0.519,0.258 1.054,0.711 1.609,1.359 0.695,0.801 1.281,1.82 1.75,3.063 0.477,1.25 0.719,2.41 0.719,3.484 0,0.801 -0.215,1.504 -0.641,2.109 -0.429,0.614 -1.074,0.922 -1.937,0.922 z"/><path style="fill:#000;fill-opacity:1;fill-rule:nonzero;stroke:none" id="path31603" d="m 246.238,133.872 -0.547,-1.531 h -4.687 v 0.219 c 1.375,1.257 2.344,2.285 2.906,3.078 0.563,0.8 0.844,1.531 0.844,2.187 0,0.5 -0.156,0.91 -0.469,1.235 -0.305,0.332 -0.672,0.5 -1.109,0.5 -0.387,0 -0.735,-0.118 -1.047,-0.344 -0.313,-0.231 -0.543,-0.571 -0.688,-1.016 h -0.218 c 0.101,0.727 0.351,1.285 0.75,1.672 0.406,0.383 0.91,0.578 1.515,0.578 0.645,0 1.18,-0.211 1.61,-0.625 0.437,-0.406 0.656,-0.89 0.656,-1.453 0,-0.406 -0.094,-0.812 -0.281,-1.219 -0.293,-0.625 -0.762,-1.293 -1.407,-2 -0.968,-1.062 -1.578,-1.703 -1.828,-1.922 h 2.078 c 0.426,0 0.723,0.016 0.891,0.047 0.164,0.032 0.316,0.094 0.453,0.188 0.145,0.094 0.266,0.226 0.36,0.406 z"/><path style="fill:none;stroke:#000;stroke-width:.95999998;stroke-linecap:butt;stroke-linejoin:miter;stroke-miterlimit:10;stroke-dasharray:none;stroke-opacity:1" id="path31605" d="M 432.719,180.56 V 137.2 l 30.863,-0.23 -0.73,20.582 81.57,0.23 V 96.052 H 433.449 V 74.001 H 580.43 c 0.242,35.281 0.492,70.551 0.73,105.832 z"/><path style="fill:#000;fill-opacity:1;fill-rule:nonzero;stroke:none" id="path31607" d="m 515.523,152.931 -0.89,-3.86 h -0.313 l -0.047,0.969 c -0.031,0.352 -0.101,0.664 -0.203,0.938 -0.105,0.281 -0.261,0.519 -0.468,0.718 -0.211,0.207 -0.477,0.367 -0.797,0.485 -0.325,0.113 -0.684,0.172 -1.078,0.172 -1.055,0 -1.969,-0.293 -2.75,-0.875 -1,-0.731 -1.789,-1.762 -2.36,-3.094 -0.469,-1.106 -0.703,-2.219 -0.703,-3.344 0,-1.156 0.336,-2.078 1.016,-2.766 0.675,-0.687 1.55,-1.031 2.625,-1.031 0.812,0 1.535,0.176 2.172,0.531 0.632,0.364 1.226,0.926 1.781,1.688 h 0.406 c -0.648,-1.031 -1.359,-1.789 -2.141,-2.266 -0.781,-0.476 -1.726,-0.718 -2.828,-0.718 -0.968,0 -1.828,0.203 -2.578,0.609 -0.75,0.406 -1.324,0.976 -1.719,1.719 -0.386,0.738 -0.578,1.531 -0.578,2.375 0,1.3 0.348,2.566 1.047,3.797 0.696,1.226 1.649,2.191 2.86,2.89 1.218,0.707 2.445,1.063 3.687,1.063 0.57,0 1.223,-0.137 1.953,-0.407 0.313,-0.117 0.535,-0.171 0.672,-0.171 0.145,0 0.27,0.023 0.375,0.078 0.102,0.062 0.281,0.226 0.531,0.5 z"/><path style="fill:#000;fill-opacity:1;fill-rule:nonzero;stroke:none" id="path31609" d="m 523.727,152.931 c 0.789,0 1.488,-0.172 2.093,-0.516 0.614,-0.344 1.094,-0.852 1.438,-1.516 0.344,-0.668 0.515,-1.367 0.515,-2.093 0,-1.274 -0.371,-2.61 -1.109,-4.016 -0.742,-1.406 -1.711,-2.48 -2.906,-3.219 -1.199,-0.73 -2.438,-1.093 -3.719,-1.093 -0.918,0 -1.687,0.203 -2.312,0.609 -0.618,0.406 -1.071,0.941 -1.36,1.609 -0.293,0.664 -0.437,1.313 -0.437,1.938 0,1.113 0.265,2.211 0.797,3.297 0.539,1.093 1.179,2.004 1.921,2.734 0.739,0.727 1.532,1.285 2.375,1.672 0.844,0.394 1.743,0.594 2.704,0.594 z m -0.313,-0.563 c -0.586,0 -1.156,-0.148 -1.719,-0.437 -0.554,-0.282 -1.105,-0.758 -1.656,-1.422 -0.555,-0.656 -1.047,-1.516 -1.484,-2.578 -0.543,-1.313 -0.813,-2.555 -0.813,-3.719 0,-0.836 0.211,-1.574 0.641,-2.219 0.426,-0.637 1.082,-0.953 1.969,-0.953 0.531,0 1.05,0.129 1.562,0.391 0.52,0.257 1.055,0.711 1.609,1.359 0.696,0.801 1.282,1.82 1.75,3.063 0.477,1.25 0.719,2.41 0.719,3.484 0,0.801 -0.215,1.504 -0.64,2.109 -0.43,0.614 -1.075,0.922 -1.938,0.922 z"/><path style="fill:#000;fill-opacity:1;fill-rule:nonzero;stroke:none" id="path31611" d="m 533.309,137.833 -0.547,-1.531 h -4.688 v 0.218 c 1.375,1.258 2.344,2.286 2.906,3.079 0.563,0.8 0.844,1.531 0.844,2.187 0,0.5 -0.156,0.91 -0.469,1.234 -0.304,0.333 -0.671,0.5 -1.109,0.5 -0.387,0 -0.734,-0.117 -1.047,-0.343 -0.312,-0.231 -0.543,-0.571 -0.687,-1.016 h -0.219 c 0.102,0.727 0.352,1.285 0.75,1.672 0.406,0.383 0.91,0.578 1.516,0.578 0.644,0 1.179,-0.211 1.609,-0.625 0.437,-0.406 0.656,-0.891 0.656,-1.453 0,-0.406 -0.094,-0.813 -0.281,-1.219 -0.293,-0.625 -0.762,-1.293 -1.406,-2 -0.969,-1.062 -1.578,-1.703 -1.828,-1.922 h 2.078 c 0.426,0 0.722,0.016 0.89,0.047 0.164,0.031 0.317,0.094 0.453,0.188 0.145,0.093 0.266,0.226 0.36,0.406 z"/><path style="fill:none;stroke:#4270c2;stroke-width:.95999998;stroke-linecap:butt;stroke-linejoin:miter;stroke-miterlimit:10;stroke-dasharray:3.84,2.88;stroke-dashoffset:0;stroke-opacity:1" id="path31613" d="m 567,202.821 c 0,14.219 11.52,25.739 25.742,25.739 14.219,0 25.738,-11.52 25.738,-25.739 0,-14.218 -11.519,-25.738 -25.738,-25.738 -14.222,0 -25.742,11.52 -25.742,25.738 z"/><path style="fill:#000;fill-opacity:1;fill-rule:evenodd;stroke:#000;stroke-width:.95999998;stroke-linecap:butt;stroke-linejoin:miter;stroke-miterlimit:10;stroke-dasharray:none;stroke-opacity:1" id="path31615" d="m 589.801,202.821 c 0,1.621 1.32,2.942 2.941,2.942 1.617,0 2.938,-1.321 2.938,-2.942 0,-1.621 -1.321,-2.941 -2.938,-2.941 -1.621,0 -2.941,1.32 -2.941,2.941 z"/><path style="fill:none;stroke:#4270c2;stroke-width:.95999998;stroke-linecap:butt;stroke-linejoin:miter;stroke-miterlimit:10;stroke-dasharray:3.84,2.88;stroke-dashoffset:0;stroke-opacity:1" id="path31617" d="m 579.48,189.083 c 0,14.18 11.5,25.68 25.68,25.68 14.18,0 25.68,-11.5 25.68,-25.68 0,-14.18 -11.5,-25.68 -25.68,-25.68 -14.18,0 -25.68,11.5 -25.68,25.68 z"/><path style="fill:#000;fill-opacity:1;fill-rule:evenodd;stroke:#000;stroke-width:.95999998;stroke-linecap:butt;stroke-linejoin:miter;stroke-miterlimit:10;stroke-dasharray:none;stroke-opacity:1" id="path31619" d="m 602.281,189.142 c 0,1.621 1.321,2.941 2.938,2.941 1.621,0 2.941,-1.32 2.941,-2.941 0,-1.622 -1.32,-2.942 -2.941,-2.942 -1.617,0 -2.938,1.32 -2.938,2.942 z"/><path style="fill:none;stroke:#4270c2;stroke-width:.95999998;stroke-linecap:butt;stroke-linejoin:miter;stroke-miterlimit:10;stroke-dasharray:3.84,2.88;stroke-dashoffset:0;stroke-opacity:1" id="path31621" d="m 580.801,136.341 c 0,14.219 11.519,25.742 25.738,25.742 14.223,0 25.742,-11.523 25.742,-25.742 0,-14.219 -11.519,-25.738 -25.742,-25.738 -14.219,0 -25.738,11.519 -25.738,25.738 z"/><path style="fill:#000;fill-opacity:1;fill-rule:evenodd;stroke:#000;stroke-width:.95999998;stroke-linecap:butt;stroke-linejoin:miter;stroke-miterlimit:10;stroke-dasharray:none;stroke-opacity:1" id="path31623" d="m 603.602,136.341 c 0,1.621 1.32,2.941 2.937,2.941 1.621,0 2.941,-1.32 2.941,-2.941 0,-1.621 -1.32,-2.938 -2.941,-2.938 -1.617,0 -2.937,1.317 -2.937,2.938 z"/><path style="fill:none;stroke:#4270c2;stroke-width:.95999998;stroke-linecap:butt;stroke-linejoin:miter;stroke-miterlimit:10;stroke-dasharray:3.84,2.88;stroke-dashoffset:0;stroke-opacity:1" id="path31625" d="m 580.32,76.942 c 0,14.219 11.5,25.739 25.68,25.739 14.18,0 25.68,-11.52 25.68,-25.739 C 631.68,62.72 620.18,51.2 606,51.2 c -14.18,0 -25.68,11.52 -25.68,25.742 z"/><path style="fill:#000;fill-opacity:1;fill-rule:evenodd;stroke:#000;stroke-width:.95999998;stroke-linecap:butt;stroke-linejoin:miter;stroke-miterlimit:10;stroke-dasharray:none;stroke-opacity:1" id="path31627" d="m 603.121,76.942 c 0,1.618 1.32,2.938 2.942,2.938 1.617,0 2.937,-1.32 2.937,-2.938 0,-1.621 -1.32,-2.941 -2.937,-2.941 -1.622,0 -2.942,1.32 -2.942,2.941 z"/><path style="fill:none;stroke:#4270c2;stroke-width:.95999998;stroke-linecap:butt;stroke-linejoin:miter;stroke-miterlimit:10;stroke-dasharray:3.84,2.88;stroke-dashoffset:0;stroke-opacity:1" id="path31629" d="m 575.16,58.583 c 0,14.219 11.52,25.738 25.742,25.738 14.219,0 25.739,-11.519 25.739,-25.738 0,-14.223 -11.52,-25.742 -25.739,-25.742 -14.222,0 -25.742,11.519 -25.742,25.742 z"/><path style="fill:#000;fill-opacity:1;fill-rule:evenodd;stroke:#000;stroke-width:.95999998;stroke-linecap:butt;stroke-linejoin:miter;stroke-miterlimit:10;stroke-dasharray:none;stroke-opacity:1" id="path31631" d="m 597.961,58.583 c 0,1.617 1.32,2.937 2.941,2.937 1.618,0 2.938,-1.32 2.938,-2.937 0,-1.621 -1.32,-2.941 -2.938,-2.941 -1.621,0 -2.941,1.32 -2.941,2.941 z"/><path style="fill:none;stroke:#4270c2;stroke-width:.95999998;stroke-linecap:butt;stroke-linejoin:miter;stroke-miterlimit:10;stroke-dasharray:3.84,2.88;stroke-dashoffset:0;stroke-opacity:1" id="path31633" d="m 534.84,48.321 c 0,14.18 11.519,25.68 25.742,25.68 14.219,0 25.738,-11.5 25.738,-25.68 0,-14.179 -11.519,-25.679 -25.738,-25.679 -14.223,0 -25.742,11.5 -25.742,25.679 z"/><path style="fill:#000;fill-opacity:1;fill-rule:evenodd;stroke:#000;stroke-width:.95999998;stroke-linecap:butt;stroke-linejoin:miter;stroke-miterlimit:10;stroke-dasharray:none;stroke-opacity:1" id="path31635" d="m 557.641,48.321 c 0,1.59 1.32,2.879 2.941,2.879 1.617,0 2.938,-1.289 2.938,-2.879 0,-1.59 -1.321,-2.879 -2.938,-2.879 -1.621,0 -2.941,1.289 -2.941,2.879 z"/><path style="fill:none;stroke:#4270c2;stroke-width:.95999998;stroke-linecap:butt;stroke-linejoin:miter;stroke-miterlimit:10;stroke-dasharray:3.84,2.88;stroke-dashoffset:0;stroke-opacity:1" id="path31637" d="m 446.762,48.321 c 0,14.18 11.5,25.68 25.679,25.68 14.18,0 25.68,-11.5 25.68,-25.68 0,-14.179 -11.5,-25.679 -25.68,-25.679 -14.179,0 -25.679,11.5 -25.679,25.679 z"/><path style="fill:#000;fill-opacity:1;fill-rule:evenodd;stroke:#000;stroke-width:.95999998;stroke-linecap:butt;stroke-linejoin:miter;stroke-miterlimit:10;stroke-dasharray:none;stroke-opacity:1" id="path31639" d="m 469.563,48.321 c 0,1.59 1.316,2.879 2.937,2.879 1.621,0 2.941,-1.289 2.941,-2.879 0,-1.59 -1.32,-2.879 -2.941,-2.879 -1.621,0 -2.937,1.289 -2.937,2.879 z"/><path style="fill:none;stroke:#4270c2;stroke-width:.95999998;stroke-linecap:butt;stroke-linejoin:miter;stroke-miterlimit:10;stroke-dasharray:3.84,2.88;stroke-dashoffset:0;stroke-opacity:1" id="path31641" d="m 390,55.7 c 0,14.223 11.52,25.742 25.742,25.742 14.219,0 25.738,-11.519 25.738,-25.742 0,-14.219 -11.519,-25.738 -25.738,-25.738 C 401.52,29.962 390,41.481 390,55.7 Z"/><path style="fill:#000;fill-opacity:1;fill-rule:evenodd;stroke:#000;stroke-width:.95999998;stroke-linecap:butt;stroke-linejoin:miter;stroke-miterlimit:10;stroke-dasharray:none;stroke-opacity:1" id="path31643" d="m 412.801,55.7 c 0,1.621 1.32,2.942 2.941,2.942 1.617,0 2.938,-1.321 2.938,-2.942 0,-1.617 -1.321,-2.937 -2.938,-2.937 -1.621,0 -2.941,1.32 -2.941,2.937 z"/><path style="fill:none;stroke:#4270c2;stroke-width:.95999998;stroke-linecap:butt;stroke-linejoin:miter;stroke-miterlimit:10;stroke-dasharray:3.84,2.88;stroke-dashoffset:0;stroke-opacity:1" id="path31645" d="m 381.961,87.263 c 0,14.218 11.519,25.738 25.738,25.738 14.223,0 25.742,-11.52 25.742,-25.738 0,-14.223 -11.519,-25.743 -25.742,-25.743 -14.219,0 -25.738,11.52 -25.738,25.743 z"/><path style="fill:#000;fill-opacity:1;fill-rule:evenodd;stroke:#4270c2;stroke-width:.95999998;stroke-linecap:butt;stroke-linejoin:miter;stroke-miterlimit:10;stroke-dasharray:none;stroke-opacity:1" id="path31647" d="m 404.762,87.263 c 0,1.617 1.32,2.937 2.937,2.937 1.621,0 2.942,-1.32 2.942,-2.937 0,-1.621 -1.321,-2.942 -2.942,-2.942 -1.617,0 -2.937,1.321 -2.937,2.942 z"/><path style="fill:none;stroke:#4270c2;stroke-width:.95999998;stroke-linecap:butt;stroke-linejoin:miter;stroke-miterlimit:10;stroke-dasharray:3.84,2.88;stroke-dashoffset:0;stroke-opacity:1" id="path31649" d="m 390,114.442 c 0,14.18 11.52,25.68 25.742,25.68 14.219,0 25.738,-11.5 25.738,-25.68 0,-14.179 -11.519,-25.679 -25.738,-25.679 -14.222,0 -25.742,11.5 -25.742,25.679 z"/><path style="fill:#000;fill-opacity:1;fill-rule:evenodd;stroke:#000;stroke-width:.95999998;stroke-linecap:butt;stroke-linejoin:miter;stroke-miterlimit:10;stroke-dasharray:none;stroke-opacity:1" id="path31651" d="m 412.801,114.501 c 0,1.621 1.32,2.941 2.941,2.941 1.617,0 2.938,-1.32 2.938,-2.941 0,-1.621 -1.321,-2.941 -2.938,-2.941 -1.621,0 -2.941,1.32 -2.941,2.941 z"/><path style="fill:none;stroke:#4270c2;stroke-width:.95999998;stroke-linecap:butt;stroke-linejoin:miter;stroke-miterlimit:10;stroke-dasharray:3.84,2.88;stroke-dashoffset:0;stroke-opacity:1" id="path31653" d="m 423.121,121.821 c 0,14.219 11.52,25.739 25.738,25.739 14.223,0 25.743,-11.52 25.743,-25.739 0,-14.218 -11.52,-25.738 -25.743,-25.738 -14.218,0 -25.738,11.52 -25.738,25.738 z"/><path style="fill:#000;fill-opacity:1;fill-rule:evenodd;stroke:#000;stroke-width:.95999998;stroke-linecap:butt;stroke-linejoin:miter;stroke-miterlimit:10;stroke-dasharray:none;stroke-opacity:1" id="path31655" d="m 445.922,121.821 c 0,1.621 1.32,2.942 2.937,2.942 1.621,0 2.942,-1.321 2.942,-2.942 0,-1.621 -1.321,-2.941 -2.942,-2.941 -1.617,0 -2.937,1.32 -2.937,2.941 z"/><path style="fill:none;stroke:#4270c2;stroke-width:.95999998;stroke-linecap:butt;stroke-linejoin:miter;stroke-miterlimit:10;stroke-dasharray:3.84,2.88;stroke-dashoffset:0;stroke-opacity:1" id="path31657" d="m 467.762,121.821 c 0,14.219 11.5,25.739 25.679,25.739 14.18,0 25.68,-11.52 25.68,-25.739 0,-14.218 -11.5,-25.738 -25.68,-25.738 -14.179,0 -25.679,11.52 -25.679,25.738 z"/><path style="fill:#000;fill-opacity:1;fill-rule:evenodd;stroke:#000;stroke-width:.95999998;stroke-linecap:butt;stroke-linejoin:miter;stroke-miterlimit:10;stroke-dasharray:none;stroke-opacity:1" id="path31659" d="m 490.563,121.821 c 0,1.621 1.316,2.942 2.937,2.942 1.621,0 2.941,-1.321 2.941,-2.942 0,-1.621 -1.32,-2.941 -2.941,-2.941 -1.621,0 -2.937,1.32 -2.937,2.941 z"/><path style="fill:none;stroke:#4270c2;stroke-width:.95999998;stroke-linecap:butt;stroke-linejoin:miter;stroke-miterlimit:10;stroke-dasharray:3.84,2.88;stroke-dashoffset:0;stroke-opacity:1" id="path31661" d="m 493.199,131.903 c 0,14.219 11.5,25.739 25.68,25.739 14.184,0 25.684,-11.52 25.684,-25.739 0,-14.222 -11.5,-25.742 -25.684,-25.742 -14.18,0 -25.68,11.52 -25.68,25.742 z"/><path style="fill:#000;fill-opacity:1;fill-rule:evenodd;stroke:#000;stroke-width:.95999998;stroke-linecap:butt;stroke-linejoin:miter;stroke-miterlimit:10;stroke-dasharray:none;stroke-opacity:1" id="path31663" d="m 516,131.903 c 0,1.617 1.32,2.938 2.941,2.938 1.622,0 2.938,-1.321 2.938,-2.938 0,-1.621 -1.316,-2.941 -2.938,-2.941 -1.621,0 -2.941,1.32 -2.941,2.941 z"/><path style="fill:none;stroke:#4270c2;stroke-width:.95999998;stroke-linecap:butt;stroke-linejoin:miter;stroke-miterlimit:10;stroke-dasharray:3.84,2.88;stroke-dashoffset:0;stroke-opacity:1" id="path31665" d="m 493.32,121.88 c 0,14.18 11.52,25.68 25.743,25.68 14.218,0 25.738,-11.5 25.738,-25.68 0,-14.18 -11.52,-25.68 -25.738,-25.68 -14.223,0 -25.743,11.5 -25.743,25.68 z"/><path style="fill:#000;fill-opacity:1;fill-rule:evenodd;stroke:#000;stroke-width:.95999998;stroke-linecap:butt;stroke-linejoin:miter;stroke-miterlimit:10;stroke-dasharray:none;stroke-opacity:1" id="path31667" d="m 516.121,121.821 c 0,1.621 1.32,2.942 2.942,2.942 1.617,0 2.937,-1.321 2.937,-2.942 0,-1.621 -1.32,-2.941 -2.937,-2.941 -1.622,0 -2.942,1.32 -2.942,2.941 z"/><path style="fill:none;stroke:#4270c2;stroke-width:.95999998;stroke-linecap:butt;stroke-linejoin:miter;stroke-miterlimit:10;stroke-dasharray:3.84,2.88;stroke-dashoffset:0;stroke-opacity:1" id="path31669" d="m 463.082,131.903 c 0,14.219 11.5,25.739 25.68,25.739 14.179,0 25.679,-11.52 25.679,-25.739 0,-14.222 -11.5,-25.742 -25.679,-25.742 -14.18,0 -25.68,11.52 -25.68,25.742 z"/><path style="fill:#000;fill-opacity:1;fill-rule:evenodd;stroke:#000;stroke-width:.95999998;stroke-linecap:butt;stroke-linejoin:miter;stroke-miterlimit:10;stroke-dasharray:none;stroke-opacity:1" id="path31671" d="m 485.762,131.903 c 0,1.617 1.32,2.938 2.937,2.938 1.621,0 2.942,-1.321 2.942,-2.938 0,-1.621 -1.321,-2.941 -2.942,-2.941 -1.617,0 -2.937,1.32 -2.937,2.941 z"/><path style="fill:none;stroke:#4270c2;stroke-width:.95999998;stroke-linecap:butt;stroke-linejoin:miter;stroke-miterlimit:10;stroke-dasharray:3.84,2.88;stroke-dashoffset:0;stroke-opacity:1" id="path31673" d="m 451.922,115.942 c 0,14.219 11.519,25.739 25.738,25.739 14.219,0 25.742,-11.52 25.742,-25.739 0,-14.222 -11.523,-25.742 -25.742,-25.742 -14.219,0 -25.738,11.52 -25.738,25.742 z"/><path style="fill:#000;fill-opacity:1;fill-rule:evenodd;stroke:#000;stroke-width:.95999998;stroke-linecap:butt;stroke-linejoin:miter;stroke-miterlimit:10;stroke-dasharray:none;stroke-opacity:1" id="path31675" d="m 474.719,115.942 c 0,1.618 1.32,2.938 2.941,2.938 1.621,0 2.942,-1.32 2.942,-2.938 0,-1.621 -1.321,-2.941 -2.942,-2.941 -1.621,0 -2.941,1.32 -2.941,2.941 z"/><path style="fill:none;stroke:#4270c2;stroke-width:.95999998;stroke-linecap:butt;stroke-linejoin:miter;stroke-miterlimit:10;stroke-dasharray:3.84,2.88;stroke-dashoffset:0;stroke-opacity:1" id="path31677" d="m 416.16,111.501 c 0,14.219 11.5,25.742 25.68,25.742 14.18,0 25.68,-11.523 25.68,-25.742 0,-14.219 -11.5,-25.738 -25.68,-25.738 -14.18,0 -25.68,11.519 -25.68,25.738 z"/><path style="fill:#000;fill-opacity:1;fill-rule:evenodd;stroke:#000;stroke-width:.95999998;stroke-linecap:butt;stroke-linejoin:miter;stroke-miterlimit:10;stroke-dasharray:none;stroke-opacity:1" id="path31679" d="m 438.84,111.501 c 0,1.621 1.32,2.941 2.941,2.941 1.621,0 2.938,-1.32 2.938,-2.941 0,-1.621 -1.317,-2.941 -2.938,-2.941 -1.621,0 -2.941,1.32 -2.941,2.941 z"/><path style="fill:none;stroke:#4270c2;stroke-width:.95999998;stroke-linecap:butt;stroke-linejoin:miter;stroke-miterlimit:10;stroke-dasharray:3.84,2.88;stroke-dashoffset:0;stroke-opacity:1" id="path31681" d="m 533.16,205.282 c 0,14.18 11.52,25.68 25.742,25.68 14.219,0 25.739,-11.5 25.739,-25.68 0,-14.179 -11.52,-25.679 -25.739,-25.679 -14.222,0 -25.742,11.5 -25.742,25.679 z"/><path style="fill:#000;fill-opacity:1;fill-rule:evenodd;stroke:#000;stroke-width:.95999998;stroke-linecap:butt;stroke-linejoin:miter;stroke-miterlimit:10;stroke-dasharray:none;stroke-opacity:1" id="path31683" d="m 555.961,205.341 c 0,1.621 1.32,2.941 2.941,2.941 1.618,0 2.938,-1.32 2.938,-2.941 0,-1.621 -1.32,-2.938 -2.938,-2.938 -1.621,0 -2.941,1.317 -2.941,2.938 z"/><path style="fill:none;stroke:#4270c2;stroke-width:.95999998;stroke-linecap:butt;stroke-linejoin:miter;stroke-miterlimit:10;stroke-dasharray:3.84,2.88;stroke-dashoffset:0;stroke-opacity:1" id="path31685" d="m 381.242,159.263 c 0,14.218 11.52,25.738 25.738,25.738 14.219,0 25.739,-11.52 25.739,-25.738 0,-14.223 -11.52,-25.743 -25.739,-25.743 -14.218,0 -25.738,11.52 -25.738,25.743 z"/><path style="fill:#000;fill-opacity:1;fill-rule:evenodd;stroke:#000;stroke-width:.95999998;stroke-linecap:butt;stroke-linejoin:miter;stroke-miterlimit:10;stroke-dasharray:none;stroke-opacity:1" id="path31687" d="m 404.039,159.263 c 0,1.617 1.32,2.937 2.941,2.937 1.622,0 2.942,-1.32 2.942,-2.937 0,-1.621 -1.32,-2.942 -2.942,-2.942 -1.621,0 -2.941,1.321 -2.941,2.942 z"/><path style="fill:none;stroke:#4270c2;stroke-width:.95999998;stroke-linecap:butt;stroke-linejoin:miter;stroke-miterlimit:10;stroke-dasharray:3.84,2.88;stroke-dashoffset:0;stroke-opacity:1" id="path31689" d="m 388.563,198.263 c 0,14.218 11.5,25.738 25.679,25.738 14.18,0 25.68,-11.52 25.68,-25.738 0,-14.223 -11.5,-25.743 -25.68,-25.743 -14.179,0 -25.679,11.52 -25.679,25.743 z"/><path style="fill:#000;fill-opacity:1;fill-rule:evenodd;stroke:#000;stroke-width:.95999998;stroke-linecap:butt;stroke-linejoin:miter;stroke-miterlimit:10;stroke-dasharray:none;stroke-opacity:1" id="path31691" d="m 411.359,198.263 c 0,1.617 1.321,2.937 2.942,2.937 1.621,0 2.941,-1.32 2.941,-2.937 0,-1.621 -1.32,-2.942 -2.941,-2.942 -1.621,0 -2.942,1.321 -2.942,2.942 z"/><path style="fill:none;stroke:#4270c2;stroke-width:.95999998;stroke-linecap:butt;stroke-linejoin:miter;stroke-miterlimit:10;stroke-dasharray:3.84,2.88;stroke-dashoffset:0;stroke-opacity:1" id="path31693" d="m 429,206.36 c 0,14.18 11.5,25.68 25.68,25.68 14.179,0 25.679,-11.5 25.679,-25.68 0,-14.179 -11.5,-25.679 -25.679,-25.679 -14.18,0 -25.68,11.5 -25.68,25.679 z"/><path style="fill:#000;fill-opacity:1;fill-rule:evenodd;stroke:#000;stroke-width:.95999998;stroke-linecap:butt;stroke-linejoin:miter;stroke-miterlimit:10;stroke-dasharray:none;stroke-opacity:1" id="path31695" d="m 451.801,206.302 c 0,1.621 1.32,2.941 2.941,2.941 1.617,0 2.938,-1.32 2.938,-2.941 0,-1.621 -1.321,-2.942 -2.938,-2.942 -1.621,0 -2.941,1.321 -2.941,2.942 z"/><path style="fill:none;stroke:#006ebf;stroke-width:3;stroke-linecap:butt;stroke-linejoin:miter;stroke-miterlimit:10;stroke-dasharray:none;stroke-opacity:1" id="path31697" d="m 579.602,204.251 c 13.968,1.422 26.461,-8.731 27.89,-22.668 0.117,-1.16 0.16,-2.32 0.11,-3.48"/><path style="fill:none;stroke:#006ebf;stroke-width:3;stroke-linecap:butt;stroke-linejoin:miter;stroke-miterlimit:10;stroke-dasharray:none;stroke-opacity:1" id="path31699" d="M 606.18,74.032 C 606.129,60.013 594.73,48.692 580.711,48.743 h -0.25"/><path style="fill:none;stroke:#006ebf;stroke-width:3;stroke-linecap:butt;stroke-linejoin:miter;stroke-miterlimit:10;stroke-dasharray:none;stroke-opacity:1" id="path31701" d="m 435.5,47.88 c -13.961,-1.258 -26.309,9.023 -27.578,22.98 -0.043,0.493 -0.07,0.993 -0.09,1.481"/><path style="fill:none;stroke:#006ebf;stroke-width:3;stroke-linecap:butt;stroke-linejoin:miter;stroke-miterlimit:10;stroke-dasharray:none;stroke-opacity:1" id="path31703" d="m 408.602,97.052 c 1,13.968 13.128,24.488 27.109,23.508"/><path style="fill:none;stroke:#006ebf;stroke-width:3;stroke-linecap:butt;stroke-linejoin:miter;stroke-miterlimit:10;stroke-dasharray:none;stroke-opacity:1" id="path31705" d="m 434.121,111.192 c -13.992,-0.902 -26.058,9.7 -26.969,23.688 -0.089,1.461 -0.062,2.93 0.098,4.383"/><path style="fill:none;stroke:#006ebf;stroke-width:3;stroke-linecap:butt;stroke-linejoin:miter;stroke-miterlimit:10;stroke-dasharray:none;stroke-opacity:1" id="path31707" d="m 407.102,179.091 c -0.082,14.019 11.218,25.449 25.23,25.531 0.289,0 0.57,0 0.859,-0.012"/><path style="fill:none;stroke:#006ebf;stroke-width:3;stroke-linecap:butt;stroke-linejoin:miter;stroke-miterlimit:10;stroke-dasharray:none;stroke-opacity:1" id="path31709" d="M 490.09,134.333 C 489.242,120.81 477.922,110.341 464.379,110.54"/><path style="fill:none;stroke:#000;stroke-width:3;stroke-linecap:butt;stroke-linejoin:miter;stroke-miterlimit:10;stroke-dasharray:none;stroke-opacity:1" id="path31711" d="m 433.141,204.622 146.441,-0.371"/><path style="fill:none;stroke:#000;stroke-width:3;stroke-linecap:butt;stroke-linejoin:miter;stroke-miterlimit:10;stroke-dasharray:none;stroke-opacity:1" id="path31713" d="M 607.52,178.103 606.18,73.97"/><path style="fill:none;stroke:#000;stroke-width:3;stroke-linecap:butt;stroke-linejoin:miter;stroke-miterlimit:10;stroke-dasharray:none;stroke-opacity:1" id="path31715" d="m 435.539,47.911 145,0.832"/><path style="fill:none;stroke:#000;stroke-width:3;stroke-linecap:butt;stroke-linejoin:miter;stroke-miterlimit:10;stroke-dasharray:none;stroke-opacity:1" id="path31717" d="m 407.82,72.38 0.789,24.723"/><path style="fill:none;stroke:#000;stroke-width:3;stroke-linecap:butt;stroke-linejoin:miter;stroke-miterlimit:10;stroke-dasharray:none;stroke-opacity:1" id="path31719" d="m 435.18,120.622 h 84.48 v 11.16 h -29.379"/><path style="fill:none;stroke:#000;stroke-width:3;stroke-linecap:butt;stroke-linejoin:miter;stroke-miterlimit:10;stroke-dasharray:none;stroke-opacity:1" id="path31721" d="m 464.391,110.532 -30.289,0.61"/><path style="fill:none;stroke:#000;stroke-width:3;stroke-linecap:butt;stroke-linejoin:miter;stroke-miterlimit:10;stroke-dasharray:none;stroke-opacity:1" id="path31723" d="m 407.25,139.2 -0.148,39.86"/><path style="fill:#000;fill-opacity:1;fill-rule:nonzero;stroke:none" id="path31725" d="M 109.027,0.282 V 10e-4 c -0.781,0.398 -1.437,0.859 -1.968,1.391 -0.75,0.75 -1.329,1.64 -1.735,2.671 -0.406,1.032 -0.609,2.098 -0.609,3.204 0,1.613 0.394,3.082 1.187,4.406 0.801,1.332 1.844,2.285 3.125,2.859 v -0.328 c -0.636,-0.355 -1.164,-0.84 -1.578,-1.453 -0.406,-0.617 -0.715,-1.398 -0.922,-2.344 -0.199,-0.937 -0.297,-1.918 -0.297,-2.937 0,-1.117 0.083,-2.133 0.25,-3.047 0.133,-0.719 0.297,-1.297 0.485,-1.735 0.195,-0.437 0.457,-0.851 0.781,-1.25 0.332,-0.406 0.758,-0.789 1.281,-1.156 z"/><path style="fill:#000;fill-opacity:1;fill-rule:nonzero;stroke:none" id="path31727" d="m 113.938,4.454 c -0.743,-0.562 -1.204,-0.891 -1.391,-0.984 -0.281,-0.133 -0.578,-0.203 -0.891,-0.203 -0.5,0 -0.914,0.171 -1.234,0.515 -0.313,0.344 -0.469,0.789 -0.469,1.344 0,0.344 0.078,0.644 0.235,0.906 0.207,0.352 0.578,0.688 1.109,1 0.531,0.313 1.41,0.692 2.641,1.141 v 0.281 c 0,0.707 -0.118,1.191 -0.344,1.453 -0.231,0.27 -0.559,0.406 -0.985,0.406 -0.336,0 -0.593,-0.089 -0.781,-0.265 -0.199,-0.18 -0.297,-0.383 -0.297,-0.61 l 0.016,-0.453 c 0,-0.242 -0.063,-0.429 -0.188,-0.562 -0.125,-0.125 -0.289,-0.188 -0.484,-0.188 -0.187,0 -0.344,0.067 -0.469,0.203 -0.125,0.133 -0.187,0.321 -0.187,0.563 0,0.445 0.226,0.859 0.687,1.234 0.457,0.375 1.102,0.563 1.938,0.563 0.633,0 1.156,-0.11 1.562,-0.328 0.301,-0.157 0.524,-0.407 0.672,-0.75 0.094,-0.231 0.141,-0.688 0.141,-1.375 V 5.907 c 0,-0.679 0.008,-1.094 0.031,-1.25 0.031,-0.156 0.078,-0.262 0.141,-0.312 0.062,-0.055 0.129,-0.078 0.203,-0.078 0.082,0 0.156,0.019 0.219,0.062 0.113,0.063 0.328,0.25 0.64,0.563 V 4.454 c -0.586,-0.781 -1.14,-1.172 -1.672,-1.172 -0.261,0 -0.468,0.09 -0.625,0.266 -0.148,0.176 -0.218,0.476 -0.218,0.906 z m 0,0.516 V 7.688 C 113.145,7.376 112.633,7.157 112.406,7.032 112,6.802 111.707,6.563 111.531,6.313 c -0.179,-0.25 -0.265,-0.527 -0.265,-0.828 0,-0.375 0.109,-0.687 0.328,-0.937 0.226,-0.242 0.488,-0.36 0.781,-0.36 0.395,0 0.914,0.258 1.563,0.782 z"/><path style="fill:#000;fill-opacity:1;fill-rule:nonzero;stroke:none" id="path31729" d="m 116.82,14.204 v 0.328 c 0.789,-0.387 1.453,-0.844 1.985,-1.375 0.738,-0.762 1.312,-1.656 1.718,-2.687 0.407,-1.024 0.61,-2.086 0.61,-3.188 0,-1.617 -0.399,-3.09 -1.188,-4.422 -0.793,-1.332 -1.836,-2.285 -3.125,-2.859 v 0.281 c 0.645,0.367 1.172,0.856 1.578,1.469 0.415,0.605 0.723,1.383 0.922,2.328 0.207,0.945 0.313,1.938 0.313,2.969 0,1.101 -0.09,2.113 -0.266,3.031 -0.125,0.719 -0.289,1.289 -0.484,1.719 -0.199,0.437 -0.461,0.851 -0.781,1.25 -0.325,0.406 -0.75,0.789 -1.282,1.156 z"/><path style="fill:#000;fill-opacity:1;fill-rule:nonzero;stroke:none" id="path31731" d="M 498.719,0.282 V 10e-4 c -0.781,0.398 -1.438,0.859 -1.969,1.391 -0.75,0.75 -1.328,1.64 -1.734,2.671 -0.407,1.032 -0.61,2.098 -0.61,3.204 0,1.613 0.395,3.082 1.188,4.406 0.801,1.332 1.844,2.285 3.125,2.859 v -0.328 c -0.637,-0.355 -1.164,-0.84 -1.578,-1.453 -0.407,-0.617 -0.715,-1.398 -0.922,-2.344 -0.199,-0.937 -0.297,-1.918 -0.297,-2.937 0,-1.117 0.082,-2.133 0.25,-3.047 0.133,-0.719 0.297,-1.297 0.484,-1.735 0.196,-0.437 0.457,-0.851 0.782,-1.25 0.332,-0.406 0.757,-0.789 1.281,-1.156 z"/><path style="fill:#000;fill-opacity:1;fill-rule:nonzero;stroke:none" id="path31733" d="m 501.535,9.345 c 0.688,0.968 1.43,1.453 2.235,1.453 0.738,0 1.378,-0.32 1.921,-0.953 0.551,-0.625 0.829,-1.481 0.829,-2.563 0,-1.273 -0.422,-2.297 -1.266,-3.078 -0.731,-0.668 -1.539,-1 -2.422,-1 -0.418,0 -0.844,0.074 -1.281,0.219 -0.43,0.156 -0.867,0.383 -1.313,0.687 v 7.422 c 0,0.813 -0.023,1.313 -0.062,1.5 -0.031,0.188 -0.09,0.313 -0.172,0.375 -0.086,0.071 -0.188,0.11 -0.313,0.11 -0.148,0 -0.328,-0.043 -0.546,-0.125 l -0.125,0.265 2.156,0.875 h 0.359 z m 0,-0.5 V 4.563 c 0.258,-0.261 0.531,-0.46 0.813,-0.593 0.289,-0.125 0.582,-0.188 0.875,-0.188 0.476,0 0.922,0.258 1.328,0.781 0.406,0.52 0.609,1.274 0.609,2.266 0,0.914 -0.203,1.617 -0.609,2.109 -0.406,0.5 -0.871,0.75 -1.391,0.75 -0.281,0 -0.558,-0.074 -0.828,-0.218 -0.211,-0.106 -0.477,-0.313 -0.797,-0.625 z"/><path style="fill:#000;fill-opacity:1;fill-rule:nonzero;stroke:none" id="path31735" d="m 507.402,14.204 v 0.328 c 0.789,-0.387 1.453,-0.844 1.985,-1.375 0.738,-0.762 1.312,-1.656 1.718,-2.687 0.407,-1.024 0.61,-2.086 0.61,-3.188 0,-1.617 -0.399,-3.09 -1.188,-4.422 -0.793,-1.332 -1.836,-2.285 -3.125,-2.859 v 0.281 c 0.645,0.367 1.172,0.856 1.578,1.469 0.415,0.605 0.723,1.383 0.922,2.328 0.207,0.945 0.313,1.938 0.313,2.969 0,1.101 -0.09,2.113 -0.266,3.031 -0.125,0.719 -0.289,1.289 -0.484,1.719 -0.199,0.437 -0.461,0.851 -0.781,1.25 -0.325,0.406 -0.75,0.789 -1.282,1.156 z"/></g></g></svg>