<svg xmlns="http://www.w3.org/2000/svg" xmlns:svg="http://www.w3.org/2000/svg" id="svg40853" width="790.403" height="234.236" version="1.1" viewBox="0 0 790.403 234.236" xml:space="preserve"><metadata id="metadata40859"/><g id="g40861" transform="matrix(1.3333333,0,0,-1.3333333,0,234.23625)"><g id="g40863"><path style="fill:none;stroke:#000;stroke-width:1.55999994;stroke-linecap:butt;stroke-linejoin:miter;stroke-miterlimit:10;stroke-dasharray:none;stroke-opacity:1" id="path40865" d="m 0.781,174.896 h 290.16 V 0.779 H 0.781 Z"/><path style="fill:#976300;fill-opacity:1;fill-rule:evenodd;stroke:#000;stroke-width:1.55999994;stroke-linecap:butt;stroke-linejoin:round;stroke-miterlimit:10;stroke-dasharray:none;stroke-opacity:1" id="path40867" d="m 44.223,131.357 29.039,-29 -14.52,-14.5 v -29 h 43.563 v 72.5 l -47.192,14.5 z"/><path style="fill:#f81705;fill-opacity:1;fill-rule:evenodd;stroke:#f81705;stroke-width:.72000003;stroke-linecap:butt;stroke-linejoin:round;stroke-miterlimit:10;stroke-dasharray:none;stroke-opacity:1" id="path40869" d="m 26.043,102.415 c 0,2.024 1.641,3.661 3.66,3.661 2.02,0 3.66,-1.637 3.66,-3.661 0,-2.019 -1.64,-3.66 -3.66,-3.66 -2.019,0 -3.66,1.641 -3.66,3.66 z"/><path style="fill:#976300;fill-opacity:1;fill-rule:evenodd;stroke:#000;stroke-width:1.55999994;stroke-linecap:butt;stroke-linejoin:round;stroke-miterlimit:10;stroke-dasharray:none;stroke-opacity:1" id="path40871" d="m 174.902,58.837 v -14.5 h 72.481 v 87 h -14.5 v -72.5 z"/><path style="fill:#45d426;fill-opacity:1;fill-rule:evenodd;stroke:#45d426;stroke-width:.72000003;stroke-linecap:butt;stroke-linejoin:round;stroke-miterlimit:10;stroke-dasharray:none;stroke-opacity:1" id="path40873" d="m 272.762,58.857 c 0,2.019 1.609,3.66 3.601,3.66 1.989,0 3.602,-1.641 3.602,-3.66 0,-2.02 -1.613,-3.66 -3.602,-3.66 -1.992,0 -3.601,1.64 -3.601,3.66 z"/><path style="fill:none;stroke:#a6a6a6;stroke-width:.47999999;stroke-linecap:butt;stroke-linejoin:round;stroke-miterlimit:10;stroke-dasharray:none;stroke-opacity:1" id="path40875" d="m 0.723,160.439 h 290.16"/><path style="fill:none;stroke:#a6a6a6;stroke-width:.47999999;stroke-linecap:butt;stroke-linejoin:round;stroke-miterlimit:10;stroke-dasharray:none;stroke-opacity:1" id="path40877" d="m 0.723,145.915 h 290.16"/><path style="fill:none;stroke:#a6a6a6;stroke-width:.47999999;stroke-linecap:butt;stroke-linejoin:round;stroke-miterlimit:10;stroke-dasharray:none;stroke-opacity:1" id="path40879" d="m 0.723,131.396 h 290.16"/><path style="fill:none;stroke:#a6a6a6;stroke-width:.47999999;stroke-linecap:butt;stroke-linejoin:round;stroke-miterlimit:10;stroke-dasharray:none;stroke-opacity:1" id="path40881" d="m 0.723,116.876 h 290.16"/><path style="fill:none;stroke:#a6a6a6;stroke-width:.47999999;stroke-linecap:butt;stroke-linejoin:round;stroke-miterlimit:10;stroke-dasharray:none;stroke-opacity:1" id="path40883" d="m 0.723,102.357 h 290.16"/><path style="fill:none;stroke:#a6a6a6;stroke-width:.47999999;stroke-linecap:butt;stroke-linejoin:round;stroke-miterlimit:10;stroke-dasharray:none;stroke-opacity:1" id="path40885" d="m 0.723,87.837 h 290.16"/><path style="fill:none;stroke:#a6a6a6;stroke-width:.47999999;stroke-linecap:butt;stroke-linejoin:round;stroke-miterlimit:10;stroke-dasharray:none;stroke-opacity:1" id="path40887" d="m 0.723,73.439 h 290.16"/><path style="fill:none;stroke:#a6a6a6;stroke-width:.47999999;stroke-linecap:butt;stroke-linejoin:round;stroke-miterlimit:10;stroke-dasharray:none;stroke-opacity:1" id="path40889" d="m 0.723,58.915 h 290.16"/><path style="fill:none;stroke:#a6a6a6;stroke-width:.47999999;stroke-linecap:butt;stroke-linejoin:round;stroke-miterlimit:10;stroke-dasharray:none;stroke-opacity:1" id="path40891" d="m 0.723,44.396 h 290.16"/><path style="fill:none;stroke:#a6a6a6;stroke-width:.47999999;stroke-linecap:butt;stroke-linejoin:round;stroke-miterlimit:10;stroke-dasharray:none;stroke-opacity:1" id="path40893" d="m 0.723,29.876 h 290.16"/><path style="fill:none;stroke:#a6a6a6;stroke-width:.47999999;stroke-linecap:butt;stroke-linejoin:round;stroke-miterlimit:10;stroke-dasharray:none;stroke-opacity:1" id="path40895" d="m 0.723,15.357 h 290.16"/><path style="fill:none;stroke:#a6a6a6;stroke-width:.47999999;stroke-linecap:butt;stroke-linejoin:round;stroke-miterlimit:10;stroke-dasharray:none;stroke-opacity:1" id="path40897" d="M 15.242,174.958 V 0.837"/><path style="fill:none;stroke:#a6a6a6;stroke-width:.47999999;stroke-linecap:butt;stroke-linejoin:round;stroke-miterlimit:10;stroke-dasharray:none;stroke-opacity:1" id="path40899" d="M 44.164,174.958 V 0.837"/><path style="fill:none;stroke:#a6a6a6;stroke-width:.47999999;stroke-linecap:butt;stroke-linejoin:round;stroke-miterlimit:10;stroke-dasharray:none;stroke-opacity:1" id="path40901" d="M 58.684,174.958 V 0.837"/><path style="fill:none;stroke:#a6a6a6;stroke-width:.47999999;stroke-linecap:butt;stroke-linejoin:round;stroke-miterlimit:10;stroke-dasharray:none;stroke-opacity:1" id="path40903" d="M 73.203,174.958 V 0.837"/><path style="fill:none;stroke:#a6a6a6;stroke-width:.47999999;stroke-linecap:butt;stroke-linejoin:round;stroke-miterlimit:10;stroke-dasharray:none;stroke-opacity:1" id="path40905" d="M 87.723,174.958 V 0.837"/><path style="fill:none;stroke:#a6a6a6;stroke-width:.47999999;stroke-linecap:butt;stroke-linejoin:round;stroke-miterlimit:10;stroke-dasharray:none;stroke-opacity:1" id="path40907" d="M 102.242,174.958 V 0.837"/><path style="fill:none;stroke:#a6a6a6;stroke-width:.47999999;stroke-linecap:butt;stroke-linejoin:round;stroke-miterlimit:10;stroke-dasharray:none;stroke-opacity:1" id="path40909" d="M 116.762,174.958 V 0.837"/><path style="fill:none;stroke:#a6a6a6;stroke-width:.47999999;stroke-linecap:butt;stroke-linejoin:round;stroke-miterlimit:10;stroke-dasharray:none;stroke-opacity:1" id="path40911" d="M 131.281,174.958 V 0.837"/><path style="fill:none;stroke:#a6a6a6;stroke-width:.47999999;stroke-linecap:butt;stroke-linejoin:round;stroke-miterlimit:10;stroke-dasharray:none;stroke-opacity:1" id="path40913" d="M 145.805,174.958 V 0.837"/><path style="fill:none;stroke:#a6a6a6;stroke-width:.47999999;stroke-linecap:butt;stroke-linejoin:round;stroke-miterlimit:10;stroke-dasharray:none;stroke-opacity:1" id="path40915" d="M 160.324,174.958 V 0.837"/><path style="fill:none;stroke:#a6a6a6;stroke-width:.47999999;stroke-linecap:butt;stroke-linejoin:round;stroke-miterlimit:10;stroke-dasharray:none;stroke-opacity:1" id="path40917" d="M 174.844,174.958 V 0.837"/><path style="fill:none;stroke:#a6a6a6;stroke-width:.47999999;stroke-linecap:butt;stroke-linejoin:round;stroke-miterlimit:10;stroke-dasharray:none;stroke-opacity:1" id="path40919" d="M 189.242,174.958 V 0.837"/><path style="fill:none;stroke:#a6a6a6;stroke-width:.47999999;stroke-linecap:butt;stroke-linejoin:round;stroke-miterlimit:10;stroke-dasharray:none;stroke-opacity:1" id="path40921" d="M 203.762,174.958 V 0.837"/><path style="fill:none;stroke:#a6a6a6;stroke-width:.47999999;stroke-linecap:butt;stroke-linejoin:round;stroke-miterlimit:10;stroke-dasharray:none;stroke-opacity:1" id="path40923" d="M 218.281,174.958 V 0.837"/><path style="fill:none;stroke:#a6a6a6;stroke-width:.47999999;stroke-linecap:butt;stroke-linejoin:round;stroke-miterlimit:10;stroke-dasharray:none;stroke-opacity:1" id="path40925" d="M 232.805,174.958 V 0.837"/><path style="fill:none;stroke:#a6a6a6;stroke-width:.47999999;stroke-linecap:butt;stroke-linejoin:round;stroke-miterlimit:10;stroke-dasharray:none;stroke-opacity:1" id="path40927" d="M 247.324,174.958 V 0.837"/><path style="fill:none;stroke:#a6a6a6;stroke-width:.47999999;stroke-linecap:butt;stroke-linejoin:round;stroke-miterlimit:10;stroke-dasharray:none;stroke-opacity:1" id="path40929" d="M 261.844,174.958 V 0.837"/><path style="fill:none;stroke:#a6a6a6;stroke-width:.47999999;stroke-linecap:butt;stroke-linejoin:round;stroke-miterlimit:10;stroke-dasharray:none;stroke-opacity:1" id="path40931" d="M 276.363,174.958 V 0.837"/><path style="fill:none;stroke:#a6a6a6;stroke-width:.47999999;stroke-linecap:butt;stroke-linejoin:round;stroke-miterlimit:10;stroke-dasharray:none;stroke-opacity:1" id="path40933" d="M 29.645,174.958 V 0.837"/><path style="fill:#000;fill-opacity:1;fill-rule:nonzero;stroke:none" id="path40935" d="m 20.242,102.857 h 19.02 v -1 h -19.02 z m 1,-3.5 -6,3 6,3 z m 17.02,6 6,-3 -6,-3 z"/><path style="fill:#000;fill-opacity:1;fill-rule:nonzero;stroke:none" id="path40937" d="M 29.145,111.876 V 92.857 h 1 v 19.019 z m 3.5,-1 -3,6 -3,-6 z m -6,-17.019 3,-6 3,6 z"/><path style="fill:#006ebf;fill-opacity:1;fill-rule:nonzero;stroke:none" id="path40939" d="m 40.371,113.697 -21.949,-21.95 0.711,-0.71 21.949,21.949 z m 1.774,-3.18 2.117,6.359 -6.367,-2.121 z m -24.782,-16.289 -2.121,-6.371 6.36,2.121 z"/><path style="fill:#006ebf;fill-opacity:1;fill-rule:nonzero;stroke:none" id="path40941" d="m 40.371,91.037 -21.949,21.949 0.711,0.711 21.949,-21.95 z m 1.774,3.191 2.117,-6.371 -6.367,2.121 z m -24.782,16.289 -2.121,6.359 6.36,-2.121 z"/><path style="fill:none;stroke:#000;stroke-width:1.55999994;stroke-linecap:butt;stroke-linejoin:miter;stroke-miterlimit:8;stroke-dasharray:none;stroke-opacity:1" id="path40943" d="m 301.863,174.896 h 290.16 V 0.779 h -290.16 z"/><path style="fill:#976300;fill-opacity:1;fill-rule:evenodd;stroke:#000;stroke-width:1.55999994;stroke-linecap:butt;stroke-linejoin:round;stroke-miterlimit:8;stroke-dasharray:none;stroke-opacity:1" id="path40945" d="m 345.305,131.357 29.039,-29 -14.52,-14.5 v -29 h 43.559 v 72.5 l -47.192,14.5 z"/><path style="fill:#f81705;fill-opacity:1;fill-rule:evenodd;stroke:#f81705;stroke-width:.72000003;stroke-linecap:butt;stroke-linejoin:round;stroke-miterlimit:8;stroke-dasharray:none;stroke-opacity:1" id="path40947" d="m 327.121,102.415 c 0,2.024 1.641,3.661 3.66,3.661 2.024,0 3.66,-1.637 3.66,-3.661 0,-2.019 -1.636,-3.66 -3.66,-3.66 -2.019,0 -3.66,1.641 -3.66,3.66 z"/><path style="fill:#976300;fill-opacity:1;fill-rule:evenodd;stroke:#000;stroke-width:1.55999994;stroke-linecap:butt;stroke-linejoin:round;stroke-miterlimit:8;stroke-dasharray:none;stroke-opacity:1" id="path40949" d="m 475.984,58.837 v -14.5 h 72.481 v 87 h -14.5 v -72.5 z"/><path style="fill:#45d426;fill-opacity:1;fill-rule:evenodd;stroke:#45d426;stroke-width:.72000003;stroke-linecap:butt;stroke-linejoin:round;stroke-miterlimit:8;stroke-dasharray:none;stroke-opacity:1" id="path40951" d="m 573.844,58.857 c 0,2.019 1.609,3.66 3.597,3.66 1.993,0 3.602,-1.641 3.602,-3.66 0,-2.02 -1.609,-3.66 -3.602,-3.66 -1.988,0 -3.597,1.64 -3.597,3.66 z"/><path style="fill:none;stroke:#a6a6a6;stroke-width:.47999999;stroke-linecap:butt;stroke-linejoin:round;stroke-miterlimit:8;stroke-dasharray:none;stroke-opacity:1" id="path40953" d="m 301.805,160.439 h 290.16"/><path style="fill:none;stroke:#a6a6a6;stroke-width:.47999999;stroke-linecap:butt;stroke-linejoin:round;stroke-miterlimit:8;stroke-dasharray:none;stroke-opacity:1" id="path40955" d="m 301.805,145.915 h 290.16"/><path style="fill:none;stroke:#a6a6a6;stroke-width:.47999999;stroke-linecap:butt;stroke-linejoin:round;stroke-miterlimit:8;stroke-dasharray:none;stroke-opacity:1" id="path40957" d="m 301.805,131.396 h 290.16"/><path style="fill:none;stroke:#a6a6a6;stroke-width:.47999999;stroke-linecap:butt;stroke-linejoin:round;stroke-miterlimit:8;stroke-dasharray:none;stroke-opacity:1" id="path40959" d="m 301.805,116.876 h 290.16"/><path style="fill:none;stroke:#a6a6a6;stroke-width:.47999999;stroke-linecap:butt;stroke-linejoin:round;stroke-miterlimit:8;stroke-dasharray:none;stroke-opacity:1" id="path40961" d="m 301.805,102.357 h 290.16"/><path style="fill:none;stroke:#a6a6a6;stroke-width:.47999999;stroke-linecap:butt;stroke-linejoin:round;stroke-miterlimit:8;stroke-dasharray:none;stroke-opacity:1" id="path40963" d="m 301.805,87.837 h 290.16"/><path style="fill:none;stroke:#a6a6a6;stroke-width:.47999999;stroke-linecap:butt;stroke-linejoin:round;stroke-miterlimit:8;stroke-dasharray:none;stroke-opacity:1" id="path40965" d="m 301.805,73.439 h 290.16"/><path style="fill:none;stroke:#a6a6a6;stroke-width:.47999999;stroke-linecap:butt;stroke-linejoin:round;stroke-miterlimit:8;stroke-dasharray:none;stroke-opacity:1" id="path40967" d="m 301.805,58.915 h 290.16"/><path style="fill:none;stroke:#a6a6a6;stroke-width:.47999999;stroke-linecap:butt;stroke-linejoin:round;stroke-miterlimit:8;stroke-dasharray:none;stroke-opacity:1" id="path40969" d="m 301.805,44.396 h 290.16"/><path style="fill:none;stroke:#a6a6a6;stroke-width:.47999999;stroke-linecap:butt;stroke-linejoin:round;stroke-miterlimit:8;stroke-dasharray:none;stroke-opacity:1" id="path40971" d="m 301.805,29.876 h 290.16"/><path style="fill:none;stroke:#a6a6a6;stroke-width:.47999999;stroke-linecap:butt;stroke-linejoin:round;stroke-miterlimit:8;stroke-dasharray:none;stroke-opacity:1" id="path40973" d="m 301.805,15.357 h 290.16"/><path style="fill:none;stroke:#a6a6a6;stroke-width:.47999999;stroke-linecap:butt;stroke-linejoin:round;stroke-miterlimit:8;stroke-dasharray:none;stroke-opacity:1" id="path40975" d="M 316.324,174.958 V 0.837"/><path style="fill:none;stroke:#a6a6a6;stroke-width:.47999999;stroke-linecap:butt;stroke-linejoin:round;stroke-miterlimit:8;stroke-dasharray:none;stroke-opacity:1" id="path40977" d="M 345.242,174.958 V 0.837"/><path style="fill:none;stroke:#a6a6a6;stroke-width:.47999999;stroke-linecap:butt;stroke-linejoin:round;stroke-miterlimit:8;stroke-dasharray:none;stroke-opacity:1" id="path40979" d="M 359.762,174.958 V 0.837"/><path style="fill:none;stroke:#a6a6a6;stroke-width:.47999999;stroke-linecap:butt;stroke-linejoin:round;stroke-miterlimit:8;stroke-dasharray:none;stroke-opacity:1" id="path40981" d="M 374.281,174.958 V 0.837"/><path style="fill:none;stroke:#a6a6a6;stroke-width:.47999999;stroke-linecap:butt;stroke-linejoin:round;stroke-miterlimit:8;stroke-dasharray:none;stroke-opacity:1" id="path40983" d="M 388.805,174.958 V 0.837"/><path style="fill:none;stroke:#a6a6a6;stroke-width:.47999999;stroke-linecap:butt;stroke-linejoin:round;stroke-miterlimit:8;stroke-dasharray:none;stroke-opacity:1" id="path40985" d="M 403.324,174.958 V 0.837"/><path style="fill:none;stroke:#a6a6a6;stroke-width:.47999999;stroke-linecap:butt;stroke-linejoin:round;stroke-miterlimit:8;stroke-dasharray:none;stroke-opacity:1" id="path40987" d="M 417.844,174.958 V 0.837"/><path style="fill:none;stroke:#a6a6a6;stroke-width:.47999999;stroke-linecap:butt;stroke-linejoin:round;stroke-miterlimit:8;stroke-dasharray:none;stroke-opacity:1" id="path40989" d="M 432.363,174.958 V 0.837"/><path style="fill:none;stroke:#a6a6a6;stroke-width:.47999999;stroke-linecap:butt;stroke-linejoin:round;stroke-miterlimit:8;stroke-dasharray:none;stroke-opacity:1" id="path40991" d="M 446.883,174.958 V 0.837"/><path style="fill:none;stroke:#a6a6a6;stroke-width:.47999999;stroke-linecap:butt;stroke-linejoin:round;stroke-miterlimit:8;stroke-dasharray:none;stroke-opacity:1" id="path40993" d="M 461.402,174.958 V 0.837"/><path style="fill:none;stroke:#a6a6a6;stroke-width:.47999999;stroke-linecap:butt;stroke-linejoin:round;stroke-miterlimit:8;stroke-dasharray:none;stroke-opacity:1" id="path40995" d="M 475.922,174.958 V 0.837"/><path style="fill:none;stroke:#a6a6a6;stroke-width:.47999999;stroke-linecap:butt;stroke-linejoin:round;stroke-miterlimit:8;stroke-dasharray:none;stroke-opacity:1" id="path40997" d="M 490.441,174.958 V 0.837"/><path style="fill:none;stroke:#a6a6a6;stroke-width:.47999999;stroke-linecap:butt;stroke-linejoin:round;stroke-miterlimit:8;stroke-dasharray:none;stroke-opacity:1" id="path40999" d="M 504.844,174.958 V 0.837"/><path style="fill:none;stroke:#a6a6a6;stroke-width:.47999999;stroke-linecap:butt;stroke-linejoin:round;stroke-miterlimit:8;stroke-dasharray:none;stroke-opacity:1" id="path41001" d="M 519.363,174.958 V 0.837"/><path style="fill:none;stroke:#a6a6a6;stroke-width:.47999999;stroke-linecap:butt;stroke-linejoin:round;stroke-miterlimit:8;stroke-dasharray:none;stroke-opacity:1" id="path41003" d="M 533.883,174.958 V 0.837"/><path style="fill:none;stroke:#a6a6a6;stroke-width:.47999999;stroke-linecap:butt;stroke-linejoin:round;stroke-miterlimit:8;stroke-dasharray:none;stroke-opacity:1" id="path41005" d="M 548.402,174.958 V 0.837"/><path style="fill:none;stroke:#a6a6a6;stroke-width:.47999999;stroke-linecap:butt;stroke-linejoin:round;stroke-miterlimit:8;stroke-dasharray:none;stroke-opacity:1" id="path41007" d="M 562.922,174.958 V 0.837"/><path style="fill:none;stroke:#a6a6a6;stroke-width:.47999999;stroke-linecap:butt;stroke-linejoin:round;stroke-miterlimit:8;stroke-dasharray:none;stroke-opacity:1" id="path41009" d="M 577.441,174.958 V 0.837"/><path style="fill:none;stroke:#a6a6a6;stroke-width:.47999999;stroke-linecap:butt;stroke-linejoin:round;stroke-miterlimit:8;stroke-dasharray:none;stroke-opacity:1" id="path41011" d="M 330.844,174.958 V 0.837"/><path style="fill:none;stroke:#00f;stroke-width:3;stroke-linecap:butt;stroke-linejoin:round;stroke-miterlimit:8;stroke-dasharray:none;stroke-opacity:1" id="path41013" d="m 330.902,102.298 c 0.832,-0.832 1.582,-1.652 2.481,-2.402 0.609,-0.527 1.89,-1.277 1.89,-1.277 L 346.191,87.497 V 58.658 l 14.454,-14.422 h 101.199 l 14.461,-14.418 h 72.289 l 28.91,28.84"/><path style="fill:#45d426;fill-opacity:1;fill-rule:evenodd;stroke:#45d426;stroke-width:.72000003;stroke-linecap:butt;stroke-linejoin:round;stroke-miterlimit:8;stroke-dasharray:none;stroke-opacity:1" id="path41015" d="m 26.043,102.415 c 0,2.024 1.609,3.661 3.602,3.661 1.988,0 3.597,-1.637 3.597,-3.661 0,-2.019 -1.609,-3.66 -3.597,-3.66 -1.993,0 -3.602,1.641 -3.602,3.66 z"/><path style="fill:#f81705;fill-opacity:1;fill-rule:evenodd;stroke:#f81705;stroke-width:.72000003;stroke-linecap:butt;stroke-linejoin:round;stroke-miterlimit:8;stroke-dasharray:none;stroke-opacity:1" id="path41017" d="m 272.762,58.857 c 0,2.019 1.609,3.66 3.601,3.66 1.989,0 3.602,-1.641 3.602,-3.66 0,-2.02 -1.613,-3.66 -3.602,-3.66 -1.992,0 -3.601,1.64 -3.601,3.66 z"/><path style="fill:#45d426;fill-opacity:1;fill-rule:evenodd;stroke:#45d426;stroke-width:.72000003;stroke-linecap:butt;stroke-linejoin:round;stroke-miterlimit:8;stroke-dasharray:none;stroke-opacity:1" id="path41019" d="m 327.121,102.415 c 0,2.024 1.641,3.661 3.66,3.661 2.024,0 3.66,-1.637 3.66,-3.661 0,-2.019 -1.636,-3.66 -3.66,-3.66 -2.019,0 -3.66,1.641 -3.66,3.66 z"/><path style="fill:#f81705;fill-opacity:1;fill-rule:evenodd;stroke:#f81705;stroke-width:.72000003;stroke-linecap:butt;stroke-linejoin:round;stroke-miterlimit:8;stroke-dasharray:none;stroke-opacity:1" id="path41021" d="m 573.844,58.857 c 0,2.019 1.609,3.66 3.597,3.66 1.993,0 3.602,-1.641 3.602,-3.66 0,-2.02 -1.609,-3.66 -3.602,-3.66 -1.988,0 -3.597,1.64 -3.597,3.66 z"/></g></g></svg>