<svg xmlns="http://www.w3.org/2000/svg" xmlns:svg="http://www.w3.org/2000/svg" id="svg36212" width="790.403" height="234.236" version="1.1" viewBox="0 0 790.403 234.236" xml:space="preserve"><metadata id="metadata36218"/><g id="g36220" transform="matrix(1.3333333,0,0,-1.3333333,0,234.23625)"><g id="g36222"><path style="fill:none;stroke:#000;stroke-width:1.55999994;stroke-linecap:butt;stroke-linejoin:miter;stroke-miterlimit:10;stroke-dasharray:none;stroke-opacity:1" id="path36224" d="m 0.781,174.896 h 290.16 V 0.779 H 0.781 Z"/><path style="fill:#976300;fill-opacity:1;fill-rule:evenodd;stroke:#000;stroke-width:1.55999994;stroke-linecap:butt;stroke-linejoin:round;stroke-miterlimit:10;stroke-dasharray:none;stroke-opacity:1" id="path36226" d="m 44.223,131.357 29.039,-29 -14.52,-14.5 v -29 h 43.563 v 72.5 l -47.192,14.5 z"/><path style="fill:#f81705;fill-opacity:1;fill-rule:evenodd;stroke:#f81705;stroke-width:.72000003;stroke-linecap:butt;stroke-linejoin:round;stroke-miterlimit:10;stroke-dasharray:none;stroke-opacity:1" id="path36228" d="m 26.043,102.415 c 0,2.024 1.641,3.661 3.66,3.661 2.02,0 3.66,-1.637 3.66,-3.661 0,-2.019 -1.64,-3.66 -3.66,-3.66 -2.019,0 -3.66,1.641 -3.66,3.66 z"/><path style="fill:#976300;fill-opacity:1;fill-rule:evenodd;stroke:#000;stroke-width:1.55999994;stroke-linecap:butt;stroke-linejoin:round;stroke-miterlimit:10;stroke-dasharray:none;stroke-opacity:1" id="path36230" d="m 174.902,58.837 v -14.5 h 72.481 v 87 h -14.5 v -72.5 z"/><path style="fill:#45d426;fill-opacity:1;fill-rule:evenodd;stroke:#45d426;stroke-width:.72000003;stroke-linecap:butt;stroke-linejoin:round;stroke-miterlimit:10;stroke-dasharray:none;stroke-opacity:1" id="path36232" d="m 272.762,58.857 c 0,2.019 1.609,3.66 3.601,3.66 1.989,0 3.602,-1.641 3.602,-3.66 0,-2.02 -1.613,-3.66 -3.602,-3.66 -1.992,0 -3.601,1.64 -3.601,3.66 z"/><path style="fill:none;stroke:#a6a6a6;stroke-width:.47999999;stroke-linecap:butt;stroke-linejoin:round;stroke-miterlimit:10;stroke-dasharray:none;stroke-opacity:1" id="path36234" d="m 0.723,160.439 h 290.16"/><path style="fill:none;stroke:#a6a6a6;stroke-width:.47999999;stroke-linecap:butt;stroke-linejoin:round;stroke-miterlimit:10;stroke-dasharray:none;stroke-opacity:1" id="path36236" d="m 0.723,145.915 h 290.16"/><path style="fill:none;stroke:#a6a6a6;stroke-width:.47999999;stroke-linecap:butt;stroke-linejoin:round;stroke-miterlimit:10;stroke-dasharray:none;stroke-opacity:1" id="path36238" d="m 0.723,131.396 h 290.16"/><path style="fill:none;stroke:#a6a6a6;stroke-width:.47999999;stroke-linecap:butt;stroke-linejoin:round;stroke-miterlimit:10;stroke-dasharray:none;stroke-opacity:1" id="path36240" d="m 0.723,116.876 h 290.16"/><path style="fill:none;stroke:#a6a6a6;stroke-width:.47999999;stroke-linecap:butt;stroke-linejoin:round;stroke-miterlimit:10;stroke-dasharray:none;stroke-opacity:1" id="path36242" d="m 0.723,102.357 h 290.16"/><path style="fill:none;stroke:#a6a6a6;stroke-width:.47999999;stroke-linecap:butt;stroke-linejoin:round;stroke-miterlimit:10;stroke-dasharray:none;stroke-opacity:1" id="path36244" d="m 0.723,87.837 h 290.16"/><path style="fill:none;stroke:#a6a6a6;stroke-width:.47999999;stroke-linecap:butt;stroke-linejoin:round;stroke-miterlimit:10;stroke-dasharray:none;stroke-opacity:1" id="path36246" d="m 0.723,73.439 h 290.16"/><path style="fill:none;stroke:#a6a6a6;stroke-width:.47999999;stroke-linecap:butt;stroke-linejoin:round;stroke-miterlimit:10;stroke-dasharray:none;stroke-opacity:1" id="path36248" d="m 0.723,58.915 h 290.16"/><path style="fill:none;stroke:#a6a6a6;stroke-width:.47999999;stroke-linecap:butt;stroke-linejoin:round;stroke-miterlimit:10;stroke-dasharray:none;stroke-opacity:1" id="path36250" d="m 0.723,44.396 h 290.16"/><path style="fill:none;stroke:#a6a6a6;stroke-width:.47999999;stroke-linecap:butt;stroke-linejoin:round;stroke-miterlimit:10;stroke-dasharray:none;stroke-opacity:1" id="path36252" d="m 0.723,29.876 h 290.16"/><path style="fill:none;stroke:#a6a6a6;stroke-width:.47999999;stroke-linecap:butt;stroke-linejoin:round;stroke-miterlimit:10;stroke-dasharray:none;stroke-opacity:1" id="path36254" d="m 0.723,15.357 h 290.16"/><path style="fill:none;stroke:#a6a6a6;stroke-width:.47999999;stroke-linecap:butt;stroke-linejoin:round;stroke-miterlimit:10;stroke-dasharray:none;stroke-opacity:1" id="path36256" d="M 15.242,174.958 V 0.837"/><path style="fill:none;stroke:#a6a6a6;stroke-width:.47999999;stroke-linecap:butt;stroke-linejoin:round;stroke-miterlimit:10;stroke-dasharray:none;stroke-opacity:1" id="path36258" d="M 44.164,174.958 V 0.837"/><path style="fill:none;stroke:#a6a6a6;stroke-width:.47999999;stroke-linecap:butt;stroke-linejoin:round;stroke-miterlimit:10;stroke-dasharray:none;stroke-opacity:1" id="path36260" d="M 58.684,174.958 V 0.837"/><path style="fill:none;stroke:#a6a6a6;stroke-width:.47999999;stroke-linecap:butt;stroke-linejoin:round;stroke-miterlimit:10;stroke-dasharray:none;stroke-opacity:1" id="path36262" d="M 73.203,174.958 V 0.837"/><path style="fill:none;stroke:#a6a6a6;stroke-width:.47999999;stroke-linecap:butt;stroke-linejoin:round;stroke-miterlimit:10;stroke-dasharray:none;stroke-opacity:1" id="path36264" d="M 87.723,174.958 V 0.837"/><path style="fill:none;stroke:#a6a6a6;stroke-width:.47999999;stroke-linecap:butt;stroke-linejoin:round;stroke-miterlimit:10;stroke-dasharray:none;stroke-opacity:1" id="path36266" d="M 102.242,174.958 V 0.837"/><path style="fill:none;stroke:#a6a6a6;stroke-width:.47999999;stroke-linecap:butt;stroke-linejoin:round;stroke-miterlimit:10;stroke-dasharray:none;stroke-opacity:1" id="path36268" d="M 116.762,174.958 V 0.837"/><path style="fill:none;stroke:#a6a6a6;stroke-width:.47999999;stroke-linecap:butt;stroke-linejoin:round;stroke-miterlimit:10;stroke-dasharray:none;stroke-opacity:1" id="path36270" d="M 131.281,174.958 V 0.837"/><path style="fill:none;stroke:#a6a6a6;stroke-width:.47999999;stroke-linecap:butt;stroke-linejoin:round;stroke-miterlimit:10;stroke-dasharray:none;stroke-opacity:1" id="path36272" d="M 145.805,174.958 V 0.837"/><path style="fill:none;stroke:#a6a6a6;stroke-width:.47999999;stroke-linecap:butt;stroke-linejoin:round;stroke-miterlimit:10;stroke-dasharray:none;stroke-opacity:1" id="path36274" d="M 160.324,174.958 V 0.837"/><path style="fill:none;stroke:#a6a6a6;stroke-width:.47999999;stroke-linecap:butt;stroke-linejoin:round;stroke-miterlimit:10;stroke-dasharray:none;stroke-opacity:1" id="path36276" d="M 174.844,174.958 V 0.837"/><path style="fill:none;stroke:#a6a6a6;stroke-width:.47999999;stroke-linecap:butt;stroke-linejoin:round;stroke-miterlimit:10;stroke-dasharray:none;stroke-opacity:1" id="path36278" d="M 189.242,174.958 V 0.837"/><path style="fill:none;stroke:#a6a6a6;stroke-width:.47999999;stroke-linecap:butt;stroke-linejoin:round;stroke-miterlimit:10;stroke-dasharray:none;stroke-opacity:1" id="path36280" d="M 203.762,174.958 V 0.837"/><path style="fill:none;stroke:#a6a6a6;stroke-width:.47999999;stroke-linecap:butt;stroke-linejoin:round;stroke-miterlimit:10;stroke-dasharray:none;stroke-opacity:1" id="path36282" d="M 218.281,174.958 V 0.837"/><path style="fill:none;stroke:#a6a6a6;stroke-width:.47999999;stroke-linecap:butt;stroke-linejoin:round;stroke-miterlimit:10;stroke-dasharray:none;stroke-opacity:1" id="path36284" d="M 232.805,174.958 V 0.837"/><path style="fill:none;stroke:#a6a6a6;stroke-width:.47999999;stroke-linecap:butt;stroke-linejoin:round;stroke-miterlimit:10;stroke-dasharray:none;stroke-opacity:1" id="path36286" d="M 247.324,174.958 V 0.837"/><path style="fill:none;stroke:#a6a6a6;stroke-width:.47999999;stroke-linecap:butt;stroke-linejoin:round;stroke-miterlimit:10;stroke-dasharray:none;stroke-opacity:1" id="path36288" d="M 261.844,174.958 V 0.837"/><path style="fill:none;stroke:#a6a6a6;stroke-width:.47999999;stroke-linecap:butt;stroke-linejoin:round;stroke-miterlimit:10;stroke-dasharray:none;stroke-opacity:1" id="path36290" d="M 276.363,174.958 V 0.837"/><path style="fill:none;stroke:#a6a6a6;stroke-width:.47999999;stroke-linecap:butt;stroke-linejoin:round;stroke-miterlimit:10;stroke-dasharray:none;stroke-opacity:1" id="path36292" d="M 29.645,174.958 V 0.837"/><path style="fill:#000;fill-opacity:1;fill-rule:nonzero;stroke:none" id="path36294" d="m 20.242,102.857 h 19.02 v -1 h -19.02 z m 1,-3.5 -6,3 6,3 z m 17.02,6 6,-3 -6,-3 z"/><path style="fill:#000;fill-opacity:1;fill-rule:nonzero;stroke:none" id="path36296" d="M 29.145,111.876 V 92.857 h 1 v 19.019 z m 3.5,-1 -3,6 -3,-6 z m -6,-17.019 3,-6 3,6 z"/><path style="fill:none;stroke:#000;stroke-width:1.55999994;stroke-linecap:butt;stroke-linejoin:miter;stroke-miterlimit:8;stroke-dasharray:none;stroke-opacity:1" id="path36298" d="m 301.863,174.896 h 290.16 V 0.779 h -290.16 z"/><path style="fill:#976300;fill-opacity:1;fill-rule:evenodd;stroke:#000;stroke-width:1.55999994;stroke-linecap:butt;stroke-linejoin:round;stroke-miterlimit:8;stroke-dasharray:none;stroke-opacity:1" id="path36300" d="m 345.305,131.357 29.039,-29 -14.52,-14.5 v -29 h 43.559 v 72.5 l -47.192,14.5 z"/><path style="fill:#f81705;fill-opacity:1;fill-rule:evenodd;stroke:#f81705;stroke-width:.72000003;stroke-linecap:butt;stroke-linejoin:round;stroke-miterlimit:8;stroke-dasharray:none;stroke-opacity:1" id="path36302" d="m 327.121,102.415 c 0,2.024 1.641,3.661 3.66,3.661 2.024,0 3.66,-1.637 3.66,-3.661 0,-2.019 -1.636,-3.66 -3.66,-3.66 -2.019,0 -3.66,1.641 -3.66,3.66 z"/><path style="fill:#976300;fill-opacity:1;fill-rule:evenodd;stroke:#000;stroke-width:1.55999994;stroke-linecap:butt;stroke-linejoin:round;stroke-miterlimit:8;stroke-dasharray:none;stroke-opacity:1" id="path36304" d="m 475.984,58.837 v -14.5 h 72.481 v 87 h -14.5 v -72.5 z"/><path style="fill:#45d426;fill-opacity:1;fill-rule:evenodd;stroke:#45d426;stroke-width:.72000003;stroke-linecap:butt;stroke-linejoin:round;stroke-miterlimit:8;stroke-dasharray:none;stroke-opacity:1" id="path36306" d="m 573.844,58.857 c 0,2.019 1.609,3.66 3.597,3.66 1.993,0 3.602,-1.641 3.602,-3.66 0,-2.02 -1.609,-3.66 -3.602,-3.66 -1.988,0 -3.597,1.64 -3.597,3.66 z"/><path style="fill:none;stroke:#a6a6a6;stroke-width:.47999999;stroke-linecap:butt;stroke-linejoin:round;stroke-miterlimit:8;stroke-dasharray:none;stroke-opacity:1" id="path36308" d="m 301.805,160.439 h 290.16"/><path style="fill:none;stroke:#a6a6a6;stroke-width:.47999999;stroke-linecap:butt;stroke-linejoin:round;stroke-miterlimit:8;stroke-dasharray:none;stroke-opacity:1" id="path36310" d="m 301.805,145.915 h 290.16"/><path style="fill:none;stroke:#a6a6a6;stroke-width:.47999999;stroke-linecap:butt;stroke-linejoin:round;stroke-miterlimit:8;stroke-dasharray:none;stroke-opacity:1" id="path36312" d="m 301.805,131.396 h 290.16"/><path style="fill:none;stroke:#a6a6a6;stroke-width:.47999999;stroke-linecap:butt;stroke-linejoin:round;stroke-miterlimit:8;stroke-dasharray:none;stroke-opacity:1" id="path36314" d="m 301.805,116.876 h 290.16"/><path style="fill:none;stroke:#a6a6a6;stroke-width:.47999999;stroke-linecap:butt;stroke-linejoin:round;stroke-miterlimit:8;stroke-dasharray:none;stroke-opacity:1" id="path36316" d="m 301.805,102.357 h 290.16"/><path style="fill:none;stroke:#a6a6a6;stroke-width:.47999999;stroke-linecap:butt;stroke-linejoin:round;stroke-miterlimit:8;stroke-dasharray:none;stroke-opacity:1" id="path36318" d="m 301.805,87.837 h 290.16"/><path style="fill:none;stroke:#a6a6a6;stroke-width:.47999999;stroke-linecap:butt;stroke-linejoin:round;stroke-miterlimit:8;stroke-dasharray:none;stroke-opacity:1" id="path36320" d="m 301.805,73.439 h 290.16"/><path style="fill:none;stroke:#a6a6a6;stroke-width:.47999999;stroke-linecap:butt;stroke-linejoin:round;stroke-miterlimit:8;stroke-dasharray:none;stroke-opacity:1" id="path36322" d="m 301.805,58.915 h 290.16"/><path style="fill:none;stroke:#a6a6a6;stroke-width:.47999999;stroke-linecap:butt;stroke-linejoin:round;stroke-miterlimit:8;stroke-dasharray:none;stroke-opacity:1" id="path36324" d="m 301.805,44.396 h 290.16"/><path style="fill:none;stroke:#a6a6a6;stroke-width:.47999999;stroke-linecap:butt;stroke-linejoin:round;stroke-miterlimit:8;stroke-dasharray:none;stroke-opacity:1" id="path36326" d="m 301.805,29.876 h 290.16"/><path style="fill:none;stroke:#a6a6a6;stroke-width:.47999999;stroke-linecap:butt;stroke-linejoin:round;stroke-miterlimit:8;stroke-dasharray:none;stroke-opacity:1" id="path36328" d="m 301.805,15.357 h 290.16"/><path style="fill:none;stroke:#a6a6a6;stroke-width:.47999999;stroke-linecap:butt;stroke-linejoin:round;stroke-miterlimit:8;stroke-dasharray:none;stroke-opacity:1" id="path36330" d="M 316.324,174.958 V 0.837"/><path style="fill:none;stroke:#a6a6a6;stroke-width:.47999999;stroke-linecap:butt;stroke-linejoin:round;stroke-miterlimit:8;stroke-dasharray:none;stroke-opacity:1" id="path36332" d="M 345.242,174.958 V 0.837"/><path style="fill:none;stroke:#a6a6a6;stroke-width:.47999999;stroke-linecap:butt;stroke-linejoin:round;stroke-miterlimit:8;stroke-dasharray:none;stroke-opacity:1" id="path36334" d="M 359.762,174.958 V 0.837"/><path style="fill:none;stroke:#a6a6a6;stroke-width:.47999999;stroke-linecap:butt;stroke-linejoin:round;stroke-miterlimit:8;stroke-dasharray:none;stroke-opacity:1" id="path36336" d="M 374.281,174.958 V 0.837"/><path style="fill:none;stroke:#a6a6a6;stroke-width:.47999999;stroke-linecap:butt;stroke-linejoin:round;stroke-miterlimit:8;stroke-dasharray:none;stroke-opacity:1" id="path36338" d="M 388.805,174.958 V 0.837"/><path style="fill:none;stroke:#a6a6a6;stroke-width:.47999999;stroke-linecap:butt;stroke-linejoin:round;stroke-miterlimit:8;stroke-dasharray:none;stroke-opacity:1" id="path36340" d="M 403.324,174.958 V 0.837"/><path style="fill:none;stroke:#a6a6a6;stroke-width:.47999999;stroke-linecap:butt;stroke-linejoin:round;stroke-miterlimit:8;stroke-dasharray:none;stroke-opacity:1" id="path36342" d="M 417.844,174.958 V 0.837"/><path style="fill:none;stroke:#a6a6a6;stroke-width:.47999999;stroke-linecap:butt;stroke-linejoin:round;stroke-miterlimit:8;stroke-dasharray:none;stroke-opacity:1" id="path36344" d="M 432.363,174.958 V 0.837"/><path style="fill:none;stroke:#a6a6a6;stroke-width:.47999999;stroke-linecap:butt;stroke-linejoin:round;stroke-miterlimit:8;stroke-dasharray:none;stroke-opacity:1" id="path36346" d="M 446.883,174.958 V 0.837"/><path style="fill:none;stroke:#a6a6a6;stroke-width:.47999999;stroke-linecap:butt;stroke-linejoin:round;stroke-miterlimit:8;stroke-dasharray:none;stroke-opacity:1" id="path36348" d="M 461.402,174.958 V 0.837"/><path style="fill:none;stroke:#a6a6a6;stroke-width:.47999999;stroke-linecap:butt;stroke-linejoin:round;stroke-miterlimit:8;stroke-dasharray:none;stroke-opacity:1" id="path36350" d="M 475.922,174.958 V 0.837"/><path style="fill:none;stroke:#a6a6a6;stroke-width:.47999999;stroke-linecap:butt;stroke-linejoin:round;stroke-miterlimit:8;stroke-dasharray:none;stroke-opacity:1" id="path36352" d="M 490.441,174.958 V 0.837"/><path style="fill:none;stroke:#a6a6a6;stroke-width:.47999999;stroke-linecap:butt;stroke-linejoin:round;stroke-miterlimit:8;stroke-dasharray:none;stroke-opacity:1" id="path36354" d="M 504.844,174.958 V 0.837"/><path style="fill:none;stroke:#a6a6a6;stroke-width:.47999999;stroke-linecap:butt;stroke-linejoin:round;stroke-miterlimit:8;stroke-dasharray:none;stroke-opacity:1" id="path36356" d="M 519.363,174.958 V 0.837"/><path style="fill:none;stroke:#a6a6a6;stroke-width:.47999999;stroke-linecap:butt;stroke-linejoin:round;stroke-miterlimit:8;stroke-dasharray:none;stroke-opacity:1" id="path36358" d="M 533.883,174.958 V 0.837"/><path style="fill:none;stroke:#a6a6a6;stroke-width:.47999999;stroke-linecap:butt;stroke-linejoin:round;stroke-miterlimit:8;stroke-dasharray:none;stroke-opacity:1" id="path36360" d="M 548.402,174.958 V 0.837"/><path style="fill:none;stroke:#a6a6a6;stroke-width:.47999999;stroke-linecap:butt;stroke-linejoin:round;stroke-miterlimit:8;stroke-dasharray:none;stroke-opacity:1" id="path36362" d="M 562.922,174.958 V 0.837"/><path style="fill:none;stroke:#a6a6a6;stroke-width:.47999999;stroke-linecap:butt;stroke-linejoin:round;stroke-miterlimit:8;stroke-dasharray:none;stroke-opacity:1" id="path36364" d="M 577.441,174.958 V 0.837"/><path style="fill:none;stroke:#a6a6a6;stroke-width:.47999999;stroke-linecap:butt;stroke-linejoin:round;stroke-miterlimit:8;stroke-dasharray:none;stroke-opacity:1" id="path36366" d="M 330.844,174.958 V 0.837"/><path style="fill:none;stroke:#00f;stroke-width:3;stroke-linecap:butt;stroke-linejoin:round;stroke-miterlimit:8;stroke-dasharray:none;stroke-opacity:1" id="path36368" d="m 330.902,102.298 c 3.063,-0.199 14.082,-0.261 15.289,-0.281 -0.218,-23.91 0.204,-48.488 -0.027,-72.398 l 231.457,-1.122 c -0.047,10.051 -0.066,20.11 -0.117,30.161"/><path style="fill:#45d426;fill-opacity:1;fill-rule:evenodd;stroke:#45d426;stroke-width:.72000003;stroke-linecap:butt;stroke-linejoin:round;stroke-miterlimit:8;stroke-dasharray:none;stroke-opacity:1" id="path36370" d="m 26.043,102.415 c 0,2.024 1.609,3.661 3.602,3.661 1.988,0 3.597,-1.637 3.597,-3.661 0,-2.019 -1.609,-3.66 -3.597,-3.66 -1.993,0 -3.602,1.641 -3.602,3.66 z"/><path style="fill:#f81705;fill-opacity:1;fill-rule:evenodd;stroke:#f81705;stroke-width:.72000003;stroke-linecap:butt;stroke-linejoin:round;stroke-miterlimit:8;stroke-dasharray:none;stroke-opacity:1" id="path36372" d="m 272.762,58.857 c 0,2.019 1.609,3.66 3.601,3.66 1.989,0 3.602,-1.641 3.602,-3.66 0,-2.02 -1.613,-3.66 -3.602,-3.66 -1.992,0 -3.601,1.64 -3.601,3.66 z"/><path style="fill:#45d426;fill-opacity:1;fill-rule:evenodd;stroke:#45d426;stroke-width:.72000003;stroke-linecap:butt;stroke-linejoin:round;stroke-miterlimit:8;stroke-dasharray:none;stroke-opacity:1" id="path36374" d="m 327.121,102.415 c 0,2.024 1.641,3.661 3.66,3.661 2.024,0 3.66,-1.637 3.66,-3.661 0,-2.019 -1.636,-3.66 -3.66,-3.66 -2.019,0 -3.66,1.641 -3.66,3.66 z"/><path style="fill:#f81705;fill-opacity:1;fill-rule:evenodd;stroke:#f81705;stroke-width:.72000003;stroke-linecap:butt;stroke-linejoin:round;stroke-miterlimit:8;stroke-dasharray:none;stroke-opacity:1" id="path36376" d="m 573.844,58.857 c 0,2.019 1.609,3.66 3.597,3.66 1.993,0 3.602,-1.641 3.602,-3.66 0,-2.02 -1.609,-3.66 -3.602,-3.66 -1.988,0 -3.597,1.64 -3.597,3.66 z"/></g></g></svg>