<svg xmlns="http://www.w3.org/2000/svg" xmlns:svg="http://www.w3.org/2000/svg" id="svg70483" width="886.72" height="209.12" version="1.1" viewBox="0 0 886.72 209.12" xml:space="preserve"><metadata id="metadata70489"/><g id="g70491" transform="matrix(1.3333333,0,0,-1.3333333,0,209.11999)"><g id="g70493"><path style="fill:#fff;fill-opacity:1;fill-rule:evenodd;stroke:#000;stroke-width:.95999998;stroke-linecap:butt;stroke-linejoin:miter;stroke-miterlimit:10;stroke-dasharray:none;stroke-opacity:1" id="path70495" d="M 339.48,156.36 H 495.359 V 0.481 H 339.48 Z"/><path style="fill:#fff;fill-opacity:1;fill-rule:evenodd;stroke:#000;stroke-width:.95999998;stroke-linecap:butt;stroke-linejoin:miter;stroke-miterlimit:10;stroke-dasharray:none;stroke-opacity:1" id="path70497" d="m 0.48,156.36 h 156 V 0.481 h -156 z"/><path style="fill:#a6a6a6;fill-opacity:1;fill-rule:evenodd;stroke:#000;stroke-width:.95999998;stroke-linecap:butt;stroke-linejoin:miter;stroke-miterlimit:10;stroke-dasharray:none;stroke-opacity:1" id="path70499" d="m 78.988,119.781 c 7.692,1.668 20.063,-17.492 31.102,-17.57 11.031,-0.082 31.34,19.988 35.101,17.059 3.758,-2.918 -11.031,-22 -12.543,-34.629 -1.5,-12.629 8.782,-37.641 3.512,-41.153 -5.262,-3.519 -20.719,16.891 -35.101,20.071 -14.379,3.179 -44.969,-5.77 -51.149,-1 -6.191,4.769 9.442,20.07 14.039,29.609 4.602,9.543 7.352,25.934 15.039,27.613 z"/><path style="fill:none;stroke:#0070c0;stroke-width:2.27999997;stroke-linecap:butt;stroke-linejoin:miter;stroke-miterlimit:10;stroke-dasharray:none;stroke-opacity:1" id="path70501" d="m 97.621,121.649 -32.09,19.05 -7.019,-29.578 -42.614,-4.011 21.063,-23.071 1.5,-44.621 35.09,8.524 32.59,-0.5"/><path style="fill:none;stroke:#000;stroke-width:.47999999;stroke-linecap:butt;stroke-linejoin:miter;stroke-miterlimit:10;stroke-dasharray:1.92,1.44;stroke-dashoffset:0;stroke-opacity:1" id="path70503" d="m 37.441,70.059 41.11,62.66"/><path style="fill:#fff;fill-opacity:1;fill-rule:evenodd;stroke:#000;stroke-width:.95999998;stroke-linecap:butt;stroke-linejoin:miter;stroke-miterlimit:10;stroke-dasharray:none;stroke-opacity:1" id="path70505" d="M 172.32,156.36 H 328.199 V 0.481 H 172.32 Z"/><path style="fill:#a6a6a6;fill-opacity:1;fill-rule:evenodd;stroke:#000;stroke-width:.95999998;stroke-linecap:butt;stroke-linejoin:miter;stroke-miterlimit:10;stroke-dasharray:none;stroke-opacity:1" id="path70507" d="m 250.711,119.781 c 7.687,1.668 20.059,-17.492 31.098,-17.57 11.031,-0.082 31.339,19.988 35.101,17.059 3.762,-2.918 -11.031,-22 -12.539,-34.629 -1.5,-12.629 8.777,-37.641 3.508,-41.153 -5.258,-3.519 -20.719,16.891 -35.098,20.071 -14.383,3.179 -44.972,-5.77 -51.152,-1 -6.188,4.769 9.441,20.07 14.043,29.609 4.598,9.543 7.348,25.934 15.039,27.613 z"/><path style="fill:none;stroke:#0070c0;stroke-width:2.27999997;stroke-linecap:butt;stroke-linejoin:miter;stroke-miterlimit:10;stroke-dasharray:none;stroke-opacity:1" id="path70509" d="m 269.352,121.711 -18.864,10.469 -20.207,-30.93 -0.34,-0.039 -21.203,-33 1.5,-28.793 35.063,8.531 32.558,-0.5"/><path style="fill:none;stroke:#000;stroke-width:.47999999;stroke-linecap:butt;stroke-linejoin:miter;stroke-miterlimit:10;stroke-dasharray:1.92,1.44;stroke-dashoffset:0;stroke-opacity:1" id="path70511" d="M 223.922,89.641 262.781,47.692"/><path style="fill:#a6a6a6;fill-opacity:1;fill-rule:evenodd;stroke:#000;stroke-width:.95999998;stroke-linecap:butt;stroke-linejoin:miter;stroke-miterlimit:10;stroke-dasharray:none;stroke-opacity:1" id="path70513" d="m 417.961,119.781 c 7.68,1.668 20.027,-17.492 31.051,-17.57 11.019,-0.082 31.297,19.988 35.058,17.059 3.758,-2.918 -11.019,-22 -12.519,-34.629 -1.5,-12.629 8.758,-37.641 3.5,-41.153 -5.25,-3.519 -20.699,16.891 -35.063,20.071 -14.347,3.179 -44.91,-5.77 -51.078,-1 -6.18,4.769 9.43,20.07 14.02,29.609 4.59,9.543 7.351,25.934 15.031,27.613 z"/><path style="fill:none;stroke:#0070c0;stroke-width:2.27999997;stroke-linecap:butt;stroke-linejoin:miter;stroke-miterlimit:10;stroke-dasharray:none;stroke-opacity:1" id="path70515" d="m 436.609,121.711 -18.89,10.469 -20.25,-30.93 -0.328,-0.039 -21.243,-33 1.512,-28.793 35.121,8.531 32.61,-0.5"/><path style="fill:none;stroke:#000;stroke-width:.47999999;stroke-linecap:butt;stroke-linejoin:miter;stroke-miterlimit:10;stroke-dasharray:1.92,1.44;stroke-dashoffset:0;stroke-opacity:1" id="path70517" d="M 376.801,60.602 444.09,47.57"/><path style="fill:none;stroke:red;stroke-width:2.27999997;stroke-linecap:butt;stroke-linejoin:miter;stroke-miterlimit:10;stroke-dasharray:none;stroke-opacity:1" id="path70519" d="M 229.621,78.66 246.789,61.488"/><path style="fill:none;stroke:red;stroke-width:2.27999997;stroke-linecap:butt;stroke-linejoin:miter;stroke-miterlimit:10;stroke-dasharray:none;stroke-opacity:1" id="path70521" d="M 229.621,61.488 246.789,78.66"/><path style="fill:none;stroke:#000;stroke-width:.47999999;stroke-linecap:butt;stroke-linejoin:miter;stroke-miterlimit:10;stroke-dasharray:1.92,1.44;stroke-dashoffset:0;stroke-opacity:1" id="path70523" d="m 409.68,119.871 23.211,4.207"/><path style="fill:#fff;fill-opacity:1;fill-rule:evenodd;stroke:#000;stroke-width:.95999998;stroke-linecap:butt;stroke-linejoin:miter;stroke-miterlimit:10;stroke-dasharray:none;stroke-opacity:1" id="path70525" d="m 508.559,156.36 h 156 V 0.481 h -156 z"/><path style="fill:#a6a6a6;fill-opacity:1;fill-rule:evenodd;stroke:#000;stroke-width:.95999998;stroke-linecap:butt;stroke-linejoin:miter;stroke-miterlimit:10;stroke-dasharray:none;stroke-opacity:1" id="path70527" d="m 587.07,119.781 c 7.692,1.668 20.059,-17.492 31.102,-17.57 11.027,-0.082 31.34,19.988 35.098,17.059 3.761,-2.918 -11.032,-22 -12.54,-34.629 -1.5,-12.629 8.782,-37.641 3.508,-41.153 -5.258,-3.519 -20.718,16.891 -35.097,20.071 -14.379,3.179 -44.969,-5.77 -51.153,-1 -6.187,4.769 9.442,20.07 14.043,29.609 4.598,9.543 7.348,25.934 15.039,27.613 z"/><path style="fill:none;stroke:#0070c0;stroke-width:2.27999997;stroke-linecap:butt;stroke-linejoin:miter;stroke-miterlimit:10;stroke-dasharray:none;stroke-opacity:1" id="path70529" d="m 605.691,121.66 -5.671,3.2 -19.579,-5.129 -35.461,-51.5 1.989,-8.403 68.929,-13.09"/><path style="fill:#70ad47;fill-opacity:1;fill-rule:evenodd;stroke:#000;stroke-width:.95999998;stroke-linecap:butt;stroke-linejoin:miter;stroke-miterlimit:10;stroke-dasharray:none;stroke-opacity:1" id="path70531" d="m 268.801,119.699 c 0,2.219 1.801,4.02 4.019,4.02 2.219,0 4.02,-1.801 4.02,-4.02 0,-2.218 -1.801,-4.019 -4.02,-4.019 -2.218,0 -4.019,1.801 -4.019,4.019 z"/><path style="fill:#70ad47;fill-opacity:1;fill-rule:evenodd;stroke:#000;stroke-width:.95999998;stroke-linecap:butt;stroke-linejoin:miter;stroke-miterlimit:10;stroke-dasharray:none;stroke-opacity:1" id="path70533" d="m 435.961,119.699 c 0,2.219 1.801,4.02 4.019,4.02 2.219,0 4.02,-1.801 4.02,-4.02 0,-2.218 -1.801,-4.019 -4.02,-4.019 -2.218,0 -4.019,1.801 -4.019,4.019 z"/><path style="fill:#70ad47;fill-opacity:1;fill-rule:evenodd;stroke:#000;stroke-width:.95999998;stroke-linecap:butt;stroke-linejoin:miter;stroke-miterlimit:10;stroke-dasharray:none;stroke-opacity:1" id="path70535" d="m 605.16,119.699 c 0,2.219 1.77,4.02 3.961,4.02 2.188,0 3.957,-1.801 3.957,-4.02 0,-2.218 -1.769,-4.019 -3.957,-4.019 -2.191,0 -3.961,1.801 -3.961,4.019 z"/><path style="fill:#ed7d31;fill-opacity:1;fill-rule:evenodd;stroke:#000;stroke-width:.95999998;stroke-linecap:butt;stroke-linejoin:miter;stroke-miterlimit:10;stroke-dasharray:none;stroke-opacity:1" id="path70537" d="m 276.84,47.34 c 0,2.219 1.769,4.02 3.961,4.02 2.187,0 3.961,-1.801 3.961,-4.02 0,-2.219 -1.774,-4.02 -3.961,-4.02 -2.192,0 -3.961,1.801 -3.961,4.02 z"/><path style="fill:#ed7d31;fill-opacity:1;fill-rule:evenodd;stroke:#000;stroke-width:.95999998;stroke-linecap:butt;stroke-linejoin:miter;stroke-miterlimit:10;stroke-dasharray:none;stroke-opacity:1" id="path70539" d="m 444,47.34 c 0,2.219 1.801,4.02 4.02,4.02 2.218,0 4.019,-1.801 4.019,-4.02 0,-2.219 -1.801,-4.02 -4.019,-4.02 -2.219,0 -4.02,1.801 -4.02,4.02 z"/><path style="fill:#ed7d31;fill-opacity:1;fill-rule:evenodd;stroke:#000;stroke-width:.95999998;stroke-linecap:butt;stroke-linejoin:miter;stroke-miterlimit:10;stroke-dasharray:none;stroke-opacity:1" id="path70541" d="m 613.078,47.34 c 0,2.219 1.801,4.02 4.024,4.02 2.218,0 4.019,-1.801 4.019,-4.02 0,-2.219 -1.801,-4.02 -4.019,-4.02 -2.223,0 -4.024,1.801 -4.024,4.02 z"/><path style="fill:#70ad47;fill-opacity:1;fill-rule:evenodd;stroke:#000;stroke-width:.95999998;stroke-linecap:butt;stroke-linejoin:miter;stroke-miterlimit:10;stroke-dasharray:none;stroke-opacity:1" id="path70543" d="m 97.078,119.699 c 0,2.219 1.774,4.02 3.961,4.02 2.191,0 3.961,-1.801 3.961,-4.02 0,-2.218 -1.77,-4.019 -3.961,-4.019 -2.187,0 -3.961,1.801 -3.961,4.019 z"/><path style="fill:#ed7d31;fill-opacity:1;fill-rule:evenodd;stroke:#000;stroke-width:.95999998;stroke-linecap:butt;stroke-linejoin:miter;stroke-miterlimit:10;stroke-dasharray:none;stroke-opacity:1" id="path70545" d="m 105,47.34 c 0,2.219 1.801,4.02 4.02,4.02 2.218,0 4.019,-1.801 4.019,-4.02 0,-2.219 -1.801,-4.02 -4.019,-4.02 -2.219,0 -4.02,1.801 -4.02,4.02 z"/></g></g></svg>